<?xml version="1.0" encoding="utf-8" standalone="no"?>
<!DOCTYPE svg PUBLIC "-//W3C//DTD SVG 1.1//EN"
  "http://www.w3.org/Graphics/SVG/1.1/DTD/svg11.dtd">
<!-- Created with matplotlib (https://matplotlib.org/) -->
<svg height="432pt" version="1.1" viewBox="0 0 438.48 432" width="438.48pt" xmlns="http://www.w3.org/2000/svg" xmlns:xlink="http://www.w3.org/1999/xlink">
 <defs>
  <style type="text/css">
*{stroke-linecap:butt;stroke-linejoin:round;}
  </style>
 </defs>
 <g id="figure_1">
  <g id="patch_1">
   <path d="M 0 432 
L 438.48 432 
L 438.48 0 
L 0 0 
z
" style="fill:#ffffff;"/>
  </g>
  <g id="axes_1">
   <g id="patch_2">
    <path d="M 81.577674 374.4 
L 397.691163 374.4 
L 397.691163 57.6 
L 81.577674 57.6 
z
" style="fill:#ffffff;"/>
   </g>
   <g id="matplotlib.axis_1">
    <g id="xtick_1">
     <g id="line2d_1">
      <path clip-path="url(#pae95d6e19f)" d="M 81.577674 374.4 
L 81.577674 57.6 
" style="fill:none;stroke:#000000;stroke-linecap:square;stroke-width:0.8;"/>
     </g>
     <g id="line2d_2">
      <defs>
       <path d="M 0 0 
L 0 3.5 
" id="m15a281bb3f" style="stroke:#000000;stroke-width:0.8;"/>
      </defs>
      <g>
       <use style="stroke:#000000;stroke-width:0.8;" x="81.577674" xlink:href="#m15a281bb3f" y="374.4"/>
      </g>
     </g>
     <g id="text_1">
      <!-- 0 -->
      <defs>
       <path d="M 31.78125 66.40625 
Q 24.171875 66.40625 20.328125 58.90625 
Q 16.5 51.421875 16.5 36.375 
Q 16.5 21.390625 20.328125 13.890625 
Q 24.171875 6.390625 31.78125 6.390625 
Q 39.453125 6.390625 43.28125 13.890625 
Q 47.125 21.390625 47.125 36.375 
Q 47.125 51.421875 43.28125 58.90625 
Q 39.453125 66.40625 31.78125 66.40625 
z
M 31.78125 74.21875 
Q 44.046875 74.21875 50.515625 64.515625 
Q 56.984375 54.828125 56.984375 36.375 
Q 56.984375 17.96875 50.515625 8.265625 
Q 44.046875 -1.421875 31.78125 -1.421875 
Q 19.53125 -1.421875 13.0625 8.265625 
Q 6.59375 17.96875 6.59375 36.375 
Q 6.59375 54.828125 13.0625 64.515625 
Q 19.53125 74.21875 31.78125 74.21875 
z
" id="DejaVuSans-48"/>
      </defs>
      <g transform="translate(78.396424 388.998438)scale(0.1 -0.1)">
       <use xlink:href="#DejaVuSans-48"/>
      </g>
     </g>
    </g>
    <g id="xtick_2">
     <g id="line2d_3">
      <path clip-path="url(#pae95d6e19f)" d="M 126.736744 374.4 
L 126.736744 57.6 
" style="fill:none;stroke:#000000;stroke-linecap:square;stroke-width:0.8;"/>
     </g>
     <g id="line2d_4">
      <g>
       <use style="stroke:#000000;stroke-width:0.8;" x="126.736744" xlink:href="#m15a281bb3f" y="374.4"/>
      </g>
     </g>
     <g id="text_2">
      <!-- 1 -->
      <defs>
       <path d="M 12.40625 8.296875 
L 28.515625 8.296875 
L 28.515625 63.921875 
L 10.984375 60.40625 
L 10.984375 69.390625 
L 28.421875 72.90625 
L 38.28125 72.90625 
L 38.28125 8.296875 
L 54.390625 8.296875 
L 54.390625 0 
L 12.40625 0 
z
" id="DejaVuSans-49"/>
      </defs>
      <g transform="translate(123.555494 388.998438)scale(0.1 -0.1)">
       <use xlink:href="#DejaVuSans-49"/>
      </g>
     </g>
    </g>
    <g id="xtick_3">
     <g id="line2d_5">
      <path clip-path="url(#pae95d6e19f)" d="M 171.895814 374.4 
L 171.895814 57.6 
" style="fill:none;stroke:#000000;stroke-linecap:square;stroke-width:0.8;"/>
     </g>
     <g id="line2d_6">
      <g>
       <use style="stroke:#000000;stroke-width:0.8;" x="171.895814" xlink:href="#m15a281bb3f" y="374.4"/>
      </g>
     </g>
     <g id="text_3">
      <!-- 2 -->
      <defs>
       <path d="M 19.1875 8.296875 
L 53.609375 8.296875 
L 53.609375 0 
L 7.328125 0 
L 7.328125 8.296875 
Q 12.9375 14.109375 22.625 23.890625 
Q 32.328125 33.6875 34.8125 36.53125 
Q 39.546875 41.84375 41.421875 45.53125 
Q 43.3125 49.21875 43.3125 52.78125 
Q 43.3125 58.59375 39.234375 62.25 
Q 35.15625 65.921875 28.609375 65.921875 
Q 23.96875 65.921875 18.8125 64.3125 
Q 13.671875 62.703125 7.8125 59.421875 
L 7.8125 69.390625 
Q 13.765625 71.78125 18.9375 73 
Q 24.125 74.21875 28.421875 74.21875 
Q 39.75 74.21875 46.484375 68.546875 
Q 53.21875 62.890625 53.21875 53.421875 
Q 53.21875 48.921875 51.53125 44.890625 
Q 49.859375 40.875 45.40625 35.40625 
Q 44.1875 33.984375 37.640625 27.21875 
Q 31.109375 20.453125 19.1875 8.296875 
z
" id="DejaVuSans-50"/>
      </defs>
      <g transform="translate(168.714564 388.998438)scale(0.1 -0.1)">
       <use xlink:href="#DejaVuSans-50"/>
      </g>
     </g>
    </g>
    <g id="xtick_4">
     <g id="line2d_7">
      <path clip-path="url(#pae95d6e19f)" d="M 217.054884 374.4 
L 217.054884 57.6 
" style="fill:none;stroke:#000000;stroke-linecap:square;stroke-width:0.8;"/>
     </g>
     <g id="line2d_8">
      <g>
       <use style="stroke:#000000;stroke-width:0.8;" x="217.054884" xlink:href="#m15a281bb3f" y="374.4"/>
      </g>
     </g>
     <g id="text_4">
      <!-- 3 -->
      <defs>
       <path d="M 40.578125 39.3125 
Q 47.65625 37.796875 51.625 33 
Q 55.609375 28.21875 55.609375 21.1875 
Q 55.609375 10.40625 48.1875 4.484375 
Q 40.765625 -1.421875 27.09375 -1.421875 
Q 22.515625 -1.421875 17.65625 -0.515625 
Q 12.796875 0.390625 7.625 2.203125 
L 7.625 11.71875 
Q 11.71875 9.328125 16.59375 8.109375 
Q 21.484375 6.890625 26.8125 6.890625 
Q 36.078125 6.890625 40.9375 10.546875 
Q 45.796875 14.203125 45.796875 21.1875 
Q 45.796875 27.640625 41.28125 31.265625 
Q 36.765625 34.90625 28.71875 34.90625 
L 20.21875 34.90625 
L 20.21875 43.015625 
L 29.109375 43.015625 
Q 36.375 43.015625 40.234375 45.921875 
Q 44.09375 48.828125 44.09375 54.296875 
Q 44.09375 59.90625 40.109375 62.90625 
Q 36.140625 65.921875 28.71875 65.921875 
Q 24.65625 65.921875 20.015625 65.03125 
Q 15.375 64.15625 9.8125 62.3125 
L 9.8125 71.09375 
Q 15.4375 72.65625 20.34375 73.4375 
Q 25.25 74.21875 29.59375 74.21875 
Q 40.828125 74.21875 47.359375 69.109375 
Q 53.90625 64.015625 53.90625 55.328125 
Q 53.90625 49.265625 50.4375 45.09375 
Q 46.96875 40.921875 40.578125 39.3125 
z
" id="DejaVuSans-51"/>
      </defs>
      <g transform="translate(213.873634 388.998438)scale(0.1 -0.1)">
       <use xlink:href="#DejaVuSans-51"/>
      </g>
     </g>
    </g>
    <g id="xtick_5">
     <g id="line2d_9">
      <path clip-path="url(#pae95d6e19f)" d="M 262.213953 374.4 
L 262.213953 57.6 
" style="fill:none;stroke:#000000;stroke-linecap:square;stroke-width:0.8;"/>
     </g>
     <g id="line2d_10">
      <g>
       <use style="stroke:#000000;stroke-width:0.8;" x="262.213953" xlink:href="#m15a281bb3f" y="374.4"/>
      </g>
     </g>
     <g id="text_5">
      <!-- 4 -->
      <defs>
       <path d="M 37.796875 64.3125 
L 12.890625 25.390625 
L 37.796875 25.390625 
z
M 35.203125 72.90625 
L 47.609375 72.90625 
L 47.609375 25.390625 
L 58.015625 25.390625 
L 58.015625 17.1875 
L 47.609375 17.1875 
L 47.609375 0 
L 37.796875 0 
L 37.796875 17.1875 
L 4.890625 17.1875 
L 4.890625 26.703125 
z
" id="DejaVuSans-52"/>
      </defs>
      <g transform="translate(259.032703 388.998438)scale(0.1 -0.1)">
       <use xlink:href="#DejaVuSans-52"/>
      </g>
     </g>
    </g>
    <g id="xtick_6">
     <g id="line2d_11">
      <path clip-path="url(#pae95d6e19f)" d="M 307.373023 374.4 
L 307.373023 57.6 
" style="fill:none;stroke:#000000;stroke-linecap:square;stroke-width:0.8;"/>
     </g>
     <g id="line2d_12">
      <g>
       <use style="stroke:#000000;stroke-width:0.8;" x="307.373023" xlink:href="#m15a281bb3f" y="374.4"/>
      </g>
     </g>
     <g id="text_6">
      <!-- 5 -->
      <defs>
       <path d="M 10.796875 72.90625 
L 49.515625 72.90625 
L 49.515625 64.59375 
L 19.828125 64.59375 
L 19.828125 46.734375 
Q 21.96875 47.46875 24.109375 47.828125 
Q 26.265625 48.1875 28.421875 48.1875 
Q 40.625 48.1875 47.75 41.5 
Q 54.890625 34.8125 54.890625 23.390625 
Q 54.890625 11.625 47.5625 5.09375 
Q 40.234375 -1.421875 26.90625 -1.421875 
Q 22.3125 -1.421875 17.546875 -0.640625 
Q 12.796875 0.140625 7.71875 1.703125 
L 7.71875 11.625 
Q 12.109375 9.234375 16.796875 8.0625 
Q 21.484375 6.890625 26.703125 6.890625 
Q 35.15625 6.890625 40.078125 11.328125 
Q 45.015625 15.765625 45.015625 23.390625 
Q 45.015625 31 40.078125 35.4375 
Q 35.15625 39.890625 26.703125 39.890625 
Q 22.75 39.890625 18.8125 39.015625 
Q 14.890625 38.140625 10.796875 36.28125 
z
" id="DejaVuSans-53"/>
      </defs>
      <g transform="translate(304.191773 388.998438)scale(0.1 -0.1)">
       <use xlink:href="#DejaVuSans-53"/>
      </g>
     </g>
    </g>
    <g id="xtick_7">
     <g id="line2d_13">
      <path clip-path="url(#pae95d6e19f)" d="M 352.532093 374.4 
L 352.532093 57.6 
" style="fill:none;stroke:#000000;stroke-linecap:square;stroke-width:0.8;"/>
     </g>
     <g id="line2d_14">
      <g>
       <use style="stroke:#000000;stroke-width:0.8;" x="352.532093" xlink:href="#m15a281bb3f" y="374.4"/>
      </g>
     </g>
     <g id="text_7">
      <!-- 6 -->
      <defs>
       <path d="M 33.015625 40.375 
Q 26.375 40.375 22.484375 35.828125 
Q 18.609375 31.296875 18.609375 23.390625 
Q 18.609375 15.53125 22.484375 10.953125 
Q 26.375 6.390625 33.015625 6.390625 
Q 39.65625 6.390625 43.53125 10.953125 
Q 47.40625 15.53125 47.40625 23.390625 
Q 47.40625 31.296875 43.53125 35.828125 
Q 39.65625 40.375 33.015625 40.375 
z
M 52.59375 71.296875 
L 52.59375 62.3125 
Q 48.875 64.0625 45.09375 64.984375 
Q 41.3125 65.921875 37.59375 65.921875 
Q 27.828125 65.921875 22.671875 59.328125 
Q 17.53125 52.734375 16.796875 39.40625 
Q 19.671875 43.65625 24.015625 45.921875 
Q 28.375 48.1875 33.59375 48.1875 
Q 44.578125 48.1875 50.953125 41.515625 
Q 57.328125 34.859375 57.328125 23.390625 
Q 57.328125 12.15625 50.6875 5.359375 
Q 44.046875 -1.421875 33.015625 -1.421875 
Q 20.359375 -1.421875 13.671875 8.265625 
Q 6.984375 17.96875 6.984375 36.375 
Q 6.984375 53.65625 15.1875 63.9375 
Q 23.390625 74.21875 37.203125 74.21875 
Q 40.921875 74.21875 44.703125 73.484375 
Q 48.484375 72.75 52.59375 71.296875 
z
" id="DejaVuSans-54"/>
      </defs>
      <g transform="translate(349.350843 388.998438)scale(0.1 -0.1)">
       <use xlink:href="#DejaVuSans-54"/>
      </g>
     </g>
    </g>
    <g id="xtick_8">
     <g id="line2d_15">
      <path clip-path="url(#pae95d6e19f)" d="M 397.691163 374.4 
L 397.691163 57.6 
" style="fill:none;stroke:#000000;stroke-linecap:square;stroke-width:0.8;"/>
     </g>
     <g id="line2d_16">
      <g>
       <use style="stroke:#000000;stroke-width:0.8;" x="397.691163" xlink:href="#m15a281bb3f" y="374.4"/>
      </g>
     </g>
     <g id="text_8">
      <!-- 7 -->
      <defs>
       <path d="M 8.203125 72.90625 
L 55.078125 72.90625 
L 55.078125 68.703125 
L 28.609375 0 
L 18.3125 0 
L 43.21875 64.59375 
L 8.203125 64.59375 
z
" id="DejaVuSans-55"/>
      </defs>
      <g transform="translate(394.509913 388.998438)scale(0.1 -0.1)">
       <use xlink:href="#DejaVuSans-55"/>
      </g>
     </g>
    </g>
    <g id="text_9">
     <!-- Omeg -->
     <defs>
      <path d="M 39.40625 66.21875 
Q 28.65625 66.21875 22.328125 58.203125 
Q 16.015625 50.203125 16.015625 36.375 
Q 16.015625 22.609375 22.328125 14.59375 
Q 28.65625 6.59375 39.40625 6.59375 
Q 50.140625 6.59375 56.421875 14.59375 
Q 62.703125 22.609375 62.703125 36.375 
Q 62.703125 50.203125 56.421875 58.203125 
Q 50.140625 66.21875 39.40625 66.21875 
z
M 39.40625 74.21875 
Q 54.734375 74.21875 63.90625 63.9375 
Q 73.09375 53.65625 73.09375 36.375 
Q 73.09375 19.140625 63.90625 8.859375 
Q 54.734375 -1.421875 39.40625 -1.421875 
Q 24.03125 -1.421875 14.8125 8.828125 
Q 5.609375 19.09375 5.609375 36.375 
Q 5.609375 53.65625 14.8125 63.9375 
Q 24.03125 74.21875 39.40625 74.21875 
z
" id="DejaVuSans-79"/>
      <path d="M 52 44.1875 
Q 55.375 50.25 60.0625 53.125 
Q 64.75 56 71.09375 56 
Q 79.640625 56 84.28125 50.015625 
Q 88.921875 44.046875 88.921875 33.015625 
L 88.921875 0 
L 79.890625 0 
L 79.890625 32.71875 
Q 79.890625 40.578125 77.09375 44.375 
Q 74.3125 48.1875 68.609375 48.1875 
Q 61.625 48.1875 57.5625 43.546875 
Q 53.515625 38.921875 53.515625 30.90625 
L 53.515625 0 
L 44.484375 0 
L 44.484375 32.71875 
Q 44.484375 40.625 41.703125 44.40625 
Q 38.921875 48.1875 33.109375 48.1875 
Q 26.21875 48.1875 22.15625 43.53125 
Q 18.109375 38.875 18.109375 30.90625 
L 18.109375 0 
L 9.078125 0 
L 9.078125 54.6875 
L 18.109375 54.6875 
L 18.109375 46.1875 
Q 21.1875 51.21875 25.484375 53.609375 
Q 29.78125 56 35.6875 56 
Q 41.65625 56 45.828125 52.96875 
Q 50 49.953125 52 44.1875 
z
" id="DejaVuSans-109"/>
      <path d="M 56.203125 29.59375 
L 56.203125 25.203125 
L 14.890625 25.203125 
Q 15.484375 15.921875 20.484375 11.0625 
Q 25.484375 6.203125 34.421875 6.203125 
Q 39.59375 6.203125 44.453125 7.46875 
Q 49.3125 8.734375 54.109375 11.28125 
L 54.109375 2.78125 
Q 49.265625 0.734375 44.1875 -0.34375 
Q 39.109375 -1.421875 33.890625 -1.421875 
Q 20.796875 -1.421875 13.15625 6.1875 
Q 5.515625 13.8125 5.515625 26.8125 
Q 5.515625 40.234375 12.765625 48.109375 
Q 20.015625 56 32.328125 56 
Q 43.359375 56 49.78125 48.890625 
Q 56.203125 41.796875 56.203125 29.59375 
z
M 47.21875 32.234375 
Q 47.125 39.59375 43.09375 43.984375 
Q 39.0625 48.390625 32.421875 48.390625 
Q 24.90625 48.390625 20.390625 44.140625 
Q 15.875 39.890625 15.1875 32.171875 
z
" id="DejaVuSans-101"/>
      <path d="M 45.40625 27.984375 
Q 45.40625 37.75 41.375 43.109375 
Q 37.359375 48.484375 30.078125 48.484375 
Q 22.859375 48.484375 18.828125 43.109375 
Q 14.796875 37.75 14.796875 27.984375 
Q 14.796875 18.265625 18.828125 12.890625 
Q 22.859375 7.515625 30.078125 7.515625 
Q 37.359375 7.515625 41.375 12.890625 
Q 45.40625 18.265625 45.40625 27.984375 
z
M 54.390625 6.78125 
Q 54.390625 -7.171875 48.1875 -13.984375 
Q 42 -20.796875 29.203125 -20.796875 
Q 24.46875 -20.796875 20.265625 -20.09375 
Q 16.0625 -19.390625 12.109375 -17.921875 
L 12.109375 -9.1875 
Q 16.0625 -11.328125 19.921875 -12.34375 
Q 23.78125 -13.375 27.78125 -13.375 
Q 36.625 -13.375 41.015625 -8.765625 
Q 45.40625 -4.15625 45.40625 5.171875 
L 45.40625 9.625 
Q 42.625 4.78125 38.28125 2.390625 
Q 33.9375 0 27.875 0 
Q 17.828125 0 11.671875 7.65625 
Q 5.515625 15.328125 5.515625 27.984375 
Q 5.515625 40.671875 11.671875 48.328125 
Q 17.828125 56 27.875 56 
Q 33.9375 56 38.28125 53.609375 
Q 42.625 51.21875 45.40625 46.390625 
L 45.40625 54.6875 
L 54.390625 54.6875 
z
" id="DejaVuSans-103"/>
     </defs>
     <g transform="translate(224.577387 402.676563)scale(0.1 -0.1)">
      <use xlink:href="#DejaVuSans-79"/>
      <use x="78.710938" xlink:href="#DejaVuSans-109"/>
      <use x="176.123047" xlink:href="#DejaVuSans-101"/>
      <use x="237.646484" xlink:href="#DejaVuSans-103"/>
     </g>
    </g>
   </g>
   <g id="matplotlib.axis_2">
    <g id="ytick_1">
     <g id="line2d_17">
      <path clip-path="url(#pae95d6e19f)" d="M 81.577674 374.4 
L 397.691163 374.4 
" style="fill:none;stroke:#000000;stroke-linecap:square;stroke-width:0.8;"/>
     </g>
     <g id="line2d_18">
      <defs>
       <path d="M 0 0 
L -3.5 0 
" id="me8386b047e" style="stroke:#000000;stroke-width:0.8;"/>
      </defs>
      <g>
       <use style="stroke:#000000;stroke-width:0.8;" x="81.577674" xlink:href="#me8386b047e" y="374.4"/>
      </g>
     </g>
     <g id="text_10">
      <!-- 0 -->
      <g transform="translate(68.215174 378.199219)scale(0.1 -0.1)">
       <use xlink:href="#DejaVuSans-48"/>
      </g>
     </g>
    </g>
    <g id="ytick_2">
     <g id="line2d_19">
      <path clip-path="url(#pae95d6e19f)" d="M 81.577674 339.2 
L 397.691163 339.2 
" style="fill:none;stroke:#000000;stroke-linecap:square;stroke-width:0.8;"/>
     </g>
     <g id="line2d_20">
      <g>
       <use style="stroke:#000000;stroke-width:0.8;" x="81.577674" xlink:href="#me8386b047e" y="339.2"/>
      </g>
     </g>
     <g id="text_11">
      <!-- 1 -->
      <g transform="translate(68.215174 342.999219)scale(0.1 -0.1)">
       <use xlink:href="#DejaVuSans-49"/>
      </g>
     </g>
    </g>
    <g id="ytick_3">
     <g id="line2d_21">
      <path clip-path="url(#pae95d6e19f)" d="M 81.577674 304 
L 397.691163 304 
" style="fill:none;stroke:#000000;stroke-linecap:square;stroke-width:0.8;"/>
     </g>
     <g id="line2d_22">
      <g>
       <use style="stroke:#000000;stroke-width:0.8;" x="81.577674" xlink:href="#me8386b047e" y="304"/>
      </g>
     </g>
     <g id="text_12">
      <!-- 2 -->
      <g transform="translate(68.215174 307.799219)scale(0.1 -0.1)">
       <use xlink:href="#DejaVuSans-50"/>
      </g>
     </g>
    </g>
    <g id="ytick_4">
     <g id="line2d_23">
      <path clip-path="url(#pae95d6e19f)" d="M 81.577674 268.8 
L 397.691163 268.8 
" style="fill:none;stroke:#000000;stroke-linecap:square;stroke-width:0.8;"/>
     </g>
     <g id="line2d_24">
      <g>
       <use style="stroke:#000000;stroke-width:0.8;" x="81.577674" xlink:href="#me8386b047e" y="268.8"/>
      </g>
     </g>
     <g id="text_13">
      <!-- 3 -->
      <g transform="translate(68.215174 272.599219)scale(0.1 -0.1)">
       <use xlink:href="#DejaVuSans-51"/>
      </g>
     </g>
    </g>
    <g id="ytick_5">
     <g id="line2d_25">
      <path clip-path="url(#pae95d6e19f)" d="M 81.577674 233.6 
L 397.691163 233.6 
" style="fill:none;stroke:#000000;stroke-linecap:square;stroke-width:0.8;"/>
     </g>
     <g id="line2d_26">
      <g>
       <use style="stroke:#000000;stroke-width:0.8;" x="81.577674" xlink:href="#me8386b047e" y="233.6"/>
      </g>
     </g>
     <g id="text_14">
      <!-- 4 -->
      <g transform="translate(68.215174 237.399219)scale(0.1 -0.1)">
       <use xlink:href="#DejaVuSans-52"/>
      </g>
     </g>
    </g>
    <g id="ytick_6">
     <g id="line2d_27">
      <path clip-path="url(#pae95d6e19f)" d="M 81.577674 198.4 
L 397.691163 198.4 
" style="fill:none;stroke:#000000;stroke-linecap:square;stroke-width:0.8;"/>
     </g>
     <g id="line2d_28">
      <g>
       <use style="stroke:#000000;stroke-width:0.8;" x="81.577674" xlink:href="#me8386b047e" y="198.4"/>
      </g>
     </g>
     <g id="text_15">
      <!-- 5 -->
      <g transform="translate(68.215174 202.199219)scale(0.1 -0.1)">
       <use xlink:href="#DejaVuSans-53"/>
      </g>
     </g>
    </g>
    <g id="ytick_7">
     <g id="line2d_29">
      <path clip-path="url(#pae95d6e19f)" d="M 81.577674 163.2 
L 397.691163 163.2 
" style="fill:none;stroke:#000000;stroke-linecap:square;stroke-width:0.8;"/>
     </g>
     <g id="line2d_30">
      <g>
       <use style="stroke:#000000;stroke-width:0.8;" x="81.577674" xlink:href="#me8386b047e" y="163.2"/>
      </g>
     </g>
     <g id="text_16">
      <!-- 6 -->
      <g transform="translate(68.215174 166.999219)scale(0.1 -0.1)">
       <use xlink:href="#DejaVuSans-54"/>
      </g>
     </g>
    </g>
    <g id="ytick_8">
     <g id="line2d_31">
      <path clip-path="url(#pae95d6e19f)" d="M 81.577674 128 
L 397.691163 128 
" style="fill:none;stroke:#000000;stroke-linecap:square;stroke-width:0.8;"/>
     </g>
     <g id="line2d_32">
      <g>
       <use style="stroke:#000000;stroke-width:0.8;" x="81.577674" xlink:href="#me8386b047e" y="128"/>
      </g>
     </g>
     <g id="text_17">
      <!-- 7 -->
      <g transform="translate(68.215174 131.799219)scale(0.1 -0.1)">
       <use xlink:href="#DejaVuSans-55"/>
      </g>
     </g>
    </g>
    <g id="ytick_9">
     <g id="line2d_33">
      <path clip-path="url(#pae95d6e19f)" d="M 81.577674 92.8 
L 397.691163 92.8 
" style="fill:none;stroke:#000000;stroke-linecap:square;stroke-width:0.8;"/>
     </g>
     <g id="line2d_34">
      <g>
       <use style="stroke:#000000;stroke-width:0.8;" x="81.577674" xlink:href="#me8386b047e" y="92.8"/>
      </g>
     </g>
     <g id="text_18">
      <!-- 8 -->
      <defs>
       <path d="M 31.78125 34.625 
Q 24.75 34.625 20.71875 30.859375 
Q 16.703125 27.09375 16.703125 20.515625 
Q 16.703125 13.921875 20.71875 10.15625 
Q 24.75 6.390625 31.78125 6.390625 
Q 38.8125 6.390625 42.859375 10.171875 
Q 46.921875 13.96875 46.921875 20.515625 
Q 46.921875 27.09375 42.890625 30.859375 
Q 38.875 34.625 31.78125 34.625 
z
M 21.921875 38.8125 
Q 15.578125 40.375 12.03125 44.71875 
Q 8.5 49.078125 8.5 55.328125 
Q 8.5 64.0625 14.71875 69.140625 
Q 20.953125 74.21875 31.78125 74.21875 
Q 42.671875 74.21875 48.875 69.140625 
Q 55.078125 64.0625 55.078125 55.328125 
Q 55.078125 49.078125 51.53125 44.71875 
Q 48 40.375 41.703125 38.8125 
Q 48.828125 37.15625 52.796875 32.3125 
Q 56.78125 27.484375 56.78125 20.515625 
Q 56.78125 9.90625 50.3125 4.234375 
Q 43.84375 -1.421875 31.78125 -1.421875 
Q 19.734375 -1.421875 13.25 4.234375 
Q 6.78125 9.90625 6.78125 20.515625 
Q 6.78125 27.484375 10.78125 32.3125 
Q 14.796875 37.15625 21.921875 38.8125 
z
M 18.3125 54.390625 
Q 18.3125 48.734375 21.84375 45.5625 
Q 25.390625 42.390625 31.78125 42.390625 
Q 38.140625 42.390625 41.71875 45.5625 
Q 45.3125 48.734375 45.3125 54.390625 
Q 45.3125 60.0625 41.71875 63.234375 
Q 38.140625 66.40625 31.78125 66.40625 
Q 25.390625 66.40625 21.84375 63.234375 
Q 18.3125 60.0625 18.3125 54.390625 
z
" id="DejaVuSans-56"/>
      </defs>
      <g transform="translate(68.215174 96.599219)scale(0.1 -0.1)">
       <use xlink:href="#DejaVuSans-56"/>
      </g>
     </g>
    </g>
    <g id="ytick_10">
     <g id="line2d_35">
      <path clip-path="url(#pae95d6e19f)" d="M 81.577674 57.6 
L 397.691163 57.6 
" style="fill:none;stroke:#000000;stroke-linecap:square;stroke-width:0.8;"/>
     </g>
     <g id="line2d_36">
      <g>
       <use style="stroke:#000000;stroke-width:0.8;" x="81.577674" xlink:href="#me8386b047e" y="57.6"/>
      </g>
     </g>
     <g id="text_19">
      <!-- 9 -->
      <defs>
       <path d="M 10.984375 1.515625 
L 10.984375 10.5 
Q 14.703125 8.734375 18.5 7.8125 
Q 22.3125 6.890625 25.984375 6.890625 
Q 35.75 6.890625 40.890625 13.453125 
Q 46.046875 20.015625 46.78125 33.40625 
Q 43.953125 29.203125 39.59375 26.953125 
Q 35.25 24.703125 29.984375 24.703125 
Q 19.046875 24.703125 12.671875 31.3125 
Q 6.296875 37.9375 6.296875 49.421875 
Q 6.296875 60.640625 12.9375 67.421875 
Q 19.578125 74.21875 30.609375 74.21875 
Q 43.265625 74.21875 49.921875 64.515625 
Q 56.59375 54.828125 56.59375 36.375 
Q 56.59375 19.140625 48.40625 8.859375 
Q 40.234375 -1.421875 26.421875 -1.421875 
Q 22.703125 -1.421875 18.890625 -0.6875 
Q 15.09375 0.046875 10.984375 1.515625 
z
M 30.609375 32.421875 
Q 37.25 32.421875 41.125 36.953125 
Q 45.015625 41.5 45.015625 49.421875 
Q 45.015625 57.28125 41.125 61.84375 
Q 37.25 66.40625 30.609375 66.40625 
Q 23.96875 66.40625 20.09375 61.84375 
Q 16.21875 57.28125 16.21875 49.421875 
Q 16.21875 41.5 20.09375 36.953125 
Q 23.96875 32.421875 30.609375 32.421875 
z
" id="DejaVuSans-57"/>
      </defs>
      <g transform="translate(68.215174 61.399219)scale(0.1 -0.1)">
       <use xlink:href="#DejaVuSans-57"/>
      </g>
     </g>
    </g>
    <g id="text_20">
     <!-- Amplitude -->
     <defs>
      <path d="M 34.1875 63.1875 
L 20.796875 26.90625 
L 47.609375 26.90625 
z
M 28.609375 72.90625 
L 39.796875 72.90625 
L 67.578125 0 
L 57.328125 0 
L 50.6875 18.703125 
L 17.828125 18.703125 
L 11.1875 0 
L 0.78125 0 
z
" id="DejaVuSans-65"/>
      <path d="M 18.109375 8.203125 
L 18.109375 -20.796875 
L 9.078125 -20.796875 
L 9.078125 54.6875 
L 18.109375 54.6875 
L 18.109375 46.390625 
Q 20.953125 51.265625 25.265625 53.625 
Q 29.59375 56 35.59375 56 
Q 45.5625 56 51.78125 48.09375 
Q 58.015625 40.1875 58.015625 27.296875 
Q 58.015625 14.40625 51.78125 6.484375 
Q 45.5625 -1.421875 35.59375 -1.421875 
Q 29.59375 -1.421875 25.265625 0.953125 
Q 20.953125 3.328125 18.109375 8.203125 
z
M 48.6875 27.296875 
Q 48.6875 37.203125 44.609375 42.84375 
Q 40.53125 48.484375 33.40625 48.484375 
Q 26.265625 48.484375 22.1875 42.84375 
Q 18.109375 37.203125 18.109375 27.296875 
Q 18.109375 17.390625 22.1875 11.75 
Q 26.265625 6.109375 33.40625 6.109375 
Q 40.53125 6.109375 44.609375 11.75 
Q 48.6875 17.390625 48.6875 27.296875 
z
" id="DejaVuSans-112"/>
      <path d="M 9.421875 75.984375 
L 18.40625 75.984375 
L 18.40625 0 
L 9.421875 0 
z
" id="DejaVuSans-108"/>
      <path d="M 9.421875 54.6875 
L 18.40625 54.6875 
L 18.40625 0 
L 9.421875 0 
z
M 9.421875 75.984375 
L 18.40625 75.984375 
L 18.40625 64.59375 
L 9.421875 64.59375 
z
" id="DejaVuSans-105"/>
      <path d="M 18.3125 70.21875 
L 18.3125 54.6875 
L 36.8125 54.6875 
L 36.8125 47.703125 
L 18.3125 47.703125 
L 18.3125 18.015625 
Q 18.3125 11.328125 20.140625 9.421875 
Q 21.96875 7.515625 27.59375 7.515625 
L 36.8125 7.515625 
L 36.8125 0 
L 27.59375 0 
Q 17.1875 0 13.234375 3.875 
Q 9.28125 7.765625 9.28125 18.015625 
L 9.28125 47.703125 
L 2.6875 47.703125 
L 2.6875 54.6875 
L 9.28125 54.6875 
L 9.28125 70.21875 
z
" id="DejaVuSans-116"/>
      <path d="M 8.5 21.578125 
L 8.5 54.6875 
L 17.484375 54.6875 
L 17.484375 21.921875 
Q 17.484375 14.15625 20.5 10.265625 
Q 23.53125 6.390625 29.59375 6.390625 
Q 36.859375 6.390625 41.078125 11.03125 
Q 45.3125 15.671875 45.3125 23.6875 
L 45.3125 54.6875 
L 54.296875 54.6875 
L 54.296875 0 
L 45.3125 0 
L 45.3125 8.40625 
Q 42.046875 3.421875 37.71875 1 
Q 33.40625 -1.421875 27.6875 -1.421875 
Q 18.265625 -1.421875 13.375 4.4375 
Q 8.5 10.296875 8.5 21.578125 
z
M 31.109375 56 
z
" id="DejaVuSans-117"/>
      <path d="M 45.40625 46.390625 
L 45.40625 75.984375 
L 54.390625 75.984375 
L 54.390625 0 
L 45.40625 0 
L 45.40625 8.203125 
Q 42.578125 3.328125 38.25 0.953125 
Q 33.9375 -1.421875 27.875 -1.421875 
Q 17.96875 -1.421875 11.734375 6.484375 
Q 5.515625 14.40625 5.515625 27.296875 
Q 5.515625 40.1875 11.734375 48.09375 
Q 17.96875 56 27.875 56 
Q 33.9375 56 38.25 53.625 
Q 42.578125 51.265625 45.40625 46.390625 
z
M 14.796875 27.296875 
Q 14.796875 17.390625 18.875 11.75 
Q 22.953125 6.109375 30.078125 6.109375 
Q 37.203125 6.109375 41.296875 11.75 
Q 45.40625 17.390625 45.40625 27.296875 
Q 45.40625 37.203125 41.296875 42.84375 
Q 37.203125 48.484375 30.078125 48.484375 
Q 22.953125 48.484375 18.875 42.84375 
Q 14.796875 37.203125 14.796875 27.296875 
z
" id="DejaVuSans-100"/>
     </defs>
     <g transform="translate(62.135487 241.622656)rotate(-90)scale(0.1 -0.1)">
      <use xlink:href="#DejaVuSans-65"/>
      <use x="68.408203" xlink:href="#DejaVuSans-109"/>
      <use x="165.820312" xlink:href="#DejaVuSans-112"/>
      <use x="229.296875" xlink:href="#DejaVuSans-108"/>
      <use x="257.080078" xlink:href="#DejaVuSans-105"/>
      <use x="284.863281" xlink:href="#DejaVuSans-116"/>
      <use x="324.072266" xlink:href="#DejaVuSans-117"/>
      <use x="387.451172" xlink:href="#DejaVuSans-100"/>
      <use x="450.927734" xlink:href="#DejaVuSans-101"/>
     </g>
    </g>
   </g>
   <g id="line2d_37">
    <path clip-path="url(#pae95d6e19f)" d="M 82.029265 374.395248 
L 84.675934 374.175419 
L 86.829277 373.749877 
L 88.972731 373.096191 
L 91.042183 372.233198 
L 93.088702 371.137802 
L 95.084588 369.816986 
L 97.071799 368.231041 
L 99.025336 366.385044 
L 101.00593 364.200911 
L 103.012362 361.650729 
L 105.11149 358.614288 
L 107.377345 354.933157 
L 109.966178 350.283596 
L 113.240813 343.911996 
L 119.140981 331.839994 
L 126.686129 316.565213 
L 132.766743 304.775131 
L 139.114667 292.956393 
L 146.098272 280.430584 
L 153.947139 266.817428 
L 162.882971 251.772377 
L 173.174044 234.890044 
L 185.116086 215.736184 
L 199.090961 193.7526 
L 215.568487 168.257896 
L 235.148065 138.38504 
L 258.622295 102.98816 
L 285.343958 63.075279 
L 285.343958 63.075279 
" style="fill:none;stroke:#000000;stroke-linecap:square;stroke-width:2;"/>
   </g>
   <g id="line2d_38">
    <path clip-path="url(#pae95d6e19f)" d="M 397.239572 316.643026 
L 397.149272 316.641602 
L 397.058973 316.640177 
L 396.878374 316.637323 
L 396.517176 316.631599 
L 395.794781 316.620085 
L 394.35 316.596791 
L 392.182846 316.561172 
L 389.925419 316.523178 
L 387.668018 316.484244 
L 385.410644 316.444338 
L 383.153301 316.403428 
L 380.895988 316.361477 
L 378.63871 316.318449 
L 376.381466 316.274307 
L 374.12426 316.229008 
L 371.867095 316.182513 
L 369.609972 316.134777 
L 367.352894 316.085753 
L 365.095865 316.035394 
L 362.838887 315.983649 
L 360.581965 315.930465 
L 358.325101 315.875785 
L 356.0683 315.819552 
L 353.811566 315.761704 
L 352.532084 315.728164 
L 350.275465 315.667653 
L 348.018926 315.605354 
L 345.762474 315.541193 
L 343.506113 315.475091 
L 341.249851 315.406966 
L 338.993696 315.336732 
L 336.737656 315.264297 
L 334.481738 315.189564 
L 332.225954 315.112429 
L 329.970314 315.032785 
L 327.714828 314.950517 
L 325.45951 314.865501 
L 323.204374 314.77761 
L 320.949434 314.686704 
L 318.694707 314.592638 
L 316.440213 314.495255 
L 314.18597 314.394391 
L 311.932002 314.289867 
L 309.678333 314.181495 
L 307.42499 314.069073 
L 305.172004 313.952385 
L 302.91941 313.8312 
L 300.667243 313.705269 
L 298.415547 313.574326 
L 296.164369 313.438085 
L 293.91376 313.296238 
L 291.663781 313.148453 
L 289.414497 312.994371 
L 287.165983 312.833605 
L 284.918323 312.665736 
L 282.671614 312.490308 
L 280.425963 312.306829 
L 278.181495 312.11476 
L 275.938351 311.913518 
L 273.696691 311.702462 
L 271.456701 311.480894 
L 269.218595 311.248049 
L 266.982619 311.003087 
L 264.749058 310.745082 
L 262.518245 310.473016 
L 260.290568 310.185764 
L 258.066481 309.882079 
L 255.846519 309.56058 
L 253.631313 309.219732 
L 251.421612 308.857825 
L 249.218308 308.472951 
L 247.022466 308.062981 
L 244.83537 307.62553 
L 242.658565 307.157931 
L 240.493924 306.657197 
L 238.343725 306.119987 
L 236.210747 305.542573 
L 234.098387 304.920808 
L 232.010808 304.250118 
L 229.953106 303.525501 
L 227.931501 302.741576 
L 225.953545 301.892692 
L 224.028306 300.973116 
L 222.166495 299.977345 
L 220.380455 298.900547 
L 218.683915 297.73914 
L 217.091415 296.491433 
L 215.617348 295.15823 
L 214.274694 293.743195 
L 213.073665 292.252825 
L 212.020592 290.69596 
L 211.117382 289.082903 
L 210.361644 287.424411 
L 209.747405 285.730785 
L 209.266136 284.011228 
L 208.907814 282.273531 
L 208.661828 280.524006 
L 208.517651 278.767597 
L 208.465268 277.008071 
L 208.464702 276.800985 
" style="fill:none;stroke:#ff0000;stroke-linecap:square;stroke-width:2;"/>
   </g>
   <g id="line2d_39">
    <path clip-path="url(#pae95d6e19f)" d="M 208.464702 276.800985 
L 208.616506 273.283438 
L 209.032306 269.778696 
L 209.66228 266.293321 
L 210.467559 262.829881 
L 211.939733 257.676455 
L 213.663379 252.570479 
L 215.5844 247.507399 
L 218.386426 240.814998 
L 221.404022 234.179695 
L 225.409599 225.95237 
L 230.478122 216.159429 
L 235.763624 206.436354 
L 242.138283 195.162898 
L 249.632857 182.352048 
L 259.236146 166.4233 
L 270.023302 148.984583 
L 282.992456 128.459002 
L 298.172809 104.859263 
L 316.607993 76.625699 
L 338.329019 43.771676 
L 365.069725 3.739496 
L 368.251032 -1 
L 368.251032 -1 
" style="fill:none;stroke:#ff0000;stroke-dasharray:12,12;stroke-dashoffset:0;stroke-width:2;"/>
   </g>
   <g id="line2d_40">
    <path clip-path="url(#pae95d6e19f)" d="M 352.532093 266.944554 
L 358.864264 260.845717 
L 365.947812 254.335797 
L 373.77684 247.447657 
L 382.448441 240.119232 
L 392.04428 232.306924 
L 397.691164 227.83089 
L 397.691164 227.83089 
" style="fill:none;stroke:#008000;stroke-dasharray:12,12;stroke-dashoffset:0;stroke-width:2;"/>
   </g>
   <g id="line2d_41">
    <path clip-path="url(#pae95d6e19f)" d="M 352.532093 266.944554 
L 346.642911 272.916635 
L 341.342573 278.606772 
L 336.614837 284.007691 
L 332.400786 289.159207 
L 328.7059 294.021963 
L 325.399801 298.740244 
L 322.544982 303.194238 
L 320.01893 307.5446 
L 317.823803 311.771819 
L 316.551059 314.4918 
L 316.46404 314.391034 
L 314.804558 312.054817 
L 313.452776 309.773696 
L 312.361031 307.502069 
L 311.520347 305.250791 
L 310.903964 302.968223 
L 310.513211 300.66244 
L 310.345883 298.34174 
L 310.338603 297.83875 
L 310.338603 297.83875 
" style="fill:none;stroke:#0000ff;stroke-dasharray:12,12;stroke-dashoffset:0;stroke-width:2;"/>
   </g>
   <g id="line2d_42">
    <path clip-path="url(#pae95d6e19f)" d="M 310.338603 297.83875 
L 310.439383 295.464579 
L 310.769881 293.014768 
L 311.334241 290.514401 
L 312.132798 287.97265 
L 313.216515 285.276926 
L 314.575424 282.501732 
L 316.247681 279.600368 
L 318.283137 276.531661 
L 320.651923 273.372149 
L 323.397621 270.083717 
L 326.620565 266.581277 
L 330.276347 262.945657 
L 334.411733 259.150743 
L 339.130163 255.130659 
L 344.423076 250.921164 
L 350.330899 246.511971 
L 356.929842 241.868861 
L 364.40346 236.891922 
L 372.637176 231.682386 
L 381.876079 226.106054 
L 392.116677 220.187459 
L 403.479172 213.872692 
L 416.496296 206.892032 
L 431.965026 198.863398 
L 439.48 195.044244 
L 439.48 195.044244 
" style="fill:none;stroke:#0000ff;stroke-linecap:square;stroke-width:2;"/>
   </g>
   <g id="line2d_43">
    <path clip-path="url(#pae95d6e19f)" d="M 262.213954 240.38321 
L 259.510167 245.585032 
L 257.132094 250.634476 
L 255.056692 255.558786 
L 253.279935 260.336003 
L 251.755902 265.05785 
L 250.448439 269.830874 
L 249.357899 274.655082 
L 248.457619 279.657517 
L 247.747779 284.850982 
L 247.198748 290.52108 
L 246.814468 296.846741 
L 246.607845 304.010523 
L 246.58095 307.294237 
L 246.58095 307.294237 
" style="fill:none;stroke:#000000;stroke-linecap:square;stroke-width:2;"/>
   </g>
   <g id="line2d_44">
    <path clip-path="url(#pae95d6e19f)" d="M 246.58095 307.294237 
L 246.581401 307.377246 
L 246.678824 304.826631 
L 247.003004 301.416454 
L 247.56672 297.842406 
L 248.37835 294.12463 
L 249.475401 290.165857 
L 250.872388 285.988113 
L 252.575029 281.615112 
L 254.633426 276.960704 
L 257.051079 272.057004 
L 259.882444 266.830141 
L 263.18587 261.216921 
L 266.952693 255.269337 
L 271.230259 248.941013 
L 276.129717 242.103291 
L 281.549957 234.924896 
L 287.722079 227.126909 
L 294.59126 218.812832 
L 302.226445 209.922866 
L 310.745859 200.347102 
L 320.369646 189.874926 
L 330.790818 178.863275 
L 342.780586 166.530507 
L 355.998624 153.267897 
L 370.798426 138.749212 
L 387.775254 122.434718 
L 397.730471 113.007485 
L 397.730471 113.007485 
" style="fill:none;stroke:#000000;stroke-dasharray:12,12;stroke-dashoffset:0;stroke-width:2;"/>
   </g>
   <g id="line2d_45">
    <path clip-path="url(#pae95d6e19f)" d="M 262.213954 240.38321 
L 265.211337 235.099035 
L 268.62906 229.52878 
L 272.433277 223.755478 
L 276.727086 217.648924 
L 281.496413 211.257074 
L 286.839551 204.474288 
L 292.790812 197.285401 
L 299.436484 189.612772 
L 306.852973 181.394368 
L 315.21956 172.460174 
L 324.69224 162.675149 
L 335.56326 151.771817 
L 348.178689 139.442283 
L 362.971331 125.304996 
L 380.526185 108.8443 
L 397.706003 92.969762 
L 397.706003 92.969762 
" style="fill:none;stroke:#ff0000;stroke-linecap:square;stroke-width:2;"/>
   </g>
   <g id="patch_3">
    <path d="M 81.577674 374.4 
L 81.577674 57.6 
" style="fill:none;stroke:#000000;stroke-linecap:square;stroke-linejoin:miter;stroke-width:0.8;"/>
   </g>
   <g id="patch_4">
    <path d="M 397.691163 374.4 
L 397.691163 57.6 
" style="fill:none;stroke:#000000;stroke-linecap:square;stroke-linejoin:miter;stroke-width:0.8;"/>
   </g>
   <g id="patch_5">
    <path d="M 81.577674 374.4 
L 397.691163 374.4 
" style="fill:none;stroke:#000000;stroke-linecap:square;stroke-linejoin:miter;stroke-width:0.8;"/>
   </g>
   <g id="patch_6">
    <path d="M 81.577674 57.6 
L 397.691163 57.6 
" style="fill:none;stroke:#000000;stroke-linecap:square;stroke-linejoin:miter;stroke-width:0.8;"/>
   </g>
   <g id="text_21">
    <g clip-path="url(#pae95d6e19f)">
     <!-- U -->
     <defs>
      <path d="M 8.6875 72.90625 
L 18.609375 72.90625 
L 18.609375 28.609375 
Q 18.609375 16.890625 22.84375 11.734375 
Q 27.09375 6.59375 36.625 6.59375 
Q 46.09375 6.59375 50.34375 11.734375 
Q 54.59375 16.890625 54.59375 28.609375 
L 54.59375 72.90625 
L 64.5 72.90625 
L 64.5 27.390625 
Q 64.5 13.140625 57.4375 5.859375 
Q 50.390625 -1.421875 36.625 -1.421875 
Q 22.796875 -1.421875 15.734375 5.859375 
Q 8.6875 13.140625 8.6875 27.390625 
z
" id="DejaVuSans-85"/>
     </defs>
     <g style="fill:#ff0000;" transform="translate(82.434209 376.680089)scale(0.1 -0.1)">
      <use xlink:href="#DejaVuSans-85"/>
     </g>
    </g>
   </g>
   <g id="text_22">
    <g clip-path="url(#pae95d6e19f)">
     <!-- U -->
     <g style="fill:#ff0000;" transform="translate(348.872709 318.487539)scale(0.1 -0.1)">
      <use xlink:href="#DejaVuSans-85"/>
     </g>
    </g>
   </g>
   <g id="text_23">
    <g clip-path="url(#pae95d6e19f)">
     <!-- L -->
     <defs>
      <path d="M 9.8125 72.90625 
L 19.671875 72.90625 
L 19.671875 8.296875 
L 55.171875 8.296875 
L 55.171875 0 
L 9.8125 0 
z
" id="DejaVuSans-76"/>
     </defs>
     <g style="fill:#ff0000;" transform="translate(205.678764 279.56036)scale(0.1 -0.1)">
      <use xlink:href="#DejaVuSans-76"/>
     </g>
    </g>
   </g>
   <g id="text_24">
    <g clip-path="url(#pae95d6e19f)">
     <!-- U -->
     <g style="fill:#ff0000;" transform="translate(348.872684 25.22182)scale(0.1 -0.1)">
      <use xlink:href="#DejaVuSans-85"/>
     </g>
    </g>
   </g>
   <g id="text_25">
    <g clip-path="url(#pae95d6e19f)">
     <!-- U -->
     <g style="fill:#ff0000;" transform="translate(394.031789 230.590265)scale(0.1 -0.1)">
      <use xlink:href="#DejaVuSans-85"/>
     </g>
    </g>
   </g>
   <g id="text_26">
    <g clip-path="url(#pae95d6e19f)">
     <!-- U -->
     <g style="fill:#ff0000;" transform="translate(439.190859 197.052678)scale(0.1 -0.1)">
      <use xlink:href="#DejaVuSans-85"/>
     </g>
    </g>
   </g>
   <g id="text_27">
    <g clip-path="url(#pae95d6e19f)">
     <!-- U -->
     <g style="fill:#ff0000;" transform="translate(484.349928 166.026035)scale(0.1 -0.1)">
      <use xlink:href="#DejaVuSans-85"/>
     </g>
    </g>
   </g>
   <g id="text_28">
    <g clip-path="url(#pae95d6e19f)">
     <!-- B -->
     <defs>
      <path d="M 19.671875 34.8125 
L 19.671875 8.109375 
L 35.5 8.109375 
Q 43.453125 8.109375 47.28125 11.40625 
Q 51.125 14.703125 51.125 21.484375 
Q 51.125 28.328125 47.28125 31.5625 
Q 43.453125 34.8125 35.5 34.8125 
z
M 19.671875 64.796875 
L 19.671875 42.828125 
L 34.28125 42.828125 
Q 41.5 42.828125 45.03125 45.53125 
Q 48.578125 48.25 48.578125 53.8125 
Q 48.578125 59.328125 45.03125 62.0625 
Q 41.5 64.796875 34.28125 64.796875 
z
M 9.8125 72.90625 
L 35.015625 72.90625 
Q 46.296875 72.90625 52.390625 68.21875 
Q 58.5 63.53125 58.5 54.890625 
Q 58.5 48.1875 55.375 44.234375 
Q 52.25 40.28125 46.1875 39.3125 
Q 53.46875 37.75 57.5 32.78125 
Q 61.53125 27.828125 61.53125 20.40625 
Q 61.53125 10.640625 54.890625 5.3125 
Q 48.25 0 35.984375 0 
L 9.8125 0 
z
" id="DejaVuSans-66"/>
     </defs>
     <g style="fill:#ff0000;" transform="translate(313.12059 317.251175)scale(0.1 -0.1)">
      <use xlink:href="#DejaVuSans-66"/>
     </g>
    </g>
   </g>
   <g id="text_29">
    <g clip-path="url(#pae95d6e19f)">
     <!-- B -->
     <g style="fill:#ff0000;" transform="translate(313.076965 317.206545)scale(0.1 -0.1)">
      <use xlink:href="#DejaVuSans-66"/>
     </g>
    </g>
   </g>
   <g id="text_30">
    <g clip-path="url(#pae95d6e19f)">
     <!-- L -->
     <g style="fill:#ff0000;" transform="translate(307.552426 300.488693)scale(0.1 -0.1)">
      <use xlink:href="#DejaVuSans-76"/>
     </g>
    </g>
   </g>
   <g id="text_31">
    <g clip-path="url(#pae95d6e19f)">
     <!-- U -->
     <g style="fill:#ff0000;" transform="translate(348.872718 247.692969)scale(0.1 -0.1)">
      <use xlink:href="#DejaVuSans-85"/>
     </g>
    </g>
   </g>
   <g id="text_32">
    <g clip-path="url(#pae95d6e19f)">
     <!-- U -->
     <g style="fill:#ff0000;" transform="translate(394.031788 219.819472)scale(0.1 -0.1)">
      <use xlink:href="#DejaVuSans-85"/>
     </g>
    </g>
   </g>
   <g id="text_33">
    <g clip-path="url(#pae95d6e19f)">
     <!-- U -->
     <g style="fill:#ff0000;" transform="translate(439.190858 196.105468)scale(0.1 -0.1)">
      <use xlink:href="#DejaVuSans-85"/>
     </g>
    </g>
   </g>
   <g id="text_34">
    <g clip-path="url(#pae95d6e19f)">
     <!-- U -->
     <g style="fill:#ff0000;" transform="translate(484.349928 173.955815)scale(0.1 -0.1)">
      <use xlink:href="#DejaVuSans-85"/>
     </g>
    </g>
   </g>
   <g id="text_35">
    <g clip-path="url(#pae95d6e19f)">
     <!-- L -->
     <g style="fill:#ff0000;" transform="translate(243.795013 310.053612)scale(0.1 -0.1)">
      <use xlink:href="#DejaVuSans-76"/>
     </g>
    </g>
   </g>
   <g id="text_36">
    <g clip-path="url(#pae95d6e19f)">
     <!-- U -->
     <g style="fill:#ff0000;" transform="translate(348.872719 159.476387)scale(0.1 -0.1)">
      <use xlink:href="#DejaVuSans-85"/>
     </g>
    </g>
   </g>
   <g id="text_37">
    <g clip-path="url(#pae95d6e19f)">
     <!-- U -->
     <g style="fill:#ff0000;" transform="translate(348.872719 138.010071)scale(0.1 -0.1)">
      <use xlink:href="#DejaVuSans-85"/>
     </g>
    </g>
   </g>
   <g id="text_38">
    <!-- is_nze = 1 -->
    <defs>
     <path d="M 44.28125 53.078125 
L 44.28125 44.578125 
Q 40.484375 46.53125 36.375 47.5 
Q 32.28125 48.484375 27.875 48.484375 
Q 21.1875 48.484375 17.84375 46.4375 
Q 14.5 44.390625 14.5 40.28125 
Q 14.5 37.15625 16.890625 35.375 
Q 19.28125 33.59375 26.515625 31.984375 
L 29.59375 31.296875 
Q 39.15625 29.25 43.1875 25.515625 
Q 47.21875 21.78125 47.21875 15.09375 
Q 47.21875 7.46875 41.1875 3.015625 
Q 35.15625 -1.421875 24.609375 -1.421875 
Q 20.21875 -1.421875 15.453125 -0.5625 
Q 10.6875 0.296875 5.421875 2 
L 5.421875 11.28125 
Q 10.40625 8.6875 15.234375 7.390625 
Q 20.0625 6.109375 24.8125 6.109375 
Q 31.15625 6.109375 34.5625 8.28125 
Q 37.984375 10.453125 37.984375 14.40625 
Q 37.984375 18.0625 35.515625 20.015625 
Q 33.0625 21.96875 24.703125 23.78125 
L 21.578125 24.515625 
Q 13.234375 26.265625 9.515625 29.90625 
Q 5.8125 33.546875 5.8125 39.890625 
Q 5.8125 47.609375 11.28125 51.796875 
Q 16.75 56 26.8125 56 
Q 31.78125 56 36.171875 55.265625 
Q 40.578125 54.546875 44.28125 53.078125 
z
" id="DejaVuSans-115"/>
     <path d="M 50.984375 -16.609375 
L 50.984375 -23.578125 
L -0.984375 -23.578125 
L -0.984375 -16.609375 
z
" id="DejaVuSans-95"/>
     <path d="M 54.890625 33.015625 
L 54.890625 0 
L 45.90625 0 
L 45.90625 32.71875 
Q 45.90625 40.484375 42.875 44.328125 
Q 39.84375 48.1875 33.796875 48.1875 
Q 26.515625 48.1875 22.3125 43.546875 
Q 18.109375 38.921875 18.109375 30.90625 
L 18.109375 0 
L 9.078125 0 
L 9.078125 54.6875 
L 18.109375 54.6875 
L 18.109375 46.1875 
Q 21.34375 51.125 25.703125 53.5625 
Q 30.078125 56 35.796875 56 
Q 45.21875 56 50.046875 50.171875 
Q 54.890625 44.34375 54.890625 33.015625 
z
" id="DejaVuSans-110"/>
     <path d="M 5.515625 54.6875 
L 48.1875 54.6875 
L 48.1875 46.484375 
L 14.40625 7.171875 
L 48.1875 7.171875 
L 48.1875 0 
L 4.296875 0 
L 4.296875 8.203125 
L 38.09375 47.515625 
L 5.515625 47.515625 
z
" id="DejaVuSans-122"/>
     <path id="DejaVuSans-32"/>
     <path d="M 10.59375 45.40625 
L 73.1875 45.40625 
L 73.1875 37.203125 
L 10.59375 37.203125 
z
M 10.59375 25.484375 
L 73.1875 25.484375 
L 73.1875 17.1875 
L 10.59375 17.1875 
z
" id="DejaVuSans-61"/>
    </defs>
    <g transform="translate(208.539419 51.6)scale(0.12 -0.12)">
     <use xlink:href="#DejaVuSans-105"/>
     <use x="27.783203" xlink:href="#DejaVuSans-115"/>
     <use x="79.882812" xlink:href="#DejaVuSans-95"/>
     <use x="129.882812" xlink:href="#DejaVuSans-110"/>
     <use x="193.261719" xlink:href="#DejaVuSans-122"/>
     <use x="245.751953" xlink:href="#DejaVuSans-101"/>
     <use x="307.275391" xlink:href="#DejaVuSans-32"/>
     <use x="339.0625" xlink:href="#DejaVuSans-61"/>
     <use x="422.851562" xlink:href="#DejaVuSans-32"/>
     <use x="454.638672" xlink:href="#DejaVuSans-49"/>
    </g>
   </g>
  </g>
 </g>
 <defs>
  <clipPath id="pae95d6e19f">
   <rect height="316.8" width="316.113488" x="81.577674" y="57.6"/>
  </clipPath>
 </defs>
</svg>
