<?xml version="1.0" encoding="utf-8" standalone="no"?>
<!DOCTYPE svg PUBLIC "-//W3C//DTD SVG 1.1//EN"
  "http://www.w3.org/Graphics/SVG/1.1/DTD/svg11.dtd">
<!-- Created with matplotlib (https://matplotlib.org/) -->
<svg height="432pt" version="1.1" viewBox="0 0 438.48 432" width="438.48pt" xmlns="http://www.w3.org/2000/svg" xmlns:xlink="http://www.w3.org/1999/xlink">
 <defs>
  <style type="text/css">
*{stroke-linecap:butt;stroke-linejoin:round;}
  </style>
 </defs>
 <g id="figure_1">
  <g id="patch_1">
   <path d="M 0 432 
L 438.48 432 
L 438.48 0 
L 0 0 
z
" style="fill:#ffffff;"/>
  </g>
  <g id="axes_1">
   <g id="patch_2">
    <path d="M 81.577674 374.4 
L 397.691163 374.4 
L 397.691163 57.6 
L 81.577674 57.6 
z
" style="fill:#ffffff;"/>
   </g>
   <g id="matplotlib.axis_1">
    <g id="xtick_1">
     <g id="line2d_1">
      <path clip-path="url(#pdaab384aeb)" d="M 81.577674 374.4 
L 81.577674 57.6 
" style="fill:none;stroke:#000000;stroke-linecap:square;stroke-width:0.8;"/>
     </g>
     <g id="line2d_2">
      <defs>
       <path d="M 0 0 
L 0 3.5 
" id="m99ecf1e9ce" style="stroke:#000000;stroke-width:0.8;"/>
      </defs>
      <g>
       <use style="stroke:#000000;stroke-width:0.8;" x="81.577674" xlink:href="#m99ecf1e9ce" y="374.4"/>
      </g>
     </g>
     <g id="text_1">
      <!-- 0 -->
      <defs>
       <path d="M 31.78125 66.40625 
Q 24.171875 66.40625 20.328125 58.90625 
Q 16.5 51.421875 16.5 36.375 
Q 16.5 21.390625 20.328125 13.890625 
Q 24.171875 6.390625 31.78125 6.390625 
Q 39.453125 6.390625 43.28125 13.890625 
Q 47.125 21.390625 47.125 36.375 
Q 47.125 51.421875 43.28125 58.90625 
Q 39.453125 66.40625 31.78125 66.40625 
z
M 31.78125 74.21875 
Q 44.046875 74.21875 50.515625 64.515625 
Q 56.984375 54.828125 56.984375 36.375 
Q 56.984375 17.96875 50.515625 8.265625 
Q 44.046875 -1.421875 31.78125 -1.421875 
Q 19.53125 -1.421875 13.0625 8.265625 
Q 6.59375 17.96875 6.59375 36.375 
Q 6.59375 54.828125 13.0625 64.515625 
Q 19.53125 74.21875 31.78125 74.21875 
z
" id="DejaVuSans-48"/>
      </defs>
      <g transform="translate(78.396424 388.998438)scale(0.1 -0.1)">
       <use xlink:href="#DejaVuSans-48"/>
      </g>
     </g>
    </g>
    <g id="xtick_2">
     <g id="line2d_3">
      <path clip-path="url(#pdaab384aeb)" d="M 144.800372 374.4 
L 144.800372 57.6 
" style="fill:none;stroke:#000000;stroke-linecap:square;stroke-width:0.8;"/>
     </g>
     <g id="line2d_4">
      <g>
       <use style="stroke:#000000;stroke-width:0.8;" x="144.800372" xlink:href="#m99ecf1e9ce" y="374.4"/>
      </g>
     </g>
     <g id="text_2">
      <!-- 2 -->
      <defs>
       <path d="M 19.1875 8.296875 
L 53.609375 8.296875 
L 53.609375 0 
L 7.328125 0 
L 7.328125 8.296875 
Q 12.9375 14.109375 22.625 23.890625 
Q 32.328125 33.6875 34.8125 36.53125 
Q 39.546875 41.84375 41.421875 45.53125 
Q 43.3125 49.21875 43.3125 52.78125 
Q 43.3125 58.59375 39.234375 62.25 
Q 35.15625 65.921875 28.609375 65.921875 
Q 23.96875 65.921875 18.8125 64.3125 
Q 13.671875 62.703125 7.8125 59.421875 
L 7.8125 69.390625 
Q 13.765625 71.78125 18.9375 73 
Q 24.125 74.21875 28.421875 74.21875 
Q 39.75 74.21875 46.484375 68.546875 
Q 53.21875 62.890625 53.21875 53.421875 
Q 53.21875 48.921875 51.53125 44.890625 
Q 49.859375 40.875 45.40625 35.40625 
Q 44.1875 33.984375 37.640625 27.21875 
Q 31.109375 20.453125 19.1875 8.296875 
z
" id="DejaVuSans-50"/>
      </defs>
      <g transform="translate(141.619122 388.998438)scale(0.1 -0.1)">
       <use xlink:href="#DejaVuSans-50"/>
      </g>
     </g>
    </g>
    <g id="xtick_3">
     <g id="line2d_5">
      <path clip-path="url(#pdaab384aeb)" d="M 208.02307 374.4 
L 208.02307 57.6 
" style="fill:none;stroke:#000000;stroke-linecap:square;stroke-width:0.8;"/>
     </g>
     <g id="line2d_6">
      <g>
       <use style="stroke:#000000;stroke-width:0.8;" x="208.02307" xlink:href="#m99ecf1e9ce" y="374.4"/>
      </g>
     </g>
     <g id="text_3">
      <!-- 4 -->
      <defs>
       <path d="M 37.796875 64.3125 
L 12.890625 25.390625 
L 37.796875 25.390625 
z
M 35.203125 72.90625 
L 47.609375 72.90625 
L 47.609375 25.390625 
L 58.015625 25.390625 
L 58.015625 17.1875 
L 47.609375 17.1875 
L 47.609375 0 
L 37.796875 0 
L 37.796875 17.1875 
L 4.890625 17.1875 
L 4.890625 26.703125 
z
" id="DejaVuSans-52"/>
      </defs>
      <g transform="translate(204.84182 388.998438)scale(0.1 -0.1)">
       <use xlink:href="#DejaVuSans-52"/>
      </g>
     </g>
    </g>
    <g id="xtick_4">
     <g id="line2d_7">
      <path clip-path="url(#pdaab384aeb)" d="M 271.245767 374.4 
L 271.245767 57.6 
" style="fill:none;stroke:#000000;stroke-linecap:square;stroke-width:0.8;"/>
     </g>
     <g id="line2d_8">
      <g>
       <use style="stroke:#000000;stroke-width:0.8;" x="271.245767" xlink:href="#m99ecf1e9ce" y="374.4"/>
      </g>
     </g>
     <g id="text_4">
      <!-- 6 -->
      <defs>
       <path d="M 33.015625 40.375 
Q 26.375 40.375 22.484375 35.828125 
Q 18.609375 31.296875 18.609375 23.390625 
Q 18.609375 15.53125 22.484375 10.953125 
Q 26.375 6.390625 33.015625 6.390625 
Q 39.65625 6.390625 43.53125 10.953125 
Q 47.40625 15.53125 47.40625 23.390625 
Q 47.40625 31.296875 43.53125 35.828125 
Q 39.65625 40.375 33.015625 40.375 
z
M 52.59375 71.296875 
L 52.59375 62.3125 
Q 48.875 64.0625 45.09375 64.984375 
Q 41.3125 65.921875 37.59375 65.921875 
Q 27.828125 65.921875 22.671875 59.328125 
Q 17.53125 52.734375 16.796875 39.40625 
Q 19.671875 43.65625 24.015625 45.921875 
Q 28.375 48.1875 33.59375 48.1875 
Q 44.578125 48.1875 50.953125 41.515625 
Q 57.328125 34.859375 57.328125 23.390625 
Q 57.328125 12.15625 50.6875 5.359375 
Q 44.046875 -1.421875 33.015625 -1.421875 
Q 20.359375 -1.421875 13.671875 8.265625 
Q 6.984375 17.96875 6.984375 36.375 
Q 6.984375 53.65625 15.1875 63.9375 
Q 23.390625 74.21875 37.203125 74.21875 
Q 40.921875 74.21875 44.703125 73.484375 
Q 48.484375 72.75 52.59375 71.296875 
z
" id="DejaVuSans-54"/>
      </defs>
      <g transform="translate(268.064517 388.998438)scale(0.1 -0.1)">
       <use xlink:href="#DejaVuSans-54"/>
      </g>
     </g>
    </g>
    <g id="xtick_5">
     <g id="line2d_9">
      <path clip-path="url(#pdaab384aeb)" d="M 334.468465 374.4 
L 334.468465 57.6 
" style="fill:none;stroke:#000000;stroke-linecap:square;stroke-width:0.8;"/>
     </g>
     <g id="line2d_10">
      <g>
       <use style="stroke:#000000;stroke-width:0.8;" x="334.468465" xlink:href="#m99ecf1e9ce" y="374.4"/>
      </g>
     </g>
     <g id="text_5">
      <!-- 8 -->
      <defs>
       <path d="M 31.78125 34.625 
Q 24.75 34.625 20.71875 30.859375 
Q 16.703125 27.09375 16.703125 20.515625 
Q 16.703125 13.921875 20.71875 10.15625 
Q 24.75 6.390625 31.78125 6.390625 
Q 38.8125 6.390625 42.859375 10.171875 
Q 46.921875 13.96875 46.921875 20.515625 
Q 46.921875 27.09375 42.890625 30.859375 
Q 38.875 34.625 31.78125 34.625 
z
M 21.921875 38.8125 
Q 15.578125 40.375 12.03125 44.71875 
Q 8.5 49.078125 8.5 55.328125 
Q 8.5 64.0625 14.71875 69.140625 
Q 20.953125 74.21875 31.78125 74.21875 
Q 42.671875 74.21875 48.875 69.140625 
Q 55.078125 64.0625 55.078125 55.328125 
Q 55.078125 49.078125 51.53125 44.71875 
Q 48 40.375 41.703125 38.8125 
Q 48.828125 37.15625 52.796875 32.3125 
Q 56.78125 27.484375 56.78125 20.515625 
Q 56.78125 9.90625 50.3125 4.234375 
Q 43.84375 -1.421875 31.78125 -1.421875 
Q 19.734375 -1.421875 13.25 4.234375 
Q 6.78125 9.90625 6.78125 20.515625 
Q 6.78125 27.484375 10.78125 32.3125 
Q 14.796875 37.15625 21.921875 38.8125 
z
M 18.3125 54.390625 
Q 18.3125 48.734375 21.84375 45.5625 
Q 25.390625 42.390625 31.78125 42.390625 
Q 38.140625 42.390625 41.71875 45.5625 
Q 45.3125 48.734375 45.3125 54.390625 
Q 45.3125 60.0625 41.71875 63.234375 
Q 38.140625 66.40625 31.78125 66.40625 
Q 25.390625 66.40625 21.84375 63.234375 
Q 18.3125 60.0625 18.3125 54.390625 
z
" id="DejaVuSans-56"/>
      </defs>
      <g transform="translate(331.287215 388.998438)scale(0.1 -0.1)">
       <use xlink:href="#DejaVuSans-56"/>
      </g>
     </g>
    </g>
    <g id="xtick_6">
     <g id="line2d_11">
      <path clip-path="url(#pdaab384aeb)" d="M 397.691163 374.4 
L 397.691163 57.6 
" style="fill:none;stroke:#000000;stroke-linecap:square;stroke-width:0.8;"/>
     </g>
     <g id="line2d_12">
      <g>
       <use style="stroke:#000000;stroke-width:0.8;" x="397.691163" xlink:href="#m99ecf1e9ce" y="374.4"/>
      </g>
     </g>
     <g id="text_6">
      <!-- 10 -->
      <defs>
       <path d="M 12.40625 8.296875 
L 28.515625 8.296875 
L 28.515625 63.921875 
L 10.984375 60.40625 
L 10.984375 69.390625 
L 28.421875 72.90625 
L 38.28125 72.90625 
L 38.28125 8.296875 
L 54.390625 8.296875 
L 54.390625 0 
L 12.40625 0 
z
" id="DejaVuSans-49"/>
      </defs>
      <g transform="translate(391.328663 388.998438)scale(0.1 -0.1)">
       <use xlink:href="#DejaVuSans-49"/>
       <use x="63.623047" xlink:href="#DejaVuSans-48"/>
      </g>
     </g>
    </g>
    <g id="text_7">
     <!-- Omeg -->
     <defs>
      <path d="M 39.40625 66.21875 
Q 28.65625 66.21875 22.328125 58.203125 
Q 16.015625 50.203125 16.015625 36.375 
Q 16.015625 22.609375 22.328125 14.59375 
Q 28.65625 6.59375 39.40625 6.59375 
Q 50.140625 6.59375 56.421875 14.59375 
Q 62.703125 22.609375 62.703125 36.375 
Q 62.703125 50.203125 56.421875 58.203125 
Q 50.140625 66.21875 39.40625 66.21875 
z
M 39.40625 74.21875 
Q 54.734375 74.21875 63.90625 63.9375 
Q 73.09375 53.65625 73.09375 36.375 
Q 73.09375 19.140625 63.90625 8.859375 
Q 54.734375 -1.421875 39.40625 -1.421875 
Q 24.03125 -1.421875 14.8125 8.828125 
Q 5.609375 19.09375 5.609375 36.375 
Q 5.609375 53.65625 14.8125 63.9375 
Q 24.03125 74.21875 39.40625 74.21875 
z
" id="DejaVuSans-79"/>
      <path d="M 52 44.1875 
Q 55.375 50.25 60.0625 53.125 
Q 64.75 56 71.09375 56 
Q 79.640625 56 84.28125 50.015625 
Q 88.921875 44.046875 88.921875 33.015625 
L 88.921875 0 
L 79.890625 0 
L 79.890625 32.71875 
Q 79.890625 40.578125 77.09375 44.375 
Q 74.3125 48.1875 68.609375 48.1875 
Q 61.625 48.1875 57.5625 43.546875 
Q 53.515625 38.921875 53.515625 30.90625 
L 53.515625 0 
L 44.484375 0 
L 44.484375 32.71875 
Q 44.484375 40.625 41.703125 44.40625 
Q 38.921875 48.1875 33.109375 48.1875 
Q 26.21875 48.1875 22.15625 43.53125 
Q 18.109375 38.875 18.109375 30.90625 
L 18.109375 0 
L 9.078125 0 
L 9.078125 54.6875 
L 18.109375 54.6875 
L 18.109375 46.1875 
Q 21.1875 51.21875 25.484375 53.609375 
Q 29.78125 56 35.6875 56 
Q 41.65625 56 45.828125 52.96875 
Q 50 49.953125 52 44.1875 
z
" id="DejaVuSans-109"/>
      <path d="M 56.203125 29.59375 
L 56.203125 25.203125 
L 14.890625 25.203125 
Q 15.484375 15.921875 20.484375 11.0625 
Q 25.484375 6.203125 34.421875 6.203125 
Q 39.59375 6.203125 44.453125 7.46875 
Q 49.3125 8.734375 54.109375 11.28125 
L 54.109375 2.78125 
Q 49.265625 0.734375 44.1875 -0.34375 
Q 39.109375 -1.421875 33.890625 -1.421875 
Q 20.796875 -1.421875 13.15625 6.1875 
Q 5.515625 13.8125 5.515625 26.8125 
Q 5.515625 40.234375 12.765625 48.109375 
Q 20.015625 56 32.328125 56 
Q 43.359375 56 49.78125 48.890625 
Q 56.203125 41.796875 56.203125 29.59375 
z
M 47.21875 32.234375 
Q 47.125 39.59375 43.09375 43.984375 
Q 39.0625 48.390625 32.421875 48.390625 
Q 24.90625 48.390625 20.390625 44.140625 
Q 15.875 39.890625 15.1875 32.171875 
z
" id="DejaVuSans-101"/>
      <path d="M 45.40625 27.984375 
Q 45.40625 37.75 41.375 43.109375 
Q 37.359375 48.484375 30.078125 48.484375 
Q 22.859375 48.484375 18.828125 43.109375 
Q 14.796875 37.75 14.796875 27.984375 
Q 14.796875 18.265625 18.828125 12.890625 
Q 22.859375 7.515625 30.078125 7.515625 
Q 37.359375 7.515625 41.375 12.890625 
Q 45.40625 18.265625 45.40625 27.984375 
z
M 54.390625 6.78125 
Q 54.390625 -7.171875 48.1875 -13.984375 
Q 42 -20.796875 29.203125 -20.796875 
Q 24.46875 -20.796875 20.265625 -20.09375 
Q 16.0625 -19.390625 12.109375 -17.921875 
L 12.109375 -9.1875 
Q 16.0625 -11.328125 19.921875 -12.34375 
Q 23.78125 -13.375 27.78125 -13.375 
Q 36.625 -13.375 41.015625 -8.765625 
Q 45.40625 -4.15625 45.40625 5.171875 
L 45.40625 9.625 
Q 42.625 4.78125 38.28125 2.390625 
Q 33.9375 0 27.875 0 
Q 17.828125 0 11.671875 7.65625 
Q 5.515625 15.328125 5.515625 27.984375 
Q 5.515625 40.671875 11.671875 48.328125 
Q 17.828125 56 27.875 56 
Q 33.9375 56 38.28125 53.609375 
Q 42.625 51.21875 45.40625 46.390625 
L 45.40625 54.6875 
L 54.390625 54.6875 
z
" id="DejaVuSans-103"/>
     </defs>
     <g transform="translate(224.577387 402.676563)scale(0.1 -0.1)">
      <use xlink:href="#DejaVuSans-79"/>
      <use x="78.710938" xlink:href="#DejaVuSans-109"/>
      <use x="176.123047" xlink:href="#DejaVuSans-101"/>
      <use x="237.646484" xlink:href="#DejaVuSans-103"/>
     </g>
    </g>
   </g>
   <g id="matplotlib.axis_2">
    <g id="ytick_1">
     <g id="line2d_13">
      <path clip-path="url(#pdaab384aeb)" d="M 81.577674 374.4 
L 397.691163 374.4 
" style="fill:none;stroke:#000000;stroke-linecap:square;stroke-width:0.8;"/>
     </g>
     <g id="line2d_14">
      <defs>
       <path d="M 0 0 
L -3.5 0 
" id="m10ac8f9fa2" style="stroke:#000000;stroke-width:0.8;"/>
      </defs>
      <g>
       <use style="stroke:#000000;stroke-width:0.8;" x="81.577674" xlink:href="#m10ac8f9fa2" y="374.4"/>
      </g>
     </g>
     <g id="text_8">
      <!-- 0 -->
      <g transform="translate(68.215174 378.199219)scale(0.1 -0.1)">
       <use xlink:href="#DejaVuSans-48"/>
      </g>
     </g>
    </g>
    <g id="ytick_2">
     <g id="line2d_15">
      <path clip-path="url(#pdaab384aeb)" d="M 81.577674 329.142857 
L 397.691163 329.142857 
" style="fill:none;stroke:#000000;stroke-linecap:square;stroke-width:0.8;"/>
     </g>
     <g id="line2d_16">
      <g>
       <use style="stroke:#000000;stroke-width:0.8;" x="81.577674" xlink:href="#m10ac8f9fa2" y="329.142857"/>
      </g>
     </g>
     <g id="text_9">
      <!-- 2 -->
      <g transform="translate(68.215174 332.942076)scale(0.1 -0.1)">
       <use xlink:href="#DejaVuSans-50"/>
      </g>
     </g>
    </g>
    <g id="ytick_3">
     <g id="line2d_17">
      <path clip-path="url(#pdaab384aeb)" d="M 81.577674 283.885714 
L 397.691163 283.885714 
" style="fill:none;stroke:#000000;stroke-linecap:square;stroke-width:0.8;"/>
     </g>
     <g id="line2d_18">
      <g>
       <use style="stroke:#000000;stroke-width:0.8;" x="81.577674" xlink:href="#m10ac8f9fa2" y="283.885714"/>
      </g>
     </g>
     <g id="text_10">
      <!-- 4 -->
      <g transform="translate(68.215174 287.684933)scale(0.1 -0.1)">
       <use xlink:href="#DejaVuSans-52"/>
      </g>
     </g>
    </g>
    <g id="ytick_4">
     <g id="line2d_19">
      <path clip-path="url(#pdaab384aeb)" d="M 81.577674 238.628571 
L 397.691163 238.628571 
" style="fill:none;stroke:#000000;stroke-linecap:square;stroke-width:0.8;"/>
     </g>
     <g id="line2d_20">
      <g>
       <use style="stroke:#000000;stroke-width:0.8;" x="81.577674" xlink:href="#m10ac8f9fa2" y="238.628571"/>
      </g>
     </g>
     <g id="text_11">
      <!-- 6 -->
      <g transform="translate(68.215174 242.42779)scale(0.1 -0.1)">
       <use xlink:href="#DejaVuSans-54"/>
      </g>
     </g>
    </g>
    <g id="ytick_5">
     <g id="line2d_21">
      <path clip-path="url(#pdaab384aeb)" d="M 81.577674 193.371429 
L 397.691163 193.371429 
" style="fill:none;stroke:#000000;stroke-linecap:square;stroke-width:0.8;"/>
     </g>
     <g id="line2d_22">
      <g>
       <use style="stroke:#000000;stroke-width:0.8;" x="81.577674" xlink:href="#m10ac8f9fa2" y="193.371429"/>
      </g>
     </g>
     <g id="text_12">
      <!-- 8 -->
      <g transform="translate(68.215174 197.170647)scale(0.1 -0.1)">
       <use xlink:href="#DejaVuSans-56"/>
      </g>
     </g>
    </g>
    <g id="ytick_6">
     <g id="line2d_23">
      <path clip-path="url(#pdaab384aeb)" d="M 81.577674 148.114286 
L 397.691163 148.114286 
" style="fill:none;stroke:#000000;stroke-linecap:square;stroke-width:0.8;"/>
     </g>
     <g id="line2d_24">
      <g>
       <use style="stroke:#000000;stroke-width:0.8;" x="81.577674" xlink:href="#m10ac8f9fa2" y="148.114286"/>
      </g>
     </g>
     <g id="text_13">
      <!-- 10 -->
      <g transform="translate(61.852674 151.913504)scale(0.1 -0.1)">
       <use xlink:href="#DejaVuSans-49"/>
       <use x="63.623047" xlink:href="#DejaVuSans-48"/>
      </g>
     </g>
    </g>
    <g id="ytick_7">
     <g id="line2d_25">
      <path clip-path="url(#pdaab384aeb)" d="M 81.577674 102.857143 
L 397.691163 102.857143 
" style="fill:none;stroke:#000000;stroke-linecap:square;stroke-width:0.8;"/>
     </g>
     <g id="line2d_26">
      <g>
       <use style="stroke:#000000;stroke-width:0.8;" x="81.577674" xlink:href="#m10ac8f9fa2" y="102.857143"/>
      </g>
     </g>
     <g id="text_14">
      <!-- 12 -->
      <g transform="translate(61.852674 106.656362)scale(0.1 -0.1)">
       <use xlink:href="#DejaVuSans-49"/>
       <use x="63.623047" xlink:href="#DejaVuSans-50"/>
      </g>
     </g>
    </g>
    <g id="ytick_8">
     <g id="line2d_27">
      <path clip-path="url(#pdaab384aeb)" d="M 81.577674 57.6 
L 397.691163 57.6 
" style="fill:none;stroke:#000000;stroke-linecap:square;stroke-width:0.8;"/>
     </g>
     <g id="line2d_28">
      <g>
       <use style="stroke:#000000;stroke-width:0.8;" x="81.577674" xlink:href="#m10ac8f9fa2" y="57.6"/>
      </g>
     </g>
     <g id="text_15">
      <!-- 14 -->
      <g transform="translate(61.852674 61.399219)scale(0.1 -0.1)">
       <use xlink:href="#DejaVuSans-49"/>
       <use x="63.623047" xlink:href="#DejaVuSans-52"/>
      </g>
     </g>
    </g>
    <g id="text_16">
     <!-- Amplitude -->
     <defs>
      <path d="M 34.1875 63.1875 
L 20.796875 26.90625 
L 47.609375 26.90625 
z
M 28.609375 72.90625 
L 39.796875 72.90625 
L 67.578125 0 
L 57.328125 0 
L 50.6875 18.703125 
L 17.828125 18.703125 
L 11.1875 0 
L 0.78125 0 
z
" id="DejaVuSans-65"/>
      <path d="M 18.109375 8.203125 
L 18.109375 -20.796875 
L 9.078125 -20.796875 
L 9.078125 54.6875 
L 18.109375 54.6875 
L 18.109375 46.390625 
Q 20.953125 51.265625 25.265625 53.625 
Q 29.59375 56 35.59375 56 
Q 45.5625 56 51.78125 48.09375 
Q 58.015625 40.1875 58.015625 27.296875 
Q 58.015625 14.40625 51.78125 6.484375 
Q 45.5625 -1.421875 35.59375 -1.421875 
Q 29.59375 -1.421875 25.265625 0.953125 
Q 20.953125 3.328125 18.109375 8.203125 
z
M 48.6875 27.296875 
Q 48.6875 37.203125 44.609375 42.84375 
Q 40.53125 48.484375 33.40625 48.484375 
Q 26.265625 48.484375 22.1875 42.84375 
Q 18.109375 37.203125 18.109375 27.296875 
Q 18.109375 17.390625 22.1875 11.75 
Q 26.265625 6.109375 33.40625 6.109375 
Q 40.53125 6.109375 44.609375 11.75 
Q 48.6875 17.390625 48.6875 27.296875 
z
" id="DejaVuSans-112"/>
      <path d="M 9.421875 75.984375 
L 18.40625 75.984375 
L 18.40625 0 
L 9.421875 0 
z
" id="DejaVuSans-108"/>
      <path d="M 9.421875 54.6875 
L 18.40625 54.6875 
L 18.40625 0 
L 9.421875 0 
z
M 9.421875 75.984375 
L 18.40625 75.984375 
L 18.40625 64.59375 
L 9.421875 64.59375 
z
" id="DejaVuSans-105"/>
      <path d="M 18.3125 70.21875 
L 18.3125 54.6875 
L 36.8125 54.6875 
L 36.8125 47.703125 
L 18.3125 47.703125 
L 18.3125 18.015625 
Q 18.3125 11.328125 20.140625 9.421875 
Q 21.96875 7.515625 27.59375 7.515625 
L 36.8125 7.515625 
L 36.8125 0 
L 27.59375 0 
Q 17.1875 0 13.234375 3.875 
Q 9.28125 7.765625 9.28125 18.015625 
L 9.28125 47.703125 
L 2.6875 47.703125 
L 2.6875 54.6875 
L 9.28125 54.6875 
L 9.28125 70.21875 
z
" id="DejaVuSans-116"/>
      <path d="M 8.5 21.578125 
L 8.5 54.6875 
L 17.484375 54.6875 
L 17.484375 21.921875 
Q 17.484375 14.15625 20.5 10.265625 
Q 23.53125 6.390625 29.59375 6.390625 
Q 36.859375 6.390625 41.078125 11.03125 
Q 45.3125 15.671875 45.3125 23.6875 
L 45.3125 54.6875 
L 54.296875 54.6875 
L 54.296875 0 
L 45.3125 0 
L 45.3125 8.40625 
Q 42.046875 3.421875 37.71875 1 
Q 33.40625 -1.421875 27.6875 -1.421875 
Q 18.265625 -1.421875 13.375 4.4375 
Q 8.5 10.296875 8.5 21.578125 
z
M 31.109375 56 
z
" id="DejaVuSans-117"/>
      <path d="M 45.40625 46.390625 
L 45.40625 75.984375 
L 54.390625 75.984375 
L 54.390625 0 
L 45.40625 0 
L 45.40625 8.203125 
Q 42.578125 3.328125 38.25 0.953125 
Q 33.9375 -1.421875 27.875 -1.421875 
Q 17.96875 -1.421875 11.734375 6.484375 
Q 5.515625 14.40625 5.515625 27.296875 
Q 5.515625 40.1875 11.734375 48.09375 
Q 17.96875 56 27.875 56 
Q 33.9375 56 38.25 53.625 
Q 42.578125 51.265625 45.40625 46.390625 
z
M 14.796875 27.296875 
Q 14.796875 17.390625 18.875 11.75 
Q 22.953125 6.109375 30.078125 6.109375 
Q 37.203125 6.109375 41.296875 11.75 
Q 45.40625 17.390625 45.40625 27.296875 
Q 45.40625 37.203125 41.296875 42.84375 
Q 37.203125 48.484375 30.078125 48.484375 
Q 22.953125 48.484375 18.875 42.84375 
Q 14.796875 37.203125 14.796875 27.296875 
z
" id="DejaVuSans-100"/>
     </defs>
     <g transform="translate(55.772987 241.622656)rotate(-90)scale(0.1 -0.1)">
      <use xlink:href="#DejaVuSans-65"/>
      <use x="68.408203" xlink:href="#DejaVuSans-109"/>
      <use x="165.820312" xlink:href="#DejaVuSans-112"/>
      <use x="229.296875" xlink:href="#DejaVuSans-108"/>
      <use x="257.080078" xlink:href="#DejaVuSans-105"/>
      <use x="284.863281" xlink:href="#DejaVuSans-116"/>
      <use x="324.072266" xlink:href="#DejaVuSans-117"/>
      <use x="387.451172" xlink:href="#DejaVuSans-100"/>
      <use x="450.927734" xlink:href="#DejaVuSans-101"/>
     </g>
    </g>
   </g>
   <g id="line2d_29">
    <path clip-path="url(#pdaab384aeb)" d="M 81.169429 374.398801 
L 85.31474 374.298309 
L 88.994071 373.984707 
L 92.222781 373.497022 
L 95.496158 372.728695 
L 98.119128 371.828174 
L 100.726524 370.552489 
L 101.903689 369.797527 
L 102.983129 368.971138 
L 104.837639 367.141054 
L 106.314074 365.141926 
L 107.480108 363.040103 
L 108.407894 360.878431 
L 109.478273 357.575049 
L 110.28188 354.234074 
L 110.669758 352.144705 
L 112.023897 351.561926 
L 115.672373 350.943827 
L 121.591195 349.699644 
L 126.050929 348.550555 
L 130.409963 347.21713 
L 134.640374 345.685684 
L 138.710487 343.945715 
L 142.58689 341.992218 
L 146.237847 339.827649 
L 149.637465 337.462717 
L 152.769351 334.915492 
L 155.628454 332.209015 
L 158.220557 329.36827 
L 160.559951 326.417483 
L 162.666348 323.378353 
L 164.561998 320.269245 
L 166.269503 317.105122 
L 168.290505 312.820876 
L 170.0611 308.480942 
L 171.620611 304.100511 
L 173.322712 298.584215 
L 174.797953 293.036006 
L 176.325634 286.3496 
L 177.639368 279.642411 
L 178.956015 271.800646 
L 180.234764 262.825512 
L 181.44817 252.720039 
L 182.580045 241.488542 
L 183.708884 228.013652 
L 184.788319 212.304502 
L 185.790764 194.374178 
L 186.748446 173.122681 
L 187.666697 147.468234 
L 188.509247 117.467996 
L 189.303126 80.997253 
L 190.048433 36.031988 
L 190.529695 -1 
L 190.529695 -1 
" style="fill:none;stroke:#000000;stroke-linecap:square;stroke-width:2;"/>
   </g>
   <g id="line2d_30">
    <path clip-path="url(#pdaab384aeb)" d="M 192.877666 -1 
L 192.378442 76.262308 
L 191.811331 131.564779 
L 191.191596 171.679081 
L 190.51869 201.898735 
L 189.786914 225.468365 
L 188.978118 244.582163 
L 188.156459 259.213353 
L 187.254082 271.598632 
L 186.310029 281.730544 
L 185.247974 290.729544 
L 184.075355 298.590439 
L 182.81737 305.308866 
L 181.524581 310.882805 
L 180.277839 315.314959 
L 178.785594 319.708728 
L 177.463662 322.965897 
L 175.927123 326.174747 
L 174.132151 329.314322 
L 172.768184 331.354658 
L 171.253708 333.339963 
L 169.576107 335.256991 
L 167.726158 337.091055 
L 165.699929 338.827131 
L 163.500199 340.45149 
L 161.136789 341.953531 
L 158.625482 343.327217 
L 155.985834 344.571637 
L 151.830991 346.205124 
L 147.498842 347.583174 
L 143.041778 348.739716 
L 138.498301 349.708981 
L 132.351152 350.762231 
L 126.1354 351.580702 
L 124.579773 351.778961 
L 124.579773 351.778961 
" style="fill:none;stroke:#000000;stroke-dasharray:12,12;stroke-dashoffset:0;stroke-width:2;"/>
   </g>
   <g id="line2d_31">
    <path clip-path="url(#pdaab384aeb)" d="M 124.579773 351.778961 
L 124.506225 351.910886 
L 124.898271 352.279706 
L 126.292127 354.289888 
L 127.252438 355.394079 
L 128.582788 356.64719 
L 130.43992 358.01081 
L 132.915626 359.360378 
L 135.676281 360.459342 
L 138.596646 361.323015 
L 141.611589 362.001416 
L 146.229762 362.767338 
L 150.906372 363.325563 
L 157.183489 363.862471 
L 166.636555 364.400165 
L 179.265542 364.844018 
L 196.64441 365.201455 
L 223.510772 365.49608 
L 266.184942 365.714216 
L 346.793563 365.869953 
L 397.691163 365.912306 
L 397.691163 365.912306 
" style="fill:none;stroke:#000000;stroke-linecap:square;stroke-width:2;"/>
   </g>
   <g id="line2d_32">
    <path clip-path="url(#pdaab384aeb)" d="M 81.288902 374.3994 
L 86.024652 374.255274 
L 89.159124 373.965048 
L 92.249581 373.491977 
L 95.256434 372.796676 
L 98.112814 371.830738 
L 100.720906 370.555781 
L 101.898502 369.801162 
L 102.978404 368.975083 
L 104.833836 367.145479 
L 106.311069 365.146654 
L 107.47773 363.045009 
L 108.405989 360.883441 
L 109.476866 357.580141 
L 110.280805 354.239204 
L 110.883994 351.739182 
L 117.024017 350.685162 
L 121.561372 349.706673 
L 126.021691 348.558757 
L 130.381479 347.226599 
L 134.612842 345.696505 
L 138.684127 343.95794 
L 142.561922 342.005859 
L 146.214466 339.842662 
L 149.615814 337.479004 
L 152.749503 334.932915 
L 155.610405 332.227411 
L 158.204237 329.387473 
L 160.545244 326.43734 
L 162.653112 323.398731 
L 164.550083 320.290034 
L 166.258761 317.126233 
L 168.281117 312.842311 
L 170.052853 308.502612 
L 171.613327 304.122353 
L 173.316425 298.606209 
L 174.79248 293.058104 
L 176.320951 286.371783 
L 177.635321 279.664649 
L 178.95256 271.822925 
L 180.231841 262.847816 
L 181.445712 252.742355 
L 182.577986 241.510859 
L 183.707188 228.035959 
L 184.786938 212.326787 
L 185.789647 194.396428 
L 186.747556 173.14488 
L 187.666003 147.490361 
L 188.508713 117.490024 
L 189.302726 81.019141 
L 190.048146 36.053675 
L 190.529727 -1 
L 190.529727 -1 
" style="fill:none;stroke:#ff0000;stroke-linecap:square;stroke-width:2;"/>
   </g>
   <g id="line2d_33">
    <path clip-path="url(#pdaab384aeb)" d="M 192.877698 -1 
L 192.37967 76.115589 
L 191.813228 131.416664 
L 191.194389 171.530144 
L 190.522647 201.749288 
L 189.792361 225.318593 
L 188.985485 244.432187 
L 188.166067 259.063277 
L 187.266487 271.448536 
L 186.325731 281.580515 
L 185.267833 290.579693 
L 184.100343 298.440923 
L 182.848463 305.15989 
L 181.562562 310.734613 
L 180.323003 315.167775 
L 178.839967 319.563122 
L 177.526655 322.822063 
L 176.000537 326.033449 
L 174.218054 329.17666 
L 172.863622 331.220241 
L 171.359597 333.209605 
L 169.693203 335.131629 
L 167.854932 336.971695 
L 165.840445 338.714753 
L 163.65205 340.346932 
L 161.299115 341.857369 
L 158.797085 343.239696 
L 156.165345 344.49266 
L 153.424675 345.619745 
L 149.152582 347.090524 
L 144.737462 348.326617 
L 140.222909 349.362786 
L 134.100839 350.488432 
L 128.205593 351.338833 
L 124.478664 351.818843 
L 124.478664 351.818843 
" style="fill:none;stroke:#ff0000;stroke-dasharray:12,12;stroke-dashoffset:0;stroke-width:2;"/>
   </g>
   <g id="line2d_34">
    <path clip-path="url(#pdaab384aeb)" d="M 124.478664 351.818843 
L 124.457585 351.850804 
L 124.460923 351.864549 
L 124.728429 352.07212 
L 125.416178 353.089047 
L 126.138381 354.093914 
L 126.947665 355.064416 
L 127.850396 355.991955 
L 128.849743 356.867493 
L 129.944521 357.682677 
L 131.128847 358.431185 
L 132.392913 359.109777 
L 133.724636 359.718633 
L 135.111498 360.260903 
L 136.541959 360.741775 
L 138.006203 361.167472 
L 139.496324 361.544447 
L 141.006169 361.878868 
L 142.531051 362.176341 
L 144.067434 362.441814 
L 145.612663 362.679572 
L 147.16474 362.893286 
L 148.72216 363.086088 
L 150.283779 363.260641 
L 151.848726 363.419214 
L 153.416329 363.563739 
L 154.986068 363.69587 
L 156.557536 363.817022 
L 158.130415 363.928416 
L 159.70445 364.031106 
L 161.279441 364.126004 
L 162.855225 364.213906 
L 164.431671 364.295506 
L 166.008672 364.371412 
L 167.586143 364.442161 
L 169.16401 364.508224 
L 170.742215 364.570021 
L 172.320708 364.627923 
L 173.899449 364.682261 
L 175.478403 364.733332 
L 177.057542 364.781401 
L 178.63684 364.826705 
L 180.216277 364.869459 
L 181.795835 364.909858 
L 183.375499 364.948075 
L 184.955257 364.984269 
L 186.535096 365.018586 
L 188.115007 365.051155 
L 189.694983 365.082098 
L 191.275015 365.111523 
L 192.855097 365.139531 
L 194.435224 365.166214 
L 196.015391 365.191655 
L 197.595594 365.215934 
L 199.17583 365.23912 
L 200.756093 365.261281 
L 202.336383 365.282477 
L 203.916696 365.302765 
L 205.49703 365.322197 
L 207.077383 365.340821 
L 208.657753 365.358683 
L 210.238139 365.375825 
L 211.818539 365.392285 
L 213.398952 365.4081 
L 214.979376 365.423304 
L 216.559812 365.437928 
L 218.140257 365.452003 
L 219.72071 365.465555 
L 221.301173 365.478612 
L 222.881642 365.491196 
L 224.462119 365.503332 
L 226.042601 365.51504 
L 227.62309 365.526341 
L 229.203584 365.537253 
L 230.784083 365.547795 
L 232.364586 365.557984 
L 233.945093 365.567834 
L 235.525605 365.577362 
L 237.10612 365.586582 
L 238.686638 365.595506 
L 240.267159 365.604147 
L 241.847684 365.612518 
L 243.428211 365.62063 
L 245.00874 365.628493 
L 246.589271 365.636118 
L 248.169805 365.643515 
L 249.750341 365.650691 
L 251.330878 365.657657 
L 252.911418 365.664421 
L 254.491959 365.67099 
L 256.072501 365.677371 
L 257.653045 365.683573 
L 259.23359 365.689601 
L 260.814136 365.695463 
L 262.394684 365.701164 
L 263.975232 365.70671 
L 265.555782 365.712108 
L 267.136332 365.717361 
L 268.716883 365.722476 
L 269.981325 365.726471 
L 270.613546 365.728437 
L 271.245767 365.730383 
L 271.877989 365.732309 
L 272.51021 365.734214 
L 273.774653 365.737967 
L 275.355208 365.74255 
L 276.935763 365.747018 
L 278.516319 365.751374 
L 280.096875 365.755623 
L 281.677432 365.759767 
L 283.25799 365.76381 
L 284.838548 365.767756 
L 286.419106 365.771607 
L 287.999665 365.775367 
L 289.580224 365.779038 
L 291.160784 365.782623 
L 292.741344 365.786126 
L 294.321904 365.789547 
L 295.902465 365.792891 
L 297.483026 365.796159 
L 299.063587 365.799354 
L 300.644149 365.802477 
L 302.22471 365.805532 
L 303.805272 365.808519 
" style="fill:none;stroke:#ff0000;stroke-linecap:square;stroke-width:2;"/>
   </g>
   <g id="line2d_35">
    <path clip-path="url(#pdaab384aeb)" d="M 239.634419 344.037968 
L 248.834793 343.070342 
L 258.65023 342.1961 
L 268.516311 341.09604 
L 277.942894 339.823737 
L 286.722824 338.418138 
L 294.899533 336.886179 
L 302.405279 335.256604 
L 309.292413 333.538156 
L 315.692816 331.71387 
L 321.601514 329.799136 
L 327.079528 327.789904 
L 332.067393 325.729584 
L 336.767162 323.551843 
L 341.084148 321.315288 
L 345.202636 318.93596 
L 349.061583 316.453919 
L 352.776016 313.797126 
L 356.236451 311.048922 
L 359.524009 308.156719 
L 362.680654 305.083064 
L 365.69502 301.836629 
L 368.522744 298.474469 
L 371.253447 294.89481 
L 373.94173 291.005181 
L 376.532802 286.862588 
L 379.036379 282.437757 
L 381.457255 277.704147 
L 383.799469 272.631858 
L 386.104976 267.089365 
L 388.294734 261.236282 
L 390.416981 254.922494 
L 392.470208 248.108409 
L 394.457422 240.733288 
L 396.377206 232.743961 
L 397.691184 226.702183 
L 397.691184 226.702183 
" style="fill:none;stroke:#008000;stroke-linecap:square;stroke-width:2;"/>
   </g>
   <g id="line2d_36">
    <path clip-path="url(#pdaab384aeb)" d="M 239.634419 344.037968 
L 235.284668 344.559837 
L 235.284668 344.559837 
" style="fill:none;stroke:#0000ff;stroke-linecap:square;stroke-width:2;"/>
   </g>
   <g id="line2d_37">
    <path clip-path="url(#pdaab384aeb)" d="M 235.284668 344.559837 
L 214.594536 347.203822 
L 194.872783 349.905003 
L 189.618343 350.751025 
L 189.618343 350.751025 
" style="fill:none;stroke:#0000ff;stroke-dasharray:12,12;stroke-dashoffset:0;stroke-width:2;"/>
   </g>
   <g id="line2d_38">
    <path clip-path="url(#pdaab384aeb)" d="M 189.618343 350.751025 
L 187.558326 351.15141 
L 187.558326 351.15141 
" style="fill:none;stroke:#0000ff;stroke-linecap:square;stroke-width:2;"/>
   </g>
   <g id="line2d_39">
    <path clip-path="url(#pdaab384aeb)" d="M 187.558326 351.15141 
L 188.098387 351.152413 
L 189.886189 350.962503 
L 236.185076 344.843955 
L 249.128107 342.7432 
L 259.173582 340.897053 
L 268.837281 338.903454 
L 277.728033 336.845183 
L 285.973754 334.710582 
L 293.642275 332.498218 
L 300.808117 330.201818 
L 307.518592 327.820109 
L 313.825289 325.34779 
L 319.751155 322.787931 
L 325.339163 320.133582 
L 330.60168 317.389518 
L 335.495486 314.594725 
L 340.194518 311.658653 
L 344.623215 308.632015 
L 348.824824 305.493054 
L 353.050406 302.032241 
L 356.800985 298.664871 
L 360.356752 295.174219 
L 363.725627 291.556087 
L 367.097392 287.581927 
L 370.139035 283.643135 
L 373.036609 279.525825 
L 375.803971 275.205523 
L 378.451411 270.657849 
L 380.988006 265.856015 
L 383.424323 260.764805 
L 385.769826 255.343452 
L 388.026931 249.561925 
L 390.180626 243.439292 
L 392.284245 236.787075 
L 394.320186 229.603699 
L 396.289701 221.83007 
L 397.691611 215.720303 
L 397.691611 215.720303 
" style="fill:none;stroke:#0000ff;stroke-dasharray:12,12;stroke-dashoffset:0;stroke-width:2;"/>
   </g>
   <g id="line2d_40">
    <path clip-path="url(#pdaab384aeb)" d="M 208.023072 334.262408 
L 213.527705 332.355228 
L 216.528268 331.211255 
L 216.528268 331.211255 
" style="fill:none;stroke:#000000;stroke-dasharray:12,12;stroke-dashoffset:0;stroke-width:2;"/>
   </g>
   <g id="line2d_41">
    <path clip-path="url(#pdaab384aeb)" d="M 216.528268 331.211255 
L 221.589076 329.096101 
L 226.347721 326.868157 
L 230.746139 324.570641 
L 234.926619 322.140115 
L 238.866433 319.594374 
L 242.574664 316.934987 
L 246.07631 314.150715 
L 249.384774 311.237154 
L 252.527528 308.173384 
L 255.507232 304.958604 
L 258.311862 301.613356 
L 261.02973 298.029203 
L 263.65256 294.200247 
L 266.182234 290.110543 
L 268.648835 285.692968 
L 271.051764 280.929251 
L 273.410761 275.74249 
L 276.473702 268.64627 
L 276.48712 268.697968 
" style="fill:none;stroke:#000000;stroke-linecap:square;stroke-width:2;"/>
   </g>
   <g id="line2d_42">
    <path clip-path="url(#pdaab384aeb)" d="M 276.48712 268.697968 
L 276.375481 269.286102 
L 275.634169 271.838365 
L 274.107237 276.307652 
L 272.215533 281.150265 
L 270.14082 285.830716 
L 267.989589 290.132712 
L 265.726491 294.164374 
L 263.445514 297.802995 
L 260.952217 301.372982 
L 258.325316 304.749371 
L 255.531396 307.978904 
L 252.585331 311.046503 
L 249.452709 313.989896 
L 245.965155 316.955391 
L 242.318878 319.761845 
L 238.610508 322.352731 
L 234.503821 324.958213 
L 230.096206 327.491486 
L 225.419404 329.924289 
L 220.447825 332.262294 
L 215.066878 334.54412 
L 209.368397 336.716764 
L 203.29464 338.793479 
L 196.860061 340.760104 
L 189.939464 342.640946 
L 182.896645 344.324677 
L 176.973564 345.526735 
L 173.389617 346.051256 
L 171.472177 346.127597 
L 170.311549 345.965502 
L 169.456936 345.626157 
L 168.50303 344.979671 
L 168.324669 344.896788 
L 168.324669 344.896788 
" style="fill:none;stroke:#000000;stroke-dasharray:12,12;stroke-dashoffset:0;stroke-width:2;"/>
   </g>
   <g id="line2d_43">
    <path clip-path="url(#pdaab384aeb)" d="M 168.324669 344.896788 
L 168.325858 344.894198 
L 168.329425 344.891171 
L 168.334991 344.887898 
L 168.342018 344.884517 
L 168.35007 344.881075 
L 168.358844 344.877618 
" style="fill:none;stroke:#000000;stroke-linecap:square;stroke-width:2;"/>
   </g>
   <g id="line2d_44">
    <path clip-path="url(#pdaab384aeb)" d="M 168.358844 344.877618 
L 169.664405 344.514829 
L 196.474201 337.527695 
L 201.901135 336.115633 
L 207.53051 334.421737 
L 212.810913 332.6171 
L 216.528052 331.211286 
L 216.528052 331.211286 
" style="fill:none;stroke:#000000;stroke-dasharray:12,12;stroke-dashoffset:0;stroke-width:2;"/>
   </g>
   <g id="line2d_45">
    <path clip-path="url(#pdaab384aeb)" d="M 216.528052 331.211286 
L 221.588877 329.096271 
L 226.367048 326.858556 
L 230.83483 324.521569 
L 235.184223 321.981709 
L 239.107278 319.429783 
L 242.806658 316.75929 
L 246.298096 313.964461 
L 249.596011 311.040775 
L 252.732817 307.962074 
L 255.701173 304.737791 
L 258.514456 301.358429 
L 261.229651 297.750838 
L 263.866795 293.869755 
L 266.387986 289.758929 
L 268.848004 285.316311 
L 271.229124 280.557314 
L 273.59042 275.326305 
L 276.473026 268.646068 
L 276.48712 268.698073 
" style="fill:none;stroke:#000000;stroke-linecap:square;stroke-width:2;"/>
   </g>
   <g id="line2d_46">
    <path clip-path="url(#pdaab384aeb)" d="M 276.48712 268.698073 
L 276.375481 269.286183 
L 275.630237 271.85085 
L 274.096835 276.336003 
L 272.239957 281.091538 
L 270.214911 285.67332 
L 268.072665 289.975632 
L 265.81035 294.022949 
L 263.435913 297.817443 
L 260.920364 301.416051 
L 258.321414 304.754093 
L 255.527096 307.98354 
L 252.556925 311.074555 
L 250.087171 313.417738 
L 250.087171 313.417738 
" style="fill:none;stroke:#000000;stroke-dasharray:12,12;stroke-dashoffset:0;stroke-width:2;"/>
   </g>
   <g id="line2d_47">
    <path clip-path="url(#pdaab384aeb)" d="M 208.023072 334.262408 
L 202.392901 335.97674 
L 196.810242 337.447038 
L 186.061766 340.160745 
L 169.976443 344.432583 
L 168.36531 344.875189 
L 168.36531 344.875189 
" style="fill:none;stroke:#ff0000;stroke-dasharray:12,12;stroke-dashoffset:0;stroke-width:2;"/>
   </g>
   <g id="line2d_48">
    <path clip-path="url(#pdaab384aeb)" d="M 168.36531 344.875189 
L 168.35616 344.878641 
L 168.34759 344.882091 
L 168.339826 344.885514 
L 168.333203 344.888867 
L 168.328183 344.892064 
L 168.325274 344.894986 
L 168.324669 344.896845 
" style="fill:none;stroke:#ff0000;stroke-linecap:square;stroke-width:2;"/>
   </g>
   <g id="line2d_49">
    <path clip-path="url(#pdaab384aeb)" d="M 168.324669 344.896845 
L 168.484991 344.966542 
L 169.832783 345.80557 
L 170.731796 346.054255 
L 171.914538 346.135917 
L 173.719352 346.016754 
L 176.714163 345.572416 
L 181.650617 344.59693 
L 188.337259 343.044357 
L 195.320281 341.198566 
L 202.013624 339.203118 
L 208.236882 337.121325 
L 214.090327 334.933281 
L 219.581678 332.646054 
L 224.718176 330.268621 
L 229.511642 327.809142 
L 234.027988 325.244141 
L 238.087817 322.698912 
L 242.009781 319.987333 
L 245.695905 317.172376 
L 249.181706 314.23097 
L 252.386641 311.24233 
L 255.381138 308.143239 
L 258.188987 304.91508 
L 260.643168 301.789307 
L 263.136847 298.266507 
L 265.499772 294.543854 
L 267.725477 290.627519 
L 269.844007 286.45497 
L 271.785934 282.168416 
L 273.675229 277.470486 
L 275.361236 272.688228 
L 276.428021 269.061835 
L 276.48712 268.697941 
L 276.48712 268.697941 
" style="fill:none;stroke:#ff0000;stroke-dasharray:12,12;stroke-dashoffset:0;stroke-width:2;"/>
   </g>
   <g id="line2d_50">
    <path clip-path="url(#pdaab384aeb)" d="M 276.48712 268.697941 
L 276.468714 268.645356 
L 276.376502 268.761127 
L 275.85731 269.903393 
L 271.288762 280.431592 
L 268.874587 285.265831 
L 266.352351 289.820054 
L 263.795058 293.980736 
L 261.160209 297.847792 
L 258.405463 301.495812 
L 255.536151 304.925767 
L 252.540028 308.160533 
L 249.393203 311.229344 
L 246.09763 314.132869 
L 242.604862 316.912165 
L 238.931522 319.550016 
L 235.030662 322.076223 
L 230.878409 324.497563 
L 226.492807 326.79626 
L 221.81172 328.997287 
L 216.840041 331.08777 
L 216.528191 331.211174 
L 216.528191 331.211174 
" style="fill:none;stroke:#ff0000;stroke-linecap:square;stroke-width:2;"/>
   </g>
   <g id="line2d_51">
    <path clip-path="url(#pdaab384aeb)" d="M 216.528191 331.211174 
L 211.237408 333.177849 
L 205.693416 334.999886 
L 200.041789 336.624295 
L 194.601127 337.960528 
L 189.899246 339.118814 
L 168.369427 344.873791 
L 168.369427 344.873791 
" style="fill:none;stroke:#ff0000;stroke-dasharray:12,12;stroke-dashoffset:0;stroke-width:2;"/>
   </g>
   <g id="line2d_52">
    <path clip-path="url(#pdaab384aeb)" d="M 168.369427 344.873791 
L 168.360077 344.877239 
L 168.351232 344.880708 
L 168.343083 344.884142 
L 168.335915 344.887528 
L 168.330135 344.890821 
L 168.326251 344.893876 
L 168.324693 344.896571 
L 168.32467 344.897015 
" style="fill:none;stroke:#ff0000;stroke-linecap:square;stroke-width:2;"/>
   </g>
   <g id="line2d_53">
    <path clip-path="url(#pdaab384aeb)" d="M 168.32467 344.897015 
L 168.487544 344.968363 
L 169.836663 345.807154 
L 170.731849 346.054293 
L 171.91462 346.135935 
L 173.719463 346.016767 
L 176.714289 345.572386 
L 181.665704 344.59377 
L 188.36737 343.03683 
L 195.378231 341.182241 
L 202.095094 339.177215 
L 208.36205 337.076968 
L 214.204615 334.88818 
L 219.664721 332.609629 
L 224.784002 330.236555 
L 229.605208 327.758545 
L 234.151062 325.170495 
L 238.394737 322.496127 
L 242.344985 319.742766 
L 246.000316 316.926935 
L 249.469074 313.975316 
L 252.623847 311.008295 
L 255.596445 307.907459 
L 258.392125 304.667819 
L 261.016314 301.285927 
L 263.490725 297.734482 
L 265.836725 293.978352 
L 267.982158 290.146718 
L 270.122584 285.869353 
L 272.047948 281.550594 
L 273.927419 276.796266 
L 275.361236 272.68835 
L 276.424819 269.076318 
L 276.48712 268.698098 
L 276.48712 268.698098 
" style="fill:none;stroke:#ff0000;stroke-dasharray:12,12;stroke-dashoffset:0;stroke-width:2;"/>
   </g>
   <g id="line2d_54">
    <path clip-path="url(#pdaab384aeb)" d="M 276.48712 268.698098 
L 276.468973 268.645182 
L 276.376501 268.760947 
L 275.808915 270.018435 
L 272.437895 277.944704 
L 272.437895 277.944704 
" style="fill:none;stroke:#ff0000;stroke-linecap:square;stroke-width:2;"/>
   </g>
   <g id="line2d_55">
    <path clip-path="url(#pdaab384aeb)" d="M 235.284668 344.559827 
L 235.191429 343.927913 
L 234.890079 343.32886 
L 234.384088 342.823343 
L 233.644617 342.410996 
L 232.618154 342.106779 
L 231.238695 341.938566 
L 229.350863 341.94314 
L 227.901336 342.053951 
L 227.901336 342.053951 
" style="fill:none;stroke:#008000;stroke-linecap:square;stroke-width:2;"/>
   </g>
   <g id="line2d_56">
    <path clip-path="url(#pdaab384aeb)" d="M 227.901336 342.053951 
L 224.666116 342.492409 
L 220.534764 343.281484 
L 199.449494 347.825588 
L 192.633561 349.518508 
L 190.404851 350.196516 
L 190.404851 350.196516 
" style="fill:none;stroke:#008000;stroke-dasharray:12,12;stroke-dashoffset:0;stroke-width:2;"/>
   </g>
   <g id="line2d_57">
    <path clip-path="url(#pdaab384aeb)" d="M 190.404851 350.196516 
L 190.375303 350.208141 
L 190.345915 350.219891 
L 190.316697 350.231766 
L 190.28766 350.24376 
L 190.258814 350.2559 
L 190.230173 350.268178 
L 190.201749 350.280617 
L 190.173557 350.293187 
L 190.145613 350.30591 
L 190.117932 350.31877 
L 190.090533 350.33182 
L 190.063435 350.345039 
L 190.03666 350.358433 
L 190.010229 350.372006 
L 189.98417 350.385764 
L 189.958508 350.399714 
L 189.933275 350.41386 
L 189.908505 350.428208 
L 189.884233 350.442811 
L 189.860501 350.457584 
L 189.837355 350.472574 
L 189.814846 350.487798 
L 189.793029 350.503236 
L 189.771967 350.518902 
L 189.75173 350.534897 
L 189.732394 350.551006 
L 189.714044 350.567313 
L 189.696772 350.583854 
L 189.680679 350.600628 
L 189.66587 350.617563 
L 189.65246 350.634559 
L 189.640563 350.651788 
L 189.630295 350.669119 
L 189.621767 350.686455 
L 189.615082 350.703859 
L 189.610326 350.721212 
L 189.607563 350.738448 
L 189.60696 350.753048 
L 189.60784 350.735954 
L 189.610898 350.718919 
L 189.615942 350.701536 
L 189.622903 350.684095 
L 189.631693 350.666655 
L 189.642209 350.649296 
L 189.654337 350.632047 
L 189.667962 350.614844 
L 189.682968 350.597922 
L 189.699244 350.581193 
L 189.716682 350.564711 
L 189.735184 350.548404 
L 189.75466 350.532322 
L 189.775024 350.516511 
L 189.796203 350.500882 
L 189.818127 350.485481 
L 189.840735 350.470366 
L 189.863971 350.455407 
L 189.887786 350.440664 
L 189.912135 350.4261 
L 189.936977 350.411791 
L 189.962275 350.397683 
L 189.987998 350.383718 
L 190.014114 350.369987 
L 190.040598 350.356441 
L 190.067422 350.343189 
L 190.094566 350.329984 
L 190.122009 350.316948 
L 190.14973 350.304098 
L 190.177712 350.291402 
L 190.205939 350.278858 
L 190.234396 350.266563 
L 190.263069 350.254288 
L 190.291944 350.242151 
L 190.321009 350.230172 
L 190.350253 350.218298 
L 190.376278 350.207892 
" style="fill:none;stroke:#008000;stroke-linecap:square;stroke-width:2;"/>
   </g>
   <g id="line2d_58">
    <path clip-path="url(#pdaab384aeb)" d="M 190.376278 350.207892 
L 191.980612 349.698502 
L 197.016155 348.400921 
L 205.175988 346.542633 
L 222.324511 342.913049 
L 226.296347 342.246025 
L 227.870321 342.05704 
L 227.870321 342.05704 
" style="fill:none;stroke:#008000;stroke-dasharray:12,12;stroke-dashoffset:0;stroke-width:2;"/>
   </g>
   <g id="line2d_59">
    <path clip-path="url(#pdaab384aeb)" d="M 227.870321 342.05704 
L 230.625382 341.91735 
L 232.310363 342.05098 
L 233.492236 342.351258 
L 234.325767 342.780899 
L 234.860632 343.289408 
L 235.181389 343.896369 
L 235.284811 344.554032 
L 235.284811 344.554032 
" style="fill:none;stroke:#008000;stroke-linecap:square;stroke-width:2;"/>
   </g>
   <g id="line2d_60">
    <path clip-path="url(#pdaab384aeb)" d="M 216.528268 331.212311 
L 216.464728 330.329672 
L 216.200528 329.304714 
L 215.778558 328.515351 
L 215.247082 327.976217 
L 214.668518 327.685969 
L 214.323827 327.616399 
L 214.323827 327.616399 
" style="fill:none;stroke:#0000ff;stroke-linecap:square;stroke-width:2;"/>
   </g>
   <g id="line2d_61">
    <path clip-path="url(#pdaab384aeb)" d="M 214.323827 327.616399 
L 213.610363 327.651048 
L 212.522281 327.95403 
L 210.452118 328.801369 
L 197.948542 334.241173 
L 187.607912 338.078051 
L 176.338237 341.986455 
L 169.096953 344.556697 
L 168.385074 344.854786 
L 168.385074 344.854786 
" style="fill:none;stroke:#0000ff;stroke-dasharray:12,12;stroke-dashoffset:0;stroke-width:2;"/>
   </g>
   <g id="line2d_62">
    <path clip-path="url(#pdaab384aeb)" d="M 168.385074 344.854786 
L 168.372425 344.863928 
L 168.364957 344.874032 
L 168.364944 344.874422 
" style="fill:none;stroke:#0000ff;stroke-linecap:square;stroke-width:2;"/>
   </g>
   <g id="line2d_63">
    <path clip-path="url(#pdaab384aeb)" d="M 216.528052 331.211691 
L 216.486738 330.493913 
L 216.248156 329.434397 
L 215.844736 328.609716 
L 215.325282 328.03556 
L 214.736805 327.70792 
L 214.323813 327.615809 
L 214.323813 327.615809 
" style="fill:none;stroke:#000000;stroke-linecap:square;stroke-width:2;"/>
   </g>
   <g id="line2d_64">
    <path clip-path="url(#pdaab384aeb)" d="M 214.323813 327.615809 
L 213.56853 327.658086 
L 212.429681 327.986563 
L 210.305915 328.866386 
L 198.976022 333.842384 
L 192.427371 336.307635 
L 182.829418 339.768307 
L 168.385062 344.854851 
L 168.385062 344.854851 
" style="fill:none;stroke:#000000;stroke-dasharray:12,12;stroke-dashoffset:0;stroke-width:2;"/>
   </g>
   <g id="line2d_65">
    <path clip-path="url(#pdaab384aeb)" d="M 168.385062 344.854851 
L 168.372415 344.863978 
L 168.364955 344.874061 
L 168.364947 344.874096 
" style="fill:none;stroke:#000000;stroke-linecap:square;stroke-width:2;"/>
   </g>
   <g id="line2d_66">
    <path clip-path="url(#pdaab384aeb)" d="M 216.528191 331.211782 
L 216.473123 330.38737 
L 216.216864 329.346827 
L 215.79883 328.542699 
L 215.276858 327.997422 
L 214.68238 327.689515 
L 214.323829 327.615631 
L 214.323829 327.615631 
" style="fill:none;stroke:#ff0000;stroke-linecap:square;stroke-width:2;"/>
   </g>
   <g id="line2d_67">
    <path clip-path="url(#pdaab384aeb)" d="M 214.323829 327.615631 
L 213.631149 327.647084 
L 212.545375 327.946246 
L 210.549365 328.758341 
L 197.651088 334.354608 
L 186.065098 338.630513 
L 175.750125 342.185474 
L 169.047077 344.576724 
L 168.385077 344.854783 
L 168.385077 344.854783 
" style="fill:none;stroke:#ff0000;stroke-dasharray:12,12;stroke-dashoffset:0;stroke-width:2;"/>
   </g>
   <g id="line2d_68">
    <path clip-path="url(#pdaab384aeb)" d="M 168.385077 344.854783 
L 168.372427 344.863923 
L 168.364957 344.874026 
L 168.364945 344.874736 
" style="fill:none;stroke:#ff0000;stroke-linecap:square;stroke-width:2;"/>
   </g>
   <g id="line2d_69">
    <path clip-path="url(#pdaab384aeb)" d="M 227.901336 342.054001 
L 227.901312 342.052451 
L 227.90109 342.050176 
L 227.900401 342.046916 
L 227.899135 342.043387 
L 227.897343 342.04002 
L 227.895027 342.036822 
L 227.89219 342.033777 
L 227.888835 342.030896 
L 227.884964 342.028177 
L 227.880583 342.025618 
L 227.875696 342.023221 
L 227.870308 342.021 
L 227.864424 342.01893 
L 227.85805 342.017021 
L 227.851192 342.015252 
L 227.843857 342.013637 
L 227.836051 342.012129 
L 227.827782 342.010779 
L 227.819057 342.00958 
L 227.809884 342.008533 
L 227.80027 342.007638 
L 227.790223 342.006891 
L 227.779752 342.00629 
L 227.768865 342.005833 
L 227.757569 342.00552 
L 227.745874 342.005347 
L 227.733787 342.005321 
L 227.721318 342.005424 
L 227.708473 342.005662 
L 227.695262 342.006001 
L 227.681694 342.006433 
L 227.667775 342.006992 
L 227.653515 342.007669 
L 227.638921 342.008478 
L 227.624002 342.009407 
L 227.608766 342.010453 
L 227.593219 342.011617 
L 227.57737 342.012894 
L 227.561227 342.014285 
L 227.544796 342.015782 
L 227.528085 342.017386 
L 227.511102 342.019092 
L 227.493852 342.020901 
L 227.476344 342.022787 
L 227.458582 342.024747 
L 227.440575 342.026787 
L 227.422329 342.02892 
L 227.403849 342.031137 
L 227.385141 342.033454 
L 227.366213 342.035857 
L 227.347069 342.038346 
L 227.327715 342.04092 
L 227.308156 342.043576 
L 227.288398 342.04632 
L 227.268447 342.049137 
L 227.248307 342.052031 
L 227.227983 342.054998 
L 227.20748 342.05804 
L 227.186802 342.061153 
L 227.165955 342.064274 
L 227.144943 342.067477 
L 227.123771 342.070747 
L 227.102441 342.074093 
L 227.080959 342.077491 
L 227.059329 342.080953 
L 227.037555 342.084482 
L 227.015639 342.088064 
L 226.993588 342.091706 
L 226.973548 342.095047 
" style="fill:none;stroke:#008000;stroke-linecap:square;stroke-width:2;"/>
   </g>
   <g id="line2d_70">
    <path clip-path="url(#pdaab384aeb)" d="M 226.973548 342.095047 
L 224.32323 342.652682 
L 208.142639 346.030588 
L 196.726124 348.531906 
L 190.972701 350.005329 
L 190.476335 350.156596 
L 190.476335 350.156596 
" style="fill:none;stroke:#008000;stroke-dasharray:12,12;stroke-dashoffset:0;stroke-width:2;"/>
   </g>
   <g id="line2d_71">
    <path clip-path="url(#pdaab384aeb)" d="M 190.476335 350.156596 
L 190.458185 350.163251 
L 190.440319 350.170135 
L 190.422881 350.177308 
L 190.406149 350.184883 
L 190.390779 350.193072 
L 190.378802 350.202245 
L 190.376184 350.207752 
L 190.38322 350.198211 
L 190.398415 350.188798 
L 190.414839 350.180887 
L 190.432042 350.173531 
L 190.449748 350.166525 
" style="fill:none;stroke:#008000;stroke-linecap:square;stroke-width:2;"/>
   </g>
   <g id="line2d_72">
    <path clip-path="url(#pdaab384aeb)" d="M 190.449748 350.166525 
L 191.749914 349.79017 
L 197.242168 348.410639 
L 205.844074 346.514553 
L 226.973509 342.095055 
L 226.973509 342.095055 
" style="fill:none;stroke:#008000;stroke-dasharray:12,12;stroke-dashoffset:0;stroke-width:2;"/>
   </g>
   <g id="line2d_73">
    <path clip-path="url(#pdaab384aeb)" d="M 226.973509 342.095055 
L 226.995681 342.091357 
L 227.01772 342.087718 
L 227.039622 342.084144 
L 227.061383 342.080627 
L 227.083 342.077173 
L 227.104467 342.07374 
L 227.125782 342.0704 
L 227.14694 342.067126 
L 227.167936 342.063945 
L 227.188767 342.060781 
L 227.209428 342.057686 
L 227.229914 342.054658 
L 227.250221 342.051722 
L 227.270344 342.048861 
L 227.290277 342.046041 
L 227.310016 342.043321 
L 227.329555 342.040681 
L 227.34889 342.03811 
L 227.368014 342.03563 
L 227.386922 342.033236 
L 227.405608 342.030957 
L 227.424066 342.028746 
L 227.44229 342.026627 
L 227.460274 342.024559 
L 227.478012 342.02257 
L 227.495496 342.020678 
L 227.512721 342.018884 
L 227.529679 342.017194 
L 227.546363 342.015609 
L 227.562767 342.014175 
L 227.578883 342.01279 
L 227.594703 342.011516 
L 227.610221 342.010352 
L 227.625428 342.00932 
L 227.640316 342.008405 
L 227.654879 342.007629 
L 227.669107 342.006916 
L 227.682992 342.006328 
L 227.696528 342.005865 
L 227.709704 342.005551 
L 227.722513 342.00537 
L 227.734947 342.005279 
L 227.746997 342.005337 
L 227.758655 342.005533 
L 227.769912 342.005871 
L 227.780761 342.006351 
L 227.791192 342.006977 
L 227.801198 342.007759 
L 227.81077 342.008683 
L 227.819901 342.009758 
L 227.828584 342.010853 
L 227.836809 342.012186 
L 227.84457 342.013676 
L 227.851861 342.015345 
L 227.858673 342.017161 
L 227.865001 342.019136 
L 227.870839 342.021174 
L 227.87618 342.023444 
L 227.881019 342.025875 
L 227.885352 342.028433 
L 227.889174 342.031161 
L 227.892481 342.034052 
L 227.895269 342.037205 
L 227.897535 342.040404 
L 227.899277 342.043736 
L 227.900494 342.047197 
L 227.901183 342.050885 
L 227.901354 342.053902 
" style="fill:none;stroke:#008000;stroke-linecap:square;stroke-width:2;"/>
   </g>
   <g id="line2d_74">
    <path clip-path="url(#pdaab384aeb)" d="M 190.376278 350.207778 
L 190.377305 350.20433 
L 190.382751 350.198606 
L 190.391541 350.192619 
L 190.40265 350.186612 
L 190.415782 350.180424 
L 190.430866 350.173949 
L 190.447935 350.167141 
" style="fill:none;stroke:#0000ff;stroke-linecap:square;stroke-width:2;"/>
   </g>
   <g id="line2d_75">
    <path clip-path="url(#pdaab384aeb)" d="M 190.447935 350.167141 
L 191.787638 349.779953 
L 197.306038 348.395674 
L 205.940841 346.493986 
L 226.960844 342.097187 
L 226.960844 342.097187 
" style="fill:none;stroke:#0000ff;stroke-dasharray:12,12;stroke-dashoffset:0;stroke-width:2;"/>
   </g>
   <g id="line2d_76">
    <path clip-path="url(#pdaab384aeb)" d="M 226.960844 342.097187 
L 226.98309 342.093455 
L 227.005206 342.089856 
L 227.027186 342.086222 
L 227.049028 342.082648 
L 227.070727 342.079109 
L 227.09228 342.075668 
L 227.113682 342.07229 
L 227.134929 342.06898 
L 227.156018 342.065735 
L 227.176944 342.062559 
L 227.197702 342.059437 
L 227.218288 342.056398 
L 227.238697 342.053431 
L 227.258925 342.050465 
L 227.278967 342.047623 
L 227.298817 342.044859 
L 227.31847 342.042177 
L 227.337922 342.039575 
L 227.357166 342.037056 
L 227.376198 342.034608 
L 227.395011 342.032226 
L 227.413599 342.029932 
L 227.431957 342.02773 
L 227.450079 342.025631 
L 227.467957 342.023626 
L 227.485586 342.021757 
L 227.502959 342.019906 
L 227.52007 342.018155 
L 227.536911 342.016526 
L 227.553475 342.014979 
L 227.569755 342.013539 
L 227.585745 342.012287 
L 227.601435 342.011048 
L 227.61682 342.009924 
L 227.63189 342.008997 
L 227.646639 342.008093 
L 227.661058 342.007309 
L 227.67514 342.006646 
L 227.688875 342.006145 
L 227.702257 342.005773 
L 227.715276 342.005472 
L 227.727924 342.005314 
L 227.740193 342.005291 
L 227.752075 342.005436 
L 227.763561 342.005714 
L 227.774643 342.006133 
L 227.785313 342.00659 
L 227.795561 342.007271 
L 227.805381 342.008101 
L 227.814764 342.009135 
L 227.823703 342.010214 
L 227.832189 342.011446 
L 227.840215 342.01282 
L 227.847774 342.01439 
L 227.854859 342.016118 
L 227.861463 342.017955 
L 227.86758 342.019988 
L 227.873204 342.022182 
L 227.87833 342.024465 
L 227.882951 342.026945 
L 227.887064 342.029587 
L 227.890664 342.032394 
L 227.893747 342.035364 
L 227.89631 342.038496 
L 227.898351 342.041809 
L 227.899867 342.04527 
L 227.900856 342.048854 
L 227.901318 342.052515 
L 227.901317 342.052509 
" style="fill:none;stroke:#0000ff;stroke-linecap:square;stroke-width:2;"/>
   </g>
   <g id="line2d_77">
    <path clip-path="url(#pdaab384aeb)" d="M 214.323827 327.615308 
L 214.323865 327.610854 
L 214.323753 327.604237 
L 214.323403 327.594427 
L 214.32276 327.583845 
L 214.32185 327.573529 
L 214.320674 327.563445 
L 214.319232 327.553674 
L 214.317525 327.544179 
L 214.315555 327.534965 
L 214.313324 327.526028 
L 214.310832 327.517372 
L 214.308083 327.508997 
L 214.305077 327.500908 
L 214.301817 327.493103 
L 214.298306 327.48558 
L 214.294546 327.478342 
L 214.29054 327.471386 
L 214.286291 327.464712 
L 214.281801 327.458317 
L 214.277074 327.452199 
L 214.272113 327.446363 
L 214.266921 327.440796 
L 214.261502 327.4355 
L 214.255859 327.430477 
L 214.249995 327.425715 
L 214.243915 327.421214 
L 214.237622 327.41698 
L 214.23112 327.412994 
L 214.224413 327.409259 
L 214.217503 327.405776 
L 214.210396 327.402532 
L 214.203094 327.399528 
L 214.195602 327.396792 
L 214.187924 327.394257 
L 214.180062 327.39195 
L 214.172021 327.389802 
L 214.163805 327.387841 
L 214.155416 327.386097 
L 214.14686 327.384544 
L 214.138138 327.38322 
L 214.129255 327.3821 
L 214.120214 327.381174 
" style="fill:none;stroke:#000000;stroke-linecap:square;stroke-width:2;"/>
   </g>
   <g id="line2d_78">
    <path clip-path="url(#pdaab384aeb)" d="M 214.120214 327.381174 
L 213.699893 327.456602 
L 212.63423 327.916851 
L 201.549157 333.211773 
L 196.293243 335.29592 
L 191.330398 337.04961 
L 184.40424 339.396118 
L 168.378169 344.859419 
L 168.378169 344.859419 
" style="fill:none;stroke:#000000;stroke-dasharray:12,12;stroke-dashoffset:0;stroke-width:2;"/>
   </g>
   <g id="line2d_79">
    <path clip-path="url(#pdaab384aeb)" d="M 168.378169 344.859419 
L 168.369934 344.866313 
L 168.362884 344.876086 
L 168.36093 344.876817 
L 168.359745 344.877265 
L 168.357968 344.877976 
L 168.355307 344.879007 
L 168.351327 344.880587 
L 168.345394 344.883076 
L 168.338949 344.885982 
L 168.332077 344.889566 
L 168.325516 344.894633 
L 168.324669 344.896827 
" style="fill:none;stroke:#000000;stroke-linecap:square;stroke-width:2;"/>
   </g>
   <g id="line2d_80">
    <path clip-path="url(#pdaab384aeb)" d="M 214.323813 327.614946 
L 214.323844 327.610514 
L 214.323732 327.603936 
L 214.323404 327.594444 
L 214.32276 327.583938 
L 214.32185 327.573697 
L 214.320674 327.563704 
L 214.319232 327.553916 
L 214.317525 327.544404 
L 214.315555 327.535152 
L 214.313324 327.526199 
L 214.310832 327.517528 
L 214.308083 327.509141 
L 214.305077 327.501036 
L 214.301817 327.493214 
L 214.298306 327.48566 
L 214.294546 327.478407 
L 214.29054 327.471436 
L 214.286291 327.464743 
L 214.281801 327.458334 
L 214.277074 327.452202 
L 214.272113 327.446341 
L 214.266921 327.440762 
L 214.261502 327.435453 
L 214.255859 327.430409 
L 214.249995 327.42563 
L 214.243915 327.421114 
L 214.237622 327.416866 
L 214.23112 327.412865 
L 214.224413 327.409115 
L 214.217503 327.405625 
L 214.210396 327.402367 
L 214.203094 327.39935 
L 214.195602 327.396582 
L 214.187924 327.394033 
L 214.180062 327.391712 
L 214.172021 327.389624 
L 214.163805 327.387747 
L 214.155416 327.386086 
L 214.14686 327.384649 
L 214.138138 327.383407 
L 214.129255 327.382369 
L 214.120214 327.381449 
" style="fill:none;stroke:#ff0000;stroke-linecap:square;stroke-width:2;"/>
   </g>
   <g id="line2d_81">
    <path clip-path="url(#pdaab384aeb)" d="M 214.120214 327.381449 
L 213.699893 327.456686 
L 212.601378 327.932928 
L 201.77194 333.117931 
L 196.556651 335.196362 
L 191.526473 336.985995 
L 182.169537 340.146006 
L 168.378169 344.859437 
L 168.378169 344.859437 
" style="fill:none;stroke:#ff0000;stroke-dasharray:12,12;stroke-dashoffset:0;stroke-width:2;"/>
   </g>
   <g id="line2d_82">
    <path clip-path="url(#pdaab384aeb)" d="M 168.378169 344.859437 
L 168.369934 344.866248 
L 168.362884 344.876086 
L 168.36093 344.876817 
L 168.359745 344.877265 
L 168.357968 344.877964 
L 168.355307 344.878994 
L 168.351327 344.880573 
L 168.345394 344.88302 
L 168.338949 344.885925 
L 168.332077 344.889505 
L 168.325516 344.894635 
L 168.324669 344.896831 
" style="fill:none;stroke:#ff0000;stroke-linecap:square;stroke-width:2;"/>
   </g>
   <g id="line2d_83">
    <path clip-path="url(#pdaab384aeb)" d="M 214.323829 327.615164 
L 214.323872 327.610711 
L 214.323759 327.604099 
L 214.323404 327.594329 
L 214.322761 327.583754 
L 214.321851 327.573444 
L 214.320674 327.563385 
L 214.319232 327.553621 
L 214.317525 327.544132 
L 214.315555 327.534917 
L 214.313324 327.525987 
L 214.310832 327.517338 
L 214.308083 327.508972 
L 214.305077 327.500889 
L 214.301817 327.49309 
L 214.298306 327.485575 
L 214.294546 327.478343 
L 214.29054 327.471393 
L 214.286291 327.464728 
L 214.281801 327.45834 
L 214.277074 327.45223 
L 214.272113 327.446397 
L 214.266921 327.440836 
L 214.261502 327.435546 
L 214.255859 327.430531 
L 214.249995 327.425774 
L 214.243915 327.42128 
L 214.237622 327.417039 
L 214.23112 327.413057 
L 214.224413 327.409327 
L 214.217503 327.405864 
L 214.210396 327.402626 
L 214.203094 327.399627 
L 214.195602 327.396872 
L 214.187924 327.394256 
L 214.180062 327.391859 
L 214.172021 327.389686 
L 214.163805 327.387732 
L 214.155416 327.385994 
L 214.14686 327.384455 
L 214.138138 327.383137 
L 214.129255 327.382022 
L 214.120214 327.381111 
" style="fill:none;stroke:#008000;stroke-linecap:square;stroke-width:2;"/>
   </g>
   <g id="line2d_84">
    <path clip-path="url(#pdaab384aeb)" d="M 214.120214 327.381111 
L 213.699893 327.456523 
L 212.63423 327.916857 
L 201.586258 333.196185 
L 196.345856 335.276064 
L 191.395688 337.028493 
L 183.846683 339.583923 
L 168.378169 344.859621 
L 168.378169 344.859621 
" style="fill:none;stroke:#008000;stroke-dasharray:12,12;stroke-dashoffset:0;stroke-width:2;"/>
   </g>
   <g id="line2d_85">
    <path clip-path="url(#pdaab384aeb)" d="M 168.378169 344.859621 
L 168.369934 344.866429 
L 168.362884 344.876091 
L 168.36093 344.876822 
L 168.359745 344.87727 
L 168.357968 344.878103 
L 168.355307 344.879134 
L 168.351327 344.880715 
L 168.345394 344.883043 
L 168.338949 344.885949 
L 168.332077 344.889532 
L 168.325516 344.894642 
L 168.324669 344.896836 
" style="fill:none;stroke:#008000;stroke-linecap:square;stroke-width:2;"/>
   </g>
   <g id="line2d_86">
    <path clip-path="url(#pdaab384aeb)" d="M 226.973548 342.095047 
L 226.973388 342.093369 
L 226.972801 342.090916 
L 226.970967 342.087409 
L 226.967684 342.083777 
L 226.96312 342.08044 
L 226.957351 342.077404 
L 226.950521 342.074643 
L 226.942714 342.072162 
L 226.934026 342.069951 
L 226.924569 342.067988 
L 226.91442 342.06626 
L 226.903655 342.064757 
L 226.89235 342.063451 
L 226.880563 342.062331 
L 226.86835 342.06138 
" style="fill:none;stroke:#0000ff;stroke-linecap:square;stroke-width:2;"/>
   </g>
   <g id="line2d_87">
    <path clip-path="url(#pdaab384aeb)" d="M 226.86835 342.06138 
L 226.014496 342.118611 
L 223.455731 342.539531 
L 217.521036 343.753484 
L 204.53295 346.578018 
L 194.748454 348.912063 
L 190.502547 350.14071 
L 190.472206 350.154608 
L 190.472206 350.154608 
" style="fill:none;stroke:#0000ff;stroke-dasharray:12,12;stroke-dashoffset:0;stroke-width:2;"/>
   </g>
   <g id="line2d_88">
    <path clip-path="url(#pdaab384aeb)" d="M 190.472206 350.154608 
L 190.462794 350.160081 
L 190.461032 350.161733 
L 190.460969 350.16208 
" style="fill:none;stroke:#0000ff;stroke-linecap:square;stroke-width:2;"/>
   </g>
   <g id="line2d_89">
    <path clip-path="url(#pdaab384aeb)" d="M 226.973509 342.0951 
L 226.973385 342.093421 
L 226.972797 342.090976 
L 226.970982 342.087409 
L 226.967685 342.083785 
L 226.963114 342.080454 
L 226.957359 342.077399 
L 226.950526 342.07464 
L 226.942717 342.072161 
L 226.934028 342.070343 
L 226.924569 342.068414 
L 226.91442 342.066718 
L 226.903669 342.064958 
L 226.892362 342.063624 
L 226.880573 342.062478 
L 226.868354 342.061346 
" style="fill:none;stroke:#000000;stroke-linecap:square;stroke-width:2;"/>
   </g>
   <g id="line2d_90">
    <path clip-path="url(#pdaab384aeb)" d="M 226.868354 342.061346 
L 226.014497 342.118198 
L 223.473235 342.535959 
L 216.943256 343.876649 
L 200.802481 347.428864 
L 193.56964 349.226158 
L 190.472207 350.154625 
L 190.472207 350.154625 
" style="fill:none;stroke:#000000;stroke-dasharray:12,12;stroke-dashoffset:0;stroke-width:2;"/>
   </g>
   <g id="line2d_91">
    <path clip-path="url(#pdaab384aeb)" d="M 190.472207 350.154625 
L 190.462795 350.160097 
L 190.461033 350.161748 
L 190.460965 350.161732 
" style="fill:none;stroke:#000000;stroke-linecap:square;stroke-width:2;"/>
   </g>
   <g id="patch_3">
    <path d="M 81.577674 374.4 
L 81.577674 57.6 
" style="fill:none;stroke:#000000;stroke-linecap:square;stroke-linejoin:miter;stroke-width:0.8;"/>
   </g>
   <g id="patch_4">
    <path d="M 397.691163 374.4 
L 397.691163 57.6 
" style="fill:none;stroke:#000000;stroke-linecap:square;stroke-linejoin:miter;stroke-width:0.8;"/>
   </g>
   <g id="patch_5">
    <path d="M 81.577674 374.4 
L 397.691163 374.4 
" style="fill:none;stroke:#000000;stroke-linecap:square;stroke-linejoin:miter;stroke-width:0.8;"/>
   </g>
   <g id="patch_6">
    <path d="M 81.577674 57.6 
L 397.691163 57.6 
" style="fill:none;stroke:#000000;stroke-linecap:square;stroke-linejoin:miter;stroke-width:0.8;"/>
   </g>
   <g id="text_17">
    <g clip-path="url(#pdaab384aeb)">
     <!-- U -->
     <defs>
      <path d="M 8.6875 72.90625 
L 18.609375 72.90625 
L 18.609375 28.609375 
Q 18.609375 16.890625 22.84375 11.734375 
Q 27.09375 6.59375 36.625 6.59375 
Q 46.09375 6.59375 50.34375 11.734375 
Q 54.59375 16.890625 54.59375 28.609375 
L 54.59375 72.90625 
L 64.5 72.90625 
L 64.5 27.390625 
Q 64.5 13.140625 57.4375 5.859375 
Q 50.390625 -1.421875 36.625 -1.421875 
Q 22.796875 -1.421875 15.734375 5.859375 
Q 8.6875 13.140625 8.6875 27.390625 
z
" id="DejaVuSans-85"/>
     </defs>
     <g style="fill:#ff0000;" transform="translate(81.079546 377.086858)scale(0.1 -0.1)">
      <use xlink:href="#DejaVuSans-85"/>
     </g>
    </g>
   </g>
   <g id="text_18">
    <g clip-path="url(#pdaab384aeb)">
     <!-- L -->
     <defs>
      <path d="M 9.8125 72.90625 
L 19.671875 72.90625 
L 19.671875 8.296875 
L 55.171875 8.296875 
L 55.171875 0 
L 9.8125 0 
z
" id="DejaVuSans-76"/>
     </defs>
     <g style="fill:#ff0000;" transform="translate(107.88382 354.90408)scale(0.1 -0.1)">
      <use xlink:href="#DejaVuSans-76"/>
     </g>
    </g>
   </g>
   <g id="text_19">
    <g clip-path="url(#pdaab384aeb)">
     <!-- L -->
     <g style="fill:#ff0000;" transform="translate(191.206592 -793.254424)scale(0.1 -0.1)">
      <use xlink:href="#DejaVuSans-76"/>
     </g>
    </g>
   </g>
   <g id="text_20">
    <g clip-path="url(#pdaab384aeb)">
     <!-- L -->
     <g style="fill:#ff0000;" transform="translate(121.720288 354.670261)scale(0.1 -0.1)">
      <use xlink:href="#DejaVuSans-76"/>
     </g>
    </g>
   </g>
   <g id="text_21">
    <g clip-path="url(#pdaab384aeb)">
     <!-- U -->
     <g style="fill:#ff0000;" transform="translate(394.031788 368.671681)scale(0.1 -0.1)">
      <use xlink:href="#DejaVuSans-85"/>
     </g>
    </g>
   </g>
   <g id="text_22">
    <g clip-path="url(#pdaab384aeb)">
     <!-- L -->
     <g style="fill:#ff0000;" transform="translate(191.206948 -793.417391)scale(0.1 -0.1)">
      <use xlink:href="#DejaVuSans-76"/>
     </g>
    </g>
   </g>
   <g id="text_23">
    <g clip-path="url(#pdaab384aeb)">
     <!-- L -->
     <g style="fill:#ff0000;" transform="translate(121.671648 354.610179)scale(0.1 -0.1)">
      <use xlink:href="#DejaVuSans-76"/>
     </g>
    </g>
   </g>
   <g id="text_24">
    <g clip-path="url(#pdaab384aeb)">
     <!-- D -->
     <defs>
      <path d="M 19.671875 64.796875 
L 19.671875 8.109375 
L 31.59375 8.109375 
Q 46.6875 8.109375 53.6875 14.9375 
Q 60.6875 21.78125 60.6875 36.53125 
Q 60.6875 51.171875 53.6875 57.984375 
Q 46.6875 64.796875 31.59375 64.796875 
z
M 9.8125 72.90625 
L 30.078125 72.90625 
Q 51.265625 72.90625 61.171875 64.09375 
Q 71.09375 55.28125 71.09375 36.53125 
Q 71.09375 17.671875 61.125 8.828125 
Q 51.171875 0 30.078125 0 
L 9.8125 0 
z
" id="DejaVuSans-68"/>
     </defs>
     <g style="fill:#ff0000;" transform="translate(231.434668 347.319212)scale(0.1 -0.1)">
      <use xlink:href="#DejaVuSans-68"/>
     </g>
    </g>
   </g>
   <g id="text_25">
    <g clip-path="url(#pdaab384aeb)">
     <!-- L -->
     <g style="fill:#ff0000;" transform="translate(184.772389 353.910785)scale(0.1 -0.1)">
      <use xlink:href="#DejaVuSans-76"/>
     </g>
    </g>
   </g>
   <g id="text_26">
    <g clip-path="url(#pdaab384aeb)">
     <!-- D -->
     <g style="fill:#ff0000;" transform="translate(212.678268 333.97063)scale(0.1 -0.1)">
      <use xlink:href="#DejaVuSans-68"/>
     </g>
    </g>
   </g>
   <g id="text_27">
    <g clip-path="url(#pdaab384aeb)">
     <!-- U -->
     <g style="fill:#ff0000;" transform="translate(235.975044 321.82528)scale(0.1 -0.1)">
      <use xlink:href="#DejaVuSans-85"/>
     </g>
    </g>
   </g>
   <g id="text_28">
    <g clip-path="url(#pdaab384aeb)">
     <!-- U -->
     <g style="fill:#ff0000;" transform="translate(267.586392 283.281597)scale(0.1 -0.1)">
      <use xlink:href="#DejaVuSans-85"/>
     </g>
    </g>
   </g>
   <g id="text_29">
    <g clip-path="url(#pdaab384aeb)">
     <!-- L -->
     <g style="fill:#ff0000;" transform="translate(273.701183 271.457343)scale(0.1 -0.1)">
      <use xlink:href="#DejaVuSans-76"/>
     </g>
    </g>
   </g>
   <g id="text_30">
    <g clip-path="url(#pdaab384aeb)">
     <!-- U -->
     <g style="fill:#ff0000;" transform="translate(267.586392 286.16981)scale(0.1 -0.1)">
      <use xlink:href="#DejaVuSans-85"/>
     </g>
    </g>
   </g>
   <g id="text_31">
    <g clip-path="url(#pdaab384aeb)">
     <!-- U -->
     <g style="fill:#ff0000;" transform="translate(235.975044 324.420886)scale(0.1 -0.1)">
      <use xlink:href="#DejaVuSans-85"/>
     </g>
    </g>
   </g>
   <g id="text_32">
    <g clip-path="url(#pdaab384aeb)">
     <!-- L -->
     <g style="fill:#ff0000;" transform="translate(165.538732 347.656163)scale(0.1 -0.1)">
      <use xlink:href="#DejaVuSans-76"/>
     </g>
    </g>
   </g>
   <g id="text_33">
    <g clip-path="url(#pdaab384aeb)">
     <!-- D -->
     <g style="fill:#ff0000;" transform="translate(212.678052 333.970661)scale(0.1 -0.1)">
      <use xlink:href="#DejaVuSans-68"/>
     </g>
    </g>
   </g>
   <g id="text_34">
    <g clip-path="url(#pdaab384aeb)">
     <!-- U -->
     <g style="fill:#ff0000;" transform="translate(235.975678 321.824777)scale(0.1 -0.1)">
      <use xlink:href="#DejaVuSans-85"/>
     </g>
    </g>
   </g>
   <g id="text_35">
    <g clip-path="url(#pdaab384aeb)">
     <!-- U -->
     <g style="fill:#ff0000;" transform="translate(267.586392 283.28163)scale(0.1 -0.1)">
      <use xlink:href="#DejaVuSans-85"/>
     </g>
    </g>
   </g>
   <g id="text_36">
    <g clip-path="url(#pdaab384aeb)">
     <!-- L -->
     <g style="fill:#ff0000;" transform="translate(273.701183 271.457448)scale(0.1 -0.1)">
      <use xlink:href="#DejaVuSans-76"/>
     </g>
    </g>
   </g>
   <g id="text_37">
    <g clip-path="url(#pdaab384aeb)">
     <!-- U -->
     <g style="fill:#ff0000;" transform="translate(267.586392 286.169839)scale(0.1 -0.1)">
      <use xlink:href="#DejaVuSans-85"/>
     </g>
    </g>
   </g>
   <g id="text_38">
    <g clip-path="url(#pdaab384aeb)">
     <!-- L -->
     <g style="fill:#ff0000;" transform="translate(165.538732 347.65622)scale(0.1 -0.1)">
      <use xlink:href="#DejaVuSans-76"/>
     </g>
    </g>
   </g>
   <g id="text_39">
    <g clip-path="url(#pdaab384aeb)">
     <!-- U -->
     <g style="fill:#ff0000;" transform="translate(235.975044 324.420956)scale(0.1 -0.1)">
      <use xlink:href="#DejaVuSans-85"/>
     </g>
    </g>
   </g>
   <g id="text_40">
    <g clip-path="url(#pdaab384aeb)">
     <!-- U -->
     <g style="fill:#ff0000;" transform="translate(267.586392 286.169809)scale(0.1 -0.1)">
      <use xlink:href="#DejaVuSans-85"/>
     </g>
    </g>
   </g>
   <g id="text_41">
    <g clip-path="url(#pdaab384aeb)">
     <!-- L -->
     <g style="fill:#ff0000;" transform="translate(273.701183 271.457316)scale(0.1 -0.1)">
      <use xlink:href="#DejaVuSans-76"/>
     </g>
    </g>
   </g>
   <g id="text_42">
    <g clip-path="url(#pdaab384aeb)">
     <!-- U -->
     <g style="fill:#ff0000;" transform="translate(267.586392 283.281604)scale(0.1 -0.1)">
      <use xlink:href="#DejaVuSans-85"/>
     </g>
    </g>
   </g>
   <g id="text_43">
    <g clip-path="url(#pdaab384aeb)">
     <!-- U -->
     <g style="fill:#ff0000;" transform="translate(235.975044 321.8253)scale(0.1 -0.1)">
      <use xlink:href="#DejaVuSans-85"/>
     </g>
    </g>
   </g>
   <g id="text_44">
    <g clip-path="url(#pdaab384aeb)">
     <!-- D -->
     <g style="fill:#ff0000;" transform="translate(212.678191 333.970549)scale(0.1 -0.1)">
      <use xlink:href="#DejaVuSans-68"/>
     </g>
    </g>
   </g>
   <g id="text_45">
    <g clip-path="url(#pdaab384aeb)">
     <!-- L -->
     <g style="fill:#ff0000;" transform="translate(165.538732 347.65639)scale(0.1 -0.1)">
      <use xlink:href="#DejaVuSans-76"/>
     </g>
    </g>
   </g>
   <g id="text_46">
    <g clip-path="url(#pdaab384aeb)">
     <!-- U -->
     <g style="fill:#ff0000;" transform="translate(235.975044 324.420984)scale(0.1 -0.1)">
      <use xlink:href="#DejaVuSans-85"/>
     </g>
    </g>
   </g>
   <g id="text_47">
    <g clip-path="url(#pdaab384aeb)">
     <!-- U -->
     <g style="fill:#ff0000;" transform="translate(267.586392 286.170017)scale(0.1 -0.1)">
      <use xlink:href="#DejaVuSans-85"/>
     </g>
    </g>
   </g>
   <g id="text_48">
    <g clip-path="url(#pdaab384aeb)">
     <!-- L -->
     <g style="fill:#ff0000;" transform="translate(273.701182 271.457473)scale(0.1 -0.1)">
      <use xlink:href="#DejaVuSans-76"/>
     </g>
    </g>
   </g>
   <g id="text_49">
    <g clip-path="url(#pdaab384aeb)">
     <!-- D -->
     <g style="fill:#ff0000;" transform="translate(224.051336 344.813326)scale(0.1 -0.1)">
      <use xlink:href="#DejaVuSans-68"/>
     </g>
    </g>
   </g>
   <g id="text_50">
    <g clip-path="url(#pdaab384aeb)">
     <!-- B -->
     <defs>
      <path d="M 19.671875 34.8125 
L 19.671875 8.109375 
L 35.5 8.109375 
Q 43.453125 8.109375 47.28125 11.40625 
Q 51.125 14.703125 51.125 21.484375 
Q 51.125 28.328125 47.28125 31.5625 
Q 43.453125 34.8125 35.5 34.8125 
z
M 19.671875 64.796875 
L 19.671875 42.828125 
L 34.28125 42.828125 
Q 41.5 42.828125 45.03125 45.53125 
Q 48.578125 48.25 48.578125 53.8125 
Q 48.578125 59.328125 45.03125 62.0625 
Q 41.5 64.796875 34.28125 64.796875 
z
M 9.8125 72.90625 
L 35.015625 72.90625 
Q 46.296875 72.90625 52.390625 68.21875 
Q 58.5 63.53125 58.5 54.890625 
Q 58.5 48.1875 55.375 44.234375 
Q 52.25 40.28125 46.1875 39.3125 
Q 53.46875 37.75 57.5 32.78125 
Q 61.53125 27.828125 61.53125 20.40625 
Q 61.53125 10.640625 54.890625 5.3125 
Q 48.25 0 35.984375 0 
L 9.8125 0 
z
" id="DejaVuSans-66"/>
     </defs>
     <g style="fill:#ff0000;" transform="translate(186.176492 353.512423)scale(0.1 -0.1)">
      <use xlink:href="#DejaVuSans-66"/>
     </g>
    </g>
   </g>
   <g id="text_51">
    <g clip-path="url(#pdaab384aeb)">
     <!-- D -->
     <g style="fill:#ff0000;" transform="translate(186.526278 352.967267)scale(0.1 -0.1)">
      <use xlink:href="#DejaVuSans-68"/>
     </g>
    </g>
   </g>
   <g id="text_52">
    <g clip-path="url(#pdaab384aeb)">
     <!-- L -->
     <g style="fill:#ff0000;" transform="translate(232.498873 347.313407)scale(0.1 -0.1)">
      <use xlink:href="#DejaVuSans-76"/>
     </g>
    </g>
   </g>
   <g id="text_53">
    <g clip-path="url(#pdaab384aeb)">
     <!-- D -->
     <g style="fill:#ff0000;" transform="translate(210.473827 330.375774)scale(0.1 -0.1)">
      <use xlink:href="#DejaVuSans-68"/>
     </g>
    </g>
   </g>
   <g id="text_54">
    <g clip-path="url(#pdaab384aeb)">
     <!-- L -->
     <g style="fill:#ff0000;" transform="translate(165.579006 347.633797)scale(0.1 -0.1)">
      <use xlink:href="#DejaVuSans-76"/>
     </g>
    </g>
   </g>
   <g id="text_55">
    <g clip-path="url(#pdaab384aeb)">
     <!-- D -->
     <g style="fill:#ff0000;" transform="translate(210.473813 330.375184)scale(0.1 -0.1)">
      <use xlink:href="#DejaVuSans-68"/>
     </g>
    </g>
   </g>
   <g id="text_56">
    <g clip-path="url(#pdaab384aeb)">
     <!-- L -->
     <g style="fill:#ff0000;" transform="translate(165.579009 347.633471)scale(0.1 -0.1)">
      <use xlink:href="#DejaVuSans-76"/>
     </g>
    </g>
   </g>
   <g id="text_57">
    <g clip-path="url(#pdaab384aeb)">
     <!-- D -->
     <g style="fill:#ff0000;" transform="translate(210.473829 330.375006)scale(0.1 -0.1)">
      <use xlink:href="#DejaVuSans-68"/>
     </g>
    </g>
   </g>
   <g id="text_58">
    <g clip-path="url(#pdaab384aeb)">
     <!-- L -->
     <g style="fill:#ff0000;" transform="translate(165.579007 347.634111)scale(0.1 -0.1)">
      <use xlink:href="#DejaVuSans-76"/>
     </g>
    </g>
   </g>
   <g id="text_59">
    <g clip-path="url(#pdaab384aeb)">
     <!-- D -->
     <g style="fill:#ff0000;" transform="translate(223.123548 344.854422)scale(0.1 -0.1)">
      <use xlink:href="#DejaVuSans-68"/>
     </g>
    </g>
   </g>
   <g id="text_60">
    <g clip-path="url(#pdaab384aeb)">
     <!-- B -->
     <g style="fill:#ff0000;" transform="translate(186.945715 352.967127)scale(0.1 -0.1)">
      <use xlink:href="#DejaVuSans-66"/>
     </g>
    </g>
   </g>
   <g id="text_61">
    <g clip-path="url(#pdaab384aeb)">
     <!-- D -->
     <g style="fill:#ff0000;" transform="translate(223.123509 344.85443)scale(0.1 -0.1)">
      <use xlink:href="#DejaVuSans-68"/>
     </g>
    </g>
   </g>
   <g id="text_62">
    <g clip-path="url(#pdaab384aeb)">
     <!-- L -->
     <g style="fill:#ff0000;" transform="translate(225.115417 344.813277)scale(0.1 -0.1)">
      <use xlink:href="#DejaVuSans-76"/>
     </g>
    </g>
   </g>
   <g id="text_63">
    <g clip-path="url(#pdaab384aeb)">
     <!-- L -->
     <g style="fill:#ff0000;" transform="translate(225.11538 344.811884)scale(0.1 -0.1)">
      <use xlink:href="#DejaVuSans-76"/>
     </g>
    </g>
   </g>
   <g id="text_64">
    <g clip-path="url(#pdaab384aeb)">
     <!-- L -->
     <g style="fill:#ff0000;" transform="translate(165.538732 347.656202)scale(0.1 -0.1)">
      <use xlink:href="#DejaVuSans-76"/>
     </g>
    </g>
   </g>
   <g id="text_65">
    <g clip-path="url(#pdaab384aeb)">
     <!-- L -->
     <g style="fill:#ff0000;" transform="translate(165.538732 347.656206)scale(0.1 -0.1)">
      <use xlink:href="#DejaVuSans-76"/>
     </g>
    </g>
   </g>
   <g id="text_66">
    <g clip-path="url(#pdaab384aeb)">
     <!-- L -->
     <g style="fill:#ff0000;" transform="translate(165.538732 347.656211)scale(0.1 -0.1)">
      <use xlink:href="#DejaVuSans-76"/>
     </g>
    </g>
   </g>
   <g id="text_67">
    <g clip-path="url(#pdaab384aeb)">
     <!-- L -->
     <g style="fill:#ff0000;" transform="translate(187.675032 352.921455)scale(0.1 -0.1)">
      <use xlink:href="#DejaVuSans-76"/>
     </g>
    </g>
   </g>
   <g id="text_68">
    <g clip-path="url(#pdaab384aeb)">
     <!-- L -->
     <g style="fill:#ff0000;" transform="translate(187.675027 352.921107)scale(0.1 -0.1)">
      <use xlink:href="#DejaVuSans-76"/>
     </g>
    </g>
   </g>
   <g id="text_69">
    <!-- is_nk = 1 -->
    <defs>
     <path d="M 44.28125 53.078125 
L 44.28125 44.578125 
Q 40.484375 46.53125 36.375 47.5 
Q 32.28125 48.484375 27.875 48.484375 
Q 21.1875 48.484375 17.84375 46.4375 
Q 14.5 44.390625 14.5 40.28125 
Q 14.5 37.15625 16.890625 35.375 
Q 19.28125 33.59375 26.515625 31.984375 
L 29.59375 31.296875 
Q 39.15625 29.25 43.1875 25.515625 
Q 47.21875 21.78125 47.21875 15.09375 
Q 47.21875 7.46875 41.1875 3.015625 
Q 35.15625 -1.421875 24.609375 -1.421875 
Q 20.21875 -1.421875 15.453125 -0.5625 
Q 10.6875 0.296875 5.421875 2 
L 5.421875 11.28125 
Q 10.40625 8.6875 15.234375 7.390625 
Q 20.0625 6.109375 24.8125 6.109375 
Q 31.15625 6.109375 34.5625 8.28125 
Q 37.984375 10.453125 37.984375 14.40625 
Q 37.984375 18.0625 35.515625 20.015625 
Q 33.0625 21.96875 24.703125 23.78125 
L 21.578125 24.515625 
Q 13.234375 26.265625 9.515625 29.90625 
Q 5.8125 33.546875 5.8125 39.890625 
Q 5.8125 47.609375 11.28125 51.796875 
Q 16.75 56 26.8125 56 
Q 31.78125 56 36.171875 55.265625 
Q 40.578125 54.546875 44.28125 53.078125 
z
" id="DejaVuSans-115"/>
     <path d="M 50.984375 -16.609375 
L 50.984375 -23.578125 
L -0.984375 -23.578125 
L -0.984375 -16.609375 
z
" id="DejaVuSans-95"/>
     <path d="M 54.890625 33.015625 
L 54.890625 0 
L 45.90625 0 
L 45.90625 32.71875 
Q 45.90625 40.484375 42.875 44.328125 
Q 39.84375 48.1875 33.796875 48.1875 
Q 26.515625 48.1875 22.3125 43.546875 
Q 18.109375 38.921875 18.109375 30.90625 
L 18.109375 0 
L 9.078125 0 
L 9.078125 54.6875 
L 18.109375 54.6875 
L 18.109375 46.1875 
Q 21.34375 51.125 25.703125 53.5625 
Q 30.078125 56 35.796875 56 
Q 45.21875 56 50.046875 50.171875 
Q 54.890625 44.34375 54.890625 33.015625 
z
" id="DejaVuSans-110"/>
     <path d="M 9.078125 75.984375 
L 18.109375 75.984375 
L 18.109375 31.109375 
L 44.921875 54.6875 
L 56.390625 54.6875 
L 27.390625 29.109375 
L 57.625 0 
L 45.90625 0 
L 18.109375 26.703125 
L 18.109375 0 
L 9.078125 0 
z
" id="DejaVuSans-107"/>
     <path id="DejaVuSans-32"/>
     <path d="M 10.59375 45.40625 
L 73.1875 45.40625 
L 73.1875 37.203125 
L 10.59375 37.203125 
z
M 10.59375 25.484375 
L 73.1875 25.484375 
L 73.1875 17.1875 
L 10.59375 17.1875 
z
" id="DejaVuSans-61"/>
    </defs>
    <g transform="translate(211.905981 51.6)scale(0.12 -0.12)">
     <use xlink:href="#DejaVuSans-105"/>
     <use x="27.783203" xlink:href="#DejaVuSans-115"/>
     <use x="79.882812" xlink:href="#DejaVuSans-95"/>
     <use x="129.882812" xlink:href="#DejaVuSans-110"/>
     <use x="193.261719" xlink:href="#DejaVuSans-107"/>
     <use x="251.171875" xlink:href="#DejaVuSans-32"/>
     <use x="282.958984" xlink:href="#DejaVuSans-61"/>
     <use x="366.748047" xlink:href="#DejaVuSans-32"/>
     <use x="398.535156" xlink:href="#DejaVuSans-49"/>
    </g>
   </g>
  </g>
 </g>
 <defs>
  <clipPath id="pdaab384aeb">
   <rect height="316.8" width="316.113488" x="81.577674" y="57.6"/>
  </clipPath>
 </defs>
</svg>
