<?xml version="1.0" encoding="utf-8" standalone="no"?>
<!DOCTYPE svg PUBLIC "-//W3C//DTD SVG 1.1//EN"
  "http://www.w3.org/Graphics/SVG/1.1/DTD/svg11.dtd">
<!-- Created with matplotlib (https://matplotlib.org/) -->
<svg height="432pt" version="1.1" viewBox="0 0 438.48 432" width="438.48pt" xmlns="http://www.w3.org/2000/svg" xmlns:xlink="http://www.w3.org/1999/xlink">
 <defs>
  <style type="text/css">
*{stroke-linecap:butt;stroke-linejoin:round;}
  </style>
 </defs>
 <g id="figure_1">
  <g id="patch_1">
   <path d="M 0 432 
L 438.48 432 
L 438.48 0 
L 0 0 
z
" style="fill:#ffffff;"/>
  </g>
  <g id="axes_1">
   <g id="patch_2">
    <path d="M 81.577674 374.4 
L 397.691163 374.4 
L 397.691163 57.6 
L 81.577674 57.6 
z
" style="fill:#ffffff;"/>
   </g>
   <g id="matplotlib.axis_1">
    <g id="xtick_1">
     <g id="line2d_1">
      <path clip-path="url(#p34e81e81b8)" d="M 81.577674 374.4 
L 81.577674 57.6 
" style="fill:none;stroke:#000000;stroke-linecap:square;stroke-width:0.8;"/>
     </g>
     <g id="line2d_2">
      <defs>
       <path d="M 0 0 
L 0 3.5 
" id="m4129233125" style="stroke:#000000;stroke-width:0.8;"/>
      </defs>
      <g>
       <use style="stroke:#000000;stroke-width:0.8;" x="81.577674" xlink:href="#m4129233125" y="374.4"/>
      </g>
     </g>
     <g id="text_1">
      <!-- 0 -->
      <defs>
       <path d="M 31.78125 66.40625 
Q 24.171875 66.40625 20.328125 58.90625 
Q 16.5 51.421875 16.5 36.375 
Q 16.5 21.390625 20.328125 13.890625 
Q 24.171875 6.390625 31.78125 6.390625 
Q 39.453125 6.390625 43.28125 13.890625 
Q 47.125 21.390625 47.125 36.375 
Q 47.125 51.421875 43.28125 58.90625 
Q 39.453125 66.40625 31.78125 66.40625 
z
M 31.78125 74.21875 
Q 44.046875 74.21875 50.515625 64.515625 
Q 56.984375 54.828125 56.984375 36.375 
Q 56.984375 17.96875 50.515625 8.265625 
Q 44.046875 -1.421875 31.78125 -1.421875 
Q 19.53125 -1.421875 13.0625 8.265625 
Q 6.59375 17.96875 6.59375 36.375 
Q 6.59375 54.828125 13.0625 64.515625 
Q 19.53125 74.21875 31.78125 74.21875 
z
" id="DejaVuSans-48"/>
      </defs>
      <g transform="translate(78.396424 388.998438)scale(0.1 -0.1)">
       <use xlink:href="#DejaVuSans-48"/>
      </g>
     </g>
    </g>
    <g id="xtick_2">
     <g id="line2d_3">
      <path clip-path="url(#p34e81e81b8)" d="M 144.800372 374.4 
L 144.800372 57.6 
" style="fill:none;stroke:#000000;stroke-linecap:square;stroke-width:0.8;"/>
     </g>
     <g id="line2d_4">
      <g>
       <use style="stroke:#000000;stroke-width:0.8;" x="144.800372" xlink:href="#m4129233125" y="374.4"/>
      </g>
     </g>
     <g id="text_2">
      <!-- 2 -->
      <defs>
       <path d="M 19.1875 8.296875 
L 53.609375 8.296875 
L 53.609375 0 
L 7.328125 0 
L 7.328125 8.296875 
Q 12.9375 14.109375 22.625 23.890625 
Q 32.328125 33.6875 34.8125 36.53125 
Q 39.546875 41.84375 41.421875 45.53125 
Q 43.3125 49.21875 43.3125 52.78125 
Q 43.3125 58.59375 39.234375 62.25 
Q 35.15625 65.921875 28.609375 65.921875 
Q 23.96875 65.921875 18.8125 64.3125 
Q 13.671875 62.703125 7.8125 59.421875 
L 7.8125 69.390625 
Q 13.765625 71.78125 18.9375 73 
Q 24.125 74.21875 28.421875 74.21875 
Q 39.75 74.21875 46.484375 68.546875 
Q 53.21875 62.890625 53.21875 53.421875 
Q 53.21875 48.921875 51.53125 44.890625 
Q 49.859375 40.875 45.40625 35.40625 
Q 44.1875 33.984375 37.640625 27.21875 
Q 31.109375 20.453125 19.1875 8.296875 
z
" id="DejaVuSans-50"/>
      </defs>
      <g transform="translate(141.619122 388.998438)scale(0.1 -0.1)">
       <use xlink:href="#DejaVuSans-50"/>
      </g>
     </g>
    </g>
    <g id="xtick_3">
     <g id="line2d_5">
      <path clip-path="url(#p34e81e81b8)" d="M 208.02307 374.4 
L 208.02307 57.6 
" style="fill:none;stroke:#000000;stroke-linecap:square;stroke-width:0.8;"/>
     </g>
     <g id="line2d_6">
      <g>
       <use style="stroke:#000000;stroke-width:0.8;" x="208.02307" xlink:href="#m4129233125" y="374.4"/>
      </g>
     </g>
     <g id="text_3">
      <!-- 4 -->
      <defs>
       <path d="M 37.796875 64.3125 
L 12.890625 25.390625 
L 37.796875 25.390625 
z
M 35.203125 72.90625 
L 47.609375 72.90625 
L 47.609375 25.390625 
L 58.015625 25.390625 
L 58.015625 17.1875 
L 47.609375 17.1875 
L 47.609375 0 
L 37.796875 0 
L 37.796875 17.1875 
L 4.890625 17.1875 
L 4.890625 26.703125 
z
" id="DejaVuSans-52"/>
      </defs>
      <g transform="translate(204.84182 388.998438)scale(0.1 -0.1)">
       <use xlink:href="#DejaVuSans-52"/>
      </g>
     </g>
    </g>
    <g id="xtick_4">
     <g id="line2d_7">
      <path clip-path="url(#p34e81e81b8)" d="M 271.245767 374.4 
L 271.245767 57.6 
" style="fill:none;stroke:#000000;stroke-linecap:square;stroke-width:0.8;"/>
     </g>
     <g id="line2d_8">
      <g>
       <use style="stroke:#000000;stroke-width:0.8;" x="271.245767" xlink:href="#m4129233125" y="374.4"/>
      </g>
     </g>
     <g id="text_4">
      <!-- 6 -->
      <defs>
       <path d="M 33.015625 40.375 
Q 26.375 40.375 22.484375 35.828125 
Q 18.609375 31.296875 18.609375 23.390625 
Q 18.609375 15.53125 22.484375 10.953125 
Q 26.375 6.390625 33.015625 6.390625 
Q 39.65625 6.390625 43.53125 10.953125 
Q 47.40625 15.53125 47.40625 23.390625 
Q 47.40625 31.296875 43.53125 35.828125 
Q 39.65625 40.375 33.015625 40.375 
z
M 52.59375 71.296875 
L 52.59375 62.3125 
Q 48.875 64.0625 45.09375 64.984375 
Q 41.3125 65.921875 37.59375 65.921875 
Q 27.828125 65.921875 22.671875 59.328125 
Q 17.53125 52.734375 16.796875 39.40625 
Q 19.671875 43.65625 24.015625 45.921875 
Q 28.375 48.1875 33.59375 48.1875 
Q 44.578125 48.1875 50.953125 41.515625 
Q 57.328125 34.859375 57.328125 23.390625 
Q 57.328125 12.15625 50.6875 5.359375 
Q 44.046875 -1.421875 33.015625 -1.421875 
Q 20.359375 -1.421875 13.671875 8.265625 
Q 6.984375 17.96875 6.984375 36.375 
Q 6.984375 53.65625 15.1875 63.9375 
Q 23.390625 74.21875 37.203125 74.21875 
Q 40.921875 74.21875 44.703125 73.484375 
Q 48.484375 72.75 52.59375 71.296875 
z
" id="DejaVuSans-54"/>
      </defs>
      <g transform="translate(268.064517 388.998438)scale(0.1 -0.1)">
       <use xlink:href="#DejaVuSans-54"/>
      </g>
     </g>
    </g>
    <g id="xtick_5">
     <g id="line2d_9">
      <path clip-path="url(#p34e81e81b8)" d="M 334.468465 374.4 
L 334.468465 57.6 
" style="fill:none;stroke:#000000;stroke-linecap:square;stroke-width:0.8;"/>
     </g>
     <g id="line2d_10">
      <g>
       <use style="stroke:#000000;stroke-width:0.8;" x="334.468465" xlink:href="#m4129233125" y="374.4"/>
      </g>
     </g>
     <g id="text_5">
      <!-- 8 -->
      <defs>
       <path d="M 31.78125 34.625 
Q 24.75 34.625 20.71875 30.859375 
Q 16.703125 27.09375 16.703125 20.515625 
Q 16.703125 13.921875 20.71875 10.15625 
Q 24.75 6.390625 31.78125 6.390625 
Q 38.8125 6.390625 42.859375 10.171875 
Q 46.921875 13.96875 46.921875 20.515625 
Q 46.921875 27.09375 42.890625 30.859375 
Q 38.875 34.625 31.78125 34.625 
z
M 21.921875 38.8125 
Q 15.578125 40.375 12.03125 44.71875 
Q 8.5 49.078125 8.5 55.328125 
Q 8.5 64.0625 14.71875 69.140625 
Q 20.953125 74.21875 31.78125 74.21875 
Q 42.671875 74.21875 48.875 69.140625 
Q 55.078125 64.0625 55.078125 55.328125 
Q 55.078125 49.078125 51.53125 44.71875 
Q 48 40.375 41.703125 38.8125 
Q 48.828125 37.15625 52.796875 32.3125 
Q 56.78125 27.484375 56.78125 20.515625 
Q 56.78125 9.90625 50.3125 4.234375 
Q 43.84375 -1.421875 31.78125 -1.421875 
Q 19.734375 -1.421875 13.25 4.234375 
Q 6.78125 9.90625 6.78125 20.515625 
Q 6.78125 27.484375 10.78125 32.3125 
Q 14.796875 37.15625 21.921875 38.8125 
z
M 18.3125 54.390625 
Q 18.3125 48.734375 21.84375 45.5625 
Q 25.390625 42.390625 31.78125 42.390625 
Q 38.140625 42.390625 41.71875 45.5625 
Q 45.3125 48.734375 45.3125 54.390625 
Q 45.3125 60.0625 41.71875 63.234375 
Q 38.140625 66.40625 31.78125 66.40625 
Q 25.390625 66.40625 21.84375 63.234375 
Q 18.3125 60.0625 18.3125 54.390625 
z
" id="DejaVuSans-56"/>
      </defs>
      <g transform="translate(331.287215 388.998438)scale(0.1 -0.1)">
       <use xlink:href="#DejaVuSans-56"/>
      </g>
     </g>
    </g>
    <g id="xtick_6">
     <g id="line2d_11">
      <path clip-path="url(#p34e81e81b8)" d="M 397.691163 374.4 
L 397.691163 57.6 
" style="fill:none;stroke:#000000;stroke-linecap:square;stroke-width:0.8;"/>
     </g>
     <g id="line2d_12">
      <g>
       <use style="stroke:#000000;stroke-width:0.8;" x="397.691163" xlink:href="#m4129233125" y="374.4"/>
      </g>
     </g>
     <g id="text_6">
      <!-- 10 -->
      <defs>
       <path d="M 12.40625 8.296875 
L 28.515625 8.296875 
L 28.515625 63.921875 
L 10.984375 60.40625 
L 10.984375 69.390625 
L 28.421875 72.90625 
L 38.28125 72.90625 
L 38.28125 8.296875 
L 54.390625 8.296875 
L 54.390625 0 
L 12.40625 0 
z
" id="DejaVuSans-49"/>
      </defs>
      <g transform="translate(391.328663 388.998438)scale(0.1 -0.1)">
       <use xlink:href="#DejaVuSans-49"/>
       <use x="63.623047" xlink:href="#DejaVuSans-48"/>
      </g>
     </g>
    </g>
    <g id="text_7">
     <!-- Omeg -->
     <defs>
      <path d="M 39.40625 66.21875 
Q 28.65625 66.21875 22.328125 58.203125 
Q 16.015625 50.203125 16.015625 36.375 
Q 16.015625 22.609375 22.328125 14.59375 
Q 28.65625 6.59375 39.40625 6.59375 
Q 50.140625 6.59375 56.421875 14.59375 
Q 62.703125 22.609375 62.703125 36.375 
Q 62.703125 50.203125 56.421875 58.203125 
Q 50.140625 66.21875 39.40625 66.21875 
z
M 39.40625 74.21875 
Q 54.734375 74.21875 63.90625 63.9375 
Q 73.09375 53.65625 73.09375 36.375 
Q 73.09375 19.140625 63.90625 8.859375 
Q 54.734375 -1.421875 39.40625 -1.421875 
Q 24.03125 -1.421875 14.8125 8.828125 
Q 5.609375 19.09375 5.609375 36.375 
Q 5.609375 53.65625 14.8125 63.9375 
Q 24.03125 74.21875 39.40625 74.21875 
z
" id="DejaVuSans-79"/>
      <path d="M 52 44.1875 
Q 55.375 50.25 60.0625 53.125 
Q 64.75 56 71.09375 56 
Q 79.640625 56 84.28125 50.015625 
Q 88.921875 44.046875 88.921875 33.015625 
L 88.921875 0 
L 79.890625 0 
L 79.890625 32.71875 
Q 79.890625 40.578125 77.09375 44.375 
Q 74.3125 48.1875 68.609375 48.1875 
Q 61.625 48.1875 57.5625 43.546875 
Q 53.515625 38.921875 53.515625 30.90625 
L 53.515625 0 
L 44.484375 0 
L 44.484375 32.71875 
Q 44.484375 40.625 41.703125 44.40625 
Q 38.921875 48.1875 33.109375 48.1875 
Q 26.21875 48.1875 22.15625 43.53125 
Q 18.109375 38.875 18.109375 30.90625 
L 18.109375 0 
L 9.078125 0 
L 9.078125 54.6875 
L 18.109375 54.6875 
L 18.109375 46.1875 
Q 21.1875 51.21875 25.484375 53.609375 
Q 29.78125 56 35.6875 56 
Q 41.65625 56 45.828125 52.96875 
Q 50 49.953125 52 44.1875 
z
" id="DejaVuSans-109"/>
      <path d="M 56.203125 29.59375 
L 56.203125 25.203125 
L 14.890625 25.203125 
Q 15.484375 15.921875 20.484375 11.0625 
Q 25.484375 6.203125 34.421875 6.203125 
Q 39.59375 6.203125 44.453125 7.46875 
Q 49.3125 8.734375 54.109375 11.28125 
L 54.109375 2.78125 
Q 49.265625 0.734375 44.1875 -0.34375 
Q 39.109375 -1.421875 33.890625 -1.421875 
Q 20.796875 -1.421875 13.15625 6.1875 
Q 5.515625 13.8125 5.515625 26.8125 
Q 5.515625 40.234375 12.765625 48.109375 
Q 20.015625 56 32.328125 56 
Q 43.359375 56 49.78125 48.890625 
Q 56.203125 41.796875 56.203125 29.59375 
z
M 47.21875 32.234375 
Q 47.125 39.59375 43.09375 43.984375 
Q 39.0625 48.390625 32.421875 48.390625 
Q 24.90625 48.390625 20.390625 44.140625 
Q 15.875 39.890625 15.1875 32.171875 
z
" id="DejaVuSans-101"/>
      <path d="M 45.40625 27.984375 
Q 45.40625 37.75 41.375 43.109375 
Q 37.359375 48.484375 30.078125 48.484375 
Q 22.859375 48.484375 18.828125 43.109375 
Q 14.796875 37.75 14.796875 27.984375 
Q 14.796875 18.265625 18.828125 12.890625 
Q 22.859375 7.515625 30.078125 7.515625 
Q 37.359375 7.515625 41.375 12.890625 
Q 45.40625 18.265625 45.40625 27.984375 
z
M 54.390625 6.78125 
Q 54.390625 -7.171875 48.1875 -13.984375 
Q 42 -20.796875 29.203125 -20.796875 
Q 24.46875 -20.796875 20.265625 -20.09375 
Q 16.0625 -19.390625 12.109375 -17.921875 
L 12.109375 -9.1875 
Q 16.0625 -11.328125 19.921875 -12.34375 
Q 23.78125 -13.375 27.78125 -13.375 
Q 36.625 -13.375 41.015625 -8.765625 
Q 45.40625 -4.15625 45.40625 5.171875 
L 45.40625 9.625 
Q 42.625 4.78125 38.28125 2.390625 
Q 33.9375 0 27.875 0 
Q 17.828125 0 11.671875 7.65625 
Q 5.515625 15.328125 5.515625 27.984375 
Q 5.515625 40.671875 11.671875 48.328125 
Q 17.828125 56 27.875 56 
Q 33.9375 56 38.28125 53.609375 
Q 42.625 51.21875 45.40625 46.390625 
L 45.40625 54.6875 
L 54.390625 54.6875 
z
" id="DejaVuSans-103"/>
     </defs>
     <g transform="translate(224.577387 402.676563)scale(0.1 -0.1)">
      <use xlink:href="#DejaVuSans-79"/>
      <use x="78.710938" xlink:href="#DejaVuSans-109"/>
      <use x="176.123047" xlink:href="#DejaVuSans-101"/>
      <use x="237.646484" xlink:href="#DejaVuSans-103"/>
     </g>
    </g>
   </g>
   <g id="matplotlib.axis_2">
    <g id="ytick_1">
     <g id="line2d_13">
      <path clip-path="url(#p34e81e81b8)" d="M 81.577674 374.4 
L 397.691163 374.4 
" style="fill:none;stroke:#000000;stroke-linecap:square;stroke-width:0.8;"/>
     </g>
     <g id="line2d_14">
      <defs>
       <path d="M 0 0 
L -3.5 0 
" id="m0ec5f2f6da" style="stroke:#000000;stroke-width:0.8;"/>
      </defs>
      <g>
       <use style="stroke:#000000;stroke-width:0.8;" x="81.577674" xlink:href="#m0ec5f2f6da" y="374.4"/>
      </g>
     </g>
     <g id="text_8">
      <!-- 0 -->
      <g transform="translate(68.215174 378.199219)scale(0.1 -0.1)">
       <use xlink:href="#DejaVuSans-48"/>
      </g>
     </g>
    </g>
    <g id="ytick_2">
     <g id="line2d_15">
      <path clip-path="url(#p34e81e81b8)" d="M 81.577674 329.142857 
L 397.691163 329.142857 
" style="fill:none;stroke:#000000;stroke-linecap:square;stroke-width:0.8;"/>
     </g>
     <g id="line2d_16">
      <g>
       <use style="stroke:#000000;stroke-width:0.8;" x="81.577674" xlink:href="#m0ec5f2f6da" y="329.142857"/>
      </g>
     </g>
     <g id="text_9">
      <!-- 2 -->
      <g transform="translate(68.215174 332.942076)scale(0.1 -0.1)">
       <use xlink:href="#DejaVuSans-50"/>
      </g>
     </g>
    </g>
    <g id="ytick_3">
     <g id="line2d_17">
      <path clip-path="url(#p34e81e81b8)" d="M 81.577674 283.885714 
L 397.691163 283.885714 
" style="fill:none;stroke:#000000;stroke-linecap:square;stroke-width:0.8;"/>
     </g>
     <g id="line2d_18">
      <g>
       <use style="stroke:#000000;stroke-width:0.8;" x="81.577674" xlink:href="#m0ec5f2f6da" y="283.885714"/>
      </g>
     </g>
     <g id="text_10">
      <!-- 4 -->
      <g transform="translate(68.215174 287.684933)scale(0.1 -0.1)">
       <use xlink:href="#DejaVuSans-52"/>
      </g>
     </g>
    </g>
    <g id="ytick_4">
     <g id="line2d_19">
      <path clip-path="url(#p34e81e81b8)" d="M 81.577674 238.628571 
L 397.691163 238.628571 
" style="fill:none;stroke:#000000;stroke-linecap:square;stroke-width:0.8;"/>
     </g>
     <g id="line2d_20">
      <g>
       <use style="stroke:#000000;stroke-width:0.8;" x="81.577674" xlink:href="#m0ec5f2f6da" y="238.628571"/>
      </g>
     </g>
     <g id="text_11">
      <!-- 6 -->
      <g transform="translate(68.215174 242.42779)scale(0.1 -0.1)">
       <use xlink:href="#DejaVuSans-54"/>
      </g>
     </g>
    </g>
    <g id="ytick_5">
     <g id="line2d_21">
      <path clip-path="url(#p34e81e81b8)" d="M 81.577674 193.371429 
L 397.691163 193.371429 
" style="fill:none;stroke:#000000;stroke-linecap:square;stroke-width:0.8;"/>
     </g>
     <g id="line2d_22">
      <g>
       <use style="stroke:#000000;stroke-width:0.8;" x="81.577674" xlink:href="#m0ec5f2f6da" y="193.371429"/>
      </g>
     </g>
     <g id="text_12">
      <!-- 8 -->
      <g transform="translate(68.215174 197.170647)scale(0.1 -0.1)">
       <use xlink:href="#DejaVuSans-56"/>
      </g>
     </g>
    </g>
    <g id="ytick_6">
     <g id="line2d_23">
      <path clip-path="url(#p34e81e81b8)" d="M 81.577674 148.114286 
L 397.691163 148.114286 
" style="fill:none;stroke:#000000;stroke-linecap:square;stroke-width:0.8;"/>
     </g>
     <g id="line2d_24">
      <g>
       <use style="stroke:#000000;stroke-width:0.8;" x="81.577674" xlink:href="#m0ec5f2f6da" y="148.114286"/>
      </g>
     </g>
     <g id="text_13">
      <!-- 10 -->
      <g transform="translate(61.852674 151.913504)scale(0.1 -0.1)">
       <use xlink:href="#DejaVuSans-49"/>
       <use x="63.623047" xlink:href="#DejaVuSans-48"/>
      </g>
     </g>
    </g>
    <g id="ytick_7">
     <g id="line2d_25">
      <path clip-path="url(#p34e81e81b8)" d="M 81.577674 102.857143 
L 397.691163 102.857143 
" style="fill:none;stroke:#000000;stroke-linecap:square;stroke-width:0.8;"/>
     </g>
     <g id="line2d_26">
      <g>
       <use style="stroke:#000000;stroke-width:0.8;" x="81.577674" xlink:href="#m0ec5f2f6da" y="102.857143"/>
      </g>
     </g>
     <g id="text_14">
      <!-- 12 -->
      <g transform="translate(61.852674 106.656362)scale(0.1 -0.1)">
       <use xlink:href="#DejaVuSans-49"/>
       <use x="63.623047" xlink:href="#DejaVuSans-50"/>
      </g>
     </g>
    </g>
    <g id="ytick_8">
     <g id="line2d_27">
      <path clip-path="url(#p34e81e81b8)" d="M 81.577674 57.6 
L 397.691163 57.6 
" style="fill:none;stroke:#000000;stroke-linecap:square;stroke-width:0.8;"/>
     </g>
     <g id="line2d_28">
      <g>
       <use style="stroke:#000000;stroke-width:0.8;" x="81.577674" xlink:href="#m0ec5f2f6da" y="57.6"/>
      </g>
     </g>
     <g id="text_15">
      <!-- 14 -->
      <g transform="translate(61.852674 61.399219)scale(0.1 -0.1)">
       <use xlink:href="#DejaVuSans-49"/>
       <use x="63.623047" xlink:href="#DejaVuSans-52"/>
      </g>
     </g>
    </g>
    <g id="text_16">
     <!-- Amplitude -->
     <defs>
      <path d="M 34.1875 63.1875 
L 20.796875 26.90625 
L 47.609375 26.90625 
z
M 28.609375 72.90625 
L 39.796875 72.90625 
L 67.578125 0 
L 57.328125 0 
L 50.6875 18.703125 
L 17.828125 18.703125 
L 11.1875 0 
L 0.78125 0 
z
" id="DejaVuSans-65"/>
      <path d="M 18.109375 8.203125 
L 18.109375 -20.796875 
L 9.078125 -20.796875 
L 9.078125 54.6875 
L 18.109375 54.6875 
L 18.109375 46.390625 
Q 20.953125 51.265625 25.265625 53.625 
Q 29.59375 56 35.59375 56 
Q 45.5625 56 51.78125 48.09375 
Q 58.015625 40.1875 58.015625 27.296875 
Q 58.015625 14.40625 51.78125 6.484375 
Q 45.5625 -1.421875 35.59375 -1.421875 
Q 29.59375 -1.421875 25.265625 0.953125 
Q 20.953125 3.328125 18.109375 8.203125 
z
M 48.6875 27.296875 
Q 48.6875 37.203125 44.609375 42.84375 
Q 40.53125 48.484375 33.40625 48.484375 
Q 26.265625 48.484375 22.1875 42.84375 
Q 18.109375 37.203125 18.109375 27.296875 
Q 18.109375 17.390625 22.1875 11.75 
Q 26.265625 6.109375 33.40625 6.109375 
Q 40.53125 6.109375 44.609375 11.75 
Q 48.6875 17.390625 48.6875 27.296875 
z
" id="DejaVuSans-112"/>
      <path d="M 9.421875 75.984375 
L 18.40625 75.984375 
L 18.40625 0 
L 9.421875 0 
z
" id="DejaVuSans-108"/>
      <path d="M 9.421875 54.6875 
L 18.40625 54.6875 
L 18.40625 0 
L 9.421875 0 
z
M 9.421875 75.984375 
L 18.40625 75.984375 
L 18.40625 64.59375 
L 9.421875 64.59375 
z
" id="DejaVuSans-105"/>
      <path d="M 18.3125 70.21875 
L 18.3125 54.6875 
L 36.8125 54.6875 
L 36.8125 47.703125 
L 18.3125 47.703125 
L 18.3125 18.015625 
Q 18.3125 11.328125 20.140625 9.421875 
Q 21.96875 7.515625 27.59375 7.515625 
L 36.8125 7.515625 
L 36.8125 0 
L 27.59375 0 
Q 17.1875 0 13.234375 3.875 
Q 9.28125 7.765625 9.28125 18.015625 
L 9.28125 47.703125 
L 2.6875 47.703125 
L 2.6875 54.6875 
L 9.28125 54.6875 
L 9.28125 70.21875 
z
" id="DejaVuSans-116"/>
      <path d="M 8.5 21.578125 
L 8.5 54.6875 
L 17.484375 54.6875 
L 17.484375 21.921875 
Q 17.484375 14.15625 20.5 10.265625 
Q 23.53125 6.390625 29.59375 6.390625 
Q 36.859375 6.390625 41.078125 11.03125 
Q 45.3125 15.671875 45.3125 23.6875 
L 45.3125 54.6875 
L 54.296875 54.6875 
L 54.296875 0 
L 45.3125 0 
L 45.3125 8.40625 
Q 42.046875 3.421875 37.71875 1 
Q 33.40625 -1.421875 27.6875 -1.421875 
Q 18.265625 -1.421875 13.375 4.4375 
Q 8.5 10.296875 8.5 21.578125 
z
M 31.109375 56 
z
" id="DejaVuSans-117"/>
      <path d="M 45.40625 46.390625 
L 45.40625 75.984375 
L 54.390625 75.984375 
L 54.390625 0 
L 45.40625 0 
L 45.40625 8.203125 
Q 42.578125 3.328125 38.25 0.953125 
Q 33.9375 -1.421875 27.875 -1.421875 
Q 17.96875 -1.421875 11.734375 6.484375 
Q 5.515625 14.40625 5.515625 27.296875 
Q 5.515625 40.1875 11.734375 48.09375 
Q 17.96875 56 27.875 56 
Q 33.9375 56 38.25 53.625 
Q 42.578125 51.265625 45.40625 46.390625 
z
M 14.796875 27.296875 
Q 14.796875 17.390625 18.875 11.75 
Q 22.953125 6.109375 30.078125 6.109375 
Q 37.203125 6.109375 41.296875 11.75 
Q 45.40625 17.390625 45.40625 27.296875 
Q 45.40625 37.203125 41.296875 42.84375 
Q 37.203125 48.484375 30.078125 48.484375 
Q 22.953125 48.484375 18.875 42.84375 
Q 14.796875 37.203125 14.796875 27.296875 
z
" id="DejaVuSans-100"/>
     </defs>
     <g transform="translate(55.772987 241.622656)rotate(-90)scale(0.1 -0.1)">
      <use xlink:href="#DejaVuSans-65"/>
      <use x="68.408203" xlink:href="#DejaVuSans-109"/>
      <use x="165.820312" xlink:href="#DejaVuSans-112"/>
      <use x="229.296875" xlink:href="#DejaVuSans-108"/>
      <use x="257.080078" xlink:href="#DejaVuSans-105"/>
      <use x="284.863281" xlink:href="#DejaVuSans-116"/>
      <use x="324.072266" xlink:href="#DejaVuSans-117"/>
      <use x="387.451172" xlink:href="#DejaVuSans-100"/>
      <use x="450.927734" xlink:href="#DejaVuSans-101"/>
     </g>
    </g>
   </g>
   <g id="line2d_29">
    <path clip-path="url(#p34e81e81b8)" d="M 81.169429 374.398801 
L 85.314741 374.298309 
L 88.99407 373.984702 
L 92.222776 373.496998 
L 95.496129 372.72861 
L 98.119035 371.827972 
L 100.726258 370.552044 
L 101.903275 369.796904 
L 102.982518 368.970297 
L 104.836497 367.139649 
L 106.312264 365.139759 
L 107.477557 363.036917 
L 108.404571 360.873889 
L 109.473779 357.567659 
L 110.27622 354.222603 
L 110.660735 352.144797 
L 112.015379 351.561869 
L 115.66795 350.943119 
L 121.590164 349.698122 
L 126.051054 348.548521 
L 130.410555 347.214636 
L 134.641003 345.682763 
L 138.710883 343.942383 
L 142.586891 341.988474 
L 146.237374 339.823466 
L 149.636504 337.458036 
L 152.76794 334.910209 
L 155.626661 332.202976 
L 158.218465 329.361266 
L 160.557643 326.409258 
L 162.663902 323.368605 
L 164.559478 320.257634 
L 166.266961 317.091272 
L 168.287997 312.803411 
L 170.058677 308.459081 
L 171.618308 304.073416 
L 173.320588 298.549315 
L 174.796029 292.991799 
L 176.323961 286.292097 
L 177.637952 279.56912 
L 178.954896 271.705542 
L 180.233978 262.70065 
L 181.447746 252.55502 
L 182.580009 241.269877 
L 183.709293 227.716895 
L 184.789224 211.895834 
L 185.792211 193.807271 
L 186.75051 172.32112 
L 187.633897 147.437759 
L 188.485174 116.895296 
L 189.265274 80.69391 
L 190.006506 35.439896 
L 190.473698 -1 
L 190.473698 -1 
" style="fill:none;stroke:#000000;stroke-linecap:square;stroke-width:2;"/>
   </g>
   <g id="line2d_30">
    <path clip-path="url(#p34e81e81b8)" d="M 0 0 
" style="fill:none;stroke:#000000;stroke-dasharray:12,12;stroke-dashoffset:0;stroke-width:2;"/>
   </g>
   <g id="line2d_31">
    <path clip-path="url(#p34e81e81b8)" d="M 192.934927 -1 
L 192.423331 76.342443 
L 191.845909 131.780883 
L 191.207357 172.509719 
L 190.514834 203.05423 
L 189.761213 226.808054 
L 188.983301 244.902288 
L 188.15055 259.598705 
L 187.235592 272.027081 
L 186.277657 282.186717 
L 185.198901 291.204993 
L 184.194309 297.955247 
L 182.959052 304.68576 
L 181.692331 310.269521 
L 180.473071 314.710074 
L 179.01635 319.113672 
L 177.727876 322.380019 
L 176.231988 325.600633 
L 174.485973 328.755905 
L 172.442181 331.817914 
L 170.890564 333.789151 
L 169.173375 335.688678 
L 167.282468 337.50163 
L 165.215374 339.213145 
L 162.976522 340.810088 
L 160.577247 342.282836 
L 158.03441 343.626549 
L 155.368054 344.841479 
L 151.181927 346.43362 
L 146.827451 347.775298 
L 142.35477 348.900885 
L 137.800347 349.844225 
L 131.643194 350.869475 
L 124.534353 351.797659 
L 124.534353 351.797659 
" style="fill:none;stroke:#ff0000;stroke-dasharray:12,12;stroke-dashoffset:0;stroke-width:2;"/>
   </g>
   <g id="line2d_32">
    <path clip-path="url(#p34e81e81b8)" d="M 124.534353 351.797659 
L 124.47121 351.852041 
L 124.726163 352.058131 
L 125.419694 353.074823 
L 126.141347 354.081436 
L 126.950097 355.053531 
L 127.852324 355.982515 
L 128.851216 356.859352 
L 129.945603 357.675692 
L 131.129609 358.425213 
L 132.393427 359.104676 
L 133.724968 359.714271 
L 135.1117 360.25716 
L 136.542071 360.738548 
L 138.006255 361.164671 
L 139.496337 361.542 
L 141.006157 361.876715 
L 142.531024 362.174435 
L 144.067398 362.440115 
L 145.612621 362.678047 
L 147.164696 362.891911 
L 148.722115 363.08484 
L 150.283735 363.259504 
L 151.848684 363.418173 
L 153.416288 363.562782 
L 154.986029 363.694986 
L 156.557499 363.816204 
L 158.13038 363.927656 
L 159.704417 364.030397 
L 161.27941 364.125342 
L 162.855196 364.213286 
L 164.431644 364.294923 
L 166.008647 364.370864 
L 167.586119 364.441643 
L 169.163987 364.507735 
L 170.742194 364.569558 
L 172.320688 364.627484 
L 173.899431 364.681844 
L 175.478386 364.732936 
L 177.057525 364.781023 
L 178.636824 364.826345 
L 180.216262 364.869115 
L 181.795821 364.909528 
L 183.375486 364.947759 
L 184.955244 364.983967 
L 186.535084 365.018296 
L 188.114996 365.050877 
L 189.694972 365.08183 
L 191.275005 365.111266 
L 192.855088 365.139283 
L 194.435216 365.165975 
L 196.015383 365.191425 
L 197.595587 365.215711 
L 199.175822 365.238905 
L 200.756086 365.261073 
L 202.336377 365.282276 
L 203.91669 365.30257 
L 205.497024 365.322008 
L 207.077377 365.340639 
L 208.657748 365.358506 
L 210.238134 365.375653 
L 211.818534 365.392118 
L 213.398947 365.407938 
L 214.979372 365.423147 
L 216.559808 365.437776 
L 218.140253 365.451854 
L 219.720707 365.465411 
L 221.301169 365.478471 
L 222.881639 365.491059 
L 224.462116 365.503198 
L 226.042599 365.51491 
L 227.623087 365.526214 
L 229.203581 365.53713 
L 230.78408 365.547675 
L 232.364584 365.557866 
L 233.945091 365.56772 
L 235.525603 365.57725 
L 237.106118 365.586472 
L 238.686637 365.595399 
L 240.267158 365.604043 
L 241.847682 365.612416 
L 243.428209 365.62053 
L 245.008739 365.628396 
L 246.58927 365.636023 
L 248.169804 365.643421 
L 249.75034 365.6506 
L 251.330878 365.657568 
L 252.911417 365.664333 
L 254.491958 365.670904 
L 256.0725 365.677287 
L 257.653044 365.68349 
L 259.233589 365.68952 
L 260.814136 365.695384 
L 262.394683 365.701086 
L 263.975232 365.706634 
L 265.555781 365.712033 
L 267.136332 365.717287 
L 268.716883 365.722404 
L 269.981325 365.7264 
L 270.613546 365.728367 
L 271.245767 365.730313 
L 271.877989 365.732239 
L 272.51021 365.734145 
L 273.774653 365.737899 
L 275.355208 365.742483 
L 276.935763 365.746952 
L 278.516319 365.75131 
L 280.096876 365.755559 
L 281.677433 365.759704 
L 283.25799 365.763749 
L 284.838548 365.767695 
L 286.419107 365.771548 
L 287.999665 365.775308 
L 289.580225 365.778981 
L 291.160784 365.782567 
L 292.741344 365.78607 
L 294.321905 365.789493 
L 295.902465 365.792837 
L 297.483026 365.796106 
L 299.063588 365.799302 
L 300.644149 365.802426 
L 302.224711 365.805482 
L 303.805273 365.80847 
" style="fill:none;stroke:#ff0000;stroke-linecap:square;stroke-width:2;"/>
   </g>
   <g id="line2d_33">
    <path clip-path="url(#p34e81e81b8)" d="M 271.245768 338.373897 
L 279.964758 336.294533 
L 288.37841 334.047597 
L 295.891685 331.808533 
L 302.920029 329.48395 
L 309.500539 327.075486 
L 315.54157 324.637925 
L 321.373598 322.049526 
L 326.866099 319.370113 
L 332.044695 316.598264 
L 336.988333 313.697413 
L 341.604796 310.73076 
L 345.97232 307.660941 
L 351.509675 303.338061 
L 355.33845 300.018625 
L 358.967814 296.578426 
L 362.234372 293.199488 
L 365.508058 289.501861 
L 368.619167 285.652516 
L 371.58243 281.631974 
L 374.409299 277.420807 
L 377.108734 272.999659 
L 379.695847 268.334056 
L 382.17848 263.395657 
L 384.566148 258.147283 
L 386.862811 252.557582 
L 389.077387 246.577293 
L 391.21427 240.160286 
L 393.27906 233.248155 
L 395.263601 225.825088 
L 397.324145 217.154585 
L 397.691676 215.490501 
L 397.691676 215.490501 
" style="fill:none;stroke:#008000;stroke-dasharray:12,12;stroke-dashoffset:0;stroke-width:2;"/>
   </g>
   <g id="line2d_34">
    <path clip-path="url(#p34e81e81b8)" d="M 271.245768 338.373897 
L 262.039336 340.335096 
L 252.027708 342.236876 
L 241.235308 344.062705 
L 229.041486 345.900012 
L 214.485954 347.860387 
L 187.759738 351.400025 
L 186.516308 351.754329 
L 186.496561 351.799381 
L 186.496563 351.799363 
" style="fill:none;stroke:#0000ff;stroke-dasharray:12,12;stroke-dashoffset:0;stroke-width:2;"/>
   </g>
   <g id="line2d_35">
    <path clip-path="url(#p34e81e81b8)" d="M 186.496563 351.799363 
L 186.627951 351.669513 
L 187.309518 351.440764 
L 189.314543 350.995613 
L 189.314543 350.995613 
" style="fill:none;stroke:#0000ff;stroke-linecap:square;stroke-width:2;"/>
   </g>
   <g id="line2d_36">
    <path clip-path="url(#p34e81e81b8)" d="M 189.314543 350.995613 
L 193.993057 350.199052 
L 203.644999 348.814872 
L 224.523248 346.083076 
L 235.31324 344.742537 
L 235.31324 344.742537 
" style="fill:none;stroke:#0000ff;stroke-dasharray:12,12;stroke-dashoffset:0;stroke-width:2;"/>
   </g>
   <g id="line2d_37">
    <path clip-path="url(#p34e81e81b8)" d="M 235.31324 344.742537 
L 247.122308 343.432034 
L 270.697417 341.115272 
L 280.122412 339.831134 
L 288.920559 338.410054 
L 297.036445 336.876257 
L 304.509278 335.239824 
L 311.351427 333.517199 
L 317.681129 331.696125 
L 323.474818 329.801405 
L 328.868669 327.805095 
L 333.845285 325.728155 
L 338.4598 323.564532 
L 342.767661 321.301855 
L 346.809136 318.929054 
L 350.597557 316.447653 
L 354.039182 313.941847 
L 357.402615 311.223856 
L 360.582898 308.369633 
L 363.616839 305.347446 
L 366.496599 302.164858 
L 369.246668 298.794241 
L 371.938784 295.137951 
L 374.673566 291.050405 
L 377.304402 286.716302 
L 379.836184 282.114442 
L 382.275222 277.217553 
L 384.632188 271.98313 
L 386.893736 266.420212 
L 389.004666 260.671554 
L 391.149677 254.187316 
L 393.21434 247.228389 
L 395.213234 239.700437 
L 397.148899 231.533354 
L 397.691399 229.068 
L 397.691399 229.068 
" style="fill:none;stroke:#0000ff;stroke-linecap:square;stroke-width:2;"/>
   </g>
   <g id="line2d_38">
    <path clip-path="url(#p34e81e81b8)" d="M 208.02307 337.345684 
L 213.9757 335.131693 
L 219.520037 332.837105 
L 224.90765 330.35784 
L 229.845549 327.834482 
L 234.61419 325.131568 
L 238.850726 322.473568 
L 242.866739 319.692 
L 246.596701 316.840208 
L 250.175877 313.820622 
L 253.443524 310.76862 
L 256.45858 307.647934 
L 259.232489 304.469459 
L 261.912605 301.06627 
L 264.441786 297.498652 
L 266.859699 293.704663 
L 269.178089 289.64875 
L 271.382534 285.341713 
L 273.508174 280.694352 
L 275.645531 275.438137 
L 277.60506 270.005098 
L 279.533749 263.969941 
L 281.348644 257.543738 
L 282.508671 252.989935 
L 284.228691 245.481701 
L 285.483616 239.340349 
L 287.128986 230.274465 
L 288.695971 220.358718 
L 290.217757 209.272421 
L 291.721566 196.637156 
L 293.095053 183.165965 
L 294.41483 167.980769 
L 295.677556 150.832982 
L 296.887999 131.303508 
L 298.0453 108.948915 
L 299.147929 83.244759 
L 300.196259 53.490121 
L 300.356903 48.364262 
L 300.356903 48.364262 
" style="fill:none;stroke:#000000;stroke-dasharray:12,12;stroke-dashoffset:0;stroke-width:2;"/>
   </g>
   <g id="line2d_39">
    <path clip-path="url(#p34e81e81b8)" d="M 208.02307 337.345684 
L 201.795832 339.42422 
L 195.016712 341.451474 
L 187.557636 343.444562 
L 179.234566 345.43117 
L 169.498113 347.518835 
L 167.861668 347.741406 
L 167.775957 347.0841 
L 167.502564 346.112204 
L 167.109254 345.45752 
L 166.8146 345.312394 
L 166.738533 345.320119 
L 166.738533 345.320119 
" style="fill:none;stroke:#ff0000;stroke-dasharray:12,12;stroke-dashoffset:0;stroke-width:2;"/>
   </g>
   <g id="line2d_40">
    <path clip-path="url(#p34e81e81b8)" d="M 166.738533 345.320119 
L 166.74175 345.318306 
L 166.753325 345.313686 
L 166.762878 345.310045 
L 166.77238 345.306496 
L 166.781999 345.302964 
L 166.791724 345.299446 
L 166.801546 345.295942 
L 166.811456 345.292456 
L 166.821447 345.28898 
L 166.831514 345.285518 
L 166.841651 345.282078 
L 166.851854 345.27864 
L 166.862117 345.275214 
L 166.872437 345.271805 
L 166.88281 345.268401 
L 166.893233 345.265006 
L 166.903702 345.261635 
L 166.914214 345.258259 
L 166.924768 345.254892 
L 166.93536 345.251545 
L 166.945988 345.248195 
L 166.956651 345.244853 
" style="fill:none;stroke:#ff0000;stroke-linecap:square;stroke-width:2;"/>
   </g>
   <g id="line2d_41">
    <path clip-path="url(#p34e81e81b8)" d="M 166.956651 345.244853 
L 169.91001 344.442953 
L 189.520154 339.218534 
L 194.755185 337.925153 
L 200.150899 336.5943 
L 205.770861 334.975053 
L 211.347698 333.13776 
L 216.572683 331.191792 
L 216.572683 331.191792 
" style="fill:none;stroke:#ff0000;stroke-dasharray:12,12;stroke-dashoffset:0;stroke-width:2;"/>
   </g>
   <g id="line2d_42">
    <path clip-path="url(#p34e81e81b8)" d="M 216.572683 331.191792 
L 221.630429 329.075316 
L 226.376656 326.850382 
L 230.836073 324.516014 
L 235.018363 322.077231 
L 238.952398 319.526683 
L 242.650775 316.864806 
L 246.258065 313.980724 
L 249.555908 311.053859 
L 252.671536 307.991474 
L 255.6313 304.77058 
L 258.450937 301.372748 
L 261.138955 297.78444 
L 263.712018 293.976746 
L 266.176094 289.930684 
L 268.335724 286.010091 
L 270.617353 281.424715 
L 272.81379 276.508517 
L 274.982864 271.086843 
L 277.04364 265.331036 
L 279.017683 259.177385 
L 280.888262 252.603571 
L 282.689577 245.4504 
L 284.424214 237.638822 
L 286.093759 229.079914 
L 287.700377 219.664945 
L 289.246585 209.260458 
L 290.732503 197.723187 
L 292.159677 184.870296 
L 293.529125 170.484377 
L 294.841209 154.308542 
L 296.096834 136.021709 
L 297.296467 115.233741 
L 298.440526 91.46086 
L 299.258859 71.405038 
L 299.258859 71.405038 
" style="fill:none;stroke:#ff0000;stroke-linecap:square;stroke-width:2;"/>
   </g>
   <g id="patch_3">
    <path d="M 81.577674 374.4 
L 81.577674 57.6 
" style="fill:none;stroke:#000000;stroke-linecap:square;stroke-linejoin:miter;stroke-width:0.8;"/>
   </g>
   <g id="patch_4">
    <path d="M 397.691163 374.4 
L 397.691163 57.6 
" style="fill:none;stroke:#000000;stroke-linecap:square;stroke-linejoin:miter;stroke-width:0.8;"/>
   </g>
   <g id="patch_5">
    <path d="M 81.577674 374.4 
L 397.691163 374.4 
" style="fill:none;stroke:#000000;stroke-linecap:square;stroke-linejoin:miter;stroke-width:0.8;"/>
   </g>
   <g id="patch_6">
    <path d="M 81.577674 57.6 
L 397.691163 57.6 
" style="fill:none;stroke:#000000;stroke-linecap:square;stroke-linejoin:miter;stroke-width:0.8;"/>
   </g>
   <g id="text_17">
    <g clip-path="url(#p34e81e81b8)">
     <!-- U -->
     <defs>
      <path d="M 8.6875 72.90625 
L 18.609375 72.90625 
L 18.609375 28.609375 
Q 18.609375 16.890625 22.84375 11.734375 
Q 27.09375 6.59375 36.625 6.59375 
Q 46.09375 6.59375 50.34375 11.734375 
Q 54.59375 16.890625 54.59375 28.609375 
L 54.59375 72.90625 
L 64.5 72.90625 
L 64.5 27.390625 
Q 64.5 13.140625 57.4375 5.859375 
Q 50.390625 -1.421875 36.625 -1.421875 
Q 22.796875 -1.421875 15.734375 5.859375 
Q 8.6875 13.140625 8.6875 27.390625 
z
" id="DejaVuSans-85"/>
     </defs>
     <g style="fill:#ff0000;" transform="translate(81.079546 377.086857)scale(0.1 -0.1)">
      <use xlink:href="#DejaVuSans-85"/>
     </g>
    </g>
   </g>
   <g id="text_18">
    <g clip-path="url(#p34e81e81b8)">
     <!-- L -->
     <defs>
      <path d="M 9.8125 72.90625 
L 19.671875 72.90625 
L 19.671875 8.296875 
L 55.171875 8.296875 
L 55.171875 0 
L 9.8125 0 
z
" id="DejaVuSans-76"/>
     </defs>
     <g style="fill:#ff0000;" transform="translate(107.874798 354.904172)scale(0.1 -0.1)">
      <use xlink:href="#DejaVuSans-76"/>
     </g>
    </g>
   </g>
   <g id="text_19">
    <g clip-path="url(#p34e81e81b8)">
     <!-- L -->
     <g style="fill:#ff0000;" transform="translate(191.878663 -14450.038265)scale(0.1 -0.1)">
      <use xlink:href="#DejaVuSans-76"/>
     </g>
    </g>
   </g>
   <g id="text_20">
    <g clip-path="url(#p34e81e81b8)">
     <!-- L -->
     <g style="fill:#ff0000;" transform="translate(121.685273 354.611416)scale(0.1 -0.1)">
      <use xlink:href="#DejaVuSans-76"/>
     </g>
    </g>
   </g>
   <g id="text_21">
    <g clip-path="url(#p34e81e81b8)">
     <!-- L -->
     <g style="fill:#ff0000;" transform="translate(183.710625 354.558738)scale(0.1 -0.1)">
      <use xlink:href="#DejaVuSans-76"/>
     </g>
    </g>
   </g>
   <g id="text_22">
    <g clip-path="url(#p34e81e81b8)">
     <!-- U -->
     <g style="fill:#ff0000;" transform="translate(235.975044 324.711534)scale(0.1 -0.1)">
      <use xlink:href="#DejaVuSans-85"/>
     </g>
    </g>
   </g>
   <g id="text_23">
    <g clip-path="url(#p34e81e81b8)">
     <!-- U -->
     <g style="fill:#ff0000;" transform="translate(267.586392 288.382596)scale(0.1 -0.1)">
      <use xlink:href="#DejaVuSans-85"/>
     </g>
    </g>
   </g>
   <g id="text_24">
    <g clip-path="url(#p34e81e81b8)">
     <!-- L -->
     <g style="fill:#ff0000;" transform="translate(163.952595 348.079494)scale(0.1 -0.1)">
      <use xlink:href="#DejaVuSans-76"/>
     </g>
    </g>
   </g>
   <g id="text_25">
    <g clip-path="url(#p34e81e81b8)">
     <!-- U -->
     <g style="fill:#ff0000;" transform="translate(235.975044 321.81562)scale(0.1 -0.1)">
      <use xlink:href="#DejaVuSans-85"/>
     </g>
    </g>
   </g>
   <g id="text_26">
    <g clip-path="url(#p34e81e81b8)">
     <!-- U -->
     <g style="fill:#ff0000;" transform="translate(267.586436 282.831234)scale(0.1 -0.1)">
      <use xlink:href="#DejaVuSans-85"/>
     </g>
    </g>
   </g>
   <g id="text_27">
    <!-- is_nzk = 1 -->
    <defs>
     <path d="M 44.28125 53.078125 
L 44.28125 44.578125 
Q 40.484375 46.53125 36.375 47.5 
Q 32.28125 48.484375 27.875 48.484375 
Q 21.1875 48.484375 17.84375 46.4375 
Q 14.5 44.390625 14.5 40.28125 
Q 14.5 37.15625 16.890625 35.375 
Q 19.28125 33.59375 26.515625 31.984375 
L 29.59375 31.296875 
Q 39.15625 29.25 43.1875 25.515625 
Q 47.21875 21.78125 47.21875 15.09375 
Q 47.21875 7.46875 41.1875 3.015625 
Q 35.15625 -1.421875 24.609375 -1.421875 
Q 20.21875 -1.421875 15.453125 -0.5625 
Q 10.6875 0.296875 5.421875 2 
L 5.421875 11.28125 
Q 10.40625 8.6875 15.234375 7.390625 
Q 20.0625 6.109375 24.8125 6.109375 
Q 31.15625 6.109375 34.5625 8.28125 
Q 37.984375 10.453125 37.984375 14.40625 
Q 37.984375 18.0625 35.515625 20.015625 
Q 33.0625 21.96875 24.703125 23.78125 
L 21.578125 24.515625 
Q 13.234375 26.265625 9.515625 29.90625 
Q 5.8125 33.546875 5.8125 39.890625 
Q 5.8125 47.609375 11.28125 51.796875 
Q 16.75 56 26.8125 56 
Q 31.78125 56 36.171875 55.265625 
Q 40.578125 54.546875 44.28125 53.078125 
z
" id="DejaVuSans-115"/>
     <path d="M 50.984375 -16.609375 
L 50.984375 -23.578125 
L -0.984375 -23.578125 
L -0.984375 -16.609375 
z
" id="DejaVuSans-95"/>
     <path d="M 54.890625 33.015625 
L 54.890625 0 
L 45.90625 0 
L 45.90625 32.71875 
Q 45.90625 40.484375 42.875 44.328125 
Q 39.84375 48.1875 33.796875 48.1875 
Q 26.515625 48.1875 22.3125 43.546875 
Q 18.109375 38.921875 18.109375 30.90625 
L 18.109375 0 
L 9.078125 0 
L 9.078125 54.6875 
L 18.109375 54.6875 
L 18.109375 46.1875 
Q 21.34375 51.125 25.703125 53.5625 
Q 30.078125 56 35.796875 56 
Q 45.21875 56 50.046875 50.171875 
Q 54.890625 44.34375 54.890625 33.015625 
z
" id="DejaVuSans-110"/>
     <path d="M 5.515625 54.6875 
L 48.1875 54.6875 
L 48.1875 46.484375 
L 14.40625 7.171875 
L 48.1875 7.171875 
L 48.1875 0 
L 4.296875 0 
L 4.296875 8.203125 
L 38.09375 47.515625 
L 5.515625 47.515625 
z
" id="DejaVuSans-122"/>
     <path d="M 9.078125 75.984375 
L 18.109375 75.984375 
L 18.109375 31.109375 
L 44.921875 54.6875 
L 56.390625 54.6875 
L 27.390625 29.109375 
L 57.625 0 
L 45.90625 0 
L 18.109375 26.703125 
L 18.109375 0 
L 9.078125 0 
z
" id="DejaVuSans-107"/>
     <path id="DejaVuSans-32"/>
     <path d="M 10.59375 45.40625 
L 73.1875 45.40625 
L 73.1875 37.203125 
L 10.59375 37.203125 
z
M 10.59375 25.484375 
L 73.1875 25.484375 
L 73.1875 17.1875 
L 10.59375 17.1875 
z
" id="DejaVuSans-61"/>
    </defs>
    <g transform="translate(208.756919 51.6)scale(0.12 -0.12)">
     <use xlink:href="#DejaVuSans-105"/>
     <use x="27.783203" xlink:href="#DejaVuSans-115"/>
     <use x="79.882812" xlink:href="#DejaVuSans-95"/>
     <use x="129.882812" xlink:href="#DejaVuSans-110"/>
     <use x="193.261719" xlink:href="#DejaVuSans-122"/>
     <use x="245.751953" xlink:href="#DejaVuSans-107"/>
     <use x="303.662109" xlink:href="#DejaVuSans-32"/>
     <use x="335.449219" xlink:href="#DejaVuSans-61"/>
     <use x="419.238281" xlink:href="#DejaVuSans-32"/>
     <use x="451.025391" xlink:href="#DejaVuSans-49"/>
    </g>
   </g>
  </g>
 </g>
 <defs>
  <clipPath id="p34e81e81b8">
   <rect height="316.8" width="316.113488" x="81.577674" y="57.6"/>
  </clipPath>
 </defs>
</svg>
