<?xml version="1.0" encoding="utf-8" standalone="no"?>
<!DOCTYPE svg PUBLIC "-//W3C//DTD SVG 1.1//EN"
  "http://www.w3.org/Graphics/SVG/1.1/DTD/svg11.dtd">
<!-- Created with matplotlib (https://matplotlib.org/) -->
<svg height="432pt" version="1.1" viewBox="0 0 438.48 432" width="438.48pt" xmlns="http://www.w3.org/2000/svg" xmlns:xlink="http://www.w3.org/1999/xlink">
 <defs>
  <style type="text/css">
*{stroke-linecap:butt;stroke-linejoin:round;}
  </style>
 </defs>
 <g id="figure_1">
  <g id="patch_1">
   <path d="M 0 432 
L 438.48 432 
L 438.48 0 
L 0 0 
z
" style="fill:#ffffff;"/>
  </g>
  <g id="axes_1">
   <g id="patch_2">
    <path d="M 81.577674 374.4 
L 397.691163 374.4 
L 397.691163 57.6 
L 81.577674 57.6 
z
" style="fill:#ffffff;"/>
   </g>
   <g id="matplotlib.axis_1">
    <g id="xtick_1">
     <g id="line2d_1">
      <path clip-path="url(#p3fa2c21ce1)" d="M 81.577674 374.4 
L 81.577674 57.6 
" style="fill:none;stroke:#000000;stroke-linecap:square;stroke-width:0.8;"/>
     </g>
     <g id="line2d_2">
      <defs>
       <path d="M 0 0 
L 0 3.5 
" id="mcca91b8c5a" style="stroke:#000000;stroke-width:0.8;"/>
      </defs>
      <g>
       <use style="stroke:#000000;stroke-width:0.8;" x="81.577674" xlink:href="#mcca91b8c5a" y="374.4"/>
      </g>
     </g>
     <g id="text_1">
      <!-- 2.00 -->
      <defs>
       <path d="M 19.1875 8.296875 
L 53.609375 8.296875 
L 53.609375 0 
L 7.328125 0 
L 7.328125 8.296875 
Q 12.9375 14.109375 22.625 23.890625 
Q 32.328125 33.6875 34.8125 36.53125 
Q 39.546875 41.84375 41.421875 45.53125 
Q 43.3125 49.21875 43.3125 52.78125 
Q 43.3125 58.59375 39.234375 62.25 
Q 35.15625 65.921875 28.609375 65.921875 
Q 23.96875 65.921875 18.8125 64.3125 
Q 13.671875 62.703125 7.8125 59.421875 
L 7.8125 69.390625 
Q 13.765625 71.78125 18.9375 73 
Q 24.125 74.21875 28.421875 74.21875 
Q 39.75 74.21875 46.484375 68.546875 
Q 53.21875 62.890625 53.21875 53.421875 
Q 53.21875 48.921875 51.53125 44.890625 
Q 49.859375 40.875 45.40625 35.40625 
Q 44.1875 33.984375 37.640625 27.21875 
Q 31.109375 20.453125 19.1875 8.296875 
z
" id="DejaVuSans-50"/>
       <path d="M 10.6875 12.40625 
L 21 12.40625 
L 21 0 
L 10.6875 0 
z
" id="DejaVuSans-46"/>
       <path d="M 31.78125 66.40625 
Q 24.171875 66.40625 20.328125 58.90625 
Q 16.5 51.421875 16.5 36.375 
Q 16.5 21.390625 20.328125 13.890625 
Q 24.171875 6.390625 31.78125 6.390625 
Q 39.453125 6.390625 43.28125 13.890625 
Q 47.125 21.390625 47.125 36.375 
Q 47.125 51.421875 43.28125 58.90625 
Q 39.453125 66.40625 31.78125 66.40625 
z
M 31.78125 74.21875 
Q 44.046875 74.21875 50.515625 64.515625 
Q 56.984375 54.828125 56.984375 36.375 
Q 56.984375 17.96875 50.515625 8.265625 
Q 44.046875 -1.421875 31.78125 -1.421875 
Q 19.53125 -1.421875 13.0625 8.265625 
Q 6.59375 17.96875 6.59375 36.375 
Q 6.59375 54.828125 13.0625 64.515625 
Q 19.53125 74.21875 31.78125 74.21875 
z
" id="DejaVuSans-48"/>
      </defs>
      <g transform="translate(70.444862 388.998438)scale(0.1 -0.1)">
       <use xlink:href="#DejaVuSans-50"/>
       <use x="63.623047" xlink:href="#DejaVuSans-46"/>
       <use x="95.410156" xlink:href="#DejaVuSans-48"/>
       <use x="159.033203" xlink:href="#DejaVuSans-48"/>
      </g>
     </g>
    </g>
    <g id="xtick_2">
     <g id="line2d_3">
      <path clip-path="url(#p3fa2c21ce1)" d="M 121.09186 374.4 
L 121.09186 57.6 
" style="fill:none;stroke:#000000;stroke-linecap:square;stroke-width:0.8;"/>
     </g>
     <g id="line2d_4">
      <g>
       <use style="stroke:#000000;stroke-width:0.8;" x="121.09186" xlink:href="#mcca91b8c5a" y="374.4"/>
      </g>
     </g>
     <g id="text_2">
      <!-- 2.25 -->
      <defs>
       <path d="M 10.796875 72.90625 
L 49.515625 72.90625 
L 49.515625 64.59375 
L 19.828125 64.59375 
L 19.828125 46.734375 
Q 21.96875 47.46875 24.109375 47.828125 
Q 26.265625 48.1875 28.421875 48.1875 
Q 40.625 48.1875 47.75 41.5 
Q 54.890625 34.8125 54.890625 23.390625 
Q 54.890625 11.625 47.5625 5.09375 
Q 40.234375 -1.421875 26.90625 -1.421875 
Q 22.3125 -1.421875 17.546875 -0.640625 
Q 12.796875 0.140625 7.71875 1.703125 
L 7.71875 11.625 
Q 12.109375 9.234375 16.796875 8.0625 
Q 21.484375 6.890625 26.703125 6.890625 
Q 35.15625 6.890625 40.078125 11.328125 
Q 45.015625 15.765625 45.015625 23.390625 
Q 45.015625 31 40.078125 35.4375 
Q 35.15625 39.890625 26.703125 39.890625 
Q 22.75 39.890625 18.8125 39.015625 
Q 14.890625 38.140625 10.796875 36.28125 
z
" id="DejaVuSans-53"/>
      </defs>
      <g transform="translate(109.959048 388.998438)scale(0.1 -0.1)">
       <use xlink:href="#DejaVuSans-50"/>
       <use x="63.623047" xlink:href="#DejaVuSans-46"/>
       <use x="95.410156" xlink:href="#DejaVuSans-50"/>
       <use x="159.033203" xlink:href="#DejaVuSans-53"/>
      </g>
     </g>
    </g>
    <g id="xtick_3">
     <g id="line2d_5">
      <path clip-path="url(#p3fa2c21ce1)" d="M 160.606047 374.4 
L 160.606047 57.6 
" style="fill:none;stroke:#000000;stroke-linecap:square;stroke-width:0.8;"/>
     </g>
     <g id="line2d_6">
      <g>
       <use style="stroke:#000000;stroke-width:0.8;" x="160.606047" xlink:href="#mcca91b8c5a" y="374.4"/>
      </g>
     </g>
     <g id="text_3">
      <!-- 2.50 -->
      <g transform="translate(149.473234 388.998438)scale(0.1 -0.1)">
       <use xlink:href="#DejaVuSans-50"/>
       <use x="63.623047" xlink:href="#DejaVuSans-46"/>
       <use x="95.410156" xlink:href="#DejaVuSans-53"/>
       <use x="159.033203" xlink:href="#DejaVuSans-48"/>
      </g>
     </g>
    </g>
    <g id="xtick_4">
     <g id="line2d_7">
      <path clip-path="url(#p3fa2c21ce1)" d="M 200.120233 374.4 
L 200.120233 57.6 
" style="fill:none;stroke:#000000;stroke-linecap:square;stroke-width:0.8;"/>
     </g>
     <g id="line2d_8">
      <g>
       <use style="stroke:#000000;stroke-width:0.8;" x="200.120233" xlink:href="#mcca91b8c5a" y="374.4"/>
      </g>
     </g>
     <g id="text_4">
      <!-- 2.75 -->
      <defs>
       <path d="M 8.203125 72.90625 
L 55.078125 72.90625 
L 55.078125 68.703125 
L 28.609375 0 
L 18.3125 0 
L 43.21875 64.59375 
L 8.203125 64.59375 
z
" id="DejaVuSans-55"/>
      </defs>
      <g transform="translate(188.98742 388.998438)scale(0.1 -0.1)">
       <use xlink:href="#DejaVuSans-50"/>
       <use x="63.623047" xlink:href="#DejaVuSans-46"/>
       <use x="95.410156" xlink:href="#DejaVuSans-55"/>
       <use x="159.033203" xlink:href="#DejaVuSans-53"/>
      </g>
     </g>
    </g>
    <g id="xtick_5">
     <g id="line2d_9">
      <path clip-path="url(#p3fa2c21ce1)" d="M 239.634419 374.4 
L 239.634419 57.6 
" style="fill:none;stroke:#000000;stroke-linecap:square;stroke-width:0.8;"/>
     </g>
     <g id="line2d_10">
      <g>
       <use style="stroke:#000000;stroke-width:0.8;" x="239.634419" xlink:href="#mcca91b8c5a" y="374.4"/>
      </g>
     </g>
     <g id="text_5">
      <!-- 3.00 -->
      <defs>
       <path d="M 40.578125 39.3125 
Q 47.65625 37.796875 51.625 33 
Q 55.609375 28.21875 55.609375 21.1875 
Q 55.609375 10.40625 48.1875 4.484375 
Q 40.765625 -1.421875 27.09375 -1.421875 
Q 22.515625 -1.421875 17.65625 -0.515625 
Q 12.796875 0.390625 7.625 2.203125 
L 7.625 11.71875 
Q 11.71875 9.328125 16.59375 8.109375 
Q 21.484375 6.890625 26.8125 6.890625 
Q 36.078125 6.890625 40.9375 10.546875 
Q 45.796875 14.203125 45.796875 21.1875 
Q 45.796875 27.640625 41.28125 31.265625 
Q 36.765625 34.90625 28.71875 34.90625 
L 20.21875 34.90625 
L 20.21875 43.015625 
L 29.109375 43.015625 
Q 36.375 43.015625 40.234375 45.921875 
Q 44.09375 48.828125 44.09375 54.296875 
Q 44.09375 59.90625 40.109375 62.90625 
Q 36.140625 65.921875 28.71875 65.921875 
Q 24.65625 65.921875 20.015625 65.03125 
Q 15.375 64.15625 9.8125 62.3125 
L 9.8125 71.09375 
Q 15.4375 72.65625 20.34375 73.4375 
Q 25.25 74.21875 29.59375 74.21875 
Q 40.828125 74.21875 47.359375 69.109375 
Q 53.90625 64.015625 53.90625 55.328125 
Q 53.90625 49.265625 50.4375 45.09375 
Q 46.96875 40.921875 40.578125 39.3125 
z
" id="DejaVuSans-51"/>
      </defs>
      <g transform="translate(228.501606 388.998438)scale(0.1 -0.1)">
       <use xlink:href="#DejaVuSans-51"/>
       <use x="63.623047" xlink:href="#DejaVuSans-46"/>
       <use x="95.410156" xlink:href="#DejaVuSans-48"/>
       <use x="159.033203" xlink:href="#DejaVuSans-48"/>
      </g>
     </g>
    </g>
    <g id="xtick_6">
     <g id="line2d_11">
      <path clip-path="url(#p3fa2c21ce1)" d="M 279.148605 374.4 
L 279.148605 57.6 
" style="fill:none;stroke:#000000;stroke-linecap:square;stroke-width:0.8;"/>
     </g>
     <g id="line2d_12">
      <g>
       <use style="stroke:#000000;stroke-width:0.8;" x="279.148605" xlink:href="#mcca91b8c5a" y="374.4"/>
      </g>
     </g>
     <g id="text_6">
      <!-- 3.25 -->
      <g transform="translate(268.015792 388.998438)scale(0.1 -0.1)">
       <use xlink:href="#DejaVuSans-51"/>
       <use x="63.623047" xlink:href="#DejaVuSans-46"/>
       <use x="95.410156" xlink:href="#DejaVuSans-50"/>
       <use x="159.033203" xlink:href="#DejaVuSans-53"/>
      </g>
     </g>
    </g>
    <g id="xtick_7">
     <g id="line2d_13">
      <path clip-path="url(#p3fa2c21ce1)" d="M 318.662791 374.4 
L 318.662791 57.6 
" style="fill:none;stroke:#000000;stroke-linecap:square;stroke-width:0.8;"/>
     </g>
     <g id="line2d_14">
      <g>
       <use style="stroke:#000000;stroke-width:0.8;" x="318.662791" xlink:href="#mcca91b8c5a" y="374.4"/>
      </g>
     </g>
     <g id="text_7">
      <!-- 3.50 -->
      <g transform="translate(307.529978 388.998438)scale(0.1 -0.1)">
       <use xlink:href="#DejaVuSans-51"/>
       <use x="63.623047" xlink:href="#DejaVuSans-46"/>
       <use x="95.410156" xlink:href="#DejaVuSans-53"/>
       <use x="159.033203" xlink:href="#DejaVuSans-48"/>
      </g>
     </g>
    </g>
    <g id="xtick_8">
     <g id="line2d_15">
      <path clip-path="url(#p3fa2c21ce1)" d="M 358.176977 374.4 
L 358.176977 57.6 
" style="fill:none;stroke:#000000;stroke-linecap:square;stroke-width:0.8;"/>
     </g>
     <g id="line2d_16">
      <g>
       <use style="stroke:#000000;stroke-width:0.8;" x="358.176977" xlink:href="#mcca91b8c5a" y="374.4"/>
      </g>
     </g>
     <g id="text_8">
      <!-- 3.75 -->
      <g transform="translate(347.044164 388.998438)scale(0.1 -0.1)">
       <use xlink:href="#DejaVuSans-51"/>
       <use x="63.623047" xlink:href="#DejaVuSans-46"/>
       <use x="95.410156" xlink:href="#DejaVuSans-55"/>
       <use x="159.033203" xlink:href="#DejaVuSans-53"/>
      </g>
     </g>
    </g>
    <g id="xtick_9">
     <g id="line2d_17">
      <path clip-path="url(#p3fa2c21ce1)" d="M 397.691163 374.4 
L 397.691163 57.6 
" style="fill:none;stroke:#000000;stroke-linecap:square;stroke-width:0.8;"/>
     </g>
     <g id="line2d_18">
      <g>
       <use style="stroke:#000000;stroke-width:0.8;" x="397.691163" xlink:href="#mcca91b8c5a" y="374.4"/>
      </g>
     </g>
     <g id="text_9">
      <!-- 4.00 -->
      <defs>
       <path d="M 37.796875 64.3125 
L 12.890625 25.390625 
L 37.796875 25.390625 
z
M 35.203125 72.90625 
L 47.609375 72.90625 
L 47.609375 25.390625 
L 58.015625 25.390625 
L 58.015625 17.1875 
L 47.609375 17.1875 
L 47.609375 0 
L 37.796875 0 
L 37.796875 17.1875 
L 4.890625 17.1875 
L 4.890625 26.703125 
z
" id="DejaVuSans-52"/>
      </defs>
      <g transform="translate(386.55835 388.998438)scale(0.1 -0.1)">
       <use xlink:href="#DejaVuSans-52"/>
       <use x="63.623047" xlink:href="#DejaVuSans-46"/>
       <use x="95.410156" xlink:href="#DejaVuSans-48"/>
       <use x="159.033203" xlink:href="#DejaVuSans-48"/>
      </g>
     </g>
    </g>
    <g id="text_10">
     <!-- Omeg -->
     <defs>
      <path d="M 39.40625 66.21875 
Q 28.65625 66.21875 22.328125 58.203125 
Q 16.015625 50.203125 16.015625 36.375 
Q 16.015625 22.609375 22.328125 14.59375 
Q 28.65625 6.59375 39.40625 6.59375 
Q 50.140625 6.59375 56.421875 14.59375 
Q 62.703125 22.609375 62.703125 36.375 
Q 62.703125 50.203125 56.421875 58.203125 
Q 50.140625 66.21875 39.40625 66.21875 
z
M 39.40625 74.21875 
Q 54.734375 74.21875 63.90625 63.9375 
Q 73.09375 53.65625 73.09375 36.375 
Q 73.09375 19.140625 63.90625 8.859375 
Q 54.734375 -1.421875 39.40625 -1.421875 
Q 24.03125 -1.421875 14.8125 8.828125 
Q 5.609375 19.09375 5.609375 36.375 
Q 5.609375 53.65625 14.8125 63.9375 
Q 24.03125 74.21875 39.40625 74.21875 
z
" id="DejaVuSans-79"/>
      <path d="M 52 44.1875 
Q 55.375 50.25 60.0625 53.125 
Q 64.75 56 71.09375 56 
Q 79.640625 56 84.28125 50.015625 
Q 88.921875 44.046875 88.921875 33.015625 
L 88.921875 0 
L 79.890625 0 
L 79.890625 32.71875 
Q 79.890625 40.578125 77.09375 44.375 
Q 74.3125 48.1875 68.609375 48.1875 
Q 61.625 48.1875 57.5625 43.546875 
Q 53.515625 38.921875 53.515625 30.90625 
L 53.515625 0 
L 44.484375 0 
L 44.484375 32.71875 
Q 44.484375 40.625 41.703125 44.40625 
Q 38.921875 48.1875 33.109375 48.1875 
Q 26.21875 48.1875 22.15625 43.53125 
Q 18.109375 38.875 18.109375 30.90625 
L 18.109375 0 
L 9.078125 0 
L 9.078125 54.6875 
L 18.109375 54.6875 
L 18.109375 46.1875 
Q 21.1875 51.21875 25.484375 53.609375 
Q 29.78125 56 35.6875 56 
Q 41.65625 56 45.828125 52.96875 
Q 50 49.953125 52 44.1875 
z
" id="DejaVuSans-109"/>
      <path d="M 56.203125 29.59375 
L 56.203125 25.203125 
L 14.890625 25.203125 
Q 15.484375 15.921875 20.484375 11.0625 
Q 25.484375 6.203125 34.421875 6.203125 
Q 39.59375 6.203125 44.453125 7.46875 
Q 49.3125 8.734375 54.109375 11.28125 
L 54.109375 2.78125 
Q 49.265625 0.734375 44.1875 -0.34375 
Q 39.109375 -1.421875 33.890625 -1.421875 
Q 20.796875 -1.421875 13.15625 6.1875 
Q 5.515625 13.8125 5.515625 26.8125 
Q 5.515625 40.234375 12.765625 48.109375 
Q 20.015625 56 32.328125 56 
Q 43.359375 56 49.78125 48.890625 
Q 56.203125 41.796875 56.203125 29.59375 
z
M 47.21875 32.234375 
Q 47.125 39.59375 43.09375 43.984375 
Q 39.0625 48.390625 32.421875 48.390625 
Q 24.90625 48.390625 20.390625 44.140625 
Q 15.875 39.890625 15.1875 32.171875 
z
" id="DejaVuSans-101"/>
      <path d="M 45.40625 27.984375 
Q 45.40625 37.75 41.375 43.109375 
Q 37.359375 48.484375 30.078125 48.484375 
Q 22.859375 48.484375 18.828125 43.109375 
Q 14.796875 37.75 14.796875 27.984375 
Q 14.796875 18.265625 18.828125 12.890625 
Q 22.859375 7.515625 30.078125 7.515625 
Q 37.359375 7.515625 41.375 12.890625 
Q 45.40625 18.265625 45.40625 27.984375 
z
M 54.390625 6.78125 
Q 54.390625 -7.171875 48.1875 -13.984375 
Q 42 -20.796875 29.203125 -20.796875 
Q 24.46875 -20.796875 20.265625 -20.09375 
Q 16.0625 -19.390625 12.109375 -17.921875 
L 12.109375 -9.1875 
Q 16.0625 -11.328125 19.921875 -12.34375 
Q 23.78125 -13.375 27.78125 -13.375 
Q 36.625 -13.375 41.015625 -8.765625 
Q 45.40625 -4.15625 45.40625 5.171875 
L 45.40625 9.625 
Q 42.625 4.78125 38.28125 2.390625 
Q 33.9375 0 27.875 0 
Q 17.828125 0 11.671875 7.65625 
Q 5.515625 15.328125 5.515625 27.984375 
Q 5.515625 40.671875 11.671875 48.328125 
Q 17.828125 56 27.875 56 
Q 33.9375 56 38.28125 53.609375 
Q 42.625 51.21875 45.40625 46.390625 
L 45.40625 54.6875 
L 54.390625 54.6875 
z
" id="DejaVuSans-103"/>
     </defs>
     <g transform="translate(224.577387 402.676563)scale(0.1 -0.1)">
      <use xlink:href="#DejaVuSans-79"/>
      <use x="78.710938" xlink:href="#DejaVuSans-109"/>
      <use x="176.123047" xlink:href="#DejaVuSans-101"/>
      <use x="237.646484" xlink:href="#DejaVuSans-103"/>
     </g>
    </g>
   </g>
   <g id="matplotlib.axis_2">
    <g id="ytick_1">
     <g id="line2d_19">
      <path clip-path="url(#p3fa2c21ce1)" d="M 81.577674 374.4 
L 397.691163 374.4 
" style="fill:none;stroke:#000000;stroke-linecap:square;stroke-width:0.8;"/>
     </g>
     <g id="line2d_20">
      <defs>
       <path d="M 0 0 
L -3.5 0 
" id="m6f347cefb5" style="stroke:#000000;stroke-width:0.8;"/>
      </defs>
      <g>
       <use style="stroke:#000000;stroke-width:0.8;" x="81.577674" xlink:href="#m6f347cefb5" y="374.4"/>
      </g>
     </g>
     <g id="text_11">
      <!-- 0.00 -->
      <g transform="translate(52.312049 378.199219)scale(0.1 -0.1)">
       <use xlink:href="#DejaVuSans-48"/>
       <use x="63.623047" xlink:href="#DejaVuSans-46"/>
       <use x="95.410156" xlink:href="#DejaVuSans-48"/>
       <use x="159.033203" xlink:href="#DejaVuSans-48"/>
      </g>
     </g>
    </g>
    <g id="ytick_2">
     <g id="line2d_21">
      <path clip-path="url(#p3fa2c21ce1)" d="M 81.577674 334.8 
L 397.691163 334.8 
" style="fill:none;stroke:#000000;stroke-linecap:square;stroke-width:0.8;"/>
     </g>
     <g id="line2d_22">
      <g>
       <use style="stroke:#000000;stroke-width:0.8;" x="81.577674" xlink:href="#m6f347cefb5" y="334.8"/>
      </g>
     </g>
     <g id="text_12">
      <!-- 0.25 -->
      <g transform="translate(52.312049 338.599219)scale(0.1 -0.1)">
       <use xlink:href="#DejaVuSans-48"/>
       <use x="63.623047" xlink:href="#DejaVuSans-46"/>
       <use x="95.410156" xlink:href="#DejaVuSans-50"/>
       <use x="159.033203" xlink:href="#DejaVuSans-53"/>
      </g>
     </g>
    </g>
    <g id="ytick_3">
     <g id="line2d_23">
      <path clip-path="url(#p3fa2c21ce1)" d="M 81.577674 295.2 
L 397.691163 295.2 
" style="fill:none;stroke:#000000;stroke-linecap:square;stroke-width:0.8;"/>
     </g>
     <g id="line2d_24">
      <g>
       <use style="stroke:#000000;stroke-width:0.8;" x="81.577674" xlink:href="#m6f347cefb5" y="295.2"/>
      </g>
     </g>
     <g id="text_13">
      <!-- 0.50 -->
      <g transform="translate(52.312049 298.999219)scale(0.1 -0.1)">
       <use xlink:href="#DejaVuSans-48"/>
       <use x="63.623047" xlink:href="#DejaVuSans-46"/>
       <use x="95.410156" xlink:href="#DejaVuSans-53"/>
       <use x="159.033203" xlink:href="#DejaVuSans-48"/>
      </g>
     </g>
    </g>
    <g id="ytick_4">
     <g id="line2d_25">
      <path clip-path="url(#p3fa2c21ce1)" d="M 81.577674 255.6 
L 397.691163 255.6 
" style="fill:none;stroke:#000000;stroke-linecap:square;stroke-width:0.8;"/>
     </g>
     <g id="line2d_26">
      <g>
       <use style="stroke:#000000;stroke-width:0.8;" x="81.577674" xlink:href="#m6f347cefb5" y="255.6"/>
      </g>
     </g>
     <g id="text_14">
      <!-- 0.75 -->
      <g transform="translate(52.312049 259.399219)scale(0.1 -0.1)">
       <use xlink:href="#DejaVuSans-48"/>
       <use x="63.623047" xlink:href="#DejaVuSans-46"/>
       <use x="95.410156" xlink:href="#DejaVuSans-55"/>
       <use x="159.033203" xlink:href="#DejaVuSans-53"/>
      </g>
     </g>
    </g>
    <g id="ytick_5">
     <g id="line2d_27">
      <path clip-path="url(#p3fa2c21ce1)" d="M 81.577674 216 
L 397.691163 216 
" style="fill:none;stroke:#000000;stroke-linecap:square;stroke-width:0.8;"/>
     </g>
     <g id="line2d_28">
      <g>
       <use style="stroke:#000000;stroke-width:0.8;" x="81.577674" xlink:href="#m6f347cefb5" y="216"/>
      </g>
     </g>
     <g id="text_15">
      <!-- 1.00 -->
      <defs>
       <path d="M 12.40625 8.296875 
L 28.515625 8.296875 
L 28.515625 63.921875 
L 10.984375 60.40625 
L 10.984375 69.390625 
L 28.421875 72.90625 
L 38.28125 72.90625 
L 38.28125 8.296875 
L 54.390625 8.296875 
L 54.390625 0 
L 12.40625 0 
z
" id="DejaVuSans-49"/>
      </defs>
      <g transform="translate(52.312049 219.799219)scale(0.1 -0.1)">
       <use xlink:href="#DejaVuSans-49"/>
       <use x="63.623047" xlink:href="#DejaVuSans-46"/>
       <use x="95.410156" xlink:href="#DejaVuSans-48"/>
       <use x="159.033203" xlink:href="#DejaVuSans-48"/>
      </g>
     </g>
    </g>
    <g id="ytick_6">
     <g id="line2d_29">
      <path clip-path="url(#p3fa2c21ce1)" d="M 81.577674 176.4 
L 397.691163 176.4 
" style="fill:none;stroke:#000000;stroke-linecap:square;stroke-width:0.8;"/>
     </g>
     <g id="line2d_30">
      <g>
       <use style="stroke:#000000;stroke-width:0.8;" x="81.577674" xlink:href="#m6f347cefb5" y="176.4"/>
      </g>
     </g>
     <g id="text_16">
      <!-- 1.25 -->
      <g transform="translate(52.312049 180.199219)scale(0.1 -0.1)">
       <use xlink:href="#DejaVuSans-49"/>
       <use x="63.623047" xlink:href="#DejaVuSans-46"/>
       <use x="95.410156" xlink:href="#DejaVuSans-50"/>
       <use x="159.033203" xlink:href="#DejaVuSans-53"/>
      </g>
     </g>
    </g>
    <g id="ytick_7">
     <g id="line2d_31">
      <path clip-path="url(#p3fa2c21ce1)" d="M 81.577674 136.8 
L 397.691163 136.8 
" style="fill:none;stroke:#000000;stroke-linecap:square;stroke-width:0.8;"/>
     </g>
     <g id="line2d_32">
      <g>
       <use style="stroke:#000000;stroke-width:0.8;" x="81.577674" xlink:href="#m6f347cefb5" y="136.8"/>
      </g>
     </g>
     <g id="text_17">
      <!-- 1.50 -->
      <g transform="translate(52.312049 140.599219)scale(0.1 -0.1)">
       <use xlink:href="#DejaVuSans-49"/>
       <use x="63.623047" xlink:href="#DejaVuSans-46"/>
       <use x="95.410156" xlink:href="#DejaVuSans-53"/>
       <use x="159.033203" xlink:href="#DejaVuSans-48"/>
      </g>
     </g>
    </g>
    <g id="ytick_8">
     <g id="line2d_33">
      <path clip-path="url(#p3fa2c21ce1)" d="M 81.577674 97.2 
L 397.691163 97.2 
" style="fill:none;stroke:#000000;stroke-linecap:square;stroke-width:0.8;"/>
     </g>
     <g id="line2d_34">
      <g>
       <use style="stroke:#000000;stroke-width:0.8;" x="81.577674" xlink:href="#m6f347cefb5" y="97.2"/>
      </g>
     </g>
     <g id="text_18">
      <!-- 1.75 -->
      <g transform="translate(52.312049 100.999219)scale(0.1 -0.1)">
       <use xlink:href="#DejaVuSans-49"/>
       <use x="63.623047" xlink:href="#DejaVuSans-46"/>
       <use x="95.410156" xlink:href="#DejaVuSans-55"/>
       <use x="159.033203" xlink:href="#DejaVuSans-53"/>
      </g>
     </g>
    </g>
    <g id="ytick_9">
     <g id="line2d_35">
      <path clip-path="url(#p3fa2c21ce1)" d="M 81.577674 57.6 
L 397.691163 57.6 
" style="fill:none;stroke:#000000;stroke-linecap:square;stroke-width:0.8;"/>
     </g>
     <g id="line2d_36">
      <g>
       <use style="stroke:#000000;stroke-width:0.8;" x="81.577674" xlink:href="#m6f347cefb5" y="57.6"/>
      </g>
     </g>
     <g id="text_19">
      <!-- 2.00 -->
      <g transform="translate(52.312049 61.399219)scale(0.1 -0.1)">
       <use xlink:href="#DejaVuSans-50"/>
       <use x="63.623047" xlink:href="#DejaVuSans-46"/>
       <use x="95.410156" xlink:href="#DejaVuSans-48"/>
       <use x="159.033203" xlink:href="#DejaVuSans-48"/>
      </g>
     </g>
    </g>
    <g id="text_20">
     <!-- Amplitude -->
     <defs>
      <path d="M 34.1875 63.1875 
L 20.796875 26.90625 
L 47.609375 26.90625 
z
M 28.609375 72.90625 
L 39.796875 72.90625 
L 67.578125 0 
L 57.328125 0 
L 50.6875 18.703125 
L 17.828125 18.703125 
L 11.1875 0 
L 0.78125 0 
z
" id="DejaVuSans-65"/>
      <path d="M 18.109375 8.203125 
L 18.109375 -20.796875 
L 9.078125 -20.796875 
L 9.078125 54.6875 
L 18.109375 54.6875 
L 18.109375 46.390625 
Q 20.953125 51.265625 25.265625 53.625 
Q 29.59375 56 35.59375 56 
Q 45.5625 56 51.78125 48.09375 
Q 58.015625 40.1875 58.015625 27.296875 
Q 58.015625 14.40625 51.78125 6.484375 
Q 45.5625 -1.421875 35.59375 -1.421875 
Q 29.59375 -1.421875 25.265625 0.953125 
Q 20.953125 3.328125 18.109375 8.203125 
z
M 48.6875 27.296875 
Q 48.6875 37.203125 44.609375 42.84375 
Q 40.53125 48.484375 33.40625 48.484375 
Q 26.265625 48.484375 22.1875 42.84375 
Q 18.109375 37.203125 18.109375 27.296875 
Q 18.109375 17.390625 22.1875 11.75 
Q 26.265625 6.109375 33.40625 6.109375 
Q 40.53125 6.109375 44.609375 11.75 
Q 48.6875 17.390625 48.6875 27.296875 
z
" id="DejaVuSans-112"/>
      <path d="M 9.421875 75.984375 
L 18.40625 75.984375 
L 18.40625 0 
L 9.421875 0 
z
" id="DejaVuSans-108"/>
      <path d="M 9.421875 54.6875 
L 18.40625 54.6875 
L 18.40625 0 
L 9.421875 0 
z
M 9.421875 75.984375 
L 18.40625 75.984375 
L 18.40625 64.59375 
L 9.421875 64.59375 
z
" id="DejaVuSans-105"/>
      <path d="M 18.3125 70.21875 
L 18.3125 54.6875 
L 36.8125 54.6875 
L 36.8125 47.703125 
L 18.3125 47.703125 
L 18.3125 18.015625 
Q 18.3125 11.328125 20.140625 9.421875 
Q 21.96875 7.515625 27.59375 7.515625 
L 36.8125 7.515625 
L 36.8125 0 
L 27.59375 0 
Q 17.1875 0 13.234375 3.875 
Q 9.28125 7.765625 9.28125 18.015625 
L 9.28125 47.703125 
L 2.6875 47.703125 
L 2.6875 54.6875 
L 9.28125 54.6875 
L 9.28125 70.21875 
z
" id="DejaVuSans-116"/>
      <path d="M 8.5 21.578125 
L 8.5 54.6875 
L 17.484375 54.6875 
L 17.484375 21.921875 
Q 17.484375 14.15625 20.5 10.265625 
Q 23.53125 6.390625 29.59375 6.390625 
Q 36.859375 6.390625 41.078125 11.03125 
Q 45.3125 15.671875 45.3125 23.6875 
L 45.3125 54.6875 
L 54.296875 54.6875 
L 54.296875 0 
L 45.3125 0 
L 45.3125 8.40625 
Q 42.046875 3.421875 37.71875 1 
Q 33.40625 -1.421875 27.6875 -1.421875 
Q 18.265625 -1.421875 13.375 4.4375 
Q 8.5 10.296875 8.5 21.578125 
z
M 31.109375 56 
z
" id="DejaVuSans-117"/>
      <path d="M 45.40625 46.390625 
L 45.40625 75.984375 
L 54.390625 75.984375 
L 54.390625 0 
L 45.40625 0 
L 45.40625 8.203125 
Q 42.578125 3.328125 38.25 0.953125 
Q 33.9375 -1.421875 27.875 -1.421875 
Q 17.96875 -1.421875 11.734375 6.484375 
Q 5.515625 14.40625 5.515625 27.296875 
Q 5.515625 40.1875 11.734375 48.09375 
Q 17.96875 56 27.875 56 
Q 33.9375 56 38.25 53.625 
Q 42.578125 51.265625 45.40625 46.390625 
z
M 14.796875 27.296875 
Q 14.796875 17.390625 18.875 11.75 
Q 22.953125 6.109375 30.078125 6.109375 
Q 37.203125 6.109375 41.296875 11.75 
Q 45.40625 17.390625 45.40625 27.296875 
Q 45.40625 37.203125 41.296875 42.84375 
Q 37.203125 48.484375 30.078125 48.484375 
Q 22.953125 48.484375 18.875 42.84375 
Q 14.796875 37.203125 14.796875 27.296875 
z
" id="DejaVuSans-100"/>
     </defs>
     <g transform="translate(46.232362 241.622656)rotate(-90)scale(0.1 -0.1)">
      <use xlink:href="#DejaVuSans-65"/>
      <use x="68.408203" xlink:href="#DejaVuSans-109"/>
      <use x="165.820312" xlink:href="#DejaVuSans-112"/>
      <use x="229.296875" xlink:href="#DejaVuSans-108"/>
      <use x="257.080078" xlink:href="#DejaVuSans-105"/>
      <use x="284.863281" xlink:href="#DejaVuSans-116"/>
      <use x="324.072266" xlink:href="#DejaVuSans-117"/>
      <use x="387.451172" xlink:href="#DejaVuSans-100"/>
      <use x="450.927734" xlink:href="#DejaVuSans-101"/>
     </g>
    </g>
   </g>
   <g id="line2d_37">
    <path clip-path="url(#p3fa2c21ce1)" d="M 76.726877 142.629309 
L 82.812636 137.576694 
L 88.762682 132.364265 
L 94.572688 126.995515 
L 100.238927 121.474597 
L 105.758334 115.806255 
L 111.128542 109.995758 
L 116.347908 104.048811 
L 121.415514 97.971466 
L 126.331156 91.77003 
L 131.095316 85.450971 
L 135.709118 79.020833 
L 140.174281 72.486153 
L 144.493049 65.853389 
L 148.668138 59.128863 
L 152.702658 52.318703 
L 156.600052 45.428806 
L 160.364031 38.464807 
L 163.998509 31.432059 
L 167.507551 24.335617 
L 170.895322 17.180233 
L 174.166036 9.970356 
L 178.872263 -1 
L 178.872263 -1 
" style="fill:none;stroke:#000000;stroke-linecap:square;stroke-width:2;"/>
   </g>
   <g id="line2d_38">
    <path clip-path="url(#p3fa2c21ce1)" d="M 0 0 
" style="fill:none;stroke:#000000;stroke-dasharray:12,12;stroke-dashoffset:0;stroke-width:2;"/>
   </g>
   <g id="line2d_39">
    <path clip-path="url(#p3fa2c21ce1)" d="M 249.500787 -1 
L 248.468271 2.668823 
L 246.215192 10.260132 
L 243.847167 17.816222 
L 241.356668 25.332661 
L 238.735756 32.804432 
L 235.976105 40.225862 
L 233.069055 47.590557 
L 230.005679 54.891333 
L 226.776887 62.120163 
L 223.373559 69.268128 
L 219.786719 76.325398 
L 216.007747 83.281236 
L 212.028632 90.124058 
L 207.842253 96.84153 
L 203.442689 103.420747 
L 198.825528 109.848464 
L 193.988155 116.111409 
L 188.929997 122.196653 
L 183.652684 128.092015 
L 178.16012 133.786483 
L 172.458422 139.270615 
L 166.555755 144.53687 
L 160.462049 149.579855 
L 154.188641 154.396455 
L 147.747866 158.98584 
L 141.152644 163.349363 
L 134.416082 167.490355 
L 127.551129 171.413863 
L 120.570296 175.126341 
L 113.485447 178.635338 
L 106.307648 181.949187 
L 99.047093 185.076733 
L 91.713067 188.027087 
L 84.313949 190.809428 
L 76.857251 193.432842 
L 69.349664 195.906195 
L 61.797124 198.238045 
L 54.204877 200.43658 
L 46.577548 202.509575 
L 38.919208 204.464371 
L 23.523377 208.04652 
L 8.040988 211.2324 
L -1 212.903228 
L -1 212.903228 
" style="fill:none;stroke:#ff0000;stroke-dasharray:12,12;stroke-dashoffset:0;stroke-width:2;"/>
   </g>
   <g id="line2d_40">
    <path clip-path="url(#p3fa2c21ce1)" d="M -1 248.135252 
L 1.831894 251.615463 
L 7.303828 257.329845 
L 13.223858 262.576488 
L 19.54295 267.332733 
L 26.200652 271.599897 
L 33.134313 275.400123 
L 40.28617 278.769834 
L 47.60709 281.7527 
L 55.057498 284.394003 
L 62.6066 286.737006 
L 70.230933 288.821043 
L 77.912802 290.680803 
L 85.638918 292.346331 
L 93.399293 293.843374 
L 101.186389 295.193882 
L 108.994491 296.41653 
L 116.819232 297.527211 
L 124.657255 298.539475 
L 132.505958 299.464904 
L 140.36331 300.313428 
L 148.227712 301.093593 
L 156.0979 301.812782 
L 163.972864 302.477394 
L 171.851793 303.092999 
L 179.734032 303.664461 
L 187.619048 304.196045 
L 195.506407 304.691503 
L 203.395751 305.154146 
L 211.286782 305.586906 
L 219.179256 305.992388 
L 227.072967 306.372911 
L 234.967744 306.73055 
L 242.863441 307.06716 
L 250.759936 307.384412 
L 258.657126 307.683805 
L 266.554921 307.966697 
L 274.453246 308.234314 
L 282.352036 308.487768 
L 290.251236 308.728069 
L 298.150796 308.956137 
L 306.050676 309.172812 
L 313.950839 309.378859 
L 321.851254 309.574982 
L 329.751892 309.761823 
L 337.652731 309.939973 
L 345.553748 310.109978 
L 353.454925 310.272336 
L 361.356246 310.427512 
L 369.257697 310.575933 
L 377.159263 310.717993 
L 385.060935 310.854059 
L 392.962701 310.984471 
L 400.864554 311.109544 
L 408.766484 311.229572 
L 416.668485 311.344829 
L 424.570551 311.455568 
L 432.472675 311.562027 
L 439.48 311.652833 
" style="fill:none;stroke:#ff0000;stroke-linecap:square;stroke-width:2;"/>
   </g>
   <g id="line2d_41">
    <path clip-path="url(#p3fa2c21ce1)" style="fill:none;stroke:#008000;stroke-dasharray:12,12;stroke-dashoffset:0;stroke-width:2;"/>
   </g>
   <g id="line2d_42">
    <path clip-path="url(#p3fa2c21ce1)" d="M 439.48 186.912359 
L 404.514717 193.145505 
L 325.280907 207.17096 
L 311.231196 209.944358 
L 301.919777 211.996449 
L 295.802631 213.559334 
L 292.291699 214.661222 
L 290.71807 215.361045 
L 290.214101 215.78246 
L 290.058619 216.195669 
L 290.058627 216.195539 
" style="fill:none;stroke:#0000ff;stroke-dasharray:12,12;stroke-dashoffset:0;stroke-width:2;"/>
   </g>
   <g id="line2d_43">
    <path clip-path="url(#p3fa2c21ce1)" d="M 290.058627 216.195539 
L 290.213403 215.783557 
L 290.621183 215.358272 
L 291.481885 214.821615 
L 293.224838 214.035478 
L 296.20464 212.945785 
L 300.720841 211.535035 
L 304.148531 210.569291 
L 304.148531 210.569291 
" style="fill:none;stroke:#0000ff;stroke-linecap:square;stroke-width:2;"/>
   </g>
   <g id="line2d_44">
    <path clip-path="url(#p3fa2c21ce1)" d="M 304.148531 210.569291 
L 311.756252 208.612708 
L 322.035015 206.209528 
L 335.699785 203.253745 
L 354.124419 199.509694 
L 379.042651 194.687284 
L 397.765065 191.168 
L 397.765065 191.168 
" style="fill:none;stroke:#0000ff;stroke-dasharray:12,12;stroke-dashoffset:0;stroke-width:2;"/>
   </g>
   <g id="line2d_45">
    <path clip-path="url(#p3fa2c21ce1)" style="fill:none;stroke:#0000ff;stroke-linecap:square;stroke-width:2;"/>
   </g>
   <g id="line2d_46">
    <path clip-path="url(#p3fa2c21ce1)" d="M 397.691166 115.019786 
L 409.355838 109.144675 
L 420.796728 103.137016 
L 432.226181 96.875364 
L 439.48 92.760997 
L 439.48 92.760997 
" style="fill:none;stroke:#000000;stroke-dasharray:12,12;stroke-dashoffset:0;stroke-width:2;"/>
   </g>
   <g id="line2d_47">
    <path clip-path="url(#p3fa2c21ce1)" d="M 397.691166 115.019786 
L 386.015692 120.661426 
L 373.902773 126.276104 
L 361.014366 131.998834 
L 347.903071 137.573022 
L 334.540314 143.013569 
L 320.975103 148.303478 
L 306.52123 153.701347 
L 291.455233 159.086144 
L 275.789887 164.445784 
L 259.418927 169.81093 
L 241.985769 175.288724 
L 223.013211 181.01243 
L 202.749969 186.890396 
L 197.611779 188.236499 
L 197.101294 188.186816 
L 196.929043 187.948065 
L 196.812776 187.296317 
L 195.989298 180.131909 
L 195.331655 177.241548 
L 194.535559 174.717985 
L 193.71364 172.808262 
L 192.962871 171.583405 
L 192.330514 170.941264 
L 191.926664 170.77993 
L 191.268478 170.840836 
L 191.268478 170.840836 
" style="fill:none;stroke:#ff0000;stroke-dasharray:12,12;stroke-dashoffset:0;stroke-width:2;"/>
   </g>
   <g id="line2d_48">
    <path clip-path="url(#p3fa2c21ce1)" d="M 191.268478 170.840836 
L 191.284565 170.82814 
L 191.342438 170.795801 
L 191.390205 170.770314 
L 191.437716 170.745471 
L 191.48581 170.720747 
L 191.534436 170.696119 
L 191.583543 170.671593 
L 191.633092 170.647195 
L 191.68305 170.622863 
L 191.733385 170.598623 
L 191.784071 170.574547 
L 191.835083 170.550481 
L 191.8864 170.526497 
L 191.937999 170.502637 
L 191.989864 170.478805 
L 192.041977 170.455044 
L 192.094322 170.431442 
L 192.146885 170.407814 
L 192.199652 170.384247 
L 192.252613 170.360818 
L 192.305755 170.337366 
L 192.359068 170.313968 
" style="fill:none;stroke:#ff0000;stroke-linecap:square;stroke-width:2;"/>
   </g>
   <g id="line2d_49">
    <path clip-path="url(#p3fa2c21ce1)" d="M 192.359068 170.313968 
L 196.054962 168.824563 
L 205.480252 165.302449 
L 271.497762 140.94999 
L 320.301148 122.5635 
L 325.670481 120.800551 
L 334.975159 117.922537 
L 344.972657 114.576265 
L 355.112759 110.954714 
L 365.14259 107.160099 
L 376.93708 102.434453 
L 387.762753 97.847916 
L 397.706563 93.422564 
L 397.706563 93.422564 
" style="fill:none;stroke:#ff0000;stroke-dasharray:12,12;stroke-dashoffset:0;stroke-width:2;"/>
   </g>
   <g id="line2d_50">
    <path clip-path="url(#p3fa2c21ce1)" style="fill:none;stroke:#ff0000;stroke-linecap:square;stroke-width:2;"/>
   </g>
   <g id="patch_3">
    <path d="M 81.577674 374.4 
L 81.577674 57.6 
" style="fill:none;stroke:#000000;stroke-linecap:square;stroke-linejoin:miter;stroke-width:0.8;"/>
   </g>
   <g id="patch_4">
    <path d="M 397.691163 374.4 
L 397.691163 57.6 
" style="fill:none;stroke:#000000;stroke-linecap:square;stroke-linejoin:miter;stroke-width:0.8;"/>
   </g>
   <g id="patch_5">
    <path d="M 81.577674 374.4 
L 397.691163 374.4 
" style="fill:none;stroke:#000000;stroke-linecap:square;stroke-linejoin:miter;stroke-width:0.8;"/>
   </g>
   <g id="patch_6">
    <path d="M 81.577674 57.6 
L 397.691163 57.6 
" style="fill:none;stroke:#000000;stroke-linecap:square;stroke-linejoin:miter;stroke-width:0.8;"/>
   </g>
   <g id="text_21">
    <g clip-path="url(#p3fa2c21ce1)">
     <!-- U -->
     <defs>
      <path d="M 8.6875 72.90625 
L 18.609375 72.90625 
L 18.609375 28.609375 
Q 18.609375 16.890625 22.84375 11.734375 
Q 27.09375 6.59375 36.625 6.59375 
Q 46.09375 6.59375 50.34375 11.734375 
Q 54.59375 16.890625 54.59375 28.609375 
L 54.59375 72.90625 
L 64.5 72.90625 
L 64.5 27.390625 
Q 64.5 13.140625 57.4375 5.859375 
Q 50.390625 -1.421875 36.625 -1.421875 
Q 22.796875 -1.421875 15.734375 5.859375 
Q 8.6875 13.140625 8.6875 27.390625 
z
" id="DejaVuSans-85"/>
     </defs>
     <g style="fill:#ff0000;" transform="translate(-222.388957 376.651752)scale(0.1 -0.1)">
      <use xlink:href="#DejaVuSans-85"/>
     </g>
    </g>
   </g>
   <g id="text_22">
    <g clip-path="url(#p3fa2c21ce1)">
     <!-- L -->
     <defs>
      <path d="M 9.8125 72.90625 
L 19.671875 72.90625 
L 19.671875 8.296875 
L 55.171875 8.296875 
L 55.171875 0 
L 9.8125 0 
z
" id="DejaVuSans-76"/>
     </defs>
     <g style="fill:#ff0000;" transform="translate(-91.906447 221.372954)scale(0.1 -0.1)">
      <use xlink:href="#DejaVuSans-76"/>
     </g>
    </g>
   </g>
   <g id="text_23">
    <g clip-path="url(#p3fa2c21ce1)">
     <!-- L -->
     <g style="fill:#ff0000;" transform="translate(328.11288 -103413.224102)scale(0.1 -0.1)">
      <use xlink:href="#DejaVuSans-76"/>
     </g>
    </g>
   </g>
   <g id="text_24">
    <g clip-path="url(#p3fa2c21ce1)">
     <!-- L -->
     <g style="fill:#ff0000;" transform="translate(-22.854073 219.323665)scale(0.1 -0.1)">
      <use xlink:href="#DejaVuSans-76"/>
     </g>
    </g>
   </g>
   <g id="text_25">
    <g clip-path="url(#p3fa2c21ce1)">
     <!-- L -->
     <g style="fill:#ff0000;" transform="translate(287.272689 218.954914)scale(0.1 -0.1)">
      <use xlink:href="#DejaVuSans-76"/>
     </g>
    </g>
   </g>
   <g id="text_26">
    <g clip-path="url(#p3fa2c21ce1)">
     <!-- U -->
     <g style="fill:#ff0000;" transform="translate(552.088532 10.024488)scale(0.1 -0.1)">
      <use xlink:href="#DejaVuSans-85"/>
     </g>
    </g>
   </g>
   <g id="text_27">
    <g clip-path="url(#p3fa2c21ce1)">
     <!-- U -->
     <g style="fill:#ff0000;" transform="translate(710.145276 -244.278078)scale(0.1 -0.1)">
      <use xlink:href="#DejaVuSans-85"/>
     </g>
    </g>
   </g>
   <g id="text_28">
    <g clip-path="url(#p3fa2c21ce1)">
     <!-- L -->
     <g style="fill:#ff0000;" transform="translate(188.48254 173.600211)scale(0.1 -0.1)">
      <use xlink:href="#DejaVuSans-76"/>
     </g>
    </g>
   </g>
   <g id="text_29">
    <g clip-path="url(#p3fa2c21ce1)">
     <!-- U -->
     <g style="fill:#ff0000;" transform="translate(552.088535 -10.246909)scale(0.1 -0.1)">
      <use xlink:href="#DejaVuSans-85"/>
     </g>
    </g>
   </g>
   <g id="text_30">
    <g clip-path="url(#p3fa2c21ce1)">
     <!-- U -->
     <g style="fill:#ff0000;" transform="translate(710.145496 -283.137613)scale(0.1 -0.1)">
      <use xlink:href="#DejaVuSans-85"/>
     </g>
    </g>
   </g>
   <g id="text_31">
    <!-- is_nzk = 1 -->
    <defs>
     <path d="M 44.28125 53.078125 
L 44.28125 44.578125 
Q 40.484375 46.53125 36.375 47.5 
Q 32.28125 48.484375 27.875 48.484375 
Q 21.1875 48.484375 17.84375 46.4375 
Q 14.5 44.390625 14.5 40.28125 
Q 14.5 37.15625 16.890625 35.375 
Q 19.28125 33.59375 26.515625 31.984375 
L 29.59375 31.296875 
Q 39.15625 29.25 43.1875 25.515625 
Q 47.21875 21.78125 47.21875 15.09375 
Q 47.21875 7.46875 41.1875 3.015625 
Q 35.15625 -1.421875 24.609375 -1.421875 
Q 20.21875 -1.421875 15.453125 -0.5625 
Q 10.6875 0.296875 5.421875 2 
L 5.421875 11.28125 
Q 10.40625 8.6875 15.234375 7.390625 
Q 20.0625 6.109375 24.8125 6.109375 
Q 31.15625 6.109375 34.5625 8.28125 
Q 37.984375 10.453125 37.984375 14.40625 
Q 37.984375 18.0625 35.515625 20.015625 
Q 33.0625 21.96875 24.703125 23.78125 
L 21.578125 24.515625 
Q 13.234375 26.265625 9.515625 29.90625 
Q 5.8125 33.546875 5.8125 39.890625 
Q 5.8125 47.609375 11.28125 51.796875 
Q 16.75 56 26.8125 56 
Q 31.78125 56 36.171875 55.265625 
Q 40.578125 54.546875 44.28125 53.078125 
z
" id="DejaVuSans-115"/>
     <path d="M 50.984375 -16.609375 
L 50.984375 -23.578125 
L -0.984375 -23.578125 
L -0.984375 -16.609375 
z
" id="DejaVuSans-95"/>
     <path d="M 54.890625 33.015625 
L 54.890625 0 
L 45.90625 0 
L 45.90625 32.71875 
Q 45.90625 40.484375 42.875 44.328125 
Q 39.84375 48.1875 33.796875 48.1875 
Q 26.515625 48.1875 22.3125 43.546875 
Q 18.109375 38.921875 18.109375 30.90625 
L 18.109375 0 
L 9.078125 0 
L 9.078125 54.6875 
L 18.109375 54.6875 
L 18.109375 46.1875 
Q 21.34375 51.125 25.703125 53.5625 
Q 30.078125 56 35.796875 56 
Q 45.21875 56 50.046875 50.171875 
Q 54.890625 44.34375 54.890625 33.015625 
z
" id="DejaVuSans-110"/>
     <path d="M 5.515625 54.6875 
L 48.1875 54.6875 
L 48.1875 46.484375 
L 14.40625 7.171875 
L 48.1875 7.171875 
L 48.1875 0 
L 4.296875 0 
L 4.296875 8.203125 
L 38.09375 47.515625 
L 5.515625 47.515625 
z
" id="DejaVuSans-122"/>
     <path d="M 9.078125 75.984375 
L 18.109375 75.984375 
L 18.109375 31.109375 
L 44.921875 54.6875 
L 56.390625 54.6875 
L 27.390625 29.109375 
L 57.625 0 
L 45.90625 0 
L 18.109375 26.703125 
L 18.109375 0 
L 9.078125 0 
z
" id="DejaVuSans-107"/>
     <path id="DejaVuSans-32"/>
     <path d="M 10.59375 45.40625 
L 73.1875 45.40625 
L 73.1875 37.203125 
L 10.59375 37.203125 
z
M 10.59375 25.484375 
L 73.1875 25.484375 
L 73.1875 17.1875 
L 10.59375 17.1875 
z
" id="DejaVuSans-61"/>
    </defs>
    <g transform="translate(208.756919 51.6)scale(0.12 -0.12)">
     <use xlink:href="#DejaVuSans-105"/>
     <use x="27.783203" xlink:href="#DejaVuSans-115"/>
     <use x="79.882812" xlink:href="#DejaVuSans-95"/>
     <use x="129.882812" xlink:href="#DejaVuSans-110"/>
     <use x="193.261719" xlink:href="#DejaVuSans-122"/>
     <use x="245.751953" xlink:href="#DejaVuSans-107"/>
     <use x="303.662109" xlink:href="#DejaVuSans-32"/>
     <use x="335.449219" xlink:href="#DejaVuSans-61"/>
     <use x="419.238281" xlink:href="#DejaVuSans-32"/>
     <use x="451.025391" xlink:href="#DejaVuSans-49"/>
    </g>
   </g>
  </g>
 </g>
 <defs>
  <clipPath id="p3fa2c21ce1">
   <rect height="316.8" width="316.113488" x="81.577674" y="57.6"/>
  </clipPath>
 </defs>
</svg>
