<?xml version="1.0" encoding="utf-8" standalone="no"?>
<!DOCTYPE svg PUBLIC "-//W3C//DTD SVG 1.1//EN"
  "http://www.w3.org/Graphics/SVG/1.1/DTD/svg11.dtd">
<!-- Created with matplotlib (https://matplotlib.org/) -->
<svg height="432pt" version="1.1" viewBox="0 0 438.48 432" width="438.48pt" xmlns="http://www.w3.org/2000/svg" xmlns:xlink="http://www.w3.org/1999/xlink">
 <defs>
  <style type="text/css">
*{stroke-linecap:butt;stroke-linejoin:round;}
  </style>
 </defs>
 <g id="figure_1">
  <g id="patch_1">
   <path d="M 0 432 
L 438.48 432 
L 438.48 0 
L 0 0 
z
" style="fill:#ffffff;"/>
  </g>
  <g id="axes_1">
   <g id="patch_2">
    <path d="M 81.577674 374.4 
L 397.691163 374.4 
L 397.691163 57.6 
L 81.577674 57.6 
z
" style="fill:#ffffff;"/>
   </g>
   <g id="matplotlib.axis_1">
    <g id="xtick_1">
     <g id="line2d_1">
      <path clip-path="url(#pec51807331)" d="M 81.577674 374.4 
L 81.577674 57.6 
" style="fill:none;stroke:#000000;stroke-linecap:square;stroke-width:0.8;"/>
     </g>
     <g id="line2d_2">
      <defs>
       <path d="M 0 0 
L 0 3.5 
" id="m9969eafe08" style="stroke:#000000;stroke-width:0.8;"/>
      </defs>
      <g>
       <use style="stroke:#000000;stroke-width:0.8;" x="81.577674" xlink:href="#m9969eafe08" y="374.4"/>
      </g>
     </g>
     <g id="text_1">
      <!-- 2.5 -->
      <defs>
       <path d="M 19.1875 8.296875 
L 53.609375 8.296875 
L 53.609375 0 
L 7.328125 0 
L 7.328125 8.296875 
Q 12.9375 14.109375 22.625 23.890625 
Q 32.328125 33.6875 34.8125 36.53125 
Q 39.546875 41.84375 41.421875 45.53125 
Q 43.3125 49.21875 43.3125 52.78125 
Q 43.3125 58.59375 39.234375 62.25 
Q 35.15625 65.921875 28.609375 65.921875 
Q 23.96875 65.921875 18.8125 64.3125 
Q 13.671875 62.703125 7.8125 59.421875 
L 7.8125 69.390625 
Q 13.765625 71.78125 18.9375 73 
Q 24.125 74.21875 28.421875 74.21875 
Q 39.75 74.21875 46.484375 68.546875 
Q 53.21875 62.890625 53.21875 53.421875 
Q 53.21875 48.921875 51.53125 44.890625 
Q 49.859375 40.875 45.40625 35.40625 
Q 44.1875 33.984375 37.640625 27.21875 
Q 31.109375 20.453125 19.1875 8.296875 
z
" id="DejaVuSans-50"/>
       <path d="M 10.6875 12.40625 
L 21 12.40625 
L 21 0 
L 10.6875 0 
z
" id="DejaVuSans-46"/>
       <path d="M 10.796875 72.90625 
L 49.515625 72.90625 
L 49.515625 64.59375 
L 19.828125 64.59375 
L 19.828125 46.734375 
Q 21.96875 47.46875 24.109375 47.828125 
Q 26.265625 48.1875 28.421875 48.1875 
Q 40.625 48.1875 47.75 41.5 
Q 54.890625 34.8125 54.890625 23.390625 
Q 54.890625 11.625 47.5625 5.09375 
Q 40.234375 -1.421875 26.90625 -1.421875 
Q 22.3125 -1.421875 17.546875 -0.640625 
Q 12.796875 0.140625 7.71875 1.703125 
L 7.71875 11.625 
Q 12.109375 9.234375 16.796875 8.0625 
Q 21.484375 6.890625 26.703125 6.890625 
Q 35.15625 6.890625 40.078125 11.328125 
Q 45.015625 15.765625 45.015625 23.390625 
Q 45.015625 31 40.078125 35.4375 
Q 35.15625 39.890625 26.703125 39.890625 
Q 22.75 39.890625 18.8125 39.015625 
Q 14.890625 38.140625 10.796875 36.28125 
z
" id="DejaVuSans-53"/>
      </defs>
      <g transform="translate(73.626112 388.998438)scale(0.1 -0.1)">
       <use xlink:href="#DejaVuSans-50"/>
       <use x="63.623047" xlink:href="#DejaVuSans-46"/>
       <use x="95.410156" xlink:href="#DejaVuSans-53"/>
      </g>
     </g>
    </g>
    <g id="xtick_2">
     <g id="line2d_3">
      <path clip-path="url(#pec51807331)" d="M 121.09186 374.4 
L 121.09186 57.6 
" style="fill:none;stroke:#000000;stroke-linecap:square;stroke-width:0.8;"/>
     </g>
     <g id="line2d_4">
      <g>
       <use style="stroke:#000000;stroke-width:0.8;" x="121.09186" xlink:href="#m9969eafe08" y="374.4"/>
      </g>
     </g>
     <g id="text_2">
      <!-- 3.0 -->
      <defs>
       <path d="M 40.578125 39.3125 
Q 47.65625 37.796875 51.625 33 
Q 55.609375 28.21875 55.609375 21.1875 
Q 55.609375 10.40625 48.1875 4.484375 
Q 40.765625 -1.421875 27.09375 -1.421875 
Q 22.515625 -1.421875 17.65625 -0.515625 
Q 12.796875 0.390625 7.625 2.203125 
L 7.625 11.71875 
Q 11.71875 9.328125 16.59375 8.109375 
Q 21.484375 6.890625 26.8125 6.890625 
Q 36.078125 6.890625 40.9375 10.546875 
Q 45.796875 14.203125 45.796875 21.1875 
Q 45.796875 27.640625 41.28125 31.265625 
Q 36.765625 34.90625 28.71875 34.90625 
L 20.21875 34.90625 
L 20.21875 43.015625 
L 29.109375 43.015625 
Q 36.375 43.015625 40.234375 45.921875 
Q 44.09375 48.828125 44.09375 54.296875 
Q 44.09375 59.90625 40.109375 62.90625 
Q 36.140625 65.921875 28.71875 65.921875 
Q 24.65625 65.921875 20.015625 65.03125 
Q 15.375 64.15625 9.8125 62.3125 
L 9.8125 71.09375 
Q 15.4375 72.65625 20.34375 73.4375 
Q 25.25 74.21875 29.59375 74.21875 
Q 40.828125 74.21875 47.359375 69.109375 
Q 53.90625 64.015625 53.90625 55.328125 
Q 53.90625 49.265625 50.4375 45.09375 
Q 46.96875 40.921875 40.578125 39.3125 
z
" id="DejaVuSans-51"/>
       <path d="M 31.78125 66.40625 
Q 24.171875 66.40625 20.328125 58.90625 
Q 16.5 51.421875 16.5 36.375 
Q 16.5 21.390625 20.328125 13.890625 
Q 24.171875 6.390625 31.78125 6.390625 
Q 39.453125 6.390625 43.28125 13.890625 
Q 47.125 21.390625 47.125 36.375 
Q 47.125 51.421875 43.28125 58.90625 
Q 39.453125 66.40625 31.78125 66.40625 
z
M 31.78125 74.21875 
Q 44.046875 74.21875 50.515625 64.515625 
Q 56.984375 54.828125 56.984375 36.375 
Q 56.984375 17.96875 50.515625 8.265625 
Q 44.046875 -1.421875 31.78125 -1.421875 
Q 19.53125 -1.421875 13.0625 8.265625 
Q 6.59375 17.96875 6.59375 36.375 
Q 6.59375 54.828125 13.0625 64.515625 
Q 19.53125 74.21875 31.78125 74.21875 
z
" id="DejaVuSans-48"/>
      </defs>
      <g transform="translate(113.140298 388.998438)scale(0.1 -0.1)">
       <use xlink:href="#DejaVuSans-51"/>
       <use x="63.623047" xlink:href="#DejaVuSans-46"/>
       <use x="95.410156" xlink:href="#DejaVuSans-48"/>
      </g>
     </g>
    </g>
    <g id="xtick_3">
     <g id="line2d_5">
      <path clip-path="url(#pec51807331)" d="M 160.606047 374.4 
L 160.606047 57.6 
" style="fill:none;stroke:#000000;stroke-linecap:square;stroke-width:0.8;"/>
     </g>
     <g id="line2d_6">
      <g>
       <use style="stroke:#000000;stroke-width:0.8;" x="160.606047" xlink:href="#m9969eafe08" y="374.4"/>
      </g>
     </g>
     <g id="text_3">
      <!-- 3.5 -->
      <g transform="translate(152.654484 388.998438)scale(0.1 -0.1)">
       <use xlink:href="#DejaVuSans-51"/>
       <use x="63.623047" xlink:href="#DejaVuSans-46"/>
       <use x="95.410156" xlink:href="#DejaVuSans-53"/>
      </g>
     </g>
    </g>
    <g id="xtick_4">
     <g id="line2d_7">
      <path clip-path="url(#pec51807331)" d="M 200.120233 374.4 
L 200.120233 57.6 
" style="fill:none;stroke:#000000;stroke-linecap:square;stroke-width:0.8;"/>
     </g>
     <g id="line2d_8">
      <g>
       <use style="stroke:#000000;stroke-width:0.8;" x="200.120233" xlink:href="#m9969eafe08" y="374.4"/>
      </g>
     </g>
     <g id="text_4">
      <!-- 4.0 -->
      <defs>
       <path d="M 37.796875 64.3125 
L 12.890625 25.390625 
L 37.796875 25.390625 
z
M 35.203125 72.90625 
L 47.609375 72.90625 
L 47.609375 25.390625 
L 58.015625 25.390625 
L 58.015625 17.1875 
L 47.609375 17.1875 
L 47.609375 0 
L 37.796875 0 
L 37.796875 17.1875 
L 4.890625 17.1875 
L 4.890625 26.703125 
z
" id="DejaVuSans-52"/>
      </defs>
      <g transform="translate(192.16867 388.998438)scale(0.1 -0.1)">
       <use xlink:href="#DejaVuSans-52"/>
       <use x="63.623047" xlink:href="#DejaVuSans-46"/>
       <use x="95.410156" xlink:href="#DejaVuSans-48"/>
      </g>
     </g>
    </g>
    <g id="xtick_5">
     <g id="line2d_9">
      <path clip-path="url(#pec51807331)" d="M 239.634419 374.4 
L 239.634419 57.6 
" style="fill:none;stroke:#000000;stroke-linecap:square;stroke-width:0.8;"/>
     </g>
     <g id="line2d_10">
      <g>
       <use style="stroke:#000000;stroke-width:0.8;" x="239.634419" xlink:href="#m9969eafe08" y="374.4"/>
      </g>
     </g>
     <g id="text_5">
      <!-- 4.5 -->
      <g transform="translate(231.682856 388.998438)scale(0.1 -0.1)">
       <use xlink:href="#DejaVuSans-52"/>
       <use x="63.623047" xlink:href="#DejaVuSans-46"/>
       <use x="95.410156" xlink:href="#DejaVuSans-53"/>
      </g>
     </g>
    </g>
    <g id="xtick_6">
     <g id="line2d_11">
      <path clip-path="url(#pec51807331)" d="M 279.148605 374.4 
L 279.148605 57.6 
" style="fill:none;stroke:#000000;stroke-linecap:square;stroke-width:0.8;"/>
     </g>
     <g id="line2d_12">
      <g>
       <use style="stroke:#000000;stroke-width:0.8;" x="279.148605" xlink:href="#m9969eafe08" y="374.4"/>
      </g>
     </g>
     <g id="text_6">
      <!-- 5.0 -->
      <g transform="translate(271.197042 388.998438)scale(0.1 -0.1)">
       <use xlink:href="#DejaVuSans-53"/>
       <use x="63.623047" xlink:href="#DejaVuSans-46"/>
       <use x="95.410156" xlink:href="#DejaVuSans-48"/>
      </g>
     </g>
    </g>
    <g id="xtick_7">
     <g id="line2d_13">
      <path clip-path="url(#pec51807331)" d="M 318.662791 374.4 
L 318.662791 57.6 
" style="fill:none;stroke:#000000;stroke-linecap:square;stroke-width:0.8;"/>
     </g>
     <g id="line2d_14">
      <g>
       <use style="stroke:#000000;stroke-width:0.8;" x="318.662791" xlink:href="#m9969eafe08" y="374.4"/>
      </g>
     </g>
     <g id="text_7">
      <!-- 5.5 -->
      <g transform="translate(310.711228 388.998438)scale(0.1 -0.1)">
       <use xlink:href="#DejaVuSans-53"/>
       <use x="63.623047" xlink:href="#DejaVuSans-46"/>
       <use x="95.410156" xlink:href="#DejaVuSans-53"/>
      </g>
     </g>
    </g>
    <g id="xtick_8">
     <g id="line2d_15">
      <path clip-path="url(#pec51807331)" d="M 358.176977 374.4 
L 358.176977 57.6 
" style="fill:none;stroke:#000000;stroke-linecap:square;stroke-width:0.8;"/>
     </g>
     <g id="line2d_16">
      <g>
       <use style="stroke:#000000;stroke-width:0.8;" x="358.176977" xlink:href="#m9969eafe08" y="374.4"/>
      </g>
     </g>
     <g id="text_8">
      <!-- 6.0 -->
      <defs>
       <path d="M 33.015625 40.375 
Q 26.375 40.375 22.484375 35.828125 
Q 18.609375 31.296875 18.609375 23.390625 
Q 18.609375 15.53125 22.484375 10.953125 
Q 26.375 6.390625 33.015625 6.390625 
Q 39.65625 6.390625 43.53125 10.953125 
Q 47.40625 15.53125 47.40625 23.390625 
Q 47.40625 31.296875 43.53125 35.828125 
Q 39.65625 40.375 33.015625 40.375 
z
M 52.59375 71.296875 
L 52.59375 62.3125 
Q 48.875 64.0625 45.09375 64.984375 
Q 41.3125 65.921875 37.59375 65.921875 
Q 27.828125 65.921875 22.671875 59.328125 
Q 17.53125 52.734375 16.796875 39.40625 
Q 19.671875 43.65625 24.015625 45.921875 
Q 28.375 48.1875 33.59375 48.1875 
Q 44.578125 48.1875 50.953125 41.515625 
Q 57.328125 34.859375 57.328125 23.390625 
Q 57.328125 12.15625 50.6875 5.359375 
Q 44.046875 -1.421875 33.015625 -1.421875 
Q 20.359375 -1.421875 13.671875 8.265625 
Q 6.984375 17.96875 6.984375 36.375 
Q 6.984375 53.65625 15.1875 63.9375 
Q 23.390625 74.21875 37.203125 74.21875 
Q 40.921875 74.21875 44.703125 73.484375 
Q 48.484375 72.75 52.59375 71.296875 
z
" id="DejaVuSans-54"/>
      </defs>
      <g transform="translate(350.225414 388.998438)scale(0.1 -0.1)">
       <use xlink:href="#DejaVuSans-54"/>
       <use x="63.623047" xlink:href="#DejaVuSans-46"/>
       <use x="95.410156" xlink:href="#DejaVuSans-48"/>
      </g>
     </g>
    </g>
    <g id="xtick_9">
     <g id="line2d_17">
      <path clip-path="url(#pec51807331)" d="M 397.691163 374.4 
L 397.691163 57.6 
" style="fill:none;stroke:#000000;stroke-linecap:square;stroke-width:0.8;"/>
     </g>
     <g id="line2d_18">
      <g>
       <use style="stroke:#000000;stroke-width:0.8;" x="397.691163" xlink:href="#m9969eafe08" y="374.4"/>
      </g>
     </g>
     <g id="text_9">
      <!-- 6.5 -->
      <g transform="translate(389.7396 388.998438)scale(0.1 -0.1)">
       <use xlink:href="#DejaVuSans-54"/>
       <use x="63.623047" xlink:href="#DejaVuSans-46"/>
       <use x="95.410156" xlink:href="#DejaVuSans-53"/>
      </g>
     </g>
    </g>
    <g id="text_10">
     <!-- Omeg -->
     <defs>
      <path d="M 39.40625 66.21875 
Q 28.65625 66.21875 22.328125 58.203125 
Q 16.015625 50.203125 16.015625 36.375 
Q 16.015625 22.609375 22.328125 14.59375 
Q 28.65625 6.59375 39.40625 6.59375 
Q 50.140625 6.59375 56.421875 14.59375 
Q 62.703125 22.609375 62.703125 36.375 
Q 62.703125 50.203125 56.421875 58.203125 
Q 50.140625 66.21875 39.40625 66.21875 
z
M 39.40625 74.21875 
Q 54.734375 74.21875 63.90625 63.9375 
Q 73.09375 53.65625 73.09375 36.375 
Q 73.09375 19.140625 63.90625 8.859375 
Q 54.734375 -1.421875 39.40625 -1.421875 
Q 24.03125 -1.421875 14.8125 8.828125 
Q 5.609375 19.09375 5.609375 36.375 
Q 5.609375 53.65625 14.8125 63.9375 
Q 24.03125 74.21875 39.40625 74.21875 
z
" id="DejaVuSans-79"/>
      <path d="M 52 44.1875 
Q 55.375 50.25 60.0625 53.125 
Q 64.75 56 71.09375 56 
Q 79.640625 56 84.28125 50.015625 
Q 88.921875 44.046875 88.921875 33.015625 
L 88.921875 0 
L 79.890625 0 
L 79.890625 32.71875 
Q 79.890625 40.578125 77.09375 44.375 
Q 74.3125 48.1875 68.609375 48.1875 
Q 61.625 48.1875 57.5625 43.546875 
Q 53.515625 38.921875 53.515625 30.90625 
L 53.515625 0 
L 44.484375 0 
L 44.484375 32.71875 
Q 44.484375 40.625 41.703125 44.40625 
Q 38.921875 48.1875 33.109375 48.1875 
Q 26.21875 48.1875 22.15625 43.53125 
Q 18.109375 38.875 18.109375 30.90625 
L 18.109375 0 
L 9.078125 0 
L 9.078125 54.6875 
L 18.109375 54.6875 
L 18.109375 46.1875 
Q 21.1875 51.21875 25.484375 53.609375 
Q 29.78125 56 35.6875 56 
Q 41.65625 56 45.828125 52.96875 
Q 50 49.953125 52 44.1875 
z
" id="DejaVuSans-109"/>
      <path d="M 56.203125 29.59375 
L 56.203125 25.203125 
L 14.890625 25.203125 
Q 15.484375 15.921875 20.484375 11.0625 
Q 25.484375 6.203125 34.421875 6.203125 
Q 39.59375 6.203125 44.453125 7.46875 
Q 49.3125 8.734375 54.109375 11.28125 
L 54.109375 2.78125 
Q 49.265625 0.734375 44.1875 -0.34375 
Q 39.109375 -1.421875 33.890625 -1.421875 
Q 20.796875 -1.421875 13.15625 6.1875 
Q 5.515625 13.8125 5.515625 26.8125 
Q 5.515625 40.234375 12.765625 48.109375 
Q 20.015625 56 32.328125 56 
Q 43.359375 56 49.78125 48.890625 
Q 56.203125 41.796875 56.203125 29.59375 
z
M 47.21875 32.234375 
Q 47.125 39.59375 43.09375 43.984375 
Q 39.0625 48.390625 32.421875 48.390625 
Q 24.90625 48.390625 20.390625 44.140625 
Q 15.875 39.890625 15.1875 32.171875 
z
" id="DejaVuSans-101"/>
      <path d="M 45.40625 27.984375 
Q 45.40625 37.75 41.375 43.109375 
Q 37.359375 48.484375 30.078125 48.484375 
Q 22.859375 48.484375 18.828125 43.109375 
Q 14.796875 37.75 14.796875 27.984375 
Q 14.796875 18.265625 18.828125 12.890625 
Q 22.859375 7.515625 30.078125 7.515625 
Q 37.359375 7.515625 41.375 12.890625 
Q 45.40625 18.265625 45.40625 27.984375 
z
M 54.390625 6.78125 
Q 54.390625 -7.171875 48.1875 -13.984375 
Q 42 -20.796875 29.203125 -20.796875 
Q 24.46875 -20.796875 20.265625 -20.09375 
Q 16.0625 -19.390625 12.109375 -17.921875 
L 12.109375 -9.1875 
Q 16.0625 -11.328125 19.921875 -12.34375 
Q 23.78125 -13.375 27.78125 -13.375 
Q 36.625 -13.375 41.015625 -8.765625 
Q 45.40625 -4.15625 45.40625 5.171875 
L 45.40625 9.625 
Q 42.625 4.78125 38.28125 2.390625 
Q 33.9375 0 27.875 0 
Q 17.828125 0 11.671875 7.65625 
Q 5.515625 15.328125 5.515625 27.984375 
Q 5.515625 40.671875 11.671875 48.328125 
Q 17.828125 56 27.875 56 
Q 33.9375 56 38.28125 53.609375 
Q 42.625 51.21875 45.40625 46.390625 
L 45.40625 54.6875 
L 54.390625 54.6875 
z
" id="DejaVuSans-103"/>
     </defs>
     <g transform="translate(224.577387 402.676563)scale(0.1 -0.1)">
      <use xlink:href="#DejaVuSans-79"/>
      <use x="78.710938" xlink:href="#DejaVuSans-109"/>
      <use x="176.123047" xlink:href="#DejaVuSans-101"/>
      <use x="237.646484" xlink:href="#DejaVuSans-103"/>
     </g>
    </g>
   </g>
   <g id="matplotlib.axis_2">
    <g id="ytick_1">
     <g id="line2d_19">
      <path clip-path="url(#pec51807331)" d="M 81.577674 374.4 
L 397.691163 374.4 
" style="fill:none;stroke:#000000;stroke-linecap:square;stroke-width:0.8;"/>
     </g>
     <g id="line2d_20">
      <defs>
       <path d="M 0 0 
L -3.5 0 
" id="mf85fb20b40" style="stroke:#000000;stroke-width:0.8;"/>
      </defs>
      <g>
       <use style="stroke:#000000;stroke-width:0.8;" x="81.577674" xlink:href="#mf85fb20b40" y="374.4"/>
      </g>
     </g>
     <g id="text_11">
      <!-- 1 -->
      <defs>
       <path d="M 12.40625 8.296875 
L 28.515625 8.296875 
L 28.515625 63.921875 
L 10.984375 60.40625 
L 10.984375 69.390625 
L 28.421875 72.90625 
L 38.28125 72.90625 
L 38.28125 8.296875 
L 54.390625 8.296875 
L 54.390625 0 
L 12.40625 0 
z
" id="DejaVuSans-49"/>
      </defs>
      <g transform="translate(68.215174 378.199219)scale(0.1 -0.1)">
       <use xlink:href="#DejaVuSans-49"/>
      </g>
     </g>
    </g>
    <g id="ytick_2">
     <g id="line2d_21">
      <path clip-path="url(#pec51807331)" d="M 81.577674 321.6 
L 397.691163 321.6 
" style="fill:none;stroke:#000000;stroke-linecap:square;stroke-width:0.8;"/>
     </g>
     <g id="line2d_22">
      <g>
       <use style="stroke:#000000;stroke-width:0.8;" x="81.577674" xlink:href="#mf85fb20b40" y="321.6"/>
      </g>
     </g>
     <g id="text_12">
      <!-- 2 -->
      <g transform="translate(68.215174 325.399219)scale(0.1 -0.1)">
       <use xlink:href="#DejaVuSans-50"/>
      </g>
     </g>
    </g>
    <g id="ytick_3">
     <g id="line2d_23">
      <path clip-path="url(#pec51807331)" d="M 81.577674 268.8 
L 397.691163 268.8 
" style="fill:none;stroke:#000000;stroke-linecap:square;stroke-width:0.8;"/>
     </g>
     <g id="line2d_24">
      <g>
       <use style="stroke:#000000;stroke-width:0.8;" x="81.577674" xlink:href="#mf85fb20b40" y="268.8"/>
      </g>
     </g>
     <g id="text_13">
      <!-- 3 -->
      <g transform="translate(68.215174 272.599219)scale(0.1 -0.1)">
       <use xlink:href="#DejaVuSans-51"/>
      </g>
     </g>
    </g>
    <g id="ytick_4">
     <g id="line2d_25">
      <path clip-path="url(#pec51807331)" d="M 81.577674 216 
L 397.691163 216 
" style="fill:none;stroke:#000000;stroke-linecap:square;stroke-width:0.8;"/>
     </g>
     <g id="line2d_26">
      <g>
       <use style="stroke:#000000;stroke-width:0.8;" x="81.577674" xlink:href="#mf85fb20b40" y="216"/>
      </g>
     </g>
     <g id="text_14">
      <!-- 4 -->
      <g transform="translate(68.215174 219.799219)scale(0.1 -0.1)">
       <use xlink:href="#DejaVuSans-52"/>
      </g>
     </g>
    </g>
    <g id="ytick_5">
     <g id="line2d_27">
      <path clip-path="url(#pec51807331)" d="M 81.577674 163.2 
L 397.691163 163.2 
" style="fill:none;stroke:#000000;stroke-linecap:square;stroke-width:0.8;"/>
     </g>
     <g id="line2d_28">
      <g>
       <use style="stroke:#000000;stroke-width:0.8;" x="81.577674" xlink:href="#mf85fb20b40" y="163.2"/>
      </g>
     </g>
     <g id="text_15">
      <!-- 5 -->
      <g transform="translate(68.215174 166.999219)scale(0.1 -0.1)">
       <use xlink:href="#DejaVuSans-53"/>
      </g>
     </g>
    </g>
    <g id="ytick_6">
     <g id="line2d_29">
      <path clip-path="url(#pec51807331)" d="M 81.577674 110.4 
L 397.691163 110.4 
" style="fill:none;stroke:#000000;stroke-linecap:square;stroke-width:0.8;"/>
     </g>
     <g id="line2d_30">
      <g>
       <use style="stroke:#000000;stroke-width:0.8;" x="81.577674" xlink:href="#mf85fb20b40" y="110.4"/>
      </g>
     </g>
     <g id="text_16">
      <!-- 6 -->
      <g transform="translate(68.215174 114.199219)scale(0.1 -0.1)">
       <use xlink:href="#DejaVuSans-54"/>
      </g>
     </g>
    </g>
    <g id="ytick_7">
     <g id="line2d_31">
      <path clip-path="url(#pec51807331)" d="M 81.577674 57.6 
L 397.691163 57.6 
" style="fill:none;stroke:#000000;stroke-linecap:square;stroke-width:0.8;"/>
     </g>
     <g id="line2d_32">
      <g>
       <use style="stroke:#000000;stroke-width:0.8;" x="81.577674" xlink:href="#mf85fb20b40" y="57.6"/>
      </g>
     </g>
     <g id="text_17">
      <!-- 7 -->
      <defs>
       <path d="M 8.203125 72.90625 
L 55.078125 72.90625 
L 55.078125 68.703125 
L 28.609375 0 
L 18.3125 0 
L 43.21875 64.59375 
L 8.203125 64.59375 
z
" id="DejaVuSans-55"/>
      </defs>
      <g transform="translate(68.215174 61.399219)scale(0.1 -0.1)">
       <use xlink:href="#DejaVuSans-55"/>
      </g>
     </g>
    </g>
    <g id="text_18">
     <!-- Amplitude -->
     <defs>
      <path d="M 34.1875 63.1875 
L 20.796875 26.90625 
L 47.609375 26.90625 
z
M 28.609375 72.90625 
L 39.796875 72.90625 
L 67.578125 0 
L 57.328125 0 
L 50.6875 18.703125 
L 17.828125 18.703125 
L 11.1875 0 
L 0.78125 0 
z
" id="DejaVuSans-65"/>
      <path d="M 18.109375 8.203125 
L 18.109375 -20.796875 
L 9.078125 -20.796875 
L 9.078125 54.6875 
L 18.109375 54.6875 
L 18.109375 46.390625 
Q 20.953125 51.265625 25.265625 53.625 
Q 29.59375 56 35.59375 56 
Q 45.5625 56 51.78125 48.09375 
Q 58.015625 40.1875 58.015625 27.296875 
Q 58.015625 14.40625 51.78125 6.484375 
Q 45.5625 -1.421875 35.59375 -1.421875 
Q 29.59375 -1.421875 25.265625 0.953125 
Q 20.953125 3.328125 18.109375 8.203125 
z
M 48.6875 27.296875 
Q 48.6875 37.203125 44.609375 42.84375 
Q 40.53125 48.484375 33.40625 48.484375 
Q 26.265625 48.484375 22.1875 42.84375 
Q 18.109375 37.203125 18.109375 27.296875 
Q 18.109375 17.390625 22.1875 11.75 
Q 26.265625 6.109375 33.40625 6.109375 
Q 40.53125 6.109375 44.609375 11.75 
Q 48.6875 17.390625 48.6875 27.296875 
z
" id="DejaVuSans-112"/>
      <path d="M 9.421875 75.984375 
L 18.40625 75.984375 
L 18.40625 0 
L 9.421875 0 
z
" id="DejaVuSans-108"/>
      <path d="M 9.421875 54.6875 
L 18.40625 54.6875 
L 18.40625 0 
L 9.421875 0 
z
M 9.421875 75.984375 
L 18.40625 75.984375 
L 18.40625 64.59375 
L 9.421875 64.59375 
z
" id="DejaVuSans-105"/>
      <path d="M 18.3125 70.21875 
L 18.3125 54.6875 
L 36.8125 54.6875 
L 36.8125 47.703125 
L 18.3125 47.703125 
L 18.3125 18.015625 
Q 18.3125 11.328125 20.140625 9.421875 
Q 21.96875 7.515625 27.59375 7.515625 
L 36.8125 7.515625 
L 36.8125 0 
L 27.59375 0 
Q 17.1875 0 13.234375 3.875 
Q 9.28125 7.765625 9.28125 18.015625 
L 9.28125 47.703125 
L 2.6875 47.703125 
L 2.6875 54.6875 
L 9.28125 54.6875 
L 9.28125 70.21875 
z
" id="DejaVuSans-116"/>
      <path d="M 8.5 21.578125 
L 8.5 54.6875 
L 17.484375 54.6875 
L 17.484375 21.921875 
Q 17.484375 14.15625 20.5 10.265625 
Q 23.53125 6.390625 29.59375 6.390625 
Q 36.859375 6.390625 41.078125 11.03125 
Q 45.3125 15.671875 45.3125 23.6875 
L 45.3125 54.6875 
L 54.296875 54.6875 
L 54.296875 0 
L 45.3125 0 
L 45.3125 8.40625 
Q 42.046875 3.421875 37.71875 1 
Q 33.40625 -1.421875 27.6875 -1.421875 
Q 18.265625 -1.421875 13.375 4.4375 
Q 8.5 10.296875 8.5 21.578125 
z
M 31.109375 56 
z
" id="DejaVuSans-117"/>
      <path d="M 45.40625 46.390625 
L 45.40625 75.984375 
L 54.390625 75.984375 
L 54.390625 0 
L 45.40625 0 
L 45.40625 8.203125 
Q 42.578125 3.328125 38.25 0.953125 
Q 33.9375 -1.421875 27.875 -1.421875 
Q 17.96875 -1.421875 11.734375 6.484375 
Q 5.515625 14.40625 5.515625 27.296875 
Q 5.515625 40.1875 11.734375 48.09375 
Q 17.96875 56 27.875 56 
Q 33.9375 56 38.25 53.625 
Q 42.578125 51.265625 45.40625 46.390625 
z
M 14.796875 27.296875 
Q 14.796875 17.390625 18.875 11.75 
Q 22.953125 6.109375 30.078125 6.109375 
Q 37.203125 6.109375 41.296875 11.75 
Q 45.40625 17.390625 45.40625 27.296875 
Q 45.40625 37.203125 41.296875 42.84375 
Q 37.203125 48.484375 30.078125 48.484375 
Q 22.953125 48.484375 18.875 42.84375 
Q 14.796875 37.203125 14.796875 27.296875 
z
" id="DejaVuSans-100"/>
     </defs>
     <g transform="translate(62.135487 241.622656)rotate(-90)scale(0.1 -0.1)">
      <use xlink:href="#DejaVuSans-65"/>
      <use x="68.408203" xlink:href="#DejaVuSans-109"/>
      <use x="165.820312" xlink:href="#DejaVuSans-112"/>
      <use x="229.296875" xlink:href="#DejaVuSans-108"/>
      <use x="257.080078" xlink:href="#DejaVuSans-105"/>
      <use x="284.863281" xlink:href="#DejaVuSans-116"/>
      <use x="324.072266" xlink:href="#DejaVuSans-117"/>
      <use x="387.451172" xlink:href="#DejaVuSans-100"/>
      <use x="450.927734" xlink:href="#DejaVuSans-101"/>
     </g>
    </g>
   </g>
   <g id="line2d_33">
    <path clip-path="url(#pec51807331)" d="M 113.979307 305.049223 
L 118.399968 300.019833 
L 124.864037 292.976521 
L 132.30496 285.207582 
L 140.671691 276.797707 
L 150.212289 267.530765 
L 160.839372 257.523648 
L 172.900498 246.478654 
L 186.253743 234.55705 
L 201.377775 221.36136 
L 217.925587 207.222616 
L 236.150872 191.939042 
L 256.181679 175.42287 
L 278.210881 157.538563 
L 302.478938 138.122653 
L 327.025179 118.747779 
L 354.2709 97.546752 
L 372.841456 83.369574 
L 379.515387 78.492295 
L 380.064491 78.192436 
L 380.066158 78.1982 
" style="fill:none;stroke:#000000;stroke-linecap:square;stroke-width:2;"/>
   </g>
   <g id="line2d_34">
    <path clip-path="url(#pec51807331)" d="M 113.979307 305.049223 
L 113.968531 305.061465 
L 113.614301 305.473841 
L 113.5956 305.495558 
L 113.558201 305.539197 
L 113.483423 305.626505 
L 113.333943 305.801249 
L 113.179631 305.981941 
L 113.025433 306.162811 
L 112.871352 306.343858 
L 112.717392 306.525083 
L 112.563554 306.706486 
L 112.409843 306.888066 
L 112.256261 307.069825 
L 112.102813 307.251763 
L 111.949501 307.433879 
L 111.79633 307.616173 
L 111.643303 307.798645 
L 111.490424 307.981296 
L 111.337697 308.164125 
L 111.185128 308.347132 
L 111.032719 308.530317 
L 110.880477 308.71368 
L 110.728406 308.89722 
L 110.576511 309.080937 
L 110.424797 309.264831 
L 110.273271 309.448901 
L 110.121937 309.633146 
L 109.970803 309.817565 
L 109.819875 310.002159 
L 109.66916 310.186924 
L 109.518665 310.371862 
L 109.368398 310.55697 
L 109.218366 310.742246 
L 109.068579 310.92769 
L 108.919045 311.1133 
L 108.769774 311.299071 
L 108.620777 311.485004 
L 108.472064 311.671096 
L 108.323646 311.857342 
L 108.175537 312.04374 
L 108.027749 312.230287 
L 107.880296 312.416977 
L 107.733194 312.603807 
L 107.58646 312.790771 
L 107.44011 312.977862 
L 107.294164 313.165075 
L 107.148643 313.352403 
L 107.003568 313.539834 
L 106.858966 313.727363 
L 106.714861 313.914976 
L 106.571284 314.10263 
L 106.428266 314.290141 
L 106.285844 314.477688 
L 106.144055 314.665254 
L 106.002944 314.852812 
L 105.862559 315.04034 
L 105.722954 315.227812 
L 105.58419 315.41519 
L 105.446335 315.602438 
L 105.309468 315.789513 
L 105.173678 315.976358 
L 105.039067 316.162912 
L 104.905752 316.349102 
L 104.773871 316.534835 
L 104.643585 316.720004 
L 104.515084 316.904477 
L 104.388593 317.088092 
L 104.264384 317.270647 
L 104.142788 317.451888 
L 104.024208 317.631499 
L 103.909147 317.809065 
L 103.798236 317.984048 
L 103.692276 318.155748 
L 103.592294 318.32322 
L 103.499625 318.484592 
L 103.416002 318.638535 
L 103.343672 318.782797 
L 103.285481 318.914189 
L 103.244837 319.028591 
L 103.22537 319.12118 
L 103.224143 319.145173 
" style="fill:none;stroke:#000000;stroke-linecap:square;stroke-width:2;"/>
   </g>
   <g id="line2d_35">
    <path clip-path="url(#pec51807331)" d="M 103.224143 319.145173 
L 103.335339 319.225579 
L 103.737667 318.987261 
L 104.98988 317.879657 
L 108.097285 314.756509 
L 132.674522 289.530544 
L 143.715131 278.712364 
L 155.650527 267.345543 
L 168.519309 255.407874 
L 182.346617 242.880161 
L 197.990749 229.013324 
L 215.642528 213.679304 
L 234.459782 197.625994 
L 255.621095 179.857481 
L 280.299905 159.435406 
L 308.64865 136.27268 
L 346.195747 105.90653 
L 376.466055 81.364145 
L 380.02412 78.267423 
L 380.066158 78.196363 
L 380.066158 78.196363 
" style="fill:none;stroke:#000000;stroke-dasharray:12,12;stroke-dashoffset:0;stroke-width:2;"/>
   </g>
   <g id="line2d_36">
    <path clip-path="url(#pec51807331)" d="M 200.120238 107.68169 
L 200.120238 122.521095 
L 200.120238 122.521095 
" style="fill:none;stroke:#000000;stroke-dasharray:12,12;stroke-dashoffset:0;stroke-width:2;"/>
   </g>
   <g id="line2d_37">
    <path clip-path="url(#pec51807331)" d="M 200.120238 122.521095 
L 200.120238 327.947639 
L 200.120238 327.947639 
" style="fill:none;stroke:#000000;stroke-linecap:square;stroke-width:2;"/>
   </g>
   <g id="line2d_38">
    <path clip-path="url(#pec51807331)" d="M 200.120238 327.947639 
L 200.120238 347.808948 
L 200.120238 347.808948 
" style="fill:none;stroke:#000000;stroke-dasharray:12,12;stroke-dashoffset:0;stroke-width:2;"/>
   </g>
   <g id="line2d_39">
    <path clip-path="url(#pec51807331)" d="M 200.120238 333.545619 
L 209.14254 330.691042 
L 217.905287 327.686446 
L 221.383228 326.426261 
L 221.383228 326.426261 
" style="fill:none;stroke:#000000;stroke-dasharray:12,12;stroke-dashoffset:0;stroke-width:2;"/>
   </g>
   <g id="line2d_40">
    <path clip-path="url(#pec51807331)" d="M 221.383228 326.426261 
L 229.698527 323.247215 
L 237.69673 319.952247 
L 245.369622 316.55144 
L 252.715755 313.053413 
L 259.738729 309.464869 
L 266.730721 305.630036 
L 273.171666 301.84264 
L 279.399584 297.924041 
L 285.3813 293.898197 
L 291.135719 289.757139 
L 296.68106 285.493516 
L 302.01923 281.109864 
L 307.179273 276.584371 
L 312.184601 271.898325 
L 317.019761 267.06392 
L 321.716262 262.051738 
L 326.169818 256.980327 
L 330.599755 251.598117 
L 334.885687 246.039008 
L 339.065493 240.251262 
L 343.152515 234.208652 
L 347.14956 227.898783 
L 351.066862 221.297957 
L 355.009856 214.208877 
L 358.735628 207.048431 
L 362.452789 199.426133 
L 366.444026 190.720451 
L 371.086971 180.581069 
L 371.252653 180.444455 
L 371.276949 180.503681 
L 371.280358 180.561925 
L 371.280358 180.561925 
" style="fill:none;stroke:#000000;stroke-linecap:square;stroke-width:2;"/>
   </g>
   <g id="line2d_41">
    <path clip-path="url(#pec51807331)" d="M 371.280358 180.561925 
L 371.168436 181.255886 
L 370.519629 183.626194 
L 368.915196 188.573978 
L 366.563148 195.108208 
L 363.802273 202.133375 
L 360.779193 209.217802 
L 357.613677 216.072464 
L 354.310468 222.69703 
L 350.887705 229.064209 
L 347.352316 235.173509 
L 343.70106 241.041176 
L 339.958211 246.642811 
L 336.060985 252.079423 
L 332.008356 257.35183 
L 328.149583 262.048617 
L 323.827003 266.975723 
L 319.330494 271.766087 
L 314.691131 276.389357 
L 309.767576 280.979069 
L 304.652153 285.440172 
L 298.870936 290.155781 
L 293.460195 294.297284 
L 287.639397 298.482672 
L 281.181652 302.832686 
L 274.775896 306.873865 
L 268.003454 310.880239 
L 260.957839 314.786692 
L 253.589224 318.6148 
L 245.905989 322.35295 
L 237.923734 325.988269 
L 229.590003 329.538536 
L 220.926906 332.987761 
L 211.882831 336.349857 
L 202.278843 339.677062 
L 192.497961 342.831274 
L 182.062874 345.959249 
L 171.21136 348.975594 
L 159.959269 351.86986 
L 148.434835 354.603658 
L 137.041474 357.078591 
L 126.888417 359.061715 
L 119.212046 360.34744 
L 114.024453 361.006498 
L 110.524342 361.240394 
L 108.065341 361.191924 
L 106.239619 360.94283 
L 104.7528 360.520248 
L 103.410918 359.906018 
L 101.902641 358.953827 
L 100.874231 358.359173 
L 100.874231 358.359173 
" style="fill:none;stroke:#000000;stroke-dasharray:12,12;stroke-dashoffset:0;stroke-width:2;"/>
   </g>
   <g id="line2d_42">
    <path clip-path="url(#pec51807331)" d="M 100.874231 358.359173 
L 100.877202 358.35313 
L 100.886121 358.346066 
L 100.900035 358.338429 
L 100.917604 358.330541 
L 100.937732 358.322508 
L 100.959668 358.314443 
" style="fill:none;stroke:#000000;stroke-linecap:square;stroke-width:2;"/>
   </g>
   <g id="line2d_43">
    <path clip-path="url(#pec51807331)" d="M 100.959668 358.314443 
L 102.518499 357.894506 
L 114.661232 354.928488 
L 135.784222 349.701254 
L 164.074962 342.676263 
L 172.275974 340.933599 
L 181.139318 338.813457 
L 190.322029 336.387595 
L 199.510291 333.730396 
L 208.55878 330.882737 
L 217.349474 327.883764 
L 221.382688 326.426334 
L 221.382688 326.426334 
" style="fill:none;stroke:#000000;stroke-dasharray:12,12;stroke-dashoffset:0;stroke-width:2;"/>
   </g>
   <g id="line2d_44">
    <path clip-path="url(#pec51807331)" d="M 221.382688 326.426334 
L 229.698015 323.247741 
L 237.670253 319.963643 
L 245.295644 316.58535 
L 252.646121 313.087501 
L 259.694945 309.488106 
L 266.425025 305.803747 
L 272.903763 302.005392 
L 279.132239 298.097588 
L 285.13061 294.07246 
L 290.869169 289.9552 
L 296.312899 285.785345 
L 301.674357 281.402091 
L 306.817382 276.91154 
L 311.833815 272.23669 
L 316.509411 267.589241 
L 321.207271 262.611389 
L 325.713588 257.514752 
L 330.080793 252.247179 
L 334.479745 246.58155 
L 339.001864 240.342345 
L 343.093287 234.299146 
L 347.115377 227.954472 
L 351.035072 221.353502 
L 354.980368 214.263389 
L 358.713652 207.091789 
L 362.452789 199.426314 
L 366.477778 190.645001 
L 371.093418 180.571986 
L 371.252653 180.444815 
L 371.277125 180.504757 
L 371.280358 180.562171 
L 371.280358 180.562171 
" style="fill:none;stroke:#000000;stroke-linecap:square;stroke-width:2;"/>
   </g>
   <g id="line2d_45">
    <path clip-path="url(#pec51807331)" d="M 371.280358 180.562171 
L 371.168435 181.256176 
L 370.521927 183.618683 
L 368.915195 188.573823 
L 366.554991 195.129643 
L 363.783853 202.178127 
L 360.79439 209.183551 
L 357.62469 216.049501 
L 354.322359 222.674233 
L 350.951594 228.949594 
L 347.420807 235.059125 
L 343.767009 240.938842 
L 339.989513 246.597815 
L 336.094377 252.034391 
L 332.052852 257.295635 
L 327.846962 262.404733 
L 323.474612 267.363138 
L 318.923291 272.184276 
L 314.326683 276.739427 
L 309.416104 281.295262 
L 305.280485 284.908055 
L 305.280485 284.908055 
" style="fill:none;stroke:#000000;stroke-dasharray:12,12;stroke-dashoffset:0;stroke-width:2;"/>
   </g>
   <g id="line2d_46">
    <path clip-path="url(#pec51807331)" d="M 200.120238 333.545619 
L 190.95499 336.211506 
L 181.720847 338.666581 
L 172.938157 340.783425 
L 164.632004 342.566585 
L 160.115353 343.570679 
L 148.067734 346.582856 
L 120.758504 353.440619 
L 100.975832 358.308774 
L 100.975832 358.308774 
" style="fill:none;stroke:#000000;stroke-dasharray:12,12;stroke-dashoffset:0;stroke-width:2;"/>
   </g>
   <g id="line2d_47">
    <path clip-path="url(#pec51807331)" d="M 100.975832 358.308774 
L 100.952959 358.31683 
L 100.931533 358.324879 
L 100.912122 358.332866 
L 100.895565 358.340689 
L 100.883015 358.348149 
L 100.875743 358.354966 
L 100.874232 358.359305 
" style="fill:none;stroke:#000000;stroke-linecap:square;stroke-width:2;"/>
   </g>
   <g id="line2d_48">
    <path clip-path="url(#pec51807331)" d="M 100.874232 358.359305 
L 101.008418 358.389735 
L 101.344402 358.569014 
L 103.783839 360.100798 
L 105.150946 360.657566 
L 106.640651 361.019005 
L 108.441697 361.216654 
L 110.746139 361.233889 
L 113.866527 361.021905 
L 118.275808 360.483793 
L 124.583595 359.473362 
L 133.255137 357.846131 
L 143.91701 355.612877 
L 155.315811 352.998847 
L 166.73275 350.155 
L 177.827454 347.163985 
L 188.461312 344.068909 
L 198.608894 340.886949 
L 208.272577 337.628699 
L 217.697591 334.215335 
L 226.503184 330.794853 
L 235.225701 327.164124 
L 243.491848 323.478053 
L 251.369781 319.72011 
L 258.897725 315.882364 
L 266.395497 311.794277 
L 273.35693 307.735089 
L 279.920887 303.648778 
L 285.277378 300.107959 
L 291.26908 295.903814 
L 297.057933 291.571734 
L 302.662039 287.098445 
L 308.033623 282.5246 
L 313.015947 277.985434 
L 317.755253 273.370362 
L 322.305818 268.632783 
L 326.682124 263.759089 
L 330.89633 258.73595 
L 334.958561 253.550188 
L 338.924937 248.121986 
L 342.72584 242.539035 
L 346.378007 236.780912 
L 349.920263 230.780777 
L 353.343858 224.543549 
L 356.59418 218.171536 
L 360.551523 209.728953 
L 363.567529 202.704409 
L 366.49459 195.289939 
L 368.693592 189.217641 
L 370.503961 183.67822 
L 371.260493 180.780158 
L 371.280358 180.561863 
L 371.280358 180.561863 
" style="fill:none;stroke:#000000;stroke-dasharray:12,12;stroke-dashoffset:0;stroke-width:2;"/>
   </g>
   <g id="line2d_49">
    <path clip-path="url(#pec51807331)" d="M 371.280358 180.561863 
L 371.234344 180.439164 
L 371.170073 180.47865 
L 370.869229 180.942723 
L 369.897849 182.952446 
L 359.482641 205.555309 
L 355.692087 212.932383 
L 351.879928 219.873054 
L 347.885872 226.690796 
L 343.848151 233.139914 
L 339.749139 239.267754 
L 335.567934 245.119834 
L 331.294317 250.721629 
L 326.884394 256.13594 
L 322.343695 261.356618 
L 317.724535 266.332433 
L 312.901967 271.200778 
L 307.971392 275.862936 
L 302.837719 280.411532 
L 297.554661 284.79564 
L 292.067927 289.059848 
L 286.375669 293.202015 
L 280.477579 297.218286 
L 274.345938 301.12385 
L 267.9611 304.926183 
L 261.329652 308.61608 
L 254.407543 312.21188 
L 247.239421 315.684586 
L 239.808461 319.040699 
L 231.988823 322.328361 
L 223.859334 325.504392 
L 221.383037 326.426072 
L 221.383037 326.426072 
" style="fill:none;stroke:#000000;stroke-linecap:square;stroke-width:2;"/>
   </g>
   <g id="line2d_50">
    <path clip-path="url(#pec51807331)" d="M 221.383037 326.426072 
L 212.828768 329.4561 
L 204.008332 332.344443 
L 194.929639 335.083769 
L 185.612607 337.659952 
L 176.449072 339.963251 
L 167.702345 341.936152 
L 157.467475 344.216219 
L 139.064573 348.871862 
L 116.031171 354.595294 
L 100.986126 358.305513 
L 100.986126 358.305513 
" style="fill:none;stroke:#000000;stroke-dasharray:12,12;stroke-dashoffset:0;stroke-width:2;"/>
   </g>
   <g id="line2d_51">
    <path clip-path="url(#pec51807331)" d="M 100.986126 358.305513 
L 100.962751 358.313557 
L 100.940639 358.321652 
L 100.920267 358.329665 
L 100.902346 358.337566 
L 100.887895 358.345249 
L 100.878186 358.352378 
L 100.874291 358.358667 
L 100.874233 358.359702 
" style="fill:none;stroke:#000000;stroke-linecap:square;stroke-width:2;"/>
   </g>
   <g id="line2d_52">
    <path clip-path="url(#pec51807331)" d="M 100.874233 358.359702 
L 101.008536 358.389971 
L 101.344458 358.568911 
L 103.808177 360.11306 
L 105.183219 360.667921 
L 106.684296 361.026591 
L 108.500564 361.219863 
L 110.82249 361.231259 
L 113.958779 361.013036 
L 118.413295 360.464232 
L 124.729166 359.447777 
L 133.367465 357.823939 
L 143.917343 355.61274 
L 155.390652 352.98108 
L 166.914622 350.108025 
L 178.421642 346.997235 
L 189.128126 343.866918 
L 199.335807 340.649784 
L 209.078019 337.346281 
L 218.427002 333.940475 
L 227.346428 330.454489 
L 235.867916 326.886446 
L 244.001123 323.242569 
L 251.803619 319.505702 
L 259.283967 315.678438 
L 266.41469 311.783421 
L 273.28576 307.777941 
L 279.686468 303.799533 
L 286.01944 299.601913 
L 291.951653 295.407437 
L 297.671581 291.095735 
L 303.265658 286.599551 
L 308.452603 282.154325 
L 313.421224 277.602662 
L 318.005869 273.11757 
L 322.551629 268.367634 
L 326.893897 263.51458 
L 331.113295 258.467756 
L 335.094408 253.370498 
L 339.028398 247.975185 
L 342.807847 242.414258 
L 346.593977 236.427182 
L 350.128437 230.414318 
L 353.549871 224.153692 
L 356.841786 217.666035 
L 359.99128 210.974327 
L 363.033455 203.990015 
L 365.879139 196.905306 
L 368.888873 188.650549 
L 370.6869 183.061154 
L 371.276874 180.639816 
L 371.280358 180.562228 
L 371.280358 180.562228 
" style="fill:none;stroke:#000000;stroke-dasharray:12,12;stroke-dashoffset:0;stroke-width:2;"/>
   </g>
   <g id="line2d_53">
    <path clip-path="url(#pec51807331)" d="M 371.280358 180.562228 
L 371.23499 180.438757 
L 371.17007 180.479045 
L 370.890902 180.903571 
L 369.956102 182.825208 
L 361.157295 202.137642 
L 361.157295 202.137642 
" style="fill:none;stroke:#000000;stroke-linecap:square;stroke-width:2;"/>
   </g>
   <g id="patch_3">
    <path d="M 81.577674 374.4 
L 81.577674 57.6 
" style="fill:none;stroke:#000000;stroke-linecap:square;stroke-linejoin:miter;stroke-width:0.8;"/>
   </g>
   <g id="patch_4">
    <path d="M 397.691163 374.4 
L 397.691163 57.6 
" style="fill:none;stroke:#000000;stroke-linecap:square;stroke-linejoin:miter;stroke-width:0.8;"/>
   </g>
   <g id="patch_5">
    <path d="M 81.577674 374.4 
L 397.691163 374.4 
" style="fill:none;stroke:#000000;stroke-linecap:square;stroke-linejoin:miter;stroke-width:0.8;"/>
   </g>
   <g id="patch_6">
    <path d="M 81.577674 57.6 
L 397.691163 57.6 
" style="fill:none;stroke:#000000;stroke-linecap:square;stroke-linejoin:miter;stroke-width:0.8;"/>
   </g>
   <g id="text_19">
    <!-- isBare = 1 -->
    <defs>
     <path d="M 44.28125 53.078125 
L 44.28125 44.578125 
Q 40.484375 46.53125 36.375 47.5 
Q 32.28125 48.484375 27.875 48.484375 
Q 21.1875 48.484375 17.84375 46.4375 
Q 14.5 44.390625 14.5 40.28125 
Q 14.5 37.15625 16.890625 35.375 
Q 19.28125 33.59375 26.515625 31.984375 
L 29.59375 31.296875 
Q 39.15625 29.25 43.1875 25.515625 
Q 47.21875 21.78125 47.21875 15.09375 
Q 47.21875 7.46875 41.1875 3.015625 
Q 35.15625 -1.421875 24.609375 -1.421875 
Q 20.21875 -1.421875 15.453125 -0.5625 
Q 10.6875 0.296875 5.421875 2 
L 5.421875 11.28125 
Q 10.40625 8.6875 15.234375 7.390625 
Q 20.0625 6.109375 24.8125 6.109375 
Q 31.15625 6.109375 34.5625 8.28125 
Q 37.984375 10.453125 37.984375 14.40625 
Q 37.984375 18.0625 35.515625 20.015625 
Q 33.0625 21.96875 24.703125 23.78125 
L 21.578125 24.515625 
Q 13.234375 26.265625 9.515625 29.90625 
Q 5.8125 33.546875 5.8125 39.890625 
Q 5.8125 47.609375 11.28125 51.796875 
Q 16.75 56 26.8125 56 
Q 31.78125 56 36.171875 55.265625 
Q 40.578125 54.546875 44.28125 53.078125 
z
" id="DejaVuSans-115"/>
     <path d="M 19.671875 34.8125 
L 19.671875 8.109375 
L 35.5 8.109375 
Q 43.453125 8.109375 47.28125 11.40625 
Q 51.125 14.703125 51.125 21.484375 
Q 51.125 28.328125 47.28125 31.5625 
Q 43.453125 34.8125 35.5 34.8125 
z
M 19.671875 64.796875 
L 19.671875 42.828125 
L 34.28125 42.828125 
Q 41.5 42.828125 45.03125 45.53125 
Q 48.578125 48.25 48.578125 53.8125 
Q 48.578125 59.328125 45.03125 62.0625 
Q 41.5 64.796875 34.28125 64.796875 
z
M 9.8125 72.90625 
L 35.015625 72.90625 
Q 46.296875 72.90625 52.390625 68.21875 
Q 58.5 63.53125 58.5 54.890625 
Q 58.5 48.1875 55.375 44.234375 
Q 52.25 40.28125 46.1875 39.3125 
Q 53.46875 37.75 57.5 32.78125 
Q 61.53125 27.828125 61.53125 20.40625 
Q 61.53125 10.640625 54.890625 5.3125 
Q 48.25 0 35.984375 0 
L 9.8125 0 
z
" id="DejaVuSans-66"/>
     <path d="M 34.28125 27.484375 
Q 23.390625 27.484375 19.1875 25 
Q 14.984375 22.515625 14.984375 16.5 
Q 14.984375 11.71875 18.140625 8.90625 
Q 21.296875 6.109375 26.703125 6.109375 
Q 34.1875 6.109375 38.703125 11.40625 
Q 43.21875 16.703125 43.21875 25.484375 
L 43.21875 27.484375 
z
M 52.203125 31.203125 
L 52.203125 0 
L 43.21875 0 
L 43.21875 8.296875 
Q 40.140625 3.328125 35.546875 0.953125 
Q 30.953125 -1.421875 24.3125 -1.421875 
Q 15.921875 -1.421875 10.953125 3.296875 
Q 6 8.015625 6 15.921875 
Q 6 25.140625 12.171875 29.828125 
Q 18.359375 34.515625 30.609375 34.515625 
L 43.21875 34.515625 
L 43.21875 35.40625 
Q 43.21875 41.609375 39.140625 45 
Q 35.0625 48.390625 27.6875 48.390625 
Q 23 48.390625 18.546875 47.265625 
Q 14.109375 46.140625 10.015625 43.890625 
L 10.015625 52.203125 
Q 14.9375 54.109375 19.578125 55.046875 
Q 24.21875 56 28.609375 56 
Q 40.484375 56 46.34375 49.84375 
Q 52.203125 43.703125 52.203125 31.203125 
z
" id="DejaVuSans-97"/>
     <path d="M 41.109375 46.296875 
Q 39.59375 47.171875 37.8125 47.578125 
Q 36.03125 48 33.890625 48 
Q 26.265625 48 22.1875 43.046875 
Q 18.109375 38.09375 18.109375 28.8125 
L 18.109375 0 
L 9.078125 0 
L 9.078125 54.6875 
L 18.109375 54.6875 
L 18.109375 46.1875 
Q 20.953125 51.171875 25.484375 53.578125 
Q 30.03125 56 36.53125 56 
Q 37.453125 56 38.578125 55.875 
Q 39.703125 55.765625 41.0625 55.515625 
z
" id="DejaVuSans-114"/>
     <path id="DejaVuSans-32"/>
     <path d="M 10.59375 45.40625 
L 73.1875 45.40625 
L 73.1875 37.203125 
L 10.59375 37.203125 
z
M 10.59375 25.484375 
L 73.1875 25.484375 
L 73.1875 17.1875 
L 10.59375 17.1875 
z
" id="DejaVuSans-61"/>
    </defs>
    <g transform="translate(208.365981 51.6)scale(0.12 -0.12)">
     <use xlink:href="#DejaVuSans-105"/>
     <use x="27.783203" xlink:href="#DejaVuSans-115"/>
     <use x="79.882812" xlink:href="#DejaVuSans-66"/>
     <use x="148.486328" xlink:href="#DejaVuSans-97"/>
     <use x="209.765625" xlink:href="#DejaVuSans-114"/>
     <use x="248.628906" xlink:href="#DejaVuSans-101"/>
     <use x="310.152344" xlink:href="#DejaVuSans-32"/>
     <use x="341.939453" xlink:href="#DejaVuSans-61"/>
     <use x="425.728516" xlink:href="#DejaVuSans-32"/>
     <use x="457.515625" xlink:href="#DejaVuSans-49"/>
    </g>
   </g>
  </g>
 </g>
 <defs>
  <clipPath id="pec51807331">
   <rect height="316.8" width="316.113488" x="81.577674" y="57.6"/>
  </clipPath>
 </defs>
</svg>
