<?xml version="1.0" encoding="utf-8" standalone="no"?>
<!DOCTYPE svg PUBLIC "-//W3C//DTD SVG 1.1//EN"
  "http://www.w3.org/Graphics/SVG/1.1/DTD/svg11.dtd">
<!-- Created with matplotlib (https://matplotlib.org/) -->
<svg height="432pt" version="1.1" viewBox="0 0 438.48 432" width="438.48pt" xmlns="http://www.w3.org/2000/svg" xmlns:xlink="http://www.w3.org/1999/xlink">
 <defs>
  <style type="text/css">
*{stroke-linecap:butt;stroke-linejoin:round;}
  </style>
 </defs>
 <g id="figure_1">
  <g id="patch_1">
   <path d="M 0 432 
L 438.48 432 
L 438.48 0 
L 0 0 
z
" style="fill:#ffffff;"/>
  </g>
  <g id="axes_1">
   <g id="patch_2">
    <path d="M 81.577674 374.4 
L 397.691163 374.4 
L 397.691163 57.6 
L 81.577674 57.6 
z
" style="fill:#ffffff;"/>
   </g>
   <g id="matplotlib.axis_1">
    <g id="xtick_1">
     <g id="line2d_1">
      <path clip-path="url(#pcc3b6ddc6f)" d="M 81.577674 374.4 
L 81.577674 57.6 
" style="fill:none;stroke:#000000;stroke-linecap:square;stroke-width:0.8;"/>
     </g>
     <g id="line2d_2">
      <defs>
       <path d="M 0 0 
L 0 3.5 
" id="m1154170cb7" style="stroke:#000000;stroke-width:0.8;"/>
      </defs>
      <g>
       <use style="stroke:#000000;stroke-width:0.8;" x="81.577674" xlink:href="#m1154170cb7" y="374.4"/>
      </g>
     </g>
     <g id="text_1">
      <!-- 2.5 -->
      <defs>
       <path d="M 19.1875 8.296875 
L 53.609375 8.296875 
L 53.609375 0 
L 7.328125 0 
L 7.328125 8.296875 
Q 12.9375 14.109375 22.625 23.890625 
Q 32.328125 33.6875 34.8125 36.53125 
Q 39.546875 41.84375 41.421875 45.53125 
Q 43.3125 49.21875 43.3125 52.78125 
Q 43.3125 58.59375 39.234375 62.25 
Q 35.15625 65.921875 28.609375 65.921875 
Q 23.96875 65.921875 18.8125 64.3125 
Q 13.671875 62.703125 7.8125 59.421875 
L 7.8125 69.390625 
Q 13.765625 71.78125 18.9375 73 
Q 24.125 74.21875 28.421875 74.21875 
Q 39.75 74.21875 46.484375 68.546875 
Q 53.21875 62.890625 53.21875 53.421875 
Q 53.21875 48.921875 51.53125 44.890625 
Q 49.859375 40.875 45.40625 35.40625 
Q 44.1875 33.984375 37.640625 27.21875 
Q 31.109375 20.453125 19.1875 8.296875 
z
" id="DejaVuSans-50"/>
       <path d="M 10.6875 12.40625 
L 21 12.40625 
L 21 0 
L 10.6875 0 
z
" id="DejaVuSans-46"/>
       <path d="M 10.796875 72.90625 
L 49.515625 72.90625 
L 49.515625 64.59375 
L 19.828125 64.59375 
L 19.828125 46.734375 
Q 21.96875 47.46875 24.109375 47.828125 
Q 26.265625 48.1875 28.421875 48.1875 
Q 40.625 48.1875 47.75 41.5 
Q 54.890625 34.8125 54.890625 23.390625 
Q 54.890625 11.625 47.5625 5.09375 
Q 40.234375 -1.421875 26.90625 -1.421875 
Q 22.3125 -1.421875 17.546875 -0.640625 
Q 12.796875 0.140625 7.71875 1.703125 
L 7.71875 11.625 
Q 12.109375 9.234375 16.796875 8.0625 
Q 21.484375 6.890625 26.703125 6.890625 
Q 35.15625 6.890625 40.078125 11.328125 
Q 45.015625 15.765625 45.015625 23.390625 
Q 45.015625 31 40.078125 35.4375 
Q 35.15625 39.890625 26.703125 39.890625 
Q 22.75 39.890625 18.8125 39.015625 
Q 14.890625 38.140625 10.796875 36.28125 
z
" id="DejaVuSans-53"/>
      </defs>
      <g transform="translate(73.626112 388.998438)scale(0.1 -0.1)">
       <use xlink:href="#DejaVuSans-50"/>
       <use x="63.623047" xlink:href="#DejaVuSans-46"/>
       <use x="95.410156" xlink:href="#DejaVuSans-53"/>
      </g>
     </g>
    </g>
    <g id="xtick_2">
     <g id="line2d_3">
      <path clip-path="url(#pcc3b6ddc6f)" d="M 144.800372 374.4 
L 144.800372 57.6 
" style="fill:none;stroke:#000000;stroke-linecap:square;stroke-width:0.8;"/>
     </g>
     <g id="line2d_4">
      <g>
       <use style="stroke:#000000;stroke-width:0.8;" x="144.800372" xlink:href="#m1154170cb7" y="374.4"/>
      </g>
     </g>
     <g id="text_2">
      <!-- 3.0 -->
      <defs>
       <path d="M 40.578125 39.3125 
Q 47.65625 37.796875 51.625 33 
Q 55.609375 28.21875 55.609375 21.1875 
Q 55.609375 10.40625 48.1875 4.484375 
Q 40.765625 -1.421875 27.09375 -1.421875 
Q 22.515625 -1.421875 17.65625 -0.515625 
Q 12.796875 0.390625 7.625 2.203125 
L 7.625 11.71875 
Q 11.71875 9.328125 16.59375 8.109375 
Q 21.484375 6.890625 26.8125 6.890625 
Q 36.078125 6.890625 40.9375 10.546875 
Q 45.796875 14.203125 45.796875 21.1875 
Q 45.796875 27.640625 41.28125 31.265625 
Q 36.765625 34.90625 28.71875 34.90625 
L 20.21875 34.90625 
L 20.21875 43.015625 
L 29.109375 43.015625 
Q 36.375 43.015625 40.234375 45.921875 
Q 44.09375 48.828125 44.09375 54.296875 
Q 44.09375 59.90625 40.109375 62.90625 
Q 36.140625 65.921875 28.71875 65.921875 
Q 24.65625 65.921875 20.015625 65.03125 
Q 15.375 64.15625 9.8125 62.3125 
L 9.8125 71.09375 
Q 15.4375 72.65625 20.34375 73.4375 
Q 25.25 74.21875 29.59375 74.21875 
Q 40.828125 74.21875 47.359375 69.109375 
Q 53.90625 64.015625 53.90625 55.328125 
Q 53.90625 49.265625 50.4375 45.09375 
Q 46.96875 40.921875 40.578125 39.3125 
z
" id="DejaVuSans-51"/>
       <path d="M 31.78125 66.40625 
Q 24.171875 66.40625 20.328125 58.90625 
Q 16.5 51.421875 16.5 36.375 
Q 16.5 21.390625 20.328125 13.890625 
Q 24.171875 6.390625 31.78125 6.390625 
Q 39.453125 6.390625 43.28125 13.890625 
Q 47.125 21.390625 47.125 36.375 
Q 47.125 51.421875 43.28125 58.90625 
Q 39.453125 66.40625 31.78125 66.40625 
z
M 31.78125 74.21875 
Q 44.046875 74.21875 50.515625 64.515625 
Q 56.984375 54.828125 56.984375 36.375 
Q 56.984375 17.96875 50.515625 8.265625 
Q 44.046875 -1.421875 31.78125 -1.421875 
Q 19.53125 -1.421875 13.0625 8.265625 
Q 6.59375 17.96875 6.59375 36.375 
Q 6.59375 54.828125 13.0625 64.515625 
Q 19.53125 74.21875 31.78125 74.21875 
z
" id="DejaVuSans-48"/>
      </defs>
      <g transform="translate(136.84881 388.998438)scale(0.1 -0.1)">
       <use xlink:href="#DejaVuSans-51"/>
       <use x="63.623047" xlink:href="#DejaVuSans-46"/>
       <use x="95.410156" xlink:href="#DejaVuSans-48"/>
      </g>
     </g>
    </g>
    <g id="xtick_3">
     <g id="line2d_5">
      <path clip-path="url(#pcc3b6ddc6f)" d="M 208.02307 374.4 
L 208.02307 57.6 
" style="fill:none;stroke:#000000;stroke-linecap:square;stroke-width:0.8;"/>
     </g>
     <g id="line2d_6">
      <g>
       <use style="stroke:#000000;stroke-width:0.8;" x="208.02307" xlink:href="#m1154170cb7" y="374.4"/>
      </g>
     </g>
     <g id="text_3">
      <!-- 3.5 -->
      <g transform="translate(200.071507 388.998438)scale(0.1 -0.1)">
       <use xlink:href="#DejaVuSans-51"/>
       <use x="63.623047" xlink:href="#DejaVuSans-46"/>
       <use x="95.410156" xlink:href="#DejaVuSans-53"/>
      </g>
     </g>
    </g>
    <g id="xtick_4">
     <g id="line2d_7">
      <path clip-path="url(#pcc3b6ddc6f)" d="M 271.245767 374.4 
L 271.245767 57.6 
" style="fill:none;stroke:#000000;stroke-linecap:square;stroke-width:0.8;"/>
     </g>
     <g id="line2d_8">
      <g>
       <use style="stroke:#000000;stroke-width:0.8;" x="271.245767" xlink:href="#m1154170cb7" y="374.4"/>
      </g>
     </g>
     <g id="text_4">
      <!-- 4.0 -->
      <defs>
       <path d="M 37.796875 64.3125 
L 12.890625 25.390625 
L 37.796875 25.390625 
z
M 35.203125 72.90625 
L 47.609375 72.90625 
L 47.609375 25.390625 
L 58.015625 25.390625 
L 58.015625 17.1875 
L 47.609375 17.1875 
L 47.609375 0 
L 37.796875 0 
L 37.796875 17.1875 
L 4.890625 17.1875 
L 4.890625 26.703125 
z
" id="DejaVuSans-52"/>
      </defs>
      <g transform="translate(263.294205 388.998438)scale(0.1 -0.1)">
       <use xlink:href="#DejaVuSans-52"/>
       <use x="63.623047" xlink:href="#DejaVuSans-46"/>
       <use x="95.410156" xlink:href="#DejaVuSans-48"/>
      </g>
     </g>
    </g>
    <g id="xtick_5">
     <g id="line2d_9">
      <path clip-path="url(#pcc3b6ddc6f)" d="M 334.468465 374.4 
L 334.468465 57.6 
" style="fill:none;stroke:#000000;stroke-linecap:square;stroke-width:0.8;"/>
     </g>
     <g id="line2d_10">
      <g>
       <use style="stroke:#000000;stroke-width:0.8;" x="334.468465" xlink:href="#m1154170cb7" y="374.4"/>
      </g>
     </g>
     <g id="text_5">
      <!-- 4.5 -->
      <g transform="translate(326.516903 388.998438)scale(0.1 -0.1)">
       <use xlink:href="#DejaVuSans-52"/>
       <use x="63.623047" xlink:href="#DejaVuSans-46"/>
       <use x="95.410156" xlink:href="#DejaVuSans-53"/>
      </g>
     </g>
    </g>
    <g id="xtick_6">
     <g id="line2d_11">
      <path clip-path="url(#pcc3b6ddc6f)" d="M 397.691163 374.4 
L 397.691163 57.6 
" style="fill:none;stroke:#000000;stroke-linecap:square;stroke-width:0.8;"/>
     </g>
     <g id="line2d_12">
      <g>
       <use style="stroke:#000000;stroke-width:0.8;" x="397.691163" xlink:href="#m1154170cb7" y="374.4"/>
      </g>
     </g>
     <g id="text_6">
      <!-- 5.0 -->
      <g transform="translate(389.7396 388.998438)scale(0.1 -0.1)">
       <use xlink:href="#DejaVuSans-53"/>
       <use x="63.623047" xlink:href="#DejaVuSans-46"/>
       <use x="95.410156" xlink:href="#DejaVuSans-48"/>
      </g>
     </g>
    </g>
    <g id="text_7">
     <!-- Omeg -->
     <defs>
      <path d="M 39.40625 66.21875 
Q 28.65625 66.21875 22.328125 58.203125 
Q 16.015625 50.203125 16.015625 36.375 
Q 16.015625 22.609375 22.328125 14.59375 
Q 28.65625 6.59375 39.40625 6.59375 
Q 50.140625 6.59375 56.421875 14.59375 
Q 62.703125 22.609375 62.703125 36.375 
Q 62.703125 50.203125 56.421875 58.203125 
Q 50.140625 66.21875 39.40625 66.21875 
z
M 39.40625 74.21875 
Q 54.734375 74.21875 63.90625 63.9375 
Q 73.09375 53.65625 73.09375 36.375 
Q 73.09375 19.140625 63.90625 8.859375 
Q 54.734375 -1.421875 39.40625 -1.421875 
Q 24.03125 -1.421875 14.8125 8.828125 
Q 5.609375 19.09375 5.609375 36.375 
Q 5.609375 53.65625 14.8125 63.9375 
Q 24.03125 74.21875 39.40625 74.21875 
z
" id="DejaVuSans-79"/>
      <path d="M 52 44.1875 
Q 55.375 50.25 60.0625 53.125 
Q 64.75 56 71.09375 56 
Q 79.640625 56 84.28125 50.015625 
Q 88.921875 44.046875 88.921875 33.015625 
L 88.921875 0 
L 79.890625 0 
L 79.890625 32.71875 
Q 79.890625 40.578125 77.09375 44.375 
Q 74.3125 48.1875 68.609375 48.1875 
Q 61.625 48.1875 57.5625 43.546875 
Q 53.515625 38.921875 53.515625 30.90625 
L 53.515625 0 
L 44.484375 0 
L 44.484375 32.71875 
Q 44.484375 40.625 41.703125 44.40625 
Q 38.921875 48.1875 33.109375 48.1875 
Q 26.21875 48.1875 22.15625 43.53125 
Q 18.109375 38.875 18.109375 30.90625 
L 18.109375 0 
L 9.078125 0 
L 9.078125 54.6875 
L 18.109375 54.6875 
L 18.109375 46.1875 
Q 21.1875 51.21875 25.484375 53.609375 
Q 29.78125 56 35.6875 56 
Q 41.65625 56 45.828125 52.96875 
Q 50 49.953125 52 44.1875 
z
" id="DejaVuSans-109"/>
      <path d="M 56.203125 29.59375 
L 56.203125 25.203125 
L 14.890625 25.203125 
Q 15.484375 15.921875 20.484375 11.0625 
Q 25.484375 6.203125 34.421875 6.203125 
Q 39.59375 6.203125 44.453125 7.46875 
Q 49.3125 8.734375 54.109375 11.28125 
L 54.109375 2.78125 
Q 49.265625 0.734375 44.1875 -0.34375 
Q 39.109375 -1.421875 33.890625 -1.421875 
Q 20.796875 -1.421875 13.15625 6.1875 
Q 5.515625 13.8125 5.515625 26.8125 
Q 5.515625 40.234375 12.765625 48.109375 
Q 20.015625 56 32.328125 56 
Q 43.359375 56 49.78125 48.890625 
Q 56.203125 41.796875 56.203125 29.59375 
z
M 47.21875 32.234375 
Q 47.125 39.59375 43.09375 43.984375 
Q 39.0625 48.390625 32.421875 48.390625 
Q 24.90625 48.390625 20.390625 44.140625 
Q 15.875 39.890625 15.1875 32.171875 
z
" id="DejaVuSans-101"/>
      <path d="M 45.40625 27.984375 
Q 45.40625 37.75 41.375 43.109375 
Q 37.359375 48.484375 30.078125 48.484375 
Q 22.859375 48.484375 18.828125 43.109375 
Q 14.796875 37.75 14.796875 27.984375 
Q 14.796875 18.265625 18.828125 12.890625 
Q 22.859375 7.515625 30.078125 7.515625 
Q 37.359375 7.515625 41.375 12.890625 
Q 45.40625 18.265625 45.40625 27.984375 
z
M 54.390625 6.78125 
Q 54.390625 -7.171875 48.1875 -13.984375 
Q 42 -20.796875 29.203125 -20.796875 
Q 24.46875 -20.796875 20.265625 -20.09375 
Q 16.0625 -19.390625 12.109375 -17.921875 
L 12.109375 -9.1875 
Q 16.0625 -11.328125 19.921875 -12.34375 
Q 23.78125 -13.375 27.78125 -13.375 
Q 36.625 -13.375 41.015625 -8.765625 
Q 45.40625 -4.15625 45.40625 5.171875 
L 45.40625 9.625 
Q 42.625 4.78125 38.28125 2.390625 
Q 33.9375 0 27.875 0 
Q 17.828125 0 11.671875 7.65625 
Q 5.515625 15.328125 5.515625 27.984375 
Q 5.515625 40.671875 11.671875 48.328125 
Q 17.828125 56 27.875 56 
Q 33.9375 56 38.28125 53.609375 
Q 42.625 51.21875 45.40625 46.390625 
L 45.40625 54.6875 
L 54.390625 54.6875 
z
" id="DejaVuSans-103"/>
     </defs>
     <g transform="translate(224.577387 402.676563)scale(0.1 -0.1)">
      <use xlink:href="#DejaVuSans-79"/>
      <use x="78.710938" xlink:href="#DejaVuSans-109"/>
      <use x="176.123047" xlink:href="#DejaVuSans-101"/>
      <use x="237.646484" xlink:href="#DejaVuSans-103"/>
     </g>
    </g>
   </g>
   <g id="matplotlib.axis_2">
    <g id="ytick_1">
     <g id="line2d_13">
      <path clip-path="url(#pcc3b6ddc6f)" d="M 81.577674 374.4 
L 397.691163 374.4 
" style="fill:none;stroke:#000000;stroke-linecap:square;stroke-width:0.8;"/>
     </g>
     <g id="line2d_14">
      <defs>
       <path d="M 0 0 
L -3.5 0 
" id="m6cd1257795" style="stroke:#000000;stroke-width:0.8;"/>
      </defs>
      <g>
       <use style="stroke:#000000;stroke-width:0.8;" x="81.577674" xlink:href="#m6cd1257795" y="374.4"/>
      </g>
     </g>
     <g id="text_8">
      <!-- 0.8 -->
      <defs>
       <path d="M 31.78125 34.625 
Q 24.75 34.625 20.71875 30.859375 
Q 16.703125 27.09375 16.703125 20.515625 
Q 16.703125 13.921875 20.71875 10.15625 
Q 24.75 6.390625 31.78125 6.390625 
Q 38.8125 6.390625 42.859375 10.171875 
Q 46.921875 13.96875 46.921875 20.515625 
Q 46.921875 27.09375 42.890625 30.859375 
Q 38.875 34.625 31.78125 34.625 
z
M 21.921875 38.8125 
Q 15.578125 40.375 12.03125 44.71875 
Q 8.5 49.078125 8.5 55.328125 
Q 8.5 64.0625 14.71875 69.140625 
Q 20.953125 74.21875 31.78125 74.21875 
Q 42.671875 74.21875 48.875 69.140625 
Q 55.078125 64.0625 55.078125 55.328125 
Q 55.078125 49.078125 51.53125 44.71875 
Q 48 40.375 41.703125 38.8125 
Q 48.828125 37.15625 52.796875 32.3125 
Q 56.78125 27.484375 56.78125 20.515625 
Q 56.78125 9.90625 50.3125 4.234375 
Q 43.84375 -1.421875 31.78125 -1.421875 
Q 19.734375 -1.421875 13.25 4.234375 
Q 6.78125 9.90625 6.78125 20.515625 
Q 6.78125 27.484375 10.78125 32.3125 
Q 14.796875 37.15625 21.921875 38.8125 
z
M 18.3125 54.390625 
Q 18.3125 48.734375 21.84375 45.5625 
Q 25.390625 42.390625 31.78125 42.390625 
Q 38.140625 42.390625 41.71875 45.5625 
Q 45.3125 48.734375 45.3125 54.390625 
Q 45.3125 60.0625 41.71875 63.234375 
Q 38.140625 66.40625 31.78125 66.40625 
Q 25.390625 66.40625 21.84375 63.234375 
Q 18.3125 60.0625 18.3125 54.390625 
z
" id="DejaVuSans-56"/>
      </defs>
      <g transform="translate(58.674549 378.199219)scale(0.1 -0.1)">
       <use xlink:href="#DejaVuSans-48"/>
       <use x="63.623047" xlink:href="#DejaVuSans-46"/>
       <use x="95.410156" xlink:href="#DejaVuSans-56"/>
      </g>
     </g>
    </g>
    <g id="ytick_2">
     <g id="line2d_15">
      <path clip-path="url(#pcc3b6ddc6f)" d="M 81.577674 329.142857 
L 397.691163 329.142857 
" style="fill:none;stroke:#000000;stroke-linecap:square;stroke-width:0.8;"/>
     </g>
     <g id="line2d_16">
      <g>
       <use style="stroke:#000000;stroke-width:0.8;" x="81.577674" xlink:href="#m6cd1257795" y="329.142857"/>
      </g>
     </g>
     <g id="text_9">
      <!-- 1.0 -->
      <defs>
       <path d="M 12.40625 8.296875 
L 28.515625 8.296875 
L 28.515625 63.921875 
L 10.984375 60.40625 
L 10.984375 69.390625 
L 28.421875 72.90625 
L 38.28125 72.90625 
L 38.28125 8.296875 
L 54.390625 8.296875 
L 54.390625 0 
L 12.40625 0 
z
" id="DejaVuSans-49"/>
      </defs>
      <g transform="translate(58.674549 332.942076)scale(0.1 -0.1)">
       <use xlink:href="#DejaVuSans-49"/>
       <use x="63.623047" xlink:href="#DejaVuSans-46"/>
       <use x="95.410156" xlink:href="#DejaVuSans-48"/>
      </g>
     </g>
    </g>
    <g id="ytick_3">
     <g id="line2d_17">
      <path clip-path="url(#pcc3b6ddc6f)" d="M 81.577674 283.885714 
L 397.691163 283.885714 
" style="fill:none;stroke:#000000;stroke-linecap:square;stroke-width:0.8;"/>
     </g>
     <g id="line2d_18">
      <g>
       <use style="stroke:#000000;stroke-width:0.8;" x="81.577674" xlink:href="#m6cd1257795" y="283.885714"/>
      </g>
     </g>
     <g id="text_10">
      <!-- 1.2 -->
      <g transform="translate(58.674549 287.684933)scale(0.1 -0.1)">
       <use xlink:href="#DejaVuSans-49"/>
       <use x="63.623047" xlink:href="#DejaVuSans-46"/>
       <use x="95.410156" xlink:href="#DejaVuSans-50"/>
      </g>
     </g>
    </g>
    <g id="ytick_4">
     <g id="line2d_19">
      <path clip-path="url(#pcc3b6ddc6f)" d="M 81.577674 238.628571 
L 397.691163 238.628571 
" style="fill:none;stroke:#000000;stroke-linecap:square;stroke-width:0.8;"/>
     </g>
     <g id="line2d_20">
      <g>
       <use style="stroke:#000000;stroke-width:0.8;" x="81.577674" xlink:href="#m6cd1257795" y="238.628571"/>
      </g>
     </g>
     <g id="text_11">
      <!-- 1.4 -->
      <g transform="translate(58.674549 242.42779)scale(0.1 -0.1)">
       <use xlink:href="#DejaVuSans-49"/>
       <use x="63.623047" xlink:href="#DejaVuSans-46"/>
       <use x="95.410156" xlink:href="#DejaVuSans-52"/>
      </g>
     </g>
    </g>
    <g id="ytick_5">
     <g id="line2d_21">
      <path clip-path="url(#pcc3b6ddc6f)" d="M 81.577674 193.371429 
L 397.691163 193.371429 
" style="fill:none;stroke:#000000;stroke-linecap:square;stroke-width:0.8;"/>
     </g>
     <g id="line2d_22">
      <g>
       <use style="stroke:#000000;stroke-width:0.8;" x="81.577674" xlink:href="#m6cd1257795" y="193.371429"/>
      </g>
     </g>
     <g id="text_12">
      <!-- 1.6 -->
      <defs>
       <path d="M 33.015625 40.375 
Q 26.375 40.375 22.484375 35.828125 
Q 18.609375 31.296875 18.609375 23.390625 
Q 18.609375 15.53125 22.484375 10.953125 
Q 26.375 6.390625 33.015625 6.390625 
Q 39.65625 6.390625 43.53125 10.953125 
Q 47.40625 15.53125 47.40625 23.390625 
Q 47.40625 31.296875 43.53125 35.828125 
Q 39.65625 40.375 33.015625 40.375 
z
M 52.59375 71.296875 
L 52.59375 62.3125 
Q 48.875 64.0625 45.09375 64.984375 
Q 41.3125 65.921875 37.59375 65.921875 
Q 27.828125 65.921875 22.671875 59.328125 
Q 17.53125 52.734375 16.796875 39.40625 
Q 19.671875 43.65625 24.015625 45.921875 
Q 28.375 48.1875 33.59375 48.1875 
Q 44.578125 48.1875 50.953125 41.515625 
Q 57.328125 34.859375 57.328125 23.390625 
Q 57.328125 12.15625 50.6875 5.359375 
Q 44.046875 -1.421875 33.015625 -1.421875 
Q 20.359375 -1.421875 13.671875 8.265625 
Q 6.984375 17.96875 6.984375 36.375 
Q 6.984375 53.65625 15.1875 63.9375 
Q 23.390625 74.21875 37.203125 74.21875 
Q 40.921875 74.21875 44.703125 73.484375 
Q 48.484375 72.75 52.59375 71.296875 
z
" id="DejaVuSans-54"/>
      </defs>
      <g transform="translate(58.674549 197.170647)scale(0.1 -0.1)">
       <use xlink:href="#DejaVuSans-49"/>
       <use x="63.623047" xlink:href="#DejaVuSans-46"/>
       <use x="95.410156" xlink:href="#DejaVuSans-54"/>
      </g>
     </g>
    </g>
    <g id="ytick_6">
     <g id="line2d_23">
      <path clip-path="url(#pcc3b6ddc6f)" d="M 81.577674 148.114286 
L 397.691163 148.114286 
" style="fill:none;stroke:#000000;stroke-linecap:square;stroke-width:0.8;"/>
     </g>
     <g id="line2d_24">
      <g>
       <use style="stroke:#000000;stroke-width:0.8;" x="81.577674" xlink:href="#m6cd1257795" y="148.114286"/>
      </g>
     </g>
     <g id="text_13">
      <!-- 1.8 -->
      <g transform="translate(58.674549 151.913504)scale(0.1 -0.1)">
       <use xlink:href="#DejaVuSans-49"/>
       <use x="63.623047" xlink:href="#DejaVuSans-46"/>
       <use x="95.410156" xlink:href="#DejaVuSans-56"/>
      </g>
     </g>
    </g>
    <g id="ytick_7">
     <g id="line2d_25">
      <path clip-path="url(#pcc3b6ddc6f)" d="M 81.577674 102.857143 
L 397.691163 102.857143 
" style="fill:none;stroke:#000000;stroke-linecap:square;stroke-width:0.8;"/>
     </g>
     <g id="line2d_26">
      <g>
       <use style="stroke:#000000;stroke-width:0.8;" x="81.577674" xlink:href="#m6cd1257795" y="102.857143"/>
      </g>
     </g>
     <g id="text_14">
      <!-- 2.0 -->
      <g transform="translate(58.674549 106.656362)scale(0.1 -0.1)">
       <use xlink:href="#DejaVuSans-50"/>
       <use x="63.623047" xlink:href="#DejaVuSans-46"/>
       <use x="95.410156" xlink:href="#DejaVuSans-48"/>
      </g>
     </g>
    </g>
    <g id="ytick_8">
     <g id="line2d_27">
      <path clip-path="url(#pcc3b6ddc6f)" d="M 81.577674 57.6 
L 397.691163 57.6 
" style="fill:none;stroke:#000000;stroke-linecap:square;stroke-width:0.8;"/>
     </g>
     <g id="line2d_28">
      <g>
       <use style="stroke:#000000;stroke-width:0.8;" x="81.577674" xlink:href="#m6cd1257795" y="57.6"/>
      </g>
     </g>
     <g id="text_15">
      <!-- 2.2 -->
      <g transform="translate(58.674549 61.399219)scale(0.1 -0.1)">
       <use xlink:href="#DejaVuSans-50"/>
       <use x="63.623047" xlink:href="#DejaVuSans-46"/>
       <use x="95.410156" xlink:href="#DejaVuSans-50"/>
      </g>
     </g>
    </g>
    <g id="text_16">
     <!-- Amplitude -->
     <defs>
      <path d="M 34.1875 63.1875 
L 20.796875 26.90625 
L 47.609375 26.90625 
z
M 28.609375 72.90625 
L 39.796875 72.90625 
L 67.578125 0 
L 57.328125 0 
L 50.6875 18.703125 
L 17.828125 18.703125 
L 11.1875 0 
L 0.78125 0 
z
" id="DejaVuSans-65"/>
      <path d="M 18.109375 8.203125 
L 18.109375 -20.796875 
L 9.078125 -20.796875 
L 9.078125 54.6875 
L 18.109375 54.6875 
L 18.109375 46.390625 
Q 20.953125 51.265625 25.265625 53.625 
Q 29.59375 56 35.59375 56 
Q 45.5625 56 51.78125 48.09375 
Q 58.015625 40.1875 58.015625 27.296875 
Q 58.015625 14.40625 51.78125 6.484375 
Q 45.5625 -1.421875 35.59375 -1.421875 
Q 29.59375 -1.421875 25.265625 0.953125 
Q 20.953125 3.328125 18.109375 8.203125 
z
M 48.6875 27.296875 
Q 48.6875 37.203125 44.609375 42.84375 
Q 40.53125 48.484375 33.40625 48.484375 
Q 26.265625 48.484375 22.1875 42.84375 
Q 18.109375 37.203125 18.109375 27.296875 
Q 18.109375 17.390625 22.1875 11.75 
Q 26.265625 6.109375 33.40625 6.109375 
Q 40.53125 6.109375 44.609375 11.75 
Q 48.6875 17.390625 48.6875 27.296875 
z
" id="DejaVuSans-112"/>
      <path d="M 9.421875 75.984375 
L 18.40625 75.984375 
L 18.40625 0 
L 9.421875 0 
z
" id="DejaVuSans-108"/>
      <path d="M 9.421875 54.6875 
L 18.40625 54.6875 
L 18.40625 0 
L 9.421875 0 
z
M 9.421875 75.984375 
L 18.40625 75.984375 
L 18.40625 64.59375 
L 9.421875 64.59375 
z
" id="DejaVuSans-105"/>
      <path d="M 18.3125 70.21875 
L 18.3125 54.6875 
L 36.8125 54.6875 
L 36.8125 47.703125 
L 18.3125 47.703125 
L 18.3125 18.015625 
Q 18.3125 11.328125 20.140625 9.421875 
Q 21.96875 7.515625 27.59375 7.515625 
L 36.8125 7.515625 
L 36.8125 0 
L 27.59375 0 
Q 17.1875 0 13.234375 3.875 
Q 9.28125 7.765625 9.28125 18.015625 
L 9.28125 47.703125 
L 2.6875 47.703125 
L 2.6875 54.6875 
L 9.28125 54.6875 
L 9.28125 70.21875 
z
" id="DejaVuSans-116"/>
      <path d="M 8.5 21.578125 
L 8.5 54.6875 
L 17.484375 54.6875 
L 17.484375 21.921875 
Q 17.484375 14.15625 20.5 10.265625 
Q 23.53125 6.390625 29.59375 6.390625 
Q 36.859375 6.390625 41.078125 11.03125 
Q 45.3125 15.671875 45.3125 23.6875 
L 45.3125 54.6875 
L 54.296875 54.6875 
L 54.296875 0 
L 45.3125 0 
L 45.3125 8.40625 
Q 42.046875 3.421875 37.71875 1 
Q 33.40625 -1.421875 27.6875 -1.421875 
Q 18.265625 -1.421875 13.375 4.4375 
Q 8.5 10.296875 8.5 21.578125 
z
M 31.109375 56 
z
" id="DejaVuSans-117"/>
      <path d="M 45.40625 46.390625 
L 45.40625 75.984375 
L 54.390625 75.984375 
L 54.390625 0 
L 45.40625 0 
L 45.40625 8.203125 
Q 42.578125 3.328125 38.25 0.953125 
Q 33.9375 -1.421875 27.875 -1.421875 
Q 17.96875 -1.421875 11.734375 6.484375 
Q 5.515625 14.40625 5.515625 27.296875 
Q 5.515625 40.1875 11.734375 48.09375 
Q 17.96875 56 27.875 56 
Q 33.9375 56 38.25 53.625 
Q 42.578125 51.265625 45.40625 46.390625 
z
M 14.796875 27.296875 
Q 14.796875 17.390625 18.875 11.75 
Q 22.953125 6.109375 30.078125 6.109375 
Q 37.203125 6.109375 41.296875 11.75 
Q 45.40625 17.390625 45.40625 27.296875 
Q 45.40625 37.203125 41.296875 42.84375 
Q 37.203125 48.484375 30.078125 48.484375 
Q 22.953125 48.484375 18.875 42.84375 
Q 14.796875 37.203125 14.796875 27.296875 
z
" id="DejaVuSans-100"/>
     </defs>
     <g transform="translate(52.594862 241.622656)rotate(-90)scale(0.1 -0.1)">
      <use xlink:href="#DejaVuSans-65"/>
      <use x="68.408203" xlink:href="#DejaVuSans-109"/>
      <use x="165.820312" xlink:href="#DejaVuSans-112"/>
      <use x="229.296875" xlink:href="#DejaVuSans-108"/>
      <use x="257.080078" xlink:href="#DejaVuSans-105"/>
      <use x="284.863281" xlink:href="#DejaVuSans-116"/>
      <use x="324.072266" xlink:href="#DejaVuSans-117"/>
      <use x="387.451172" xlink:href="#DejaVuSans-100"/>
      <use x="450.927734" xlink:href="#DejaVuSans-101"/>
     </g>
    </g>
   </g>
   <g id="line2d_29">
    <path clip-path="url(#pcc3b6ddc6f)" d="M 81.393292 75.603403 
L 84.301091 65.561342 
L 87.10851 55.42864 
L 92.435577 34.918092 
L 97.401481 14.121024 
L 100.755909 -1 
L 100.755909 -1 
" style="fill:none;stroke:#000000;stroke-linecap:square;stroke-width:2;"/>
   </g>
   <g id="line2d_30">
    <path clip-path="url(#pcc3b6ddc6f)" d="M 155.686408 -1 
L 152.618896 19.416744 
L 149.008137 41.087541 
L 145.016409 62.544916 
L 142.861978 73.176041 
L 140.592848 83.730916 
L 138.201962 94.199803 
L 135.682092 104.571792 
L 133.025933 114.834728 
L 130.226225 124.975156 
L 127.275911 134.97832 
L 124.168322 144.828199 
L 120.897396 154.507624 
L 117.457915 163.998478 
L 113.845753 173.281989 
L 110.05812 182.339126 
L 106.093779 191.151091 
L 101.953204 199.699879 
L 97.638677 207.96888 
L 93.154285 215.943468 
L 88.505832 223.611529 
L 83.700646 230.963877 
L 78.747324 237.994519 
L 73.655417 244.700746 
L 68.435096 251.083059 
L 63.096825 257.144937 
L 57.651065 262.8925 
L 52.108021 268.334087 
L 46.477452 273.479809 
L 40.768525 278.341103 
L 34.989736 282.930312 
L 29.148855 287.260315 
L 23.252929 291.344216 
L 17.308292 295.195079 
L 11.320602 298.825736 
L 5.294889 302.248633 
L -1 305.593455 
L -1 305.593455 
" style="fill:none;stroke:#000000;stroke-dasharray:12,12;stroke-dashoffset:0;stroke-width:2;"/>
   </g>
   <g id="line2d_31">
    <path clip-path="url(#pcc3b6ddc6f)" d="M -1 427.931534 
L -0.465444 428.251961 
L 5.599843 431.442734 
L 8.953136 433 
L 8.953136 433 
" style="fill:none;stroke:#000000;stroke-linecap:square;stroke-width:2;"/>
   </g>
   <g id="line2d_32">
    <path clip-path="url(#pcc3b6ddc6f)" d="M 81.334462 75.801976 
L 84.24429 65.761788 
L 87.053671 55.630819 
L 92.384461 35.123354 
L 97.353821 14.328912 
L 100.755799 -1 
L 100.755799 -1 
" style="fill:none;stroke:#ff0000;stroke-linecap:square;stroke-width:2;"/>
   </g>
   <g id="line2d_33">
    <path clip-path="url(#pcc3b6ddc6f)" d="M 155.683186 -1 
L 152.847154 17.965913 
L 149.260108 39.649204 
L 145.295298 61.122449 
L 143.155637 71.763063 
L 140.902199 82.32864 
L 138.527959 92.809594 
L 136.025705 103.195175 
L 133.388136 113.473396 
L 130.607977 123.630979 
L 127.678136 133.65334 
L 124.591878 143.524621 
L 121.343048 153.227797 
L 117.926301 162.744863 
L 114.337351 172.057112 
L 110.573217 181.145522 
L 106.632443 189.991233 
L 102.515269 198.576101 
L 98.223733 206.883293 
L 93.761687 214.897887 
L 89.134711 222.607408 
L 84.349947 230.00226 
L 79.415838 237.076015 
L 74.341828 243.825528 
L 69.138024 250.250881 
L 63.814869 256.355176 
L 58.38284 262.144201 
L 52.85219 267.626025 
L 47.232744 272.810552 
L 41.533758 277.709064 
L 35.763816 282.333808 
L 29.93079 286.69761 
L 24.041821 290.81356 
L 18.103335 294.69474 
L 12.121081 298.354023 
L 6.100167 301.803914 
L -1 305.583121 
L -1 305.583121 
" style="fill:none;stroke:#ff0000;stroke-dasharray:12,12;stroke-dashoffset:0;stroke-width:2;"/>
   </g>
   <g id="line2d_34">
    <path clip-path="url(#pcc3b6ddc6f)" d="M -1 427.90366 
L 3.178165 430.217247 
L 8.884044 433 
" style="fill:none;stroke:#ff0000;stroke-linecap:square;stroke-width:2;"/>
   </g>
   <g id="line2d_35">
    <path clip-path="url(#pcc3b6ddc6f)" d="M 397.691164 251.808247 
" style="fill:none;stroke:#008000;stroke-linecap:square;stroke-width:2;"/>
   </g>
   <g id="line2d_36">
    <path clip-path="url(#pcc3b6ddc6f)" d="M 397.691164 251.808247 
L 380.292161 257.026944 
L 380.292161 257.026944 
" style="fill:none;stroke:#0000ff;stroke-linecap:square;stroke-width:2;"/>
   </g>
   <g id="line2d_37">
    <path clip-path="url(#pcc3b6ddc6f)" d="M 380.292161 257.026944 
L 357.780531 264.030562 
L 327.969904 273.558778 
L 288.011854 286.597798 
L 258.933211 296.295817 
L 237.228771 303.762223 
L 222.555161 309.027527 
L 210.888364 313.443207 
L 202.680046 316.757928 
L 197.626862 318.938817 
L 197.626862 318.938817 
" style="fill:none;stroke:#0000ff;stroke-dasharray:12,12;stroke-dashoffset:0;stroke-width:2;"/>
   </g>
   <g id="line2d_38">
    <path clip-path="url(#pcc3b6ddc6f)" d="M 197.626862 318.938817 
L 191.828941 321.661044 
L 189.386794 322.942671 
L 189.386794 322.942671 
" style="fill:none;stroke:#0000ff;stroke-linecap:square;stroke-width:2;"/>
   </g>
   <g id="line2d_39">
    <path clip-path="url(#pcc3b6ddc6f)" d="M 189.386794 322.942671 
L 189.517848 322.896341 
L 189.852667 322.88633 
L 190.681429 322.990569 
L 191.893891 322.910341 
L 193.717545 322.542409 
L 196.695598 321.691398 
L 203.361935 319.512336 
L 216.813788 315.092879 
L 230.638368 310.702286 
L 265.156257 299.997086 
L 295.032584 290.613993 
L 317.24893 283.404359 
L 336.9529 276.778968 
L 355.220083 270.40389 
L 372.375094 264.183676 
L 388.81258 257.988554 
L 397.704696 254.532945 
L 397.704696 254.532945 
" style="fill:none;stroke:#0000ff;stroke-dasharray:12,12;stroke-dashoffset:0;stroke-width:2;"/>
   </g>
   <g id="line2d_40">
    <path clip-path="url(#pcc3b6ddc6f)" d="M 271.245777 154.052652 
L 279.027445 147.582785 
L 286.776695 140.849139 
L 294.621874 133.725607 
L 302.159474 126.577505 
L 305.26656 123.541121 
L 305.26656 123.541121 
" style="fill:none;stroke:#000000;stroke-dasharray:12,12;stroke-dashoffset:0;stroke-width:2;"/>
   </g>
   <g id="line2d_41">
    <path clip-path="url(#pcc3b6ddc6f)" d="M 305.26656 123.541121 
L 312.68701 116.069292 
L 320.019425 108.37012 
L 327.254082 100.449555 
L 334.382606 92.313555 
L 341.3979 83.967663 
L 348.294047 75.417513 
L 355.103186 66.618998 
L 361.781922 57.625181 
L 368.224288 48.58577 
L 374.704542 39.114189 
L 381.075168 29.409573 
L 387.362835 19.426378 
L 393.560781 9.167539 
L 397.691163 2.087625 
L 397.691163 2.087625 
" style="fill:none;stroke:#000000;stroke-linecap:square;stroke-width:2;"/>
   </g>
   <g id="line2d_42">
    <path clip-path="url(#pcc3b6ddc6f)" d="M 413.817914 -1 
L 407.594944 10.569994 
L 401.20809 21.964647 
L 394.80756 32.928162 
L 388.343009 43.568375 
L 381.797522 53.925897 
L 374.899959 64.414121 
L 367.945268 74.576583 
L 360.910998 84.458669 
L 353.735992 94.151772 
L 346.601427 103.4245 
L 339.081381 112.824619 
L 331.53736 121.892852 
L 323.905581 130.717862 
L 316.195637 139.296492 
L 308.505134 147.532486 
L 300.363549 155.919978 
L 292.207147 164.000406 
L 283.913459 171.902711 
L 275.541431 179.574798 
L 267.10763 187.009035 
L 258.63111 194.196942 
L 249.648851 201.519152 
L 240.590076 208.612457 
L 231.423675 215.506586 
L 222.175074 222.186807 
L 212.815141 228.677404 
L 203.374808 234.95871 
L 193.889609 241.008865 
L 184.459552 246.76706 
L 175.309127 252.105126 
L 166.422803 257.038438 
L 158.202482 261.351402 
L 151.093262 264.839171 
L 145.051021 267.568301 
L 140.028847 269.602437 
L 135.921088 271.035412 
L 132.5674 271.976281 
L 129.810251 272.527777 
L 127.538917 272.765664 
L 125.5736 272.752258 
L 123.899122 272.524884 
L 122.430052 272.106917 
L 121.079681 271.49297 
L 119.828766 270.679361 
L 118.610845 269.611456 
L 117.411909 268.255936 
L 116.1444 266.47228 
L 114.646594 263.946779 
L 112.625785 260.508455 
L 112.452165 260.396456 
L 112.452165 260.396456 
" style="fill:none;stroke:#000000;stroke-dasharray:12,12;stroke-dashoffset:0;stroke-width:2;"/>
   </g>
   <g id="line2d_43">
    <path clip-path="url(#pcc3b6ddc6f)" d="M 112.452165 260.396456 
L 112.456919 260.370555 
L 112.471189 260.340284 
L 112.493451 260.307551 
L 112.521561 260.273745 
L 112.553767 260.239319 
L 112.588863 260.204754 
" style="fill:none;stroke:#000000;stroke-linecap:square;stroke-width:2;"/>
   </g>
   <g id="line2d_44">
    <path clip-path="url(#pcc3b6ddc6f)" d="M 112.588863 260.204754 
L 113.543193 259.470959 
L 117.569439 256.737578 
L 130.081844 248.571926 
L 152.482139 233.894351 
L 182.861597 213.403555 
L 203.945958 199.163099 
L 211.081655 194.601699 
L 214.140987 192.883151 
L 219.881156 189.725291 
L 226.751635 185.681053 
L 233.9838 181.165204 
L 241.489363 176.214796 
L 248.961584 171.029144 
L 257.516334 164.780879 
L 265.324219 158.786272 
L 271.990353 153.446555 
L 279.755123 146.962659 
L 287.486516 140.216509 
L 295.119664 133.261125 
L 302.54969 126.19794 
L 305.265696 123.54143 
L 305.265696 123.54143 
" style="fill:none;stroke:#000000;stroke-dasharray:12,12;stroke-dashoffset:0;stroke-width:2;"/>
   </g>
   <g id="line2d_45">
    <path clip-path="url(#pcc3b6ddc6f)" d="M 305.265696 123.54143 
L 312.68617 116.071795 
L 319.974853 108.419167 
L 327.168523 100.545841 
L 334.094628 92.649171 
L 341.079803 84.353525 
L 348.101787 75.659948 
L 354.732574 67.106042 
L 361.424438 58.114565 
L 368.63581 47.996972 
L 375.067909 38.572319 
L 381.456825 28.815774 
L 387.821841 18.681228 
L 393.943281 8.519848 
L 397.693701 2.082587 
L 397.693701 2.082587 
" style="fill:none;stroke:#000000;stroke-linecap:square;stroke-width:2;"/>
   </g>
   <g id="line2d_46">
    <path clip-path="url(#pcc3b6ddc6f)" d="M 0 0 
" style="fill:none;stroke:#000000;stroke-dasharray:12,12;stroke-dashoffset:0;stroke-width:2;"/>
   </g>
   <g id="line2d_47">
    <path clip-path="url(#pcc3b6ddc6f)" d="M 271.245777 154.052652 
L 263.396942 160.290469 
L 255.552324 166.24271 
L 247.734183 171.897464 
L 240.022569 177.203091 
L 232.445637 182.147948 
L 225.146697 186.649528 
L 218.215459 190.668721 
L 208.192961 196.405124 
L 200.515001 201.436038 
L 186.737252 210.761105 
L 157.560671 230.512876 
L 139.403778 242.50348 
L 112.816678 260.009587 
L 112.614727 260.180461 
L 112.614727 260.180461 
" style="fill:none;stroke:#ff0000;stroke-dasharray:12,12;stroke-dashoffset:0;stroke-width:2;"/>
   </g>
   <g id="line2d_48">
    <path clip-path="url(#pcc3b6ddc6f)" d="M 112.614727 260.180461 
L 112.57813 260.214984 
L 112.543848 260.24948 
L 112.512791 260.28371 
L 112.4863 260.31724 
L 112.46622 260.349209 
L 112.454585 260.378427 
L 112.452166 260.397023 
" style="fill:none;stroke:#ff0000;stroke-linecap:square;stroke-width:2;"/>
   </g>
   <g id="line2d_49">
    <path clip-path="url(#pcc3b6ddc6f)" d="M 112.452166 260.397023 
L 112.57545 260.489047 
L 112.871265 260.71684 
L 113.475195 261.793565 
L 116.142729 266.469502 
L 117.504298 268.371676 
L 118.766458 269.764604 
L 120.011722 270.814747 
L 121.272377 271.596234 
L 122.630145 272.17763 
L 124.132073 272.571363 
L 125.77385 272.764993 
L 127.650273 272.759339 
L 129.847641 272.522625 
L 132.416531 272.012505 
L 135.500721 271.165748 
L 139.204329 269.910366 
L 143.686161 268.145508 
L 149.112268 265.762243 
L 155.477457 262.717636 
L 162.948644 258.893746 
L 171.392113 254.312248 
L 180.236808 249.261658 
L 189.561814 243.683101 
L 199.081683 237.728828 
L 208.632689 231.49229 
L 218.116276 225.033885 
L 227.441591 218.416035 
L 236.63917 211.618308 
L 245.521949 204.786381 
L 254.34925 197.724609 
L 262.995177 190.531037 
L 271.800448 182.90769 
L 280.822273 174.770078 
L 289.21622 166.885835 
L 297.381944 158.910389 
L 305.364491 150.807147 
L 313.162329 142.582659 
L 321.102216 133.875342 
L 328.835432 125.056447 
L 336.403169 116.084332 
L 344.097175 106.595777 
L 351.148148 97.556603 
L 358.150487 88.233492 
L 365.289755 78.35299 
L 372.721965 67.639958 
L 379.4943 57.474392 
L 386.098246 47.166086 
L 392.035901 37.542662 
L 397.691163 28.04438 
L 397.691163 28.04438 
" style="fill:none;stroke:#ff0000;stroke-dasharray:12,12;stroke-dashoffset:0;stroke-width:2;"/>
   </g>
   <g id="line2d_50">
    <path clip-path="url(#pcc3b6ddc6f)" d="M 399.456571 -1 
L 393.32143 9.571835 
L 387.083169 19.879318 
L 380.752534 29.910714 
L 374.336231 39.662787 
L 367.807474 49.181501 
L 361.206851 58.413972 
L 354.506996 67.40448 
L 347.676328 76.198168 
L 340.758436 84.743136 
L 333.68001 93.130692 
L 326.527954 101.25948 
L 319.269718 109.171898 
L 311.913811 116.8621 
L 305.266254 123.540308 
L 305.266254 123.540308 
" style="fill:none;stroke:#ff0000;stroke-linecap:square;stroke-width:2;"/>
   </g>
   <g id="line2d_51">
    <path clip-path="url(#pcc3b6ddc6f)" d="M 305.266254 123.540308 
L 297.721082 130.822742 
L 289.814058 138.129137 
L 282.091386 144.956978 
L 274.071517 151.737415 
L 266.230557 158.071838 
L 258.386409 164.124773 
L 250.560642 169.884706 
L 242.776705 175.338665 
L 235.172593 180.398294 
L 227.779068 185.055113 
L 220.684537 189.265624 
L 214.489291 192.699319 
L 210.750604 194.801238 
L 205.522822 198.128141 
L 196.013744 204.459324 
L 169.582442 222.430455 
L 150.548932 235.175635 
L 130.49809 248.301533 
L 114.010791 259.140599 
L 112.631197 260.166485 
L 112.631197 260.166485 
" style="fill:none;stroke:#ff0000;stroke-dasharray:12,12;stroke-dashoffset:0;stroke-width:2;"/>
   </g>
   <g id="line2d_52">
    <path clip-path="url(#pcc3b6ddc6f)" d="M 112.631197 260.166485 
L 112.593797 260.200959 
L 112.558417 260.235651 
L 112.525822 260.269992 
L 112.497148 260.303856 
L 112.474027 260.336783 
L 112.458494 260.367335 
L 112.452261 260.394286 
L 112.452168 260.398724 
" style="fill:none;stroke:#ff0000;stroke-linecap:square;stroke-width:2;"/>
   </g>
   <g id="line2d_53">
    <path clip-path="url(#pcc3b6ddc6f)" d="M 112.452168 260.398724 
L 112.575661 260.490291 
L 112.871371 260.717626 
L 113.475284 261.793233 
L 116.004641 266.254047 
L 117.396713 268.236915 
L 118.671486 269.672702 
L 119.89999 270.732071 
L 121.184972 271.551127 
L 122.527939 272.141949 
L 123.983476 272.541662 
L 125.602976 272.755135 
L 127.456144 272.769249 
L 129.63045 272.554359 
L 132.178383 272.069059 
L 135.193519 271.259275 
L 138.826154 270.047487 
L 143.236961 268.332411 
L 148.592947 265.999061 
L 154.948291 262.979597 
L 162.412651 259.175446 
L 170.611845 254.745276 
L 179.575006 249.64804 
L 189.021698 244.013774 
L 198.664646 237.996107 
L 208.397301 231.65024 
L 218.058706 225.074799 
L 227.556122 218.333653 
L 236.918632 211.407602 
L 246.067189 204.357879 
L 255.039578 197.159573 
L 263.769691 189.871551 
L 272.351688 182.419701 
L 280.871176 174.725292 
L 289.075863 167.021026 
L 297.88081 158.413933 
L 306.065163 150.080667 
L 314.34496 141.305918 
L 322.120459 132.733372 
L 329.424955 124.370023 
L 337.197789 115.122571 
L 344.461677 106.137693 
L 351.885011 96.590996 
L 358.522844 87.726933 
L 365.61541 77.892699 
L 372.503409 67.961486 
L 379.284045 57.79633 
L 385.867001 47.534021 
L 392.28715 37.127618 
L 397.691163 28.044658 
L 397.691163 28.044658 
" style="fill:none;stroke:#ff0000;stroke-dasharray:12,12;stroke-dashoffset:0;stroke-width:2;"/>
   </g>
   <g id="line2d_54">
    <path clip-path="url(#pcc3b6ddc6f)" d="M 0 0 
" style="fill:none;stroke:#ff0000;stroke-linecap:square;stroke-width:2;"/>
   </g>
   <g id="line2d_55">
    <path clip-path="url(#pcc3b6ddc6f)" d="M 380.292161 257.026838 
L 380.215502 254.091348 
L 379.919206 250.707702 
L 379.422723 247.62263 
L 378.747654 244.834283 
L 377.914975 242.346869 
L 376.945942 240.155386 
L 375.862599 238.249907 
L 374.687813 236.622628 
L 373.372227 235.176378 
L 371.998642 233.988363 
L 370.505397 232.980579 
L 368.898046 232.150668 
L 367.085133 231.474597 
L 365.057598 230.971336 
L 362.918941 230.680114 
L 360.680629 230.587575 
L 358.116676 230.695838 
L 355.336654 231.033874 
L 352.088999 231.652604 
L 350.758831 231.968084 
L 350.758831 231.968084 
" style="fill:none;stroke:#008000;stroke-linecap:square;stroke-width:2;"/>
   </g>
   <g id="line2d_56">
    <path clip-path="url(#pcc3b6ddc6f)" d="M 350.758831 231.968084 
L 346.856842 233.065506 
L 342.588611 234.504967 
L 337.680283 236.409063 
L 332.398877 238.694823 
L 327.166382 241.19746 
L 319.85267 245.000247 
L 271.627606 270.486091 
L 253.559628 280.311522 
L 239.953609 287.955423 
L 229.172042 294.26131 
L 219.617942 300.126457 
L 211.936212 305.101483 
L 205.64875 309.431107 
L 202.477651 311.868781 
L 200.772892 313.393729 
L 200.772892 313.393729 
" style="fill:none;stroke:#008000;stroke-dasharray:12,12;stroke-dashoffset:0;stroke-width:2;"/>
   </g>
   <g id="line2d_57">
    <path clip-path="url(#pcc3b6ddc6f)" d="M 200.772892 313.393729 
L 200.654701 313.509986 
L 200.53715 313.627484 
L 200.420277 313.746233 
L 200.304127 313.866176 
L 200.188744 313.98757 
L 200.074179 314.110356 
L 199.960484 314.234737 
L 199.847717 314.360437 
L 199.735939 314.487674 
L 199.625216 314.616272 
L 199.51562 314.746769 
L 199.407228 314.87896 
L 199.300126 315.012906 
L 199.194406 315.14863 
L 199.090167 315.286208 
L 198.987522 315.425712 
L 198.88659 315.567172 
L 198.787507 315.710649 
L 198.690419 315.856686 
L 198.595493 316.004412 
L 198.502909 316.154313 
L 198.412871 316.306554 
L 198.325603 316.460933 
L 198.241357 316.617592 
L 198.160408 316.777539 
L 198.083065 316.938634 
L 198.009665 317.101701 
L 197.940578 317.267113 
L 197.876204 317.434848 
L 197.81697 317.6042 
L 197.763327 317.774163 
L 197.715738 317.946448 
L 197.674667 318.119764 
L 197.640557 318.293125 
L 197.613817 318.467165 
L 197.594791 318.640691 
L 197.583741 318.813053 
L 197.581329 318.959054 
L 197.584849 318.78811 
L 197.597081 318.617765 
L 197.617255 318.443931 
L 197.645101 318.269521 
L 197.680262 318.095121 
L 197.722324 317.921532 
L 197.770837 317.749038 
L 197.825337 317.577016 
L 197.885361 317.407791 
L 197.950463 317.240502 
L 198.020216 317.075678 
L 198.094226 316.912609 
L 198.172127 316.751794 
L 198.253586 316.593678 
L 198.3383 316.437392 
L 198.425996 316.283383 
L 198.516427 316.132231 
L 198.609373 315.982636 
L 198.704632 315.83521 
L 198.802027 315.689568 
L 198.901395 315.546482 
L 199.00259 315.405405 
L 199.10548 315.265751 
L 199.209946 315.128445 
L 199.315879 314.992984 
L 199.423178 314.860464 
L 199.531754 314.728414 
L 199.641523 314.598051 
L 199.752407 314.46955 
L 199.864337 314.342589 
L 199.977246 314.217156 
L 200.091073 314.094202 
L 200.205763 313.971447 
L 200.321263 313.85008 
L 200.437524 313.730288 
L 200.5545 313.611547 
L 200.658601 313.507489 
" style="fill:none;stroke:#008000;stroke-linecap:square;stroke-width:2;"/>
   </g>
   <g id="line2d_58">
    <path clip-path="url(#pcc3b6ddc6f)" d="M 200.658601 313.507489 
L 202.481763 311.866051 
L 204.754815 310.088047 
L 208.510622 307.416776 
L 215.014982 303.07819 
L 221.677421 298.834297 
L 230.440678 293.503944 
L 240.81899 287.46058 
L 253.564457 280.308815 
L 269.125364 271.831642 
L 291.404819 259.963605 
L 327.171098 241.197713 
L 332.263257 238.758438 
L 337.68484 236.40636 
L 342.727907 234.455855 
L 346.200993 233.271577 
L 350.120305 232.130549 
L 350.634773 231.99897 
L 350.634773 231.99897 
" style="fill:none;stroke:#008000;stroke-dasharray:12,12;stroke-dashoffset:0;stroke-width:2;"/>
   </g>
   <g id="line2d_59">
    <path clip-path="url(#pcc3b6ddc6f)" d="M 350.634773 231.99897 
L 355.53351 231.000967 
L 359.364957 230.616447 
L 361.879078 230.611001 
L 364.806997 230.92758 
L 366.649571 231.344223 
L 368.394941 231.938375 
L 370.035219 232.712246 
L 371.481469 233.608878 
L 372.898132 234.734014 
L 374.260544 236.113214 
L 375.603371 237.859405 
L 376.563629 239.428334 
L 377.548122 241.447297 
L 378.414637 243.748652 
L 379.142024 246.339248 
L 379.70961 249.222541 
L 380.096465 252.392789 
L 380.277498 255.709166 
L 380.292732 256.968896 
L 380.292732 256.968896 
" style="fill:none;stroke:#008000;stroke-linecap:square;stroke-width:2;"/>
   </g>
   <g id="line2d_60">
    <path clip-path="url(#pcc3b6ddc6f)" d="M 305.26656 123.551682 
L 305.228906 120.059192 
L 304.991118 114.375686 
L 304.551949 109.100019 
L 303.938966 104.368287 
L 303.193749 100.291103 
L 302.348809 96.86442 
L 301.436789 94.0651 
L 300.492621 91.864249 
L 299.555202 90.217822 
L 298.618923 89.013262 
L 297.715499 88.205992 
L 296.820244 87.714085 
L 296.448798 87.592564 
L 296.448798 87.592564 
" style="fill:none;stroke:#0000ff;stroke-linecap:square;stroke-width:2;"/>
   </g>
   <g id="line2d_61">
    <path clip-path="url(#pcc3b6ddc6f)" d="M 296.448798 87.592564 
L 295.622151 87.475751 
L 294.723821 87.566216 
L 293.678062 87.903251 
L 292.399492 88.57193 
L 290.79784 89.686996 
L 288.779531 91.381111 
L 286.151549 93.899544 
L 282.41708 97.838572 
L 277.629043 103.204632 
L 252.020539 132.286205 
L 244.436608 140.352638 
L 237.326987 147.603818 
L 230.298617 154.459882 
L 223.275332 160.992107 
L 186.900284 194.620167 
L 173.735858 206.267379 
L 159.942821 218.181713 
L 123.292914 249.652364 
L 117.767383 254.813141 
L 113.008117 259.586116 
L 112.693784 259.976435 
L 112.693784 259.976435 
" style="fill:none;stroke:#0000ff;stroke-dasharray:12,12;stroke-dashoffset:0;stroke-width:2;"/>
   </g>
   <g id="line2d_62">
    <path clip-path="url(#pcc3b6ddc6f)" d="M 112.693784 259.976435 
L 112.643187 260.06785 
L 112.613318 260.168892 
L 112.613264 260.172789 
" style="fill:none;stroke:#0000ff;stroke-linecap:square;stroke-width:2;"/>
   </g>
   <g id="line2d_63">
    <path clip-path="url(#pcc3b6ddc6f)" d="M 305.265696 123.545477 
L 305.249368 121.138402 
L 305.052447 115.426685 
L 304.654847 110.114585 
L 304.068711 105.2282 
L 303.341876 101.002306 
L 302.506661 97.430001 
L 301.595457 94.495501 
L 300.679265 92.247195 
L 299.728161 90.481979 
L 298.816388 89.23039 
L 297.937996 88.371657 
L 297.068807 87.818149 
L 296.44874 87.586662 
L 296.44874 87.586662 
" style="fill:none;stroke:#000000;stroke-linecap:square;stroke-width:2;"/>
   </g>
   <g id="line2d_64">
    <path clip-path="url(#pcc3b6ddc6f)" d="M 296.44874 87.586662 
L 295.477272 87.469272 
L 294.567419 87.595097 
L 293.511385 87.971449 
L 292.224528 88.675075 
L 290.707221 89.752462 
L 288.686549 91.461443 
L 285.866993 94.184806 
L 282.706829 97.519253 
L 277.233804 103.654319 
L 253.081345 131.12908 
L 245.616805 139.118378 
L 238.298686 146.631114 
L 231.272098 153.528706 
L 224.679612 159.694583 
L 219.387796 164.633634 
L 199.623683 183.069014 
L 186.180081 195.266348 
L 171.555607 208.168947 
L 156.745225 220.912324 
L 125.521403 247.646977 
L 119.147485 253.491242 
L 114.612776 257.940488 
L 112.693738 259.977083 
L 112.693738 259.977083 
" style="fill:none;stroke:#000000;stroke-dasharray:12,12;stroke-dashoffset:0;stroke-width:2;"/>
   </g>
   <g id="line2d_65">
    <path clip-path="url(#pcc3b6ddc6f)" d="M 112.693738 259.977083 
L 112.64315 260.06835 
L 112.613309 260.169182 
L 112.613275 260.169529 
" style="fill:none;stroke:#000000;stroke-linecap:square;stroke-width:2;"/>
   </g>
   <g id="line2d_66">
    <path clip-path="url(#pcc3b6ddc6f)" d="M 305.266254 123.54639 
L 305.238908 120.53062 
L 305.012408 114.716933 
L 304.587215 109.428626 
L 303.988496 104.681011 
L 303.236733 100.486573 
L 302.402068 97.044877 
L 301.50083 94.22933 
L 300.567973 92.009562 
L 299.642244 90.342185 
L 298.718313 89.113833 
L 297.827582 88.281458 
L 296.945448 87.758251 
L 296.448803 87.584884 
L 296.448803 87.584884 
" style="fill:none;stroke:#ff0000;stroke-linecap:square;stroke-width:2;"/>
   </g>
   <g id="line2d_67">
    <path clip-path="url(#pcc3b6ddc6f)" d="M 296.448803 87.584884 
L 295.622154 87.468455 
L 294.723818 87.56024 
L 293.678083 87.899415 
L 292.399514 88.571667 
L 290.797935 89.688221 
L 288.779585 91.383766 
L 286.151616 93.90198 
L 282.706923 97.523347 
L 277.629043 103.206152 
L 252.020583 132.283193 
L 244.436661 140.351077 
L 237.002964 147.926853 
L 229.974157 154.769221 
L 222.843124 161.389551 
L 191.037233 190.89929 
L 177.938218 202.581193 
L 162.608092 215.898743 
L 123.00012 249.919755 
L 117.35808 255.207006 
L 113.008138 259.586102 
L 112.693798 259.976398 
L 112.693798 259.976398 
" style="fill:none;stroke:#ff0000;stroke-dasharray:12,12;stroke-dashoffset:0;stroke-width:2;"/>
   </g>
   <g id="line2d_68">
    <path clip-path="url(#pcc3b6ddc6f)" d="M 112.693798 259.976398 
L 112.643198 260.067804 
L 112.613317 260.168833 
L 112.613267 260.175932 
" style="fill:none;stroke:#ff0000;stroke-linecap:square;stroke-width:2;"/>
   </g>
   <g id="line2d_69">
    <path clip-path="url(#pcc3b6ddc6f)" d="M 350.758831 231.968579 
L 350.758737 231.953077 
L 350.75785 231.93033 
L 350.755094 231.897733 
L 350.750029 231.862443 
L 350.742861 231.828773 
L 350.733598 231.796788 
L 350.722249 231.766344 
L 350.708827 231.737531 
L 350.693346 231.710344 
L 350.675822 231.68475 
L 350.656273 231.66078 
L 350.63472 231.638568 
L 350.611183 231.617874 
L 350.585687 231.598784 
L 350.558255 231.581088 
L 350.528915 231.564946 
L 350.497692 231.549863 
L 350.464616 231.536363 
L 350.429717 231.524372 
L 350.393024 231.513906 
L 350.354568 231.504953 
L 350.314382 231.497478 
L 350.272498 231.491473 
L 350.228948 231.486906 
L 350.183766 231.48377 
L 350.136985 231.48204 
L 350.088638 231.481777 
L 350.038759 231.482812 
L 349.987381 231.485187 
L 349.934538 231.488584 
L 349.880263 231.492902 
L 349.824589 231.498493 
L 349.767549 231.505264 
L 349.709174 231.513349 
L 349.649498 231.522637 
L 349.588551 231.533098 
L 349.526364 231.544737 
L 349.462969 231.557509 
L 349.398396 231.571417 
L 349.332673 231.586392 
L 349.26583 231.602429 
L 349.197896 231.619487 
L 349.128898 231.637579 
L 349.058863 231.656437 
L 348.987818 231.676041 
L 348.91579 231.696437 
L 348.842803 231.717769 
L 348.768883 231.739944 
L 348.694054 231.763106 
L 348.61834 231.787145 
L 348.541763 231.812036 
L 348.464346 231.837776 
L 348.386112 231.864334 
L 348.307082 231.891775 
L 348.227276 231.919946 
L 348.146715 231.948882 
L 348.065419 231.978555 
L 347.983407 232.008969 
L 347.900698 232.040099 
L 347.81731 232.07131 
L 347.733262 232.103338 
L 347.648571 232.136039 
L 347.563253 232.169501 
L 347.477326 232.203485 
L 347.390805 232.238102 
L 347.303707 232.273392 
L 347.216046 232.309212 
L 347.127839 232.345628 
L 347.047682 232.379046 
" style="fill:none;stroke:#008000;stroke-linecap:square;stroke-width:2;"/>
   </g>
   <g id="line2d_70">
    <path clip-path="url(#pcc3b6ddc6f)" d="M 347.047682 232.379046 
L 344.397652 233.613403 
L 340.795566 235.574918 
L 332.23059 240.212197 
L 313.731028 249.921671 
L 252.893387 281.71589 
L 239.14668 289.244112 
L 227.987318 295.614023 
L 219.257449 300.84648 
L 211.756929 305.59573 
L 204.530156 310.44329 
L 201.206272 312.865904 
L 201.058829 312.994528 
L 201.058829 312.994528 
" style="fill:none;stroke:#008000;stroke-dasharray:12,12;stroke-dashoffset:0;stroke-width:2;"/>
   </g>
   <g id="line2d_71">
    <path clip-path="url(#pcc3b6ddc6f)" d="M 201.058829 312.994528 
L 200.986228 313.061081 
L 200.914766 313.129923 
L 200.845012 313.201647 
L 200.778085 313.277405 
L 200.716606 313.359291 
L 200.668696 313.451023 
L 200.658223 313.506091 
L 200.686368 313.41068 
L 200.74715 313.316551 
L 200.812844 313.237443 
L 200.881656 313.163885 
L 200.952478 313.093823 
" style="fill:none;stroke:#008000;stroke-linecap:square;stroke-width:2;"/>
   </g>
   <g id="line2d_72">
    <path clip-path="url(#pcc3b6ddc6f)" d="M 200.952478 313.093823 
L 202.003934 312.238529 
L 205.28154 309.92622 
L 212.620766 305.034591 
L 220.152391 300.297441 
L 227.067307 296.15279 
L 236.906584 290.499899 
L 248.828201 283.914209 
L 268.837389 273.248322 
L 287.451313 263.545209 
L 304.113507 254.914247 
L 331.732513 240.477462 
L 342.115031 234.840781 
L 345.61757 233.015515 
L 347.047525 232.379117 
L 347.047525 232.379117 
" style="fill:none;stroke:#008000;stroke-dasharray:12,12;stroke-dashoffset:0;stroke-width:2;"/>
   </g>
   <g id="line2d_73">
    <path clip-path="url(#pcc3b6ddc6f)" d="M 347.047525 232.379117 
L 347.136213 232.342144 
L 347.22437 232.305754 
L 347.311977 232.270008 
L 347.399022 232.234844 
L 347.485487 232.2003 
L 347.571357 232.165971 
L 347.656616 232.132573 
L 347.741247 232.099835 
L 347.825233 232.068025 
L 347.908557 232.036377 
L 347.991201 232.00543 
L 348.073146 231.975155 
L 348.154373 231.94579 
L 348.234863 231.917177 
L 348.314596 231.888986 
L 348.393552 231.861784 
L 348.47171 231.835386 
L 348.549048 231.809671 
L 348.625544 231.784874 
L 348.701175 231.760936 
L 348.775919 231.73814 
L 348.849752 231.71603 
L 348.922649 231.694838 
L 348.994585 231.674164 
L 349.065535 231.654269 
L 349.135472 231.635351 
L 349.204371 231.617407 
L 349.272203 231.600513 
L 349.338941 231.584663 
L 349.404556 231.570326 
L 349.469019 231.556472 
L 349.532301 231.543727 
L 349.594371 231.532093 
L 349.655199 231.521768 
L 349.714753 231.512625 
L 349.773003 231.504861 
L 349.829915 231.497732 
L 349.885458 231.491852 
L 349.939599 231.48722 
L 349.992305 231.484085 
L 350.043542 231.482271 
L 350.093277 231.481365 
L 350.141477 231.481941 
L 350.188108 231.483904 
L 350.233137 231.487279 
L 350.276531 231.492084 
L 350.318256 231.49834 
L 350.358279 231.506161 
L 350.396569 231.515401 
L 350.433094 231.526151 
L 350.467822 231.537099 
L 350.500724 231.550436 
L 350.53177 231.56533 
L 350.560931 231.582022 
L 350.588181 231.600179 
L 350.613493 231.619931 
L 350.636843 231.640312 
L 350.658208 231.663007 
L 350.677566 231.687322 
L 350.694897 231.712903 
L 350.710184 231.74018 
L 350.723411 231.769089 
L 350.734563 231.800622 
L 350.743628 231.832607 
L 350.750598 231.865936 
L 350.755464 231.90054 
L 350.758221 231.937421 
L 350.758905 231.967596 
" style="fill:none;stroke:#008000;stroke-linecap:square;stroke-width:2;"/>
   </g>
   <g id="line2d_74">
    <path clip-path="url(#pcc3b6ddc6f)" d="M 200.658601 313.506352 
L 200.662709 313.471875 
L 200.684492 313.414632 
L 200.719653 313.354758 
L 200.76409 313.294695 
L 200.816617 313.23281 
L 200.876952 313.16806 
L 200.945229 313.099981 
" style="fill:none;stroke:#0000ff;stroke-linecap:square;stroke-width:2;"/>
   </g>
   <g id="line2d_75">
    <path clip-path="url(#pcc3b6ddc6f)" d="M 200.945229 313.099981 
L 202.072853 312.186387 
L 205.510766 309.768479 
L 212.776896 304.933444 
L 220.143755 300.302185 
L 228.642342 295.230852 
L 238.726862 289.478254 
L 251.204991 282.626292 
L 267.114148 274.153826 
L 302.032079 255.992967 
L 318.217335 247.584394 
L 346.996863 232.400445 
L 346.996863 232.400445 
" style="fill:none;stroke:#0000ff;stroke-dasharray:12,12;stroke-dashoffset:0;stroke-width:2;"/>
   </g>
   <g id="line2d_76">
    <path clip-path="url(#pcc3b6ddc6f)" d="M 346.996863 232.400445 
L 347.08585 232.363122 
L 347.174312 232.327136 
L 347.262234 232.290795 
L 347.3496 232.255053 
L 347.436396 232.219666 
L 347.522607 232.18525 
L 347.608215 232.151473 
L 347.693205 232.118373 
L 347.77756 232.085926 
L 347.861263 232.054161 
L 347.944296 232.022941 
L 348.02664 231.99255 
L 348.108278 231.962886 
L 348.18919 231.933219 
L 348.269356 231.904802 
L 348.348756 231.87716 
L 348.42737 231.850344 
L 348.505177 231.824322 
L 348.582154 231.799129 
L 348.65828 231.774656 
L 348.733532 231.750833 
L 348.807885 231.727894 
L 348.881317 231.705871 
L 348.953803 231.684878 
L 349.025317 231.664831 
L 349.095833 231.646146 
L 349.165326 231.62763 
L 349.233768 231.610121 
L 349.301131 231.593835 
L 349.367388 231.57836 
L 349.43251 231.563959 
L 349.496467 231.55144 
L 349.55923 231.539056 
L 349.620768 231.527813 
L 349.68105 231.518545 
L 349.740045 231.509498 
L 349.797722 231.501663 
L 349.854048 231.49503 
L 349.90899 231.490025 
L 349.962515 231.486304 
L 350.014591 231.48329 
L 350.065185 231.481712 
L 350.114262 231.481486 
L 350.161789 231.482936 
L 350.207733 231.485709 
L 350.252061 231.489901 
L 350.294739 231.494473 
L 350.335733 231.501286 
L 350.375013 231.509579 
L 350.412545 231.519917 
L 350.448299 231.530709 
L 350.482243 231.543033 
L 350.514347 231.556772 
L 350.544583 231.572472 
L 350.572923 231.589749 
L 350.59934 231.608117 
L 350.623809 231.628452 
L 350.646305 231.650395 
L 350.666806 231.673222 
L 350.685292 231.69802 
L 350.701744 231.724445 
L 350.716144 231.752513 
L 350.728477 231.782208 
L 350.73873 231.813533 
L 350.746893 231.846663 
L 350.752956 231.881274 
L 350.756912 231.917109 
L 350.758758 231.953722 
L 350.758757 231.953659 
" style="fill:none;stroke:#0000ff;stroke-linecap:square;stroke-width:2;"/>
   </g>
   <g id="line2d_77">
    <path clip-path="url(#pcc3b6ddc6f)" d="M 296.448798 87.581655 
L 296.44895 87.537114 
L 296.4485 87.470942 
L 296.447102 87.372842 
L 296.44453 87.26702 
L 296.44089 87.163859 
L 296.436183 87.063018 
L 296.430415 86.965314 
L 296.423588 86.870366 
L 296.415709 86.778217 
L 296.406783 86.688848 
L 296.396817 86.602294 
L 296.385819 86.518542 
L 296.373796 86.437653 
L 296.360758 86.3596 
L 296.346714 86.284376 
L 296.331674 86.211994 
L 296.31565 86.142435 
L 296.298652 86.075688 
L 296.280693 86.011737 
L 296.261784 85.950564 
L 296.24194 85.892203 
L 296.221172 85.836535 
L 296.199495 85.783576 
L 296.176923 85.733344 
L 296.15347 85.685721 
L 296.12915 85.640715 
L 296.103978 85.598376 
L 296.077969 85.55851 
L 296.051138 85.521157 
L 296.023502 85.486329 
L 295.995072 85.45389 
L 295.965866 85.423848 
L 295.935898 85.396487 
L 295.905183 85.371138 
L 295.873737 85.348067 
L 295.841574 85.326587 
L 295.808708 85.306986 
L 295.775154 85.289541 
L 295.740927 85.274015 
L 295.70604 85.260775 
L 295.670508 85.249572 
L 295.634344 85.240307 
" style="fill:none;stroke:#000000;stroke-linecap:square;stroke-width:2;"/>
   </g>
   <g id="line2d_78">
    <path clip-path="url(#pcc3b6ddc6f)" d="M 295.634344 85.240307 
L 295.198482 85.260101 
L 294.607738 85.526314 
L 293.687244 86.216147 
L 292.38415 87.486463 
L 290.275877 89.889048 
L 286.777997 94.253026 
L 268.681278 117.171072 
L 261.754365 125.409107 
L 254.858343 133.264817 
L 247.953827 140.792661 
L 240.993947 148.051592 
L 233.787047 155.24179 
L 225.028499 163.724069 
L 217.460476 170.738611 
L 210.41771 176.972307 
L 204.344603 182.029603 
L 198.485539 186.879619 
L 166.408365 214.074463 
L 147.239108 229.917755 
L 130.338915 243.962608 
L 122.010493 251.17159 
L 116.467429 256.251579 
L 112.701223 259.974634 
L 112.666166 260.022765 
L 112.666166 260.022765 
" style="fill:none;stroke:#000000;stroke-dasharray:12,12;stroke-dashoffset:0;stroke-width:2;"/>
   </g>
   <g id="line2d_79">
    <path clip-path="url(#pcc3b6ddc6f)" d="M 112.666166 260.022765 
L 112.633226 260.091703 
L 112.605023 260.189428 
L 112.597209 260.196742 
L 112.592467 260.201221 
L 112.58536 260.208334 
L 112.574716 260.218638 
L 112.558798 260.234445 
L 112.535063 260.259328 
L 112.509284 260.288395 
L 112.481797 260.324236 
L 112.455554 260.374898 
L 112.452165 260.396843 
" style="fill:none;stroke:#000000;stroke-linecap:square;stroke-width:2;"/>
   </g>
   <g id="line2d_80">
    <path clip-path="url(#pcc3b6ddc6f)" d="M 296.44874 87.578031 
L 296.448866 87.533716 
L 296.448417 87.467927 
L 296.447104 87.373013 
L 296.444528 87.267947 
L 296.440888 87.165545 
L 296.436184 87.065607 
L 296.430415 86.967732 
L 296.423588 86.872613 
L 296.415709 86.780094 
L 296.406783 86.690566 
L 296.396817 86.603854 
L 296.385819 86.519981 
L 296.373796 86.438928 
L 296.360758 86.360711 
L 296.346714 86.285171 
L 296.331674 86.212639 
L 296.31565 86.14293 
L 296.298652 86.076005 
L 296.280693 86.011909 
L 296.261784 85.950592 
L 296.241939 85.891984 
L 296.221172 85.83619 
L 296.199495 85.783104 
L 296.176923 85.732656 
L 296.15347 85.684873 
L 296.12915 85.639708 
L 296.103978 85.597231 
L 296.07797 85.557222 
L 296.051139 85.519724 
L 296.023501 85.484818 
L 295.995072 85.452246 
L 295.965866 85.422071 
L 295.935898 85.394387 
L 295.905183 85.368899 
L 295.873737 85.345688 
L 295.841573 85.324815 
L 295.808707 85.306044 
L 295.775154 85.289428 
L 295.740927 85.275063 
L 295.70604 85.262645 
L 295.670508 85.252262 
L 295.634344 85.243057 
" style="fill:none;stroke:#ff0000;stroke-linecap:square;stroke-width:2;"/>
   </g>
   <g id="line2d_81">
    <path clip-path="url(#pcc3b6ddc6f)" d="M 295.634344 85.243057 
L 295.198482 85.26092 
L 294.607738 85.525096 
L 293.740971 86.173042 
L 292.443201 87.423285 
L 290.404614 89.736269 
L 287.124938 93.812719 
L 266.930239 119.286658 
L 260.00683 127.431515 
L 253.200063 135.10199 
L 246.166925 142.686225 
L 239.234595 149.834695 
L 230.91403 158.063069 
L 222.927018 165.705134 
L 215.614899 172.400803 
L 209.084993 178.107493 
L 203.173439 182.965987 
L 198.867148 186.554637 
L 164.995762 215.25384 
L 123.194402 250.124435 
L 116.776636 255.955915 
L 112.774632 259.885174 
L 112.666166 260.022944 
L 112.666166 260.022944 
" style="fill:none;stroke:#ff0000;stroke-dasharray:12,12;stroke-dashoffset:0;stroke-width:2;"/>
   </g>
   <g id="line2d_82">
    <path clip-path="url(#pcc3b6ddc6f)" d="M 112.666166 260.022944 
L 112.633226 260.091053 
L 112.605023 260.189428 
L 112.597209 260.196742 
L 112.592466 260.201222 
L 112.58536 260.208214 
L 112.574716 260.21851 
L 112.558798 260.234303 
L 112.535063 260.258776 
L 112.509284 260.28782 
L 112.481797 260.323626 
L 112.455554 260.374917 
L 112.452165 260.396883 
" style="fill:none;stroke:#ff0000;stroke-linecap:square;stroke-width:2;"/>
   </g>
   <g id="line2d_83">
    <path clip-path="url(#pcc3b6ddc6f)" d="M 296.448803 87.58021 
L 296.448976 87.535683 
L 296.448525 87.46956 
L 296.447103 87.37186 
L 296.444532 87.266107 
L 296.440892 87.163013 
L 296.436183 87.062426 
L 296.430415 86.964779 
L 296.423588 86.869889 
L 296.415709 86.777743 
L 296.406783 86.68844 
L 296.396817 86.601952 
L 296.385819 86.518292 
L 296.373796 86.437464 
L 296.360758 86.359473 
L 296.346714 86.28432 
L 296.331674 86.212001 
L 296.31565 86.142506 
L 296.298652 86.075849 
L 296.280693 86.01197 
L 296.261784 85.950869 
L 296.241939 85.89254 
L 296.221172 85.836933 
L 296.199495 85.784034 
L 296.176923 85.733876 
L 296.15347 85.686314 
L 296.12915 85.641368 
L 296.103978 85.598962 
L 296.07797 85.559146 
L 296.051139 85.521841 
L 296.023501 85.487211 
L 295.995072 85.45483 
L 295.965866 85.424846 
L 295.935898 85.39729 
L 295.905183 85.371131 
L 295.873737 85.347158 
L 295.841573 85.325433 
L 295.808708 85.305895 
L 295.775154 85.288512 
L 295.740927 85.273117 
L 295.70604 85.259937 
L 295.670508 85.248793 
L 295.634344 85.239685 
" style="fill:none;stroke:#008000;stroke-linecap:square;stroke-width:2;"/>
   </g>
   <g id="line2d_84">
    <path clip-path="url(#pcc3b6ddc6f)" d="M 295.634344 85.239685 
L 295.198482 85.26007 
L 294.607738 85.526909 
L 293.687244 86.215639 
L 292.38415 87.486852 
L 290.275877 89.888696 
L 286.777997 94.253144 
L 268.605169 117.263573 
L 261.678336 125.497392 
L 254.782879 133.34858 
L 247.953827 140.79246 
L 240.993947 148.051524 
L 233.787047 155.241769 
L 225.028499 163.724192 
L 217.460476 170.73845 
L 210.350905 177.029557 
L 204.279391 182.081557 
L 198.549096 186.825495 
L 166.299325 214.16476 
L 145.876825 231.039799 
L 130.513067 243.814044 
L 122.376592 250.848704 
L 116.737937 255.992151 
L 112.774632 259.887028 
L 112.666166 260.02478 
L 112.666166 260.02478 
" style="fill:none;stroke:#008000;stroke-dasharray:12,12;stroke-dashoffset:0;stroke-width:2;"/>
   </g>
   <g id="line2d_85">
    <path clip-path="url(#pcc3b6ddc6f)" d="M 112.666166 260.02478 
L 112.633226 260.092865 
L 112.605023 260.189479 
L 112.597209 260.196793 
L 112.592467 260.201272 
L 112.58536 260.209597 
L 112.574716 260.219907 
L 112.558798 260.235722 
L 112.535063 260.258999 
L 112.509284 260.288059 
L 112.481797 260.323888 
L 112.455554 260.374994 
L 112.452165 260.396931 
" style="fill:none;stroke:#008000;stroke-linecap:square;stroke-width:2;"/>
   </g>
   <g id="line2d_86">
    <path clip-path="url(#pcc3b6ddc6f)" d="M 347.047682 232.379042 
L 347.047042 232.362261 
L 347.044692 232.337733 
L 347.037357 232.302661 
L 347.024225 232.266345 
L 347.005968 232.232975 
L 346.982892 232.202612 
L 346.955572 232.175 
L 346.924344 232.150191 
L 346.889593 232.128077 
L 346.851764 232.108449 
L 346.81117 232.091167 
L 346.76811 232.076145 
L 346.722888 232.063079 
L 346.675738 232.051885 
L 346.626889 232.042367 
" style="fill:none;stroke:#0000ff;stroke-linecap:square;stroke-width:2;"/>
   </g>
   <g id="line2d_87">
    <path clip-path="url(#pcc3b6ddc6f)" d="M 346.626889 232.042367 
L 345.894886 232.031661 
L 344.552811 232.256507 
L 342.461282 232.851486 
L 339.903783 233.791273 
L 335.70864 235.579334 
L 329.343503 238.542648 
L 322.278651 242.07331 
L 310.898676 248.080168 
L 285.889175 261.49051 
L 269.459802 270.448992 
L 249.865147 281.402486 
L 237.312595 288.683686 
L 227.120281 294.845303 
L 218.699063 300.188813 
L 211.25167 305.182766 
L 205.808163 309.041423 
L 202.4558 311.647647 
L 201.042311 312.974656 
L 201.042311 312.974656 
" style="fill:none;stroke:#0000ff;stroke-dasharray:12,12;stroke-dashoffset:0;stroke-width:2;"/>
   </g>
   <g id="line2d_88">
    <path clip-path="url(#pcc3b6ddc6f)" d="M 201.042311 312.974656 
L 201.004663 313.029378 
L 200.997617 313.045898 
L 200.997365 313.049367 
" style="fill:none;stroke:#0000ff;stroke-linecap:square;stroke-width:2;"/>
   </g>
   <g id="line2d_89">
    <path clip-path="url(#pcc3b6ddc6f)" d="M 347.047525 232.379567 
L 347.047027 232.362784 
L 347.044677 232.338335 
L 347.037416 232.302661 
L 347.02423 232.266419 
L 347.005945 232.233114 
L 346.982925 232.202563 
L 346.955592 232.17497 
L 346.924358 232.150179 
L 346.889599 232.132004 
L 346.851766 232.112712 
L 346.811169 232.095747 
L 346.768165 232.078152 
L 346.722936 232.064808 
L 346.675779 232.053349 
L 346.626903 232.042032 
" style="fill:none;stroke:#000000;stroke-linecap:square;stroke-width:2;"/>
   </g>
   <g id="line2d_90">
    <path clip-path="url(#pcc3b6ddc6f)" d="M 346.626903 232.042032 
L 345.894903 232.032931 
L 344.552821 232.25632 
L 342.461289 232.850112 
L 339.625283 233.901732 
L 335.077941 235.858635 
L 328.577367 238.911062 
L 321.453979 242.500983 
L 307.651067 249.806564 
L 274.531477 267.665737 
L 250.398987 281.095123 
L 237.767001 288.413378 
L 227.456934 294.636054 
L 225.6838 295.737748 
L 217.55137 300.942983 
L 210.369283 305.790924 
L 204.739802 309.840643 
L 202.623814 311.506098 
L 201.082236 312.927855 
L 201.042316 312.974821 
L 201.042316 312.974821 
" style="fill:none;stroke:#000000;stroke-dasharray:12,12;stroke-dashoffset:0;stroke-width:2;"/>
   </g>
   <g id="line2d_91">
    <path clip-path="url(#pcc3b6ddc6f)" d="M 201.042316 312.974821 
L 201.004667 313.029538 
L 200.99762 313.046055 
L 200.997348 313.045893 
" style="fill:none;stroke:#000000;stroke-linecap:square;stroke-width:2;"/>
   </g>
   <g id="patch_3">
    <path d="M 81.577674 374.4 
L 81.577674 57.6 
" style="fill:none;stroke:#000000;stroke-linecap:square;stroke-linejoin:miter;stroke-width:0.8;"/>
   </g>
   <g id="patch_4">
    <path d="M 397.691163 374.4 
L 397.691163 57.6 
" style="fill:none;stroke:#000000;stroke-linecap:square;stroke-linejoin:miter;stroke-width:0.8;"/>
   </g>
   <g id="patch_5">
    <path d="M 81.577674 374.4 
L 397.691163 374.4 
" style="fill:none;stroke:#000000;stroke-linecap:square;stroke-linejoin:miter;stroke-width:0.8;"/>
   </g>
   <g id="patch_6">
    <path d="M 81.577674 57.6 
L 397.691163 57.6 
" style="fill:none;stroke:#000000;stroke-linecap:square;stroke-linejoin:miter;stroke-width:0.8;"/>
   </g>
   <g id="text_17">
    <g clip-path="url(#pcc3b6ddc6f)">
     <!-- U -->
     <defs>
      <path d="M 8.6875 72.90625 
L 18.609375 72.90625 
L 18.609375 28.609375 
Q 18.609375 16.890625 22.84375 11.734375 
Q 27.09375 6.59375 36.625 6.59375 
Q 46.09375 6.59375 50.34375 11.734375 
Q 54.59375 16.890625 54.59375 28.609375 
L 54.59375 72.90625 
L 64.5 72.90625 
L 64.5 27.390625 
Q 64.5 13.140625 57.4375 5.859375 
Q 50.390625 -1.421875 36.625 -1.421875 
Q 22.796875 -1.421875 15.734375 5.859375 
Q 8.6875 13.140625 8.6875 27.390625 
z
" id="DejaVuSans-85"/>
     </defs>
     <g style="fill:#ff0000;" transform="translate(-225.550204 557.462772)scale(0.1 -0.1)">
      <use xlink:href="#DejaVuSans-85"/>
     </g>
    </g>
   </g>
   <g id="text_18">
    <g clip-path="url(#pcc3b6ddc6f)">
     <!-- L -->
     <defs>
      <path d="M 9.8125 72.90625 
L 19.671875 72.90625 
L 19.671875 8.296875 
L 55.171875 8.296875 
L 55.171875 0 
L 9.8125 0 
z
" id="DejaVuSans-76"/>
     </defs>
     <g style="fill:#ff0000;" transform="translate(-120.953418 335.634992)scale(0.1 -0.1)">
      <use xlink:href="#DejaVuSans-76"/>
     </g>
    </g>
   </g>
   <g id="text_19">
    <g clip-path="url(#pcc3b6ddc6f)">
     <!-- L -->
     <g style="fill:#ff0000;" transform="translate(212.33767 -11145.950048)scale(0.1 -0.1)">
      <use xlink:href="#DejaVuSans-76"/>
     </g>
    </g>
   </g>
   <g id="text_20">
    <g clip-path="url(#pcc3b6ddc6f)">
     <!-- L -->
     <g style="fill:#ff0000;" transform="translate(-65.607549 333.296807)scale(0.1 -0.1)">
      <use xlink:href="#DejaVuSans-76"/>
     </g>
    </g>
   </g>
   <g id="text_21">
    <g clip-path="url(#pcc3b6ddc6f)">
     <!-- U -->
     <g style="fill:#ff0000;" transform="translate(1026.258764 473.311003)scale(0.1 -0.1)">
      <use xlink:href="#DejaVuSans-85"/>
     </g>
    </g>
   </g>
   <g id="text_22">
    <g clip-path="url(#pcc3b6ddc6f)">
     <!-- L -->
     <g style="fill:#ff0000;" transform="translate(212.339093 -11147.579711)scale(0.1 -0.1)">
      <use xlink:href="#DejaVuSans-76"/>
     </g>
    </g>
   </g>
   <g id="text_23">
    <g clip-path="url(#pcc3b6ddc6f)">
     <!-- L -->
     <g style="fill:#ff0000;" transform="translate(-65.802109 332.695985)scale(0.1 -0.1)">
      <use xlink:href="#DejaVuSans-76"/>
     </g>
    </g>
   </g>
   <g id="text_24">
    <g clip-path="url(#pcc3b6ddc6f)">
     <!-- D -->
     <defs>
      <path d="M 19.671875 64.796875 
L 19.671875 8.109375 
L 31.59375 8.109375 
Q 46.6875 8.109375 53.6875 14.9375 
Q 60.6875 21.78125 60.6875 36.53125 
Q 60.6875 51.171875 53.6875 57.984375 
Q 46.6875 64.796875 31.59375 64.796875 
z
M 9.8125 72.90625 
L 30.078125 72.90625 
Q 51.265625 72.90625 61.171875 64.09375 
Q 71.09375 55.28125 71.09375 36.53125 
Q 71.09375 17.671875 61.125 8.828125 
Q 51.171875 0 30.078125 0 
L 9.8125 0 
z
" id="DejaVuSans-68"/>
     </defs>
     <g style="fill:#ff0000;" transform="translate(376.442161 259.786319)scale(0.1 -0.1)">
      <use xlink:href="#DejaVuSans-68"/>
     </g>
    </g>
   </g>
   <g id="text_25">
    <g clip-path="url(#pcc3b6ddc6f)">
     <!-- L -->
     <g style="fill:#ff0000;" transform="translate(186.600857 325.702046)scale(0.1 -0.1)">
      <use xlink:href="#DejaVuSans-76"/>
     </g>
    </g>
   </g>
   <g id="text_26">
    <g clip-path="url(#pcc3b6ddc6f)">
     <!-- D -->
     <g style="fill:#ff0000;" transform="translate(301.41656 126.300496)scale(0.1 -0.1)">
      <use xlink:href="#DejaVuSans-68"/>
     </g>
    </g>
   </g>
   <g id="text_27">
    <g clip-path="url(#pcc3b6ddc6f)">
     <!-- U -->
     <g style="fill:#ff0000;" transform="translate(394.031788 4.847)scale(0.1 -0.1)">
      <use xlink:href="#DejaVuSans-85"/>
     </g>
    </g>
   </g>
   <g id="text_28">
    <g clip-path="url(#pcc3b6ddc6f)">
     <!-- U -->
     <g style="fill:#ff0000;" transform="translate(520.477183 -380.589836)scale(0.1 -0.1)">
      <use xlink:href="#DejaVuSans-85"/>
     </g>
    </g>
   </g>
   <g id="text_29">
    <g clip-path="url(#pcc3b6ddc6f)">
     <!-- L -->
     <g style="fill:#ff0000;" transform="translate(542.316031 -498.832377)scale(0.1 -0.1)">
      <use xlink:href="#DejaVuSans-76"/>
     </g>
    </g>
   </g>
   <g id="text_30">
    <g clip-path="url(#pcc3b6ddc6f)">
     <!-- U -->
     <g style="fill:#ff0000;" transform="translate(520.477183 -351.707708)scale(0.1 -0.1)">
      <use xlink:href="#DejaVuSans-85"/>
     </g>
    </g>
   </g>
   <g id="text_31">
    <g clip-path="url(#pcc3b6ddc6f)">
     <!-- U -->
     <g style="fill:#ff0000;" transform="translate(394.031788 30.803058)scale(0.1 -0.1)">
      <use xlink:href="#DejaVuSans-85"/>
     </g>
    </g>
   </g>
   <g id="text_32">
    <g clip-path="url(#pcc3b6ddc6f)">
     <!-- L -->
     <g style="fill:#ff0000;" transform="translate(109.666228 263.155831)scale(0.1 -0.1)">
      <use xlink:href="#DejaVuSans-76"/>
     </g>
    </g>
   </g>
   <g id="text_33">
    <g clip-path="url(#pcc3b6ddc6f)">
     <!-- D -->
     <g style="fill:#ff0000;" transform="translate(301.415696 126.300805)scale(0.1 -0.1)">
      <use xlink:href="#DejaVuSans-68"/>
     </g>
    </g>
   </g>
   <g id="text_34">
    <g clip-path="url(#pcc3b6ddc6f)">
     <!-- U -->
     <g style="fill:#ff0000;" transform="translate(394.034326 4.841962)scale(0.1 -0.1)">
      <use xlink:href="#DejaVuSans-85"/>
     </g>
    </g>
   </g>
   <g id="text_35">
    <g clip-path="url(#pcc3b6ddc6f)">
     <!-- U -->
     <g style="fill:#ff0000;" transform="translate(520.477183 -380.5895)scale(0.1 -0.1)">
      <use xlink:href="#DejaVuSans-85"/>
     </g>
    </g>
   </g>
   <g id="text_36">
    <g clip-path="url(#pcc3b6ddc6f)">
     <!-- L -->
     <g style="fill:#ff0000;" transform="translate(542.316031 -498.831322)scale(0.1 -0.1)">
      <use xlink:href="#DejaVuSans-76"/>
     </g>
    </g>
   </g>
   <g id="text_37">
    <g clip-path="url(#pcc3b6ddc6f)">
     <!-- U -->
     <g style="fill:#ff0000;" transform="translate(520.477183 -351.707416)scale(0.1 -0.1)">
      <use xlink:href="#DejaVuSans-85"/>
     </g>
    </g>
   </g>
   <g id="text_38">
    <g clip-path="url(#pcc3b6ddc6f)">
     <!-- L -->
     <g style="fill:#ff0000;" transform="translate(109.666229 263.156398)scale(0.1 -0.1)">
      <use xlink:href="#DejaVuSans-76"/>
     </g>
    </g>
   </g>
   <g id="text_39">
    <g clip-path="url(#pcc3b6ddc6f)">
     <!-- U -->
     <g style="fill:#ff0000;" transform="translate(394.031788 30.803755)scale(0.1 -0.1)">
      <use xlink:href="#DejaVuSans-85"/>
     </g>
    </g>
   </g>
   <g id="text_40">
    <g clip-path="url(#pcc3b6ddc6f)">
     <!-- U -->
     <g style="fill:#ff0000;" transform="translate(520.477183 -351.707713)scale(0.1 -0.1)">
      <use xlink:href="#DejaVuSans-85"/>
     </g>
    </g>
   </g>
   <g id="text_41">
    <g clip-path="url(#pcc3b6ddc6f)">
     <!-- L -->
     <g style="fill:#ff0000;" transform="translate(542.316031 -498.832641)scale(0.1 -0.1)">
      <use xlink:href="#DejaVuSans-76"/>
     </g>
    </g>
   </g>
   <g id="text_42">
    <g clip-path="url(#pcc3b6ddc6f)">
     <!-- U -->
     <g style="fill:#ff0000;" transform="translate(520.477183 -380.589759)scale(0.1 -0.1)">
      <use xlink:href="#DejaVuSans-85"/>
     </g>
    </g>
   </g>
   <g id="text_43">
    <g clip-path="url(#pcc3b6ddc6f)">
     <!-- U -->
     <g style="fill:#ff0000;" transform="translate(394.031788 4.847194)scale(0.1 -0.1)">
      <use xlink:href="#DejaVuSans-85"/>
     </g>
    </g>
   </g>
   <g id="text_44">
    <g clip-path="url(#pcc3b6ddc6f)">
     <!-- D -->
     <g style="fill:#ff0000;" transform="translate(301.416254 126.299683)scale(0.1 -0.1)">
      <use xlink:href="#DejaVuSans-68"/>
     </g>
    </g>
   </g>
   <g id="text_45">
    <g clip-path="url(#pcc3b6ddc6f)">
     <!-- L -->
     <g style="fill:#ff0000;" transform="translate(109.666231 263.158099)scale(0.1 -0.1)">
      <use xlink:href="#DejaVuSans-76"/>
     </g>
    </g>
   </g>
   <g id="text_46">
    <g clip-path="url(#pcc3b6ddc6f)">
     <!-- U -->
     <g style="fill:#ff0000;" transform="translate(394.031788 30.804033)scale(0.1 -0.1)">
      <use xlink:href="#DejaVuSans-85"/>
     </g>
    </g>
   </g>
   <g id="text_47">
    <g clip-path="url(#pcc3b6ddc6f)">
     <!-- U -->
     <g style="fill:#ff0000;" transform="translate(520.477183 -351.705634)scale(0.1 -0.1)">
      <use xlink:href="#DejaVuSans-85"/>
     </g>
    </g>
   </g>
   <g id="text_48">
    <g clip-path="url(#pcc3b6ddc6f)">
     <!-- L -->
     <g style="fill:#ff0000;" transform="translate(542.316031 -498.831078)scale(0.1 -0.1)">
      <use xlink:href="#DejaVuSans-76"/>
     </g>
    </g>
   </g>
   <g id="text_49">
    <g clip-path="url(#pcc3b6ddc6f)">
     <!-- D -->
     <g style="fill:#ff0000;" transform="translate(346.908831 234.727459)scale(0.1 -0.1)">
      <use xlink:href="#DejaVuSans-68"/>
     </g>
    </g>
   </g>
   <g id="text_50">
    <g clip-path="url(#pcc3b6ddc6f)">
     <!-- B -->
     <defs>
      <path d="M 19.671875 34.8125 
L 19.671875 8.109375 
L 35.5 8.109375 
Q 43.453125 8.109375 47.28125 11.40625 
Q 51.125 14.703125 51.125 21.484375 
Q 51.125 28.328125 47.28125 31.5625 
Q 43.453125 34.8125 35.5 34.8125 
z
M 19.671875 64.796875 
L 19.671875 42.828125 
L 34.28125 42.828125 
Q 41.5 42.828125 45.03125 45.53125 
Q 48.578125 48.25 48.578125 53.8125 
Q 48.578125 59.328125 45.03125 62.0625 
Q 41.5 64.796875 34.28125 64.796875 
z
M 9.8125 72.90625 
L 35.015625 72.90625 
Q 46.296875 72.90625 52.390625 68.21875 
Q 58.5 63.53125 58.5 54.890625 
Q 58.5 48.1875 55.375 44.234375 
Q 52.25 40.28125 46.1875 39.3125 
Q 53.46875 37.75 57.5 32.78125 
Q 61.53125 27.828125 61.53125 20.40625 
Q 61.53125 10.640625 54.890625 5.3125 
Q 48.25 0 35.984375 0 
L 9.8125 0 
z
" id="DejaVuSans-66"/>
     </defs>
     <g style="fill:#ff0000;" transform="translate(194.150861 321.718429)scale(0.1 -0.1)">
      <use xlink:href="#DejaVuSans-66"/>
     </g>
    </g>
   </g>
   <g id="text_51">
    <g clip-path="url(#pcc3b6ddc6f)">
     <!-- D -->
     <g style="fill:#ff0000;" transform="translate(196.808601 316.266864)scale(0.1 -0.1)">
      <use xlink:href="#DejaVuSans-68"/>
     </g>
    </g>
   </g>
   <g id="text_52">
    <g clip-path="url(#pcc3b6ddc6f)">
     <!-- L -->
     <g style="fill:#ff0000;" transform="translate(377.506794 259.728271)scale(0.1 -0.1)">
      <use xlink:href="#DejaVuSans-76"/>
     </g>
    </g>
   </g>
   <g id="text_53">
    <g clip-path="url(#pcc3b6ddc6f)">
     <!-- D -->
     <g style="fill:#ff0000;" transform="translate(292.598798 90.351939)scale(0.1 -0.1)">
      <use xlink:href="#DejaVuSans-68"/>
     </g>
    </g>
   </g>
   <g id="text_54">
    <g clip-path="url(#pcc3b6ddc6f)">
     <!-- L -->
     <g style="fill:#ff0000;" transform="translate(109.827327 262.932164)scale(0.1 -0.1)">
      <use xlink:href="#DejaVuSans-76"/>
     </g>
    </g>
   </g>
   <g id="text_55">
    <g clip-path="url(#pcc3b6ddc6f)">
     <!-- D -->
     <g style="fill:#ff0000;" transform="translate(292.59874 90.346037)scale(0.1 -0.1)">
      <use xlink:href="#DejaVuSans-68"/>
     </g>
    </g>
   </g>
   <g id="text_56">
    <g clip-path="url(#pcc3b6ddc6f)">
     <!-- L -->
     <g style="fill:#ff0000;" transform="translate(109.827338 262.928904)scale(0.1 -0.1)">
      <use xlink:href="#DejaVuSans-76"/>
     </g>
    </g>
   </g>
   <g id="text_57">
    <g clip-path="url(#pcc3b6ddc6f)">
     <!-- D -->
     <g style="fill:#ff0000;" transform="translate(292.598803 90.344259)scale(0.1 -0.1)">
      <use xlink:href="#DejaVuSans-68"/>
     </g>
    </g>
   </g>
   <g id="text_58">
    <g clip-path="url(#pcc3b6ddc6f)">
     <!-- L -->
     <g style="fill:#ff0000;" transform="translate(109.827329 262.935307)scale(0.1 -0.1)">
      <use xlink:href="#DejaVuSans-76"/>
     </g>
    </g>
   </g>
   <g id="text_59">
    <g clip-path="url(#pcc3b6ddc6f)">
     <!-- D -->
     <g style="fill:#ff0000;" transform="translate(343.197682 235.138421)scale(0.1 -0.1)">
      <use xlink:href="#DejaVuSans-68"/>
     </g>
    </g>
   </g>
   <g id="text_60">
    <g clip-path="url(#pcc3b6ddc6f)">
     <!-- B -->
     <g style="fill:#ff0000;" transform="translate(197.227755 316.265466)scale(0.1 -0.1)">
      <use xlink:href="#DejaVuSans-66"/>
     </g>
    </g>
   </g>
   <g id="text_61">
    <g clip-path="url(#pcc3b6ddc6f)">
     <!-- D -->
     <g style="fill:#ff0000;" transform="translate(343.197525 235.138492)scale(0.1 -0.1)">
      <use xlink:href="#DejaVuSans-68"/>
     </g>
    </g>
   </g>
   <g id="text_62">
    <g clip-path="url(#pcc3b6ddc6f)">
     <!-- L -->
     <g style="fill:#ff0000;" transform="translate(347.972967 234.726971)scale(0.1 -0.1)">
      <use xlink:href="#DejaVuSans-76"/>
     </g>
    </g>
   </g>
   <g id="text_63">
    <g clip-path="url(#pcc3b6ddc6f)">
     <!-- L -->
     <g style="fill:#ff0000;" transform="translate(347.97282 234.713034)scale(0.1 -0.1)">
      <use xlink:href="#DejaVuSans-76"/>
     </g>
    </g>
   </g>
   <g id="text_64">
    <g clip-path="url(#pcc3b6ddc6f)">
     <!-- L -->
     <g style="fill:#ff0000;" transform="translate(109.666228 263.156218)scale(0.1 -0.1)">
      <use xlink:href="#DejaVuSans-76"/>
     </g>
    </g>
   </g>
   <g id="text_65">
    <g clip-path="url(#pcc3b6ddc6f)">
     <!-- L -->
     <g style="fill:#ff0000;" transform="translate(109.666228 263.156258)scale(0.1 -0.1)">
      <use xlink:href="#DejaVuSans-76"/>
     </g>
    </g>
   </g>
   <g id="text_66">
    <g clip-path="url(#pcc3b6ddc6f)">
     <!-- L -->
     <g style="fill:#ff0000;" transform="translate(109.666228 263.156306)scale(0.1 -0.1)">
      <use xlink:href="#DejaVuSans-76"/>
     </g>
    </g>
   </g>
   <g id="text_67">
    <g clip-path="url(#pcc3b6ddc6f)">
     <!-- L -->
     <g style="fill:#ff0000;" transform="translate(198.211428 315.808742)scale(0.1 -0.1)">
      <use xlink:href="#DejaVuSans-76"/>
     </g>
    </g>
   </g>
   <g id="text_68">
    <g clip-path="url(#pcc3b6ddc6f)">
     <!-- L -->
     <g style="fill:#ff0000;" transform="translate(198.211411 315.805268)scale(0.1 -0.1)">
      <use xlink:href="#DejaVuSans-76"/>
     </g>
    </g>
   </g>
   <g id="text_69">
    <!-- is_nk = 1 -->
    <defs>
     <path d="M 44.28125 53.078125 
L 44.28125 44.578125 
Q 40.484375 46.53125 36.375 47.5 
Q 32.28125 48.484375 27.875 48.484375 
Q 21.1875 48.484375 17.84375 46.4375 
Q 14.5 44.390625 14.5 40.28125 
Q 14.5 37.15625 16.890625 35.375 
Q 19.28125 33.59375 26.515625 31.984375 
L 29.59375 31.296875 
Q 39.15625 29.25 43.1875 25.515625 
Q 47.21875 21.78125 47.21875 15.09375 
Q 47.21875 7.46875 41.1875 3.015625 
Q 35.15625 -1.421875 24.609375 -1.421875 
Q 20.21875 -1.421875 15.453125 -0.5625 
Q 10.6875 0.296875 5.421875 2 
L 5.421875 11.28125 
Q 10.40625 8.6875 15.234375 7.390625 
Q 20.0625 6.109375 24.8125 6.109375 
Q 31.15625 6.109375 34.5625 8.28125 
Q 37.984375 10.453125 37.984375 14.40625 
Q 37.984375 18.0625 35.515625 20.015625 
Q 33.0625 21.96875 24.703125 23.78125 
L 21.578125 24.515625 
Q 13.234375 26.265625 9.515625 29.90625 
Q 5.8125 33.546875 5.8125 39.890625 
Q 5.8125 47.609375 11.28125 51.796875 
Q 16.75 56 26.8125 56 
Q 31.78125 56 36.171875 55.265625 
Q 40.578125 54.546875 44.28125 53.078125 
z
" id="DejaVuSans-115"/>
     <path d="M 50.984375 -16.609375 
L 50.984375 -23.578125 
L -0.984375 -23.578125 
L -0.984375 -16.609375 
z
" id="DejaVuSans-95"/>
     <path d="M 54.890625 33.015625 
L 54.890625 0 
L 45.90625 0 
L 45.90625 32.71875 
Q 45.90625 40.484375 42.875 44.328125 
Q 39.84375 48.1875 33.796875 48.1875 
Q 26.515625 48.1875 22.3125 43.546875 
Q 18.109375 38.921875 18.109375 30.90625 
L 18.109375 0 
L 9.078125 0 
L 9.078125 54.6875 
L 18.109375 54.6875 
L 18.109375 46.1875 
Q 21.34375 51.125 25.703125 53.5625 
Q 30.078125 56 35.796875 56 
Q 45.21875 56 50.046875 50.171875 
Q 54.890625 44.34375 54.890625 33.015625 
z
" id="DejaVuSans-110"/>
     <path d="M 9.078125 75.984375 
L 18.109375 75.984375 
L 18.109375 31.109375 
L 44.921875 54.6875 
L 56.390625 54.6875 
L 27.390625 29.109375 
L 57.625 0 
L 45.90625 0 
L 18.109375 26.703125 
L 18.109375 0 
L 9.078125 0 
z
" id="DejaVuSans-107"/>
     <path id="DejaVuSans-32"/>
     <path d="M 10.59375 45.40625 
L 73.1875 45.40625 
L 73.1875 37.203125 
L 10.59375 37.203125 
z
M 10.59375 25.484375 
L 73.1875 25.484375 
L 73.1875 17.1875 
L 10.59375 17.1875 
z
" id="DejaVuSans-61"/>
    </defs>
    <g transform="translate(211.905981 51.6)scale(0.12 -0.12)">
     <use xlink:href="#DejaVuSans-105"/>
     <use x="27.783203" xlink:href="#DejaVuSans-115"/>
     <use x="79.882812" xlink:href="#DejaVuSans-95"/>
     <use x="129.882812" xlink:href="#DejaVuSans-110"/>
     <use x="193.261719" xlink:href="#DejaVuSans-107"/>
     <use x="251.171875" xlink:href="#DejaVuSans-32"/>
     <use x="282.958984" xlink:href="#DejaVuSans-61"/>
     <use x="366.748047" xlink:href="#DejaVuSans-32"/>
     <use x="398.535156" xlink:href="#DejaVuSans-49"/>
    </g>
   </g>
  </g>
 </g>
 <defs>
  <clipPath id="pcc3b6ddc6f">
   <rect height="316.8" width="316.113488" x="81.577674" y="57.6"/>
  </clipPath>
 </defs>
</svg>
