<?xml version="1.0" encoding="utf-8" standalone="no"?>
<!DOCTYPE svg PUBLIC "-//W3C//DTD SVG 1.1//EN"
  "http://www.w3.org/Graphics/SVG/1.1/DTD/svg11.dtd">
<!-- Created with matplotlib (https://matplotlib.org/) -->
<svg height="432pt" version="1.1" viewBox="0 0 438.48 432" width="438.48pt" xmlns="http://www.w3.org/2000/svg" xmlns:xlink="http://www.w3.org/1999/xlink">
 <defs>
  <style type="text/css">
*{stroke-linecap:butt;stroke-linejoin:round;}
  </style>
 </defs>
 <g id="figure_1">
  <g id="patch_1">
   <path d="M 0 432 
L 438.48 432 
L 438.48 0 
L 0 0 
z
" style="fill:#ffffff;"/>
  </g>
  <g id="axes_1">
   <g id="patch_2">
    <path d="M 81.577674 374.4 
L 397.691163 374.4 
L 397.691163 57.6 
L 81.577674 57.6 
z
" style="fill:#ffffff;"/>
   </g>
   <g id="matplotlib.axis_1">
    <g id="xtick_1">
     <g id="line2d_1">
      <path clip-path="url(#p580dc80996)" d="M 81.577674 374.4 
L 81.577674 57.6 
" style="fill:none;stroke:#000000;stroke-linecap:square;stroke-width:0.8;"/>
     </g>
     <g id="line2d_2">
      <defs>
       <path d="M 0 0 
L 0 3.5 
" id="m9eb55237f7" style="stroke:#000000;stroke-width:0.8;"/>
      </defs>
      <g>
       <use style="stroke:#000000;stroke-width:0.8;" x="81.577674" xlink:href="#m9eb55237f7" y="374.4"/>
      </g>
     </g>
     <g id="text_1">
      <!-- 2.5 -->
      <defs>
       <path d="M 19.1875 8.296875 
L 53.609375 8.296875 
L 53.609375 0 
L 7.328125 0 
L 7.328125 8.296875 
Q 12.9375 14.109375 22.625 23.890625 
Q 32.328125 33.6875 34.8125 36.53125 
Q 39.546875 41.84375 41.421875 45.53125 
Q 43.3125 49.21875 43.3125 52.78125 
Q 43.3125 58.59375 39.234375 62.25 
Q 35.15625 65.921875 28.609375 65.921875 
Q 23.96875 65.921875 18.8125 64.3125 
Q 13.671875 62.703125 7.8125 59.421875 
L 7.8125 69.390625 
Q 13.765625 71.78125 18.9375 73 
Q 24.125 74.21875 28.421875 74.21875 
Q 39.75 74.21875 46.484375 68.546875 
Q 53.21875 62.890625 53.21875 53.421875 
Q 53.21875 48.921875 51.53125 44.890625 
Q 49.859375 40.875 45.40625 35.40625 
Q 44.1875 33.984375 37.640625 27.21875 
Q 31.109375 20.453125 19.1875 8.296875 
z
" id="DejaVuSans-50"/>
       <path d="M 10.6875 12.40625 
L 21 12.40625 
L 21 0 
L 10.6875 0 
z
" id="DejaVuSans-46"/>
       <path d="M 10.796875 72.90625 
L 49.515625 72.90625 
L 49.515625 64.59375 
L 19.828125 64.59375 
L 19.828125 46.734375 
Q 21.96875 47.46875 24.109375 47.828125 
Q 26.265625 48.1875 28.421875 48.1875 
Q 40.625 48.1875 47.75 41.5 
Q 54.890625 34.8125 54.890625 23.390625 
Q 54.890625 11.625 47.5625 5.09375 
Q 40.234375 -1.421875 26.90625 -1.421875 
Q 22.3125 -1.421875 17.546875 -0.640625 
Q 12.796875 0.140625 7.71875 1.703125 
L 7.71875 11.625 
Q 12.109375 9.234375 16.796875 8.0625 
Q 21.484375 6.890625 26.703125 6.890625 
Q 35.15625 6.890625 40.078125 11.328125 
Q 45.015625 15.765625 45.015625 23.390625 
Q 45.015625 31 40.078125 35.4375 
Q 35.15625 39.890625 26.703125 39.890625 
Q 22.75 39.890625 18.8125 39.015625 
Q 14.890625 38.140625 10.796875 36.28125 
z
" id="DejaVuSans-53"/>
      </defs>
      <g transform="translate(73.626112 388.998438)scale(0.1 -0.1)">
       <use xlink:href="#DejaVuSans-50"/>
       <use x="63.623047" xlink:href="#DejaVuSans-46"/>
       <use x="95.410156" xlink:href="#DejaVuSans-53"/>
      </g>
     </g>
    </g>
    <g id="xtick_2">
     <g id="line2d_3">
      <path clip-path="url(#p580dc80996)" d="M 144.800372 374.4 
L 144.800372 57.6 
" style="fill:none;stroke:#000000;stroke-linecap:square;stroke-width:0.8;"/>
     </g>
     <g id="line2d_4">
      <g>
       <use style="stroke:#000000;stroke-width:0.8;" x="144.800372" xlink:href="#m9eb55237f7" y="374.4"/>
      </g>
     </g>
     <g id="text_2">
      <!-- 3.0 -->
      <defs>
       <path d="M 40.578125 39.3125 
Q 47.65625 37.796875 51.625 33 
Q 55.609375 28.21875 55.609375 21.1875 
Q 55.609375 10.40625 48.1875 4.484375 
Q 40.765625 -1.421875 27.09375 -1.421875 
Q 22.515625 -1.421875 17.65625 -0.515625 
Q 12.796875 0.390625 7.625 2.203125 
L 7.625 11.71875 
Q 11.71875 9.328125 16.59375 8.109375 
Q 21.484375 6.890625 26.8125 6.890625 
Q 36.078125 6.890625 40.9375 10.546875 
Q 45.796875 14.203125 45.796875 21.1875 
Q 45.796875 27.640625 41.28125 31.265625 
Q 36.765625 34.90625 28.71875 34.90625 
L 20.21875 34.90625 
L 20.21875 43.015625 
L 29.109375 43.015625 
Q 36.375 43.015625 40.234375 45.921875 
Q 44.09375 48.828125 44.09375 54.296875 
Q 44.09375 59.90625 40.109375 62.90625 
Q 36.140625 65.921875 28.71875 65.921875 
Q 24.65625 65.921875 20.015625 65.03125 
Q 15.375 64.15625 9.8125 62.3125 
L 9.8125 71.09375 
Q 15.4375 72.65625 20.34375 73.4375 
Q 25.25 74.21875 29.59375 74.21875 
Q 40.828125 74.21875 47.359375 69.109375 
Q 53.90625 64.015625 53.90625 55.328125 
Q 53.90625 49.265625 50.4375 45.09375 
Q 46.96875 40.921875 40.578125 39.3125 
z
" id="DejaVuSans-51"/>
       <path d="M 31.78125 66.40625 
Q 24.171875 66.40625 20.328125 58.90625 
Q 16.5 51.421875 16.5 36.375 
Q 16.5 21.390625 20.328125 13.890625 
Q 24.171875 6.390625 31.78125 6.390625 
Q 39.453125 6.390625 43.28125 13.890625 
Q 47.125 21.390625 47.125 36.375 
Q 47.125 51.421875 43.28125 58.90625 
Q 39.453125 66.40625 31.78125 66.40625 
z
M 31.78125 74.21875 
Q 44.046875 74.21875 50.515625 64.515625 
Q 56.984375 54.828125 56.984375 36.375 
Q 56.984375 17.96875 50.515625 8.265625 
Q 44.046875 -1.421875 31.78125 -1.421875 
Q 19.53125 -1.421875 13.0625 8.265625 
Q 6.59375 17.96875 6.59375 36.375 
Q 6.59375 54.828125 13.0625 64.515625 
Q 19.53125 74.21875 31.78125 74.21875 
z
" id="DejaVuSans-48"/>
      </defs>
      <g transform="translate(136.84881 388.998438)scale(0.1 -0.1)">
       <use xlink:href="#DejaVuSans-51"/>
       <use x="63.623047" xlink:href="#DejaVuSans-46"/>
       <use x="95.410156" xlink:href="#DejaVuSans-48"/>
      </g>
     </g>
    </g>
    <g id="xtick_3">
     <g id="line2d_5">
      <path clip-path="url(#p580dc80996)" d="M 208.02307 374.4 
L 208.02307 57.6 
" style="fill:none;stroke:#000000;stroke-linecap:square;stroke-width:0.8;"/>
     </g>
     <g id="line2d_6">
      <g>
       <use style="stroke:#000000;stroke-width:0.8;" x="208.02307" xlink:href="#m9eb55237f7" y="374.4"/>
      </g>
     </g>
     <g id="text_3">
      <!-- 3.5 -->
      <g transform="translate(200.071507 388.998438)scale(0.1 -0.1)">
       <use xlink:href="#DejaVuSans-51"/>
       <use x="63.623047" xlink:href="#DejaVuSans-46"/>
       <use x="95.410156" xlink:href="#DejaVuSans-53"/>
      </g>
     </g>
    </g>
    <g id="xtick_4">
     <g id="line2d_7">
      <path clip-path="url(#p580dc80996)" d="M 271.245767 374.4 
L 271.245767 57.6 
" style="fill:none;stroke:#000000;stroke-linecap:square;stroke-width:0.8;"/>
     </g>
     <g id="line2d_8">
      <g>
       <use style="stroke:#000000;stroke-width:0.8;" x="271.245767" xlink:href="#m9eb55237f7" y="374.4"/>
      </g>
     </g>
     <g id="text_4">
      <!-- 4.0 -->
      <defs>
       <path d="M 37.796875 64.3125 
L 12.890625 25.390625 
L 37.796875 25.390625 
z
M 35.203125 72.90625 
L 47.609375 72.90625 
L 47.609375 25.390625 
L 58.015625 25.390625 
L 58.015625 17.1875 
L 47.609375 17.1875 
L 47.609375 0 
L 37.796875 0 
L 37.796875 17.1875 
L 4.890625 17.1875 
L 4.890625 26.703125 
z
" id="DejaVuSans-52"/>
      </defs>
      <g transform="translate(263.294205 388.998438)scale(0.1 -0.1)">
       <use xlink:href="#DejaVuSans-52"/>
       <use x="63.623047" xlink:href="#DejaVuSans-46"/>
       <use x="95.410156" xlink:href="#DejaVuSans-48"/>
      </g>
     </g>
    </g>
    <g id="xtick_5">
     <g id="line2d_9">
      <path clip-path="url(#p580dc80996)" d="M 334.468465 374.4 
L 334.468465 57.6 
" style="fill:none;stroke:#000000;stroke-linecap:square;stroke-width:0.8;"/>
     </g>
     <g id="line2d_10">
      <g>
       <use style="stroke:#000000;stroke-width:0.8;" x="334.468465" xlink:href="#m9eb55237f7" y="374.4"/>
      </g>
     </g>
     <g id="text_5">
      <!-- 4.5 -->
      <g transform="translate(326.516903 388.998438)scale(0.1 -0.1)">
       <use xlink:href="#DejaVuSans-52"/>
       <use x="63.623047" xlink:href="#DejaVuSans-46"/>
       <use x="95.410156" xlink:href="#DejaVuSans-53"/>
      </g>
     </g>
    </g>
    <g id="xtick_6">
     <g id="line2d_11">
      <path clip-path="url(#p580dc80996)" d="M 397.691163 374.4 
L 397.691163 57.6 
" style="fill:none;stroke:#000000;stroke-linecap:square;stroke-width:0.8;"/>
     </g>
     <g id="line2d_12">
      <g>
       <use style="stroke:#000000;stroke-width:0.8;" x="397.691163" xlink:href="#m9eb55237f7" y="374.4"/>
      </g>
     </g>
     <g id="text_6">
      <!-- 5.0 -->
      <g transform="translate(389.7396 388.998438)scale(0.1 -0.1)">
       <use xlink:href="#DejaVuSans-53"/>
       <use x="63.623047" xlink:href="#DejaVuSans-46"/>
       <use x="95.410156" xlink:href="#DejaVuSans-48"/>
      </g>
     </g>
    </g>
    <g id="text_7">
     <!-- Omeg -->
     <defs>
      <path d="M 39.40625 66.21875 
Q 28.65625 66.21875 22.328125 58.203125 
Q 16.015625 50.203125 16.015625 36.375 
Q 16.015625 22.609375 22.328125 14.59375 
Q 28.65625 6.59375 39.40625 6.59375 
Q 50.140625 6.59375 56.421875 14.59375 
Q 62.703125 22.609375 62.703125 36.375 
Q 62.703125 50.203125 56.421875 58.203125 
Q 50.140625 66.21875 39.40625 66.21875 
z
M 39.40625 74.21875 
Q 54.734375 74.21875 63.90625 63.9375 
Q 73.09375 53.65625 73.09375 36.375 
Q 73.09375 19.140625 63.90625 8.859375 
Q 54.734375 -1.421875 39.40625 -1.421875 
Q 24.03125 -1.421875 14.8125 8.828125 
Q 5.609375 19.09375 5.609375 36.375 
Q 5.609375 53.65625 14.8125 63.9375 
Q 24.03125 74.21875 39.40625 74.21875 
z
" id="DejaVuSans-79"/>
      <path d="M 52 44.1875 
Q 55.375 50.25 60.0625 53.125 
Q 64.75 56 71.09375 56 
Q 79.640625 56 84.28125 50.015625 
Q 88.921875 44.046875 88.921875 33.015625 
L 88.921875 0 
L 79.890625 0 
L 79.890625 32.71875 
Q 79.890625 40.578125 77.09375 44.375 
Q 74.3125 48.1875 68.609375 48.1875 
Q 61.625 48.1875 57.5625 43.546875 
Q 53.515625 38.921875 53.515625 30.90625 
L 53.515625 0 
L 44.484375 0 
L 44.484375 32.71875 
Q 44.484375 40.625 41.703125 44.40625 
Q 38.921875 48.1875 33.109375 48.1875 
Q 26.21875 48.1875 22.15625 43.53125 
Q 18.109375 38.875 18.109375 30.90625 
L 18.109375 0 
L 9.078125 0 
L 9.078125 54.6875 
L 18.109375 54.6875 
L 18.109375 46.1875 
Q 21.1875 51.21875 25.484375 53.609375 
Q 29.78125 56 35.6875 56 
Q 41.65625 56 45.828125 52.96875 
Q 50 49.953125 52 44.1875 
z
" id="DejaVuSans-109"/>
      <path d="M 56.203125 29.59375 
L 56.203125 25.203125 
L 14.890625 25.203125 
Q 15.484375 15.921875 20.484375 11.0625 
Q 25.484375 6.203125 34.421875 6.203125 
Q 39.59375 6.203125 44.453125 7.46875 
Q 49.3125 8.734375 54.109375 11.28125 
L 54.109375 2.78125 
Q 49.265625 0.734375 44.1875 -0.34375 
Q 39.109375 -1.421875 33.890625 -1.421875 
Q 20.796875 -1.421875 13.15625 6.1875 
Q 5.515625 13.8125 5.515625 26.8125 
Q 5.515625 40.234375 12.765625 48.109375 
Q 20.015625 56 32.328125 56 
Q 43.359375 56 49.78125 48.890625 
Q 56.203125 41.796875 56.203125 29.59375 
z
M 47.21875 32.234375 
Q 47.125 39.59375 43.09375 43.984375 
Q 39.0625 48.390625 32.421875 48.390625 
Q 24.90625 48.390625 20.390625 44.140625 
Q 15.875 39.890625 15.1875 32.171875 
z
" id="DejaVuSans-101"/>
      <path d="M 45.40625 27.984375 
Q 45.40625 37.75 41.375 43.109375 
Q 37.359375 48.484375 30.078125 48.484375 
Q 22.859375 48.484375 18.828125 43.109375 
Q 14.796875 37.75 14.796875 27.984375 
Q 14.796875 18.265625 18.828125 12.890625 
Q 22.859375 7.515625 30.078125 7.515625 
Q 37.359375 7.515625 41.375 12.890625 
Q 45.40625 18.265625 45.40625 27.984375 
z
M 54.390625 6.78125 
Q 54.390625 -7.171875 48.1875 -13.984375 
Q 42 -20.796875 29.203125 -20.796875 
Q 24.46875 -20.796875 20.265625 -20.09375 
Q 16.0625 -19.390625 12.109375 -17.921875 
L 12.109375 -9.1875 
Q 16.0625 -11.328125 19.921875 -12.34375 
Q 23.78125 -13.375 27.78125 -13.375 
Q 36.625 -13.375 41.015625 -8.765625 
Q 45.40625 -4.15625 45.40625 5.171875 
L 45.40625 9.625 
Q 42.625 4.78125 38.28125 2.390625 
Q 33.9375 0 27.875 0 
Q 17.828125 0 11.671875 7.65625 
Q 5.515625 15.328125 5.515625 27.984375 
Q 5.515625 40.671875 11.671875 48.328125 
Q 17.828125 56 27.875 56 
Q 33.9375 56 38.28125 53.609375 
Q 42.625 51.21875 45.40625 46.390625 
L 45.40625 54.6875 
L 54.390625 54.6875 
z
" id="DejaVuSans-103"/>
     </defs>
     <g transform="translate(224.577387 402.676563)scale(0.1 -0.1)">
      <use xlink:href="#DejaVuSans-79"/>
      <use x="78.710938" xlink:href="#DejaVuSans-109"/>
      <use x="176.123047" xlink:href="#DejaVuSans-101"/>
      <use x="237.646484" xlink:href="#DejaVuSans-103"/>
     </g>
    </g>
   </g>
   <g id="matplotlib.axis_2">
    <g id="ytick_1">
     <g id="line2d_13">
      <path clip-path="url(#p580dc80996)" d="M 81.577674 374.4 
L 397.691163 374.4 
" style="fill:none;stroke:#000000;stroke-linecap:square;stroke-width:0.8;"/>
     </g>
     <g id="line2d_14">
      <defs>
       <path d="M 0 0 
L -3.5 0 
" id="m07edbeab5a" style="stroke:#000000;stroke-width:0.8;"/>
      </defs>
      <g>
       <use style="stroke:#000000;stroke-width:0.8;" x="81.577674" xlink:href="#m07edbeab5a" y="374.4"/>
      </g>
     </g>
     <g id="text_8">
      <!-- 1.0 -->
      <defs>
       <path d="M 12.40625 8.296875 
L 28.515625 8.296875 
L 28.515625 63.921875 
L 10.984375 60.40625 
L 10.984375 69.390625 
L 28.421875 72.90625 
L 38.28125 72.90625 
L 38.28125 8.296875 
L 54.390625 8.296875 
L 54.390625 0 
L 12.40625 0 
z
" id="DejaVuSans-49"/>
      </defs>
      <g transform="translate(58.674549 378.199219)scale(0.1 -0.1)">
       <use xlink:href="#DejaVuSans-49"/>
       <use x="63.623047" xlink:href="#DejaVuSans-46"/>
       <use x="95.410156" xlink:href="#DejaVuSans-48"/>
      </g>
     </g>
    </g>
    <g id="ytick_2">
     <g id="line2d_15">
      <path clip-path="url(#p580dc80996)" d="M 81.577674 321.6 
L 397.691163 321.6 
" style="fill:none;stroke:#000000;stroke-linecap:square;stroke-width:0.8;"/>
     </g>
     <g id="line2d_16">
      <g>
       <use style="stroke:#000000;stroke-width:0.8;" x="81.577674" xlink:href="#m07edbeab5a" y="321.6"/>
      </g>
     </g>
     <g id="text_9">
      <!-- 1.2 -->
      <g transform="translate(58.674549 325.399219)scale(0.1 -0.1)">
       <use xlink:href="#DejaVuSans-49"/>
       <use x="63.623047" xlink:href="#DejaVuSans-46"/>
       <use x="95.410156" xlink:href="#DejaVuSans-50"/>
      </g>
     </g>
    </g>
    <g id="ytick_3">
     <g id="line2d_17">
      <path clip-path="url(#p580dc80996)" d="M 81.577674 268.8 
L 397.691163 268.8 
" style="fill:none;stroke:#000000;stroke-linecap:square;stroke-width:0.8;"/>
     </g>
     <g id="line2d_18">
      <g>
       <use style="stroke:#000000;stroke-width:0.8;" x="81.577674" xlink:href="#m07edbeab5a" y="268.8"/>
      </g>
     </g>
     <g id="text_10">
      <!-- 1.4 -->
      <g transform="translate(58.674549 272.599219)scale(0.1 -0.1)">
       <use xlink:href="#DejaVuSans-49"/>
       <use x="63.623047" xlink:href="#DejaVuSans-46"/>
       <use x="95.410156" xlink:href="#DejaVuSans-52"/>
      </g>
     </g>
    </g>
    <g id="ytick_4">
     <g id="line2d_19">
      <path clip-path="url(#p580dc80996)" d="M 81.577674 216 
L 397.691163 216 
" style="fill:none;stroke:#000000;stroke-linecap:square;stroke-width:0.8;"/>
     </g>
     <g id="line2d_20">
      <g>
       <use style="stroke:#000000;stroke-width:0.8;" x="81.577674" xlink:href="#m07edbeab5a" y="216"/>
      </g>
     </g>
     <g id="text_11">
      <!-- 1.6 -->
      <defs>
       <path d="M 33.015625 40.375 
Q 26.375 40.375 22.484375 35.828125 
Q 18.609375 31.296875 18.609375 23.390625 
Q 18.609375 15.53125 22.484375 10.953125 
Q 26.375 6.390625 33.015625 6.390625 
Q 39.65625 6.390625 43.53125 10.953125 
Q 47.40625 15.53125 47.40625 23.390625 
Q 47.40625 31.296875 43.53125 35.828125 
Q 39.65625 40.375 33.015625 40.375 
z
M 52.59375 71.296875 
L 52.59375 62.3125 
Q 48.875 64.0625 45.09375 64.984375 
Q 41.3125 65.921875 37.59375 65.921875 
Q 27.828125 65.921875 22.671875 59.328125 
Q 17.53125 52.734375 16.796875 39.40625 
Q 19.671875 43.65625 24.015625 45.921875 
Q 28.375 48.1875 33.59375 48.1875 
Q 44.578125 48.1875 50.953125 41.515625 
Q 57.328125 34.859375 57.328125 23.390625 
Q 57.328125 12.15625 50.6875 5.359375 
Q 44.046875 -1.421875 33.015625 -1.421875 
Q 20.359375 -1.421875 13.671875 8.265625 
Q 6.984375 17.96875 6.984375 36.375 
Q 6.984375 53.65625 15.1875 63.9375 
Q 23.390625 74.21875 37.203125 74.21875 
Q 40.921875 74.21875 44.703125 73.484375 
Q 48.484375 72.75 52.59375 71.296875 
z
" id="DejaVuSans-54"/>
      </defs>
      <g transform="translate(58.674549 219.799219)scale(0.1 -0.1)">
       <use xlink:href="#DejaVuSans-49"/>
       <use x="63.623047" xlink:href="#DejaVuSans-46"/>
       <use x="95.410156" xlink:href="#DejaVuSans-54"/>
      </g>
     </g>
    </g>
    <g id="ytick_5">
     <g id="line2d_21">
      <path clip-path="url(#p580dc80996)" d="M 81.577674 163.2 
L 397.691163 163.2 
" style="fill:none;stroke:#000000;stroke-linecap:square;stroke-width:0.8;"/>
     </g>
     <g id="line2d_22">
      <g>
       <use style="stroke:#000000;stroke-width:0.8;" x="81.577674" xlink:href="#m07edbeab5a" y="163.2"/>
      </g>
     </g>
     <g id="text_12">
      <!-- 1.8 -->
      <defs>
       <path d="M 31.78125 34.625 
Q 24.75 34.625 20.71875 30.859375 
Q 16.703125 27.09375 16.703125 20.515625 
Q 16.703125 13.921875 20.71875 10.15625 
Q 24.75 6.390625 31.78125 6.390625 
Q 38.8125 6.390625 42.859375 10.171875 
Q 46.921875 13.96875 46.921875 20.515625 
Q 46.921875 27.09375 42.890625 30.859375 
Q 38.875 34.625 31.78125 34.625 
z
M 21.921875 38.8125 
Q 15.578125 40.375 12.03125 44.71875 
Q 8.5 49.078125 8.5 55.328125 
Q 8.5 64.0625 14.71875 69.140625 
Q 20.953125 74.21875 31.78125 74.21875 
Q 42.671875 74.21875 48.875 69.140625 
Q 55.078125 64.0625 55.078125 55.328125 
Q 55.078125 49.078125 51.53125 44.71875 
Q 48 40.375 41.703125 38.8125 
Q 48.828125 37.15625 52.796875 32.3125 
Q 56.78125 27.484375 56.78125 20.515625 
Q 56.78125 9.90625 50.3125 4.234375 
Q 43.84375 -1.421875 31.78125 -1.421875 
Q 19.734375 -1.421875 13.25 4.234375 
Q 6.78125 9.90625 6.78125 20.515625 
Q 6.78125 27.484375 10.78125 32.3125 
Q 14.796875 37.15625 21.921875 38.8125 
z
M 18.3125 54.390625 
Q 18.3125 48.734375 21.84375 45.5625 
Q 25.390625 42.390625 31.78125 42.390625 
Q 38.140625 42.390625 41.71875 45.5625 
Q 45.3125 48.734375 45.3125 54.390625 
Q 45.3125 60.0625 41.71875 63.234375 
Q 38.140625 66.40625 31.78125 66.40625 
Q 25.390625 66.40625 21.84375 63.234375 
Q 18.3125 60.0625 18.3125 54.390625 
z
" id="DejaVuSans-56"/>
      </defs>
      <g transform="translate(58.674549 166.999219)scale(0.1 -0.1)">
       <use xlink:href="#DejaVuSans-49"/>
       <use x="63.623047" xlink:href="#DejaVuSans-46"/>
       <use x="95.410156" xlink:href="#DejaVuSans-56"/>
      </g>
     </g>
    </g>
    <g id="ytick_6">
     <g id="line2d_23">
      <path clip-path="url(#p580dc80996)" d="M 81.577674 110.4 
L 397.691163 110.4 
" style="fill:none;stroke:#000000;stroke-linecap:square;stroke-width:0.8;"/>
     </g>
     <g id="line2d_24">
      <g>
       <use style="stroke:#000000;stroke-width:0.8;" x="81.577674" xlink:href="#m07edbeab5a" y="110.4"/>
      </g>
     </g>
     <g id="text_13">
      <!-- 2.0 -->
      <g transform="translate(58.674549 114.199219)scale(0.1 -0.1)">
       <use xlink:href="#DejaVuSans-50"/>
       <use x="63.623047" xlink:href="#DejaVuSans-46"/>
       <use x="95.410156" xlink:href="#DejaVuSans-48"/>
      </g>
     </g>
    </g>
    <g id="ytick_7">
     <g id="line2d_25">
      <path clip-path="url(#p580dc80996)" d="M 81.577674 57.6 
L 397.691163 57.6 
" style="fill:none;stroke:#000000;stroke-linecap:square;stroke-width:0.8;"/>
     </g>
     <g id="line2d_26">
      <g>
       <use style="stroke:#000000;stroke-width:0.8;" x="81.577674" xlink:href="#m07edbeab5a" y="57.6"/>
      </g>
     </g>
     <g id="text_14">
      <!-- 2.2 -->
      <g transform="translate(58.674549 61.399219)scale(0.1 -0.1)">
       <use xlink:href="#DejaVuSans-50"/>
       <use x="63.623047" xlink:href="#DejaVuSans-46"/>
       <use x="95.410156" xlink:href="#DejaVuSans-50"/>
      </g>
     </g>
    </g>
    <g id="text_15">
     <!-- Amplitude -->
     <defs>
      <path d="M 34.1875 63.1875 
L 20.796875 26.90625 
L 47.609375 26.90625 
z
M 28.609375 72.90625 
L 39.796875 72.90625 
L 67.578125 0 
L 57.328125 0 
L 50.6875 18.703125 
L 17.828125 18.703125 
L 11.1875 0 
L 0.78125 0 
z
" id="DejaVuSans-65"/>
      <path d="M 18.109375 8.203125 
L 18.109375 -20.796875 
L 9.078125 -20.796875 
L 9.078125 54.6875 
L 18.109375 54.6875 
L 18.109375 46.390625 
Q 20.953125 51.265625 25.265625 53.625 
Q 29.59375 56 35.59375 56 
Q 45.5625 56 51.78125 48.09375 
Q 58.015625 40.1875 58.015625 27.296875 
Q 58.015625 14.40625 51.78125 6.484375 
Q 45.5625 -1.421875 35.59375 -1.421875 
Q 29.59375 -1.421875 25.265625 0.953125 
Q 20.953125 3.328125 18.109375 8.203125 
z
M 48.6875 27.296875 
Q 48.6875 37.203125 44.609375 42.84375 
Q 40.53125 48.484375 33.40625 48.484375 
Q 26.265625 48.484375 22.1875 42.84375 
Q 18.109375 37.203125 18.109375 27.296875 
Q 18.109375 17.390625 22.1875 11.75 
Q 26.265625 6.109375 33.40625 6.109375 
Q 40.53125 6.109375 44.609375 11.75 
Q 48.6875 17.390625 48.6875 27.296875 
z
" id="DejaVuSans-112"/>
      <path d="M 9.421875 75.984375 
L 18.40625 75.984375 
L 18.40625 0 
L 9.421875 0 
z
" id="DejaVuSans-108"/>
      <path d="M 9.421875 54.6875 
L 18.40625 54.6875 
L 18.40625 0 
L 9.421875 0 
z
M 9.421875 75.984375 
L 18.40625 75.984375 
L 18.40625 64.59375 
L 9.421875 64.59375 
z
" id="DejaVuSans-105"/>
      <path d="M 18.3125 70.21875 
L 18.3125 54.6875 
L 36.8125 54.6875 
L 36.8125 47.703125 
L 18.3125 47.703125 
L 18.3125 18.015625 
Q 18.3125 11.328125 20.140625 9.421875 
Q 21.96875 7.515625 27.59375 7.515625 
L 36.8125 7.515625 
L 36.8125 0 
L 27.59375 0 
Q 17.1875 0 13.234375 3.875 
Q 9.28125 7.765625 9.28125 18.015625 
L 9.28125 47.703125 
L 2.6875 47.703125 
L 2.6875 54.6875 
L 9.28125 54.6875 
L 9.28125 70.21875 
z
" id="DejaVuSans-116"/>
      <path d="M 8.5 21.578125 
L 8.5 54.6875 
L 17.484375 54.6875 
L 17.484375 21.921875 
Q 17.484375 14.15625 20.5 10.265625 
Q 23.53125 6.390625 29.59375 6.390625 
Q 36.859375 6.390625 41.078125 11.03125 
Q 45.3125 15.671875 45.3125 23.6875 
L 45.3125 54.6875 
L 54.296875 54.6875 
L 54.296875 0 
L 45.3125 0 
L 45.3125 8.40625 
Q 42.046875 3.421875 37.71875 1 
Q 33.40625 -1.421875 27.6875 -1.421875 
Q 18.265625 -1.421875 13.375 4.4375 
Q 8.5 10.296875 8.5 21.578125 
z
M 31.109375 56 
z
" id="DejaVuSans-117"/>
      <path d="M 45.40625 46.390625 
L 45.40625 75.984375 
L 54.390625 75.984375 
L 54.390625 0 
L 45.40625 0 
L 45.40625 8.203125 
Q 42.578125 3.328125 38.25 0.953125 
Q 33.9375 -1.421875 27.875 -1.421875 
Q 17.96875 -1.421875 11.734375 6.484375 
Q 5.515625 14.40625 5.515625 27.296875 
Q 5.515625 40.1875 11.734375 48.09375 
Q 17.96875 56 27.875 56 
Q 33.9375 56 38.25 53.625 
Q 42.578125 51.265625 45.40625 46.390625 
z
M 14.796875 27.296875 
Q 14.796875 17.390625 18.875 11.75 
Q 22.953125 6.109375 30.078125 6.109375 
Q 37.203125 6.109375 41.296875 11.75 
Q 45.40625 17.390625 45.40625 27.296875 
Q 45.40625 37.203125 41.296875 42.84375 
Q 37.203125 48.484375 30.078125 48.484375 
Q 22.953125 48.484375 18.875 42.84375 
Q 14.796875 37.203125 14.796875 27.296875 
z
" id="DejaVuSans-100"/>
     </defs>
     <g transform="translate(52.594862 241.622656)rotate(-90)scale(0.1 -0.1)">
      <use xlink:href="#DejaVuSans-65"/>
      <use x="68.408203" xlink:href="#DejaVuSans-109"/>
      <use x="165.820312" xlink:href="#DejaVuSans-112"/>
      <use x="229.296875" xlink:href="#DejaVuSans-108"/>
      <use x="257.080078" xlink:href="#DejaVuSans-105"/>
      <use x="284.863281" xlink:href="#DejaVuSans-116"/>
      <use x="324.072266" xlink:href="#DejaVuSans-117"/>
      <use x="387.451172" xlink:href="#DejaVuSans-100"/>
      <use x="450.927734" xlink:href="#DejaVuSans-101"/>
     </g>
    </g>
   </g>
   <g id="line2d_27">
    <path clip-path="url(#p580dc80996)" d="M 81.393292 78.60397 
L 84.301091 66.888232 
L 87.10851 55.066746 
L 89.81888 43.14745 
L 94.961987 19.044651 
L 98.917 -1 
L 98.917 -1 
" style="fill:none;stroke:#0000ff;stroke-linecap:square;stroke-width:2;"/>
   </g>
   <g id="line2d_28">
    <path clip-path="url(#p580dc80996)" d="M 154.463097 -1 
L 152.618896 13.052868 
L 149.008137 38.335464 
L 145.016409 63.369068 
L 142.861978 75.772048 
L 140.592848 88.086068 
L 138.201962 100.29977 
L 135.682092 112.400424 
L 133.025933 124.373849 
L 130.226225 136.204349 
L 127.275911 147.874706 
L 124.168322 159.366232 
L 120.897396 170.658895 
L 117.457915 181.731558 
L 113.845753 192.562321 
L 110.05812 203.128981 
L 106.093779 213.409606 
L 101.953204 223.383192 
L 97.638677 233.03036 
L 93.154285 242.334046 
L 88.505832 251.280117 
L 83.700646 259.857857 
L 78.747324 268.060272 
L 73.655417 275.884204 
L 68.435096 283.330235 
L 63.096825 290.402427 
L 57.651065 297.107917 
L 52.108021 303.456434 
L 46.477452 309.459777 
L 40.768525 315.131287 
L 34.989736 320.485364 
L 29.148855 325.537035 
L 23.252929 330.301585 
L 17.308292 334.794259 
L 11.320602 339.030026 
L 5.294889 343.023406 
L -1 346.925698 
L -1 346.925698 
" style="fill:none;stroke:#0000ff;stroke-dasharray:12,12;stroke-dashoffset:0;stroke-width:2;"/>
   </g>
   <g id="line2d_29">
    <path clip-path="url(#p580dc80996)" d="M 0 0 
" style="fill:none;stroke:#0000ff;stroke-linecap:square;stroke-width:2;"/>
   </g>
   <g id="line2d_30">
    <path clip-path="url(#p580dc80996)" d="M 81.334462 78.835639 
L 84.24429 67.122086 
L 87.053671 55.302622 
L 89.765936 43.385196 
L 94.912632 19.285717 
L 98.917271 -1 
L 98.917271 -1 
" style="fill:none;stroke:#0000ff;stroke-linecap:square;stroke-width:2;"/>
   </g>
   <g id="line2d_31">
    <path clip-path="url(#p580dc80996)" d="M 154.465744 -1 
L 151.097898 24.035906 
L 147.327961 49.217868 
L 145.295298 61.709524 
L 143.155637 74.123573 
L 140.902199 86.45008 
L 138.527959 98.677859 
L 136.025705 110.79437 
L 133.388136 122.785629 
L 130.607977 134.636143 
L 127.678136 146.328897 
L 124.591878 157.845391 
L 121.343048 169.165764 
L 117.926301 180.269007 
L 114.337351 191.133297 
L 110.573217 201.736443 
L 106.632443 212.056439 
L 102.515269 222.072117 
L 98.223733 231.763842 
L 93.761687 241.114202 
L 89.134711 250.108643 
L 84.349947 258.73597 
L 79.415838 266.988684 
L 74.341828 274.863116 
L 69.138024 282.359362 
L 63.814869 289.481038 
L 58.38284 296.234901 
L 52.85219 302.630363 
L 47.232744 308.678977 
L 41.533758 314.393908 
L 35.763816 319.789443 
L 29.93079 324.880545 
L 24.041821 329.682486 
L 18.103335 334.21053 
L 12.121081 338.479694 
L 6.100167 342.504566 
L -1 346.913641 
L -1 346.913641 
" style="fill:none;stroke:#0000ff;stroke-dasharray:12,12;stroke-dashoffset:0;stroke-width:2;"/>
   </g>
   <g id="line2d_32">
    <path clip-path="url(#p580dc80996)" style="fill:none;stroke:#0000ff;stroke-linecap:square;stroke-width:2;"/>
   </g>
   <g id="line2d_33">
    <path clip-path="url(#p580dc80996)" d="M 397.691164 284.176288 
" style="fill:none;stroke:#0000ff;stroke-linecap:square;stroke-width:2;"/>
   </g>
   <g id="line2d_34">
    <path clip-path="url(#p580dc80996)" d="M 397.691164 284.176288 
L 381.44124 289.855122 
L 380.292161 290.264769 
L 380.292161 290.264769 
" style="fill:none;stroke:#0000ff;stroke-linecap:square;stroke-width:2;"/>
   </g>
   <g id="line2d_35">
    <path clip-path="url(#p580dc80996)" d="M 380.292161 290.264769 
L 359.369383 297.851066 
L 332.785303 307.74034 
L 299.934967 320.191686 
L 268.261095 332.417025 
L 245.691437 341.352915 
L 229.467796 348.003145 
L 216.897759 353.391042 
L 207.384034 357.702568 
L 199.91214 361.324699 
L 197.626862 362.495287 
L 197.626862 362.495287 
" style="fill:none;stroke:#0000ff;stroke-dasharray:12,12;stroke-dashoffset:0;stroke-width:2;"/>
   </g>
   <g id="line2d_36">
    <path clip-path="url(#p580dc80996)" d="M 197.626862 362.495287 
L 192.178873 365.468421 
L 189.386794 367.16645 
L 189.386794 367.16645 
" style="fill:none;stroke:#0000ff;stroke-linecap:square;stroke-width:2;"/>
   </g>
   <g id="line2d_37">
    <path clip-path="url(#p580dc80996)" d="M 189.386794 367.16645 
L 189.504273 367.118536 
L 189.828856 367.09359 
L 190.607802 367.219515 
L 191.851057 367.135846 
L 193.376606 366.795789 
L 196.572409 365.75121 
L 203.220681 363.219076 
L 224.402537 355.178744 
L 239.754172 349.569441 
L 297.233786 328.628618 
L 314.071702 322.259365 
L 332.761225 314.97698 
L 350.063292 307.999683 
L 366.384291 301.180667 
L 381.96206 294.432993 
L 396.949806 287.70077 
L 397.704696 287.355102 
L 397.704696 287.355102 
" style="fill:none;stroke:#0000ff;stroke-dasharray:12,12;stroke-dashoffset:0;stroke-width:2;"/>
   </g>
   <g id="line2d_38">
    <path clip-path="url(#p580dc80996)" d="M 271.245777 170.128094 
L 278.670667 162.933288 
L 286.080185 155.444506 
L 293.458646 147.668552 
L 300.744388 139.666856 
L 305.26656 134.531307 
L 305.26656 134.531307 
" style="fill:none;stroke:#0000ff;stroke-dasharray:12,12;stroke-dashoffset:0;stroke-width:2;"/>
   </g>
   <g id="line2d_39">
    <path clip-path="url(#p580dc80996)" d="M 305.26656 134.531307 
L 312.416101 126.139118 
L 319.493782 117.488385 
L 326.489981 108.585474 
L 333.396248 99.436222 
L 340.20525 90.046298 
L 346.910714 80.421068 
L 353.544623 70.509304 
L 360.098777 60.314754 
L 366.531239 49.896318 
L 372.470675 39.894064 
L 379.086045 28.296656 
L 385.293867 16.950182 
L 391.392182 5.340181 
L 394.619739 -1 
L 394.619739 -1 
" style="fill:none;stroke:#0000ff;stroke-linecap:square;stroke-width:2;"/>
   </g>
   <g id="line2d_40">
    <path clip-path="url(#p580dc80996)" d="M 409.341693 -1 
L 403.096515 12.152291 
L 396.771773 24.94535 
L 390.356848 37.414049 
L 383.86104 49.553226 
L 377.290578 61.364539 
L 370.684032 72.794719 
L 363.757403 84.324862 
L 356.762047 95.527581 
L 349.883915 106.134599 
L 342.74906 116.733489 
L 335.573157 127.000768 
L 327.618152 137.946292 
L 320.044342 147.964093 
L 312.44754 157.639569 
L 304.756309 167.074193 
L 297.343115 175.840857 
L 289.551132 184.726457 
L 281.652073 193.406774 
L 273.456755 202.079282 
L 265.062269 210.629407 
L 256.738548 218.791089 
L 248.191073 226.85978 
L 239.538855 234.720204 
L 230.801556 242.358666 
L 222.002121 249.760731 
L 213.108086 256.957908 
L 204.14623 263.930837 
L 195.087145 270.702204 
L 186.084046 277.158785 
L 177.17489 283.276757 
L 168.579682 288.909997 
L 160.337904 294.033355 
L 153.488328 298.041585 
L 147.334559 301.396196 
L 142.182026 303.955429 
L 137.920772 305.831464 
L 134.48956 307.111421 
L 131.572423 307.96976 
L 129.164841 308.45523 
L 127.154845 308.644579 
L 125.371636 308.592697 
L 123.840632 308.331343 
L 122.505944 307.89016 
L 121.231617 307.237083 
L 120.033245 306.369569 
L 118.881283 305.252921 
L 117.726158 303.816413 
L 116.510864 301.930091 
L 115.169366 299.416949 
L 112.509033 294.27281 
L 112.452165 294.195865 
L 112.452165 294.195865 
" style="fill:none;stroke:#0000ff;stroke-dasharray:12,12;stroke-dashoffset:0;stroke-width:2;"/>
   </g>
   <g id="line2d_41">
    <path clip-path="url(#p580dc80996)" d="M 112.452165 294.195865 
L 112.456919 294.165648 
L 112.471189 294.130331 
L 112.493451 294.092143 
L 112.521561 294.052703 
L 112.553767 294.012539 
L 112.588863 293.972213 
" style="fill:none;stroke:#0000ff;stroke-linecap:square;stroke-width:2;"/>
   </g>
   <g id="line2d_42">
    <path clip-path="url(#p580dc80996)" d="M 112.588863 293.972213 
L 113.497455 293.153941 
L 117.617741 289.889801 
L 125.31586 284.011259 
L 153.022257 262.857997 
L 170.457189 249.210254 
L 208.153673 219.570468 
L 212.552385 216.431409 
L 226.751635 207.027896 
L 233.589671 202.054019 
L 240.206844 196.992567 
L 247.47519 191.160514 
L 254.808907 184.993008 
L 262.240392 178.451508 
L 269.694527 171.593588 
L 277.152632 164.429248 
L 284.547273 157.018629 
L 291.914908 149.320765 
L 299.431126 141.131939 
L 305.265696 134.531668 
L 305.265696 134.531668 
" style="fill:none;stroke:#0000ff;stroke-dasharray:12,12;stroke-dashoffset:0;stroke-width:2;"/>
   </g>
   <g id="line2d_43">
    <path clip-path="url(#p580dc80996)" d="M 305.265696 134.531668 
L 312.460433 126.087525 
L 319.141874 117.928475 
L 326.191327 108.973876 
L 333.106929 99.827331 
L 339.925217 90.439798 
L 346.63988 80.816806 
L 353.282918 70.90692 
L 359.810067 60.770759 
L 365.974238 50.815202 
L 372.570699 39.724009 
L 378.859364 28.703221 
L 385.386499 16.777586 
L 391.48134 5.166565 
L 394.619461 -1 
L 394.619461 -1 
" style="fill:none;stroke:#0000ff;stroke-linecap:square;stroke-width:2;"/>
   </g>
   <g id="line2d_44">
    <path clip-path="url(#p580dc80996)" d="M 0 0 
" style="fill:none;stroke:#0000ff;stroke-dasharray:12,12;stroke-dashoffset:0;stroke-width:2;"/>
   </g>
   <g id="line2d_45">
    <path clip-path="url(#p580dc80996)" d="M 271.245777 170.128094 
L 263.716146 177.116046 
L 256.20253 183.786655 
L 248.725093 190.128633 
L 241.361174 196.085373 
L 234.13572 201.646495 
L 227.131284 206.760526 
L 220.887172 211.076109 
L 214.918991 214.951716 
L 210.782493 217.645994 
L 205.834946 221.312992 
L 197.050319 228.120684 
L 177.517751 243.618719 
L 157.071225 259.71283 
L 139.824435 272.999776 
L 112.733231 293.823752 
L 112.614727 293.943871 
L 112.614727 293.943871 
" style="fill:none;stroke:#0000ff;stroke-dasharray:12,12;stroke-dashoffset:0;stroke-width:2;"/>
   </g>
   <g id="line2d_46">
    <path clip-path="url(#p580dc80996)" d="M 112.614727 293.943871 
L 112.57813 293.984148 
L 112.543848 294.024393 
L 112.512791 294.064328 
L 112.4863 294.103447 
L 112.46622 294.140744 
L 112.454585 294.174832 
L 112.452166 294.196526 
" style="fill:none;stroke:#0000ff;stroke-linecap:square;stroke-width:2;"/>
   </g>
   <g id="line2d_47">
    <path clip-path="url(#p580dc80996)" d="M 112.452166 294.196526 
L 112.57545 294.303888 
L 112.846762 294.530288 
L 113.294868 295.438467 
L 116.119564 301.239198 
L 117.450266 303.421475 
L 118.687116 305.035225 
L 119.899826 306.254348 
L 121.098108 307.153944 
L 122.3762 307.834559 
L 123.720481 308.300525 
L 125.168169 308.571046 
L 126.81164 308.65237 
L 128.697702 308.518763 
L 130.874321 308.135003 
L 133.436183 307.449731 
L 136.486161 306.395992 
L 140.130369 304.891871 
L 144.532807 302.820722 
L 149.748989 300.113493 
L 155.771998 296.733483 
L 162.829385 292.516098 
L 170.731414 287.52592 
L 179.092782 281.983004 
L 187.879346 275.893129 
L 196.932472 269.345462 
L 206.092679 262.440045 
L 215.204795 255.286719 
L 224.237624 247.907508 
L 233.051407 240.420053 
L 241.850794 232.649401 
L 250.502056 224.708646 
L 258.990241 216.613262 
L 267.354957 208.326203 
L 275.534306 199.910751 
L 283.666914 191.222111 
L 291.50427 182.530014 
L 299.054449 173.84559 
L 306.762914 164.648164 
L 314.091781 155.577272 
L 322.566425 144.670018 
L 329.972989 134.751401 
L 337.2352 124.656056 
L 344.352172 114.387235 
L 351.323777 103.948282 
L 358.116626 93.392757 
L 365.257186 81.865467 
L 372.064652 70.440031 
L 378.741258 58.794902 
L 385.083082 47.305906 
L 391.448748 35.327696 
L 397.66031 23.180337 
L 397.691163 23.118444 
L 397.691163 23.118444 
" style="fill:none;stroke:#0000ff;stroke-dasharray:12,12;stroke-dashoffset:0;stroke-width:2;"/>
   </g>
   <g id="line2d_48">
    <path clip-path="url(#p580dc80996)" d="M 394.619781 -1 
L 388.551736 10.806723 
L 382.374157 22.344331 
L 376.119458 33.558526 
L 369.761279 44.503202 
L 363.304527 55.174767 
L 356.791605 65.510694 
L 350.119328 75.677354 
L 343.405255 85.501332 
L 336.621443 95.035627 
L 329.735731 104.331381 
L 322.754933 113.382793 
L 315.686969 122.183994 
L 308.540928 130.728937 
L 305.266254 134.530359 
L 305.266254 134.530359 
" style="fill:none;stroke:#0000ff;stroke-linecap:square;stroke-width:2;"/>
   </g>
   <g id="line2d_49">
    <path clip-path="url(#p580dc80996)" d="M 305.266254 134.530359 
L 298.007904 142.710251 
L 290.501866 150.824369 
L 283.098875 158.496993 
L 275.619027 165.928706 
L 268.127837 173.059641 
L 260.6431 179.88091 
L 253.129443 186.428725 
L 245.715565 192.597162 
L 238.369827 198.420917 
L 231.228794 203.801238 
L 224.26334 208.770256 
L 217.842233 213.088155 
L 208.667126 219.186721 
L 201.769961 224.433171 
L 189.823759 233.834457 
L 151.949715 263.688819 
L 134.259103 277.233364 
L 113.825446 292.882027 
L 112.631197 293.927566 
L 112.631197 293.927566 
" style="fill:none;stroke:#0000ff;stroke-dasharray:12,12;stroke-dashoffset:0;stroke-width:2;"/>
   </g>
   <g id="line2d_50">
    <path clip-path="url(#p580dc80996)" d="M 112.631197 293.927566 
L 112.593797 293.967785 
L 112.558417 294.008259 
L 112.525822 294.048324 
L 112.497148 294.087832 
L 112.474027 294.126246 
L 112.458494 294.161891 
L 112.452261 294.193334 
L 112.452168 294.198511 
" style="fill:none;stroke:#0000ff;stroke-linecap:square;stroke-width:2;"/>
   </g>
   <g id="line2d_51">
    <path clip-path="url(#p580dc80996)" d="M 112.452168 294.198511 
L 112.575661 294.305339 
L 112.846874 294.531284 
L 113.294957 295.437563 
L 116.177682 301.34392 
L 117.517983 303.52031 
L 118.750664 305.108719 
L 119.955736 306.302269 
L 121.184972 307.209648 
L 122.451863 307.867104 
L 123.807578 308.32227 
L 125.300542 308.586697 
L 126.961161 308.649954 
L 128.864511 308.496579 
L 131.057465 308.09394 
L 133.633924 307.388846 
L 136.748625 306.295105 
L 140.459751 304.745692 
L 144.816479 302.67999 
L 150.097416 299.923662 
L 156.244173 296.459596 
L 163.42638 292.148137 
L 171.21243 287.213618 
L 179.69543 281.574148 
L 188.601097 275.382075 
L 197.829021 268.683129 
L 206.68467 261.984513 
L 215.55546 255.005796 
L 224.352927 247.811458 
L 233.164493 240.322342 
L 241.741131 232.748846 
L 250.39503 224.809617 
L 259.095392 216.512304 
L 267.253567 208.430074 
L 275.633621 199.807773 
L 283.763222 191.117723 
L 291.876233 182.108937 
L 299.0098 173.897052 
L 306.67615 164.752416 
L 314.387066 155.203773 
L 321.917272 145.521837 
L 329.307255 135.658443 
L 336.668617 125.45763 
L 343.769153 115.243477 
L 350.726288 104.858438 
L 357.472404 94.410654 
L 364.735576 82.722885 
L 371.562479 71.297996 
L 378.257856 59.653617 
L 385.199666 47.090581 
L 390.887866 36.401892 
L 397.120259 24.255014 
L 397.691163 23.118767 
L 397.691163 23.118767 
" style="fill:none;stroke:#0000ff;stroke-dasharray:12,12;stroke-dashoffset:0;stroke-width:2;"/>
   </g>
   <g id="line2d_52">
    <path clip-path="url(#p580dc80996)" d="M 0 0 
" style="fill:none;stroke:#0000ff;stroke-linecap:square;stroke-width:2;"/>
   </g>
   <g id="line2d_53">
    <path clip-path="url(#p580dc80996)" d="M 380.292161 290.264644 
L 380.215502 286.839906 
L 379.919206 282.892319 
L 379.422723 279.293068 
L 378.747654 276.039997 
L 377.914975 273.138014 
L 376.945942 270.581284 
L 375.920503 268.464044 
L 374.753171 266.554262 
L 373.44494 264.855745 
L 372.078143 263.458212 
L 370.677072 262.330974 
L 369.173584 261.388722 
L 367.573313 260.637676 
L 365.678048 260.016342 
L 363.787 259.633306 
L 361.699475 259.440728 
L 359.294476 259.455949 
L 356.798911 259.701707 
L 353.975249 260.210271 
L 350.941984 260.97649 
L 350.758831 261.029432 
L 350.758831 261.029432 
" style="fill:none;stroke:#0000ff;stroke-linecap:square;stroke-width:2;"/>
   </g>
   <g id="line2d_54">
    <path clip-path="url(#p580dc80996)" d="M 350.758831 261.029432 
L 347.120188 262.215398 
L 343.261901 263.706335 
L 338.91672 265.627778 
L 334.07695 268.000177 
L 329.014465 270.731262 
L 323.877904 273.768 
L 293.31368 292.514902 
L 268.383474 308.002799 
L 252.101308 318.371223 
L 239.52376 326.635568 
L 229.452601 333.50908 
L 220.849334 339.644511 
L 213.268472 345.322481 
L 206.941767 350.32635 
L 203.353925 353.418671 
L 201.130936 355.62737 
L 200.772892 356.026017 
L 200.772892 356.026017 
" style="fill:none;stroke:#0000ff;stroke-dasharray:12,12;stroke-dashoffset:0;stroke-width:2;"/>
   </g>
   <g id="line2d_55">
    <path clip-path="url(#p580dc80996)" d="M 200.772892 356.026017 
L 200.654701 356.16165 
L 200.53715 356.298731 
L 200.420277 356.437272 
L 200.304127 356.577205 
L 200.188744 356.718832 
L 200.074179 356.862082 
L 199.960484 357.007193 
L 199.847717 357.153843 
L 199.735939 357.302287 
L 199.625216 357.452317 
L 199.51562 357.604564 
L 199.407228 357.758786 
L 199.300126 357.915056 
L 199.194406 358.073402 
L 199.090167 358.23391 
L 198.987522 358.396665 
L 198.88659 358.5617 
L 198.787507 358.72909 
L 198.690419 358.899467 
L 198.595493 359.071815 
L 198.502909 359.246699 
L 198.412871 359.424313 
L 198.325603 359.604422 
L 198.241357 359.787191 
L 198.160408 359.973796 
L 198.083065 360.16174 
L 198.009665 360.351984 
L 197.940578 360.544965 
L 197.876204 360.740656 
L 197.81697 360.938233 
L 197.763327 361.136523 
L 197.715738 361.337523 
L 197.674667 361.539724 
L 197.640557 361.741979 
L 197.613817 361.945026 
L 197.594791 362.147473 
L 197.583741 362.348562 
L 197.581329 362.518897 
L 197.584849 362.319461 
L 197.597081 362.120726 
L 197.617255 361.917919 
L 197.645101 361.714441 
L 197.680262 361.510974 
L 197.722324 361.308454 
L 197.770837 361.107211 
L 197.825337 360.906519 
L 197.885361 360.709089 
L 197.950463 360.513919 
L 198.020216 360.321624 
L 198.094226 360.131377 
L 198.172127 359.943759 
L 198.253586 359.759291 
L 198.3383 359.576957 
L 198.425996 359.39728 
L 198.516427 359.220936 
L 198.609373 359.046409 
L 198.704632 358.874412 
L 198.802027 358.704497 
L 198.901395 358.537563 
L 199.00259 358.372972 
L 199.10548 358.210043 
L 199.209946 358.049852 
L 199.315879 357.891815 
L 199.423178 357.737208 
L 199.531754 357.58315 
L 199.641523 357.43106 
L 199.752407 357.281142 
L 199.864337 357.13302 
L 199.977246 356.986682 
L 200.091073 356.843236 
L 200.205763 356.700022 
L 200.321263 356.558426 
L 200.437524 356.418669 
L 200.5545 356.280138 
L 200.658601 356.158737 
" style="fill:none;stroke:#0000ff;stroke-linecap:square;stroke-width:2;"/>
   </g>
   <g id="line2d_56">
    <path clip-path="url(#p580dc80996)" d="M 200.658601 356.158737 
L 202.481763 354.243726 
L 204.627038 352.28062 
L 208.379757 349.158077 
L 214.477759 344.398609 
L 221.952394 338.840272 
L 230.581352 332.72369 
L 240.388517 326.059355 
L 252.10613 318.369517 
L 266.914936 308.927551 
L 286.540799 296.69327 
L 320.865597 275.610086 
L 333.243712 268.433917 
L 337.822507 266.141521 
L 343.266352 263.707389 
L 347.256051 262.166605 
L 350.634773 261.065465 
L 350.634773 261.065465 
" style="fill:none;stroke:#0000ff;stroke-dasharray:12,12;stroke-dashoffset:0;stroke-width:2;"/>
   </g>
   <g id="line2d_57">
    <path clip-path="url(#p580dc80996)" d="M 350.634773 261.065465 
L 355.287961 259.945073 
L 358.06961 259.550151 
L 360.749556 259.416284 
L 362.985019 259.532244 
L 365.016271 259.858478 
L 366.947433 260.402142 
L 368.768795 261.176325 
L 370.29787 262.067873 
L 371.806652 263.21868 
L 372.973279 264.335479 
L 374.462935 266.142743 
L 375.603371 267.902639 
L 376.563629 269.733056 
L 377.548122 272.088513 
L 378.414637 274.773428 
L 379.142024 277.795789 
L 379.70961 281.159632 
L 380.096465 284.858253 
L 380.277498 288.72736 
L 380.292732 290.197045 
L 380.292732 290.197045 
" style="fill:none;stroke:#0000ff;stroke-linecap:square;stroke-width:2;"/>
   </g>
   <g id="line2d_58">
    <path clip-path="url(#p580dc80996)" d="M 305.26656 134.543629 
L 305.228906 130.469058 
L 304.991118 123.838301 
L 304.551949 117.683356 
L 303.938966 112.163002 
L 303.193749 107.406286 
L 302.348809 103.40849 
L 301.436789 100.142617 
L 300.492621 97.574957 
L 299.59887 95.731423 
L 298.718306 94.376441 
L 297.827562 93.402968 
L 297.007391 92.826691 
L 296.448798 92.591325 
L 296.448798 92.591325 
" style="fill:none;stroke:#0000ff;stroke-linecap:square;stroke-width:2;"/>
   </g>
   <g id="line2d_59">
    <path clip-path="url(#p580dc80996)" d="M 296.448798 92.591325 
L 295.693811 92.457543 
L 294.878334 92.525698 
L 293.92526 92.838592 
L 292.832632 93.438725 
L 291.427448 94.487532 
L 289.611395 96.15824 
L 287.37829 98.537966 
L 284.437249 102.012873 
L 280.181996 107.432278 
L 273.249029 116.686627 
L 259.190778 135.484983 
L 251.170407 145.80929 
L 240.994844 158.285467 
L 234.084515 166.340968 
L 227.379279 173.810445 
L 189.585135 214.643927 
L 171.852104 232.96237 
L 157.868868 247.011245 
L 125.071202 279.790696 
L 119.217197 286.064564 
L 113.680051 292.437189 
L 112.693784 293.705841 
L 112.693784 293.705841 
" style="fill:none;stroke:#0000ff;stroke-dasharray:12,12;stroke-dashoffset:0;stroke-width:2;"/>
   </g>
   <g id="line2d_60">
    <path clip-path="url(#p580dc80996)" d="M 112.693784 293.705841 
L 112.643187 293.812492 
L 112.613318 293.930374 
L 112.613264 293.93492 
" style="fill:none;stroke:#0000ff;stroke-linecap:square;stroke-width:2;"/>
   </g>
   <g id="line2d_61">
    <path clip-path="url(#p580dc80996)" d="M 305.265696 134.53639 
L 305.249368 131.728135 
L 305.052447 125.064466 
L 304.654847 118.867016 
L 304.068711 113.166234 
L 303.341876 108.236024 
L 302.506661 104.068334 
L 301.62663 100.747988 
L 300.715908 98.114124 
L 299.813009 96.122754 
L 298.91312 94.635848 
L 298.046854 93.605397 
L 297.250426 92.964391 
L 296.44874 92.584438 
L 296.44874 92.584438 
" style="fill:none;stroke:#0000ff;stroke-linecap:square;stroke-width:2;"/>
   </g>
   <g id="line2d_62">
    <path clip-path="url(#p580dc80996)" d="M 296.44874 92.584438 
L 295.549937 92.446553 
L 294.723753 92.55464 
L 293.843308 92.869146 
L 292.746454 93.488789 
L 291.248279 94.634041 
L 289.427137 96.339872 
L 287.096068 98.852539 
L 284.053989 102.482635 
L 279.790915 107.942971 
L 273.650096 116.143842 
L 258.66721 136.167364 
L 250.744784 146.34431 
L 243.792147 154.925401 
L 236.46266 163.608079 
L 229.75772 171.20259 
L 222.518847 179.044179 
L 193.327567 210.69948 
L 181.884935 222.674524 
L 169.783055 235.061409 
L 155.162985 249.703779 
L 126.809342 277.985466 
L 120.410958 284.754128 
L 115.6745 290.076813 
L 112.693738 293.706596 
L 112.693738 293.706596 
" style="fill:none;stroke:#0000ff;stroke-dasharray:12,12;stroke-dashoffset:0;stroke-width:2;"/>
   </g>
   <g id="line2d_63">
    <path clip-path="url(#p580dc80996)" d="M 112.693738 293.706596 
L 112.64315 293.813075 
L 112.613309 293.930713 
L 112.613275 293.931118 
" style="fill:none;stroke:#0000ff;stroke-linecap:square;stroke-width:2;"/>
   </g>
   <g id="line2d_64">
    <path clip-path="url(#p580dc80996)" d="M 305.266254 134.537455 
L 305.238908 131.019057 
L 305.012408 124.236422 
L 304.587215 118.066731 
L 303.988496 112.527846 
L 303.236733 107.634335 
L 302.402068 103.619024 
L 301.50083 100.334218 
L 300.567973 97.744489 
L 299.642244 95.799215 
L 298.718313 94.366138 
L 297.827582 93.395034 
L 297.007369 92.817027 
L 296.448803 92.582365 
L 296.448803 92.582365 
" style="fill:none;stroke:#0000ff;stroke-linecap:square;stroke-width:2;"/>
   </g>
   <g id="line2d_65">
    <path clip-path="url(#p580dc80996)" d="M 296.448803 92.582365 
L 295.693819 92.448831 
L 294.878325 92.518277 
L 293.92527 92.833131 
L 292.832606 93.437278 
L 291.427477 94.489729 
L 289.70339 96.07101 
L 287.472227 98.434764 
L 284.532976 101.897095 
L 280.474815 107.051698 
L 273.850555 115.876372 
L 259.295429 135.349549 
L 251.489383 145.402091 
L 243.254884 155.574348 
L 236.246657 163.858194 
L 229.541529 171.442952 
L 223.923671 177.518753 
L 214.865002 187.431895 
L 198.885761 204.774149 
L 187.00328 217.350511 
L 174.333035 230.436146 
L 160.511579 244.377344 
L 138.310549 266.374789 
L 127.421695 277.352597 
L 120.83677 284.294506 
L 115.874814 289.838774 
L 112.693798 293.705798 
L 112.693798 293.705798 
" style="fill:none;stroke:#0000ff;stroke-dasharray:12,12;stroke-dashoffset:0;stroke-width:2;"/>
   </g>
   <g id="line2d_66">
    <path clip-path="url(#p580dc80996)" d="M 112.693798 293.705798 
L 112.643198 293.812438 
L 112.613317 293.930305 
L 112.613267 293.938587 
" style="fill:none;stroke:#0000ff;stroke-linecap:square;stroke-width:2;"/>
   </g>
   <g id="line2d_67">
    <path clip-path="url(#p580dc80996)" d="M 350.758831 261.030009 
L 350.758737 261.011923 
L 350.75785 260.985385 
L 350.755094 260.947355 
L 350.750029 260.906184 
L 350.742861 260.866901 
L 350.733598 260.829586 
L 350.722249 260.794068 
L 350.708827 260.760453 
L 350.693346 260.728735 
L 350.675822 260.698875 
L 350.656273 260.67091 
L 350.63472 260.644996 
L 350.611183 260.620853 
L 350.585687 260.598582 
L 350.558255 260.577937 
L 350.528915 260.559104 
L 350.497692 260.541507 
L 350.464616 260.525757 
L 350.429717 260.511767 
L 350.393024 260.499557 
L 350.354568 260.489112 
L 350.314382 260.480391 
L 350.272498 260.473385 
L 350.228948 260.468057 
L 350.183766 260.464398 
L 350.136985 260.46238 
L 350.088638 260.462073 
L 350.038759 260.463281 
L 349.987381 260.466051 
L 349.934538 260.470015 
L 349.880263 260.475052 
L 349.824589 260.481575 
L 349.767549 260.489474 
L 349.709174 260.498907 
L 349.649498 260.509743 
L 349.588551 260.521947 
L 349.526364 260.535527 
L 349.462969 260.550427 
L 349.398396 260.566654 
L 349.332673 260.584124 
L 349.26583 260.602834 
L 349.197896 260.622735 
L 349.128898 260.643843 
L 349.058863 260.665843 
L 348.987818 260.688715 
L 348.91579 260.71251 
L 348.842803 260.737398 
L 348.768883 260.763268 
L 348.694054 260.790291 
L 348.61834 260.818336 
L 348.541763 260.847376 
L 348.464346 260.877405 
L 348.386112 260.908389 
L 348.307082 260.940404 
L 348.227276 260.97327 
L 348.146715 261.007029 
L 348.065419 261.041647 
L 347.983407 261.077131 
L 347.900698 261.113449 
L 347.81731 261.149862 
L 347.733262 261.187227 
L 347.648571 261.225379 
L 347.563253 261.264418 
L 347.477326 261.304066 
L 347.390805 261.344452 
L 347.303707 261.385624 
L 347.216046 261.427414 
L 347.127839 261.469899 
L 347.047682 261.508887 
" style="fill:none;stroke:#0000ff;stroke-linecap:square;stroke-width:2;"/>
   </g>
   <g id="line2d_68">
    <path clip-path="url(#p580dc80996)" d="M 347.047682 261.508887 
L 344.595228 262.832025 
L 341.431059 264.824818 
L 333.010076 270.163841 
L 314.61697 281.437008 
L 250.8765 320.338498 
L 238.228954 328.450986 
L 227.987318 335.283026 
L 219.766896 341.02234 
L 212.494947 346.368612 
L 205.714306 351.634484 
L 201.430882 355.194322 
L 201.058829 355.560282 
L 201.058829 355.560282 
" style="fill:none;stroke:#0000ff;stroke-dasharray:12,12;stroke-dashoffset:0;stroke-width:2;"/>
   </g>
   <g id="line2d_69">
    <path clip-path="url(#p580dc80996)" d="M 201.058829 355.560282 
L 200.986228 355.637928 
L 200.914766 355.718244 
L 200.845012 355.801922 
L 200.778085 355.890305 
L 200.716606 355.98584 
L 200.668696 356.092861 
L 200.658223 356.157106 
L 200.686368 356.045793 
L 200.74715 355.935976 
L 200.812844 355.843683 
L 200.881656 355.757866 
L 200.952478 355.676126 
" style="fill:none;stroke:#0000ff;stroke-linecap:square;stroke-width:2;"/>
   </g>
   <g id="line2d_70">
    <path clip-path="url(#p580dc80996)" d="M 200.952478 355.676126 
L 201.927344 354.745476 
L 204.886905 352.296129 
L 213.032199 345.963403 
L 220.067256 340.80787 
L 227.946033 335.310469 
L 239.379452 327.700055 
L 251.502349 319.943442 
L 266.622043 310.548356 
L 288.827683 297.037999 
L 330.840202 271.508923 
L 341.381624 264.8574 
L 345.136194 262.519765 
L 347.047525 261.508969 
L 347.047525 261.508969 
" style="fill:none;stroke:#0000ff;stroke-dasharray:12,12;stroke-dashoffset:0;stroke-width:2;"/>
   </g>
   <g id="line2d_71">
    <path clip-path="url(#p580dc80996)" d="M 347.047525 261.508969 
L 347.136213 261.465834 
L 347.22437 261.42338 
L 347.311977 261.381675 
L 347.399022 261.340651 
L 347.485487 261.30035 
L 347.571357 261.2603 
L 347.656616 261.221335 
L 347.741247 261.18314 
L 347.825233 261.146029 
L 347.908557 261.109106 
L 347.991201 261.073002 
L 348.073146 261.037681 
L 348.154373 261.003422 
L 348.234863 260.97004 
L 348.314596 260.93715 
L 348.393552 260.905415 
L 348.47171 260.874617 
L 348.549048 260.844616 
L 348.625544 260.815686 
L 348.701175 260.787758 
L 348.775919 260.761164 
L 348.849752 260.735368 
L 348.922649 260.710644 
L 348.994585 260.686525 
L 349.065535 260.663314 
L 349.135472 260.641242 
L 349.204371 260.620308 
L 349.272203 260.600599 
L 349.338941 260.582107 
L 349.404556 260.56538 
L 349.469019 260.549217 
L 349.532301 260.534349 
L 349.594371 260.520775 
L 349.655199 260.508729 
L 349.714753 260.498062 
L 349.773003 260.489004 
L 349.829915 260.480687 
L 349.885458 260.473827 
L 349.939599 260.468423 
L 349.992305 260.464766 
L 350.043542 260.46265 
L 350.093277 260.461592 
L 350.141477 260.462265 
L 350.188108 260.464555 
L 350.233137 260.468492 
L 350.276531 260.474098 
L 350.318256 260.481397 
L 350.358279 260.490521 
L 350.396569 260.501301 
L 350.433094 260.513843 
L 350.467822 260.526615 
L 350.500724 260.542175 
L 350.53177 260.559551 
L 350.560931 260.579026 
L 350.588181 260.600209 
L 350.613493 260.623253 
L 350.636843 260.647031 
L 350.658208 260.673508 
L 350.677566 260.701876 
L 350.694897 260.73172 
L 350.710184 260.763544 
L 350.723411 260.79727 
L 350.734563 260.834059 
L 350.743628 260.871375 
L 350.750598 260.910258 
L 350.755464 260.95063 
L 350.758221 260.993658 
L 350.758905 261.028862 
" style="fill:none;stroke:#0000ff;stroke-linecap:square;stroke-width:2;"/>
   </g>
   <g id="line2d_72">
    <path clip-path="url(#p580dc80996)" d="M 200.658601 356.157411 
L 200.662709 356.117187 
L 200.684492 356.050404 
L 200.719653 355.980551 
L 200.76409 355.910477 
L 200.816617 355.838278 
L 200.876952 355.762737 
L 200.945229 355.683311 
" style="fill:none;stroke:#0000ff;stroke-linecap:square;stroke-width:2;"/>
   </g>
   <g id="line2d_73">
    <path clip-path="url(#p580dc80996)" d="M 200.945229 355.683311 
L 201.99616 354.684302 
L 205.036636 352.175833 
L 211.873981 346.840098 
L 218.61633 341.84973 
L 226.532719 336.278629 
L 235.624059 330.16127 
L 246.545268 323.084385 
L 260.146571 314.543469 
L 278.545176 303.26835 
L 338.577403 266.664896 
L 346.174558 261.952523 
L 346.996863 261.533853 
L 346.996863 261.533853 
" style="fill:none;stroke:#0000ff;stroke-dasharray:12,12;stroke-dashoffset:0;stroke-width:2;"/>
   </g>
   <g id="line2d_74">
    <path clip-path="url(#p580dc80996)" d="M 346.996863 261.533853 
L 347.08585 261.490309 
L 347.174312 261.448326 
L 347.262234 261.405927 
L 347.3496 261.364228 
L 347.436396 261.322943 
L 347.522607 261.282792 
L 347.608215 261.243385 
L 347.693205 261.204768 
L 347.77756 261.166914 
L 347.861263 261.129854 
L 347.944296 261.093432 
L 348.02664 261.057975 
L 348.108278 261.023367 
L 348.18919 260.988756 
L 348.269356 260.955602 
L 348.348756 260.923353 
L 348.42737 260.892068 
L 348.505177 260.861709 
L 348.582154 260.832317 
L 348.65828 260.803766 
L 348.733532 260.775972 
L 348.807885 260.74921 
L 348.881317 260.723517 
L 348.953803 260.699024 
L 349.025317 260.675636 
L 349.095833 260.653837 
L 349.165326 260.632235 
L 349.233768 260.611808 
L 349.301131 260.592807 
L 349.367388 260.574753 
L 349.43251 260.557952 
L 349.496467 260.543347 
L 349.55923 260.528898 
L 349.620768 260.515782 
L 349.68105 260.50497 
L 349.740045 260.494414 
L 349.797722 260.485273 
L 349.854048 260.477535 
L 349.90899 260.471695 
L 349.962515 260.467355 
L 350.014591 260.463838 
L 350.065185 260.461997 
L 350.114262 260.461734 
L 350.161789 260.463425 
L 350.207733 260.46666 
L 350.252061 260.471551 
L 350.294739 260.476885 
L 350.335733 260.484834 
L 350.375013 260.494509 
L 350.412545 260.50657 
L 350.448299 260.519161 
L 350.482243 260.533538 
L 350.514347 260.549567 
L 350.544583 260.567884 
L 350.572923 260.588041 
L 350.59934 260.60947 
L 350.623809 260.633193 
L 350.646305 260.658794 
L 350.666806 260.685426 
L 350.685292 260.714356 
L 350.701744 260.745186 
L 350.716144 260.777932 
L 350.728477 260.812576 
L 350.73873 260.849122 
L 350.746893 260.887773 
L 350.752956 260.928152 
L 350.756912 260.96996 
L 350.758758 261.012676 
L 350.758757 261.012602 
" style="fill:none;stroke:#0000ff;stroke-linecap:square;stroke-width:2;"/>
   </g>
   <g id="line2d_75">
    <path clip-path="url(#p580dc80996)" d="M 296.448798 92.578598 
L 296.44895 92.526633 
L 296.4485 92.449433 
L 296.447102 92.334982 
L 296.44453 92.211524 
L 296.44089 92.091168 
L 296.436183 91.973521 
L 296.430415 91.859533 
L 296.423588 91.74876 
L 296.415709 91.641253 
L 296.406783 91.536989 
L 296.396817 91.43601 
L 296.385819 91.338299 
L 296.373796 91.243928 
L 296.360758 91.152867 
L 296.346714 91.065105 
L 296.331674 90.98066 
L 296.31565 90.899508 
L 296.298652 90.821636 
L 296.280693 90.747026 
L 296.261784 90.675659 
L 296.24194 90.60757 
L 296.221172 90.542625 
L 296.199495 90.480839 
L 296.176923 90.422235 
L 296.15347 90.366674 
L 296.12915 90.314168 
L 296.103978 90.264772 
L 296.077969 90.218262 
L 296.051138 90.174683 
L 296.023502 90.13405 
L 295.995072 90.096205 
L 295.965866 90.061156 
L 295.935898 90.029235 
L 295.905183 89.999662 
L 295.873737 89.972745 
L 295.841574 89.947685 
L 295.808708 89.924816 
L 295.775154 89.904464 
L 295.740927 89.886351 
L 295.70604 89.870904 
L 295.670508 89.857833 
L 295.634344 89.847025 
" style="fill:none;stroke:#0000ff;stroke-linecap:square;stroke-width:2;"/>
   </g>
   <g id="line2d_76">
    <path clip-path="url(#p580dc80996)" d="M 295.634344 89.847025 
L 295.24077 89.858071 
L 294.703189 90.115732 
L 293.900471 90.776621 
L 292.735451 92.040224 
L 290.914219 94.390556 
L 288.08573 98.426169 
L 280.289608 110.121596 
L 272.101671 122.206192 
L 265.254932 131.904406 
L 258.56525 140.998735 
L 251.921583 149.658491 
L 245.201757 158.05213 
L 238.503798 166.064942 
L 229.914045 175.942474 
L 222.299296 184.404886 
L 215.206359 191.962029 
L 208.952109 198.322338 
L 203.238354 203.800705 
L 199.121909 207.794069 
L 164.077883 242.417832 
L 144.046564 261.703784 
L 129.774529 275.582094 
L 120.99979 284.487108 
L 115.928421 289.961442 
L 112.666166 293.759893 
L 112.666166 293.759893 
" style="fill:none;stroke:#0000ff;stroke-dasharray:12,12;stroke-dashoffset:0;stroke-width:2;"/>
   </g>
   <g id="line2d_77">
    <path clip-path="url(#p580dc80996)" d="M 112.666166 293.759893 
L 112.633226 293.840321 
L 112.605023 293.954332 
L 112.597209 293.962865 
L 112.592467 293.968092 
L 112.58536 293.976389 
L 112.574716 293.988411 
L 112.558798 294.006852 
L 112.535063 294.035882 
L 112.509284 294.069795 
L 112.481797 294.111609 
L 112.455554 294.170714 
L 112.452165 294.196317 
" style="fill:none;stroke:#0000ff;stroke-linecap:square;stroke-width:2;"/>
   </g>
   <g id="line2d_78">
    <path clip-path="url(#p580dc80996)" d="M 296.44874 92.57437 
L 296.448866 92.522668 
L 296.448417 92.445915 
L 296.447104 92.335182 
L 296.444528 92.212605 
L 296.440888 92.093136 
L 296.436184 91.976542 
L 296.430415 91.862354 
L 296.423588 91.751382 
L 296.415709 91.643442 
L 296.406783 91.538994 
L 296.396817 91.43783 
L 296.385819 91.339978 
L 296.373796 91.245416 
L 296.360758 91.154162 
L 296.346714 91.066033 
L 296.331674 90.981412 
L 296.31565 90.900085 
L 296.298652 90.822006 
L 296.280693 90.747227 
L 296.261784 90.675691 
L 296.241939 90.607315 
L 296.221172 90.542222 
L 296.199495 90.480288 
L 296.176923 90.421433 
L 296.15347 90.365686 
L 296.12915 90.312993 
L 296.103978 90.263437 
L 296.07797 90.216759 
L 296.051139 90.173012 
L 296.023501 90.132288 
L 295.995072 90.094287 
L 295.965866 90.059083 
L 295.935898 90.026785 
L 295.905183 89.997049 
L 295.873737 89.969969 
L 295.841573 89.945618 
L 295.808707 89.923718 
L 295.775154 89.904332 
L 295.740927 89.887574 
L 295.70604 89.873086 
L 295.670508 89.860972 
L 295.634344 89.850233 
" style="fill:none;stroke:#0000ff;stroke-linecap:square;stroke-width:2;"/>
   </g>
   <g id="line2d_79">
    <path clip-path="url(#p580dc80996)" d="M 295.634344 89.850233 
L 295.24077 89.859207 
L 294.703188 90.114668 
L 293.900471 90.778496 
L 292.619162 92.179608 
L 290.787644 94.564747 
L 287.881239 98.7265 
L 278.879116 112.233644 
L 271.114718 123.629406 
L 264.265144 133.273709 
L 257.580151 142.304786 
L 250.945746 150.898443 
L 244.164568 159.314613 
L 237.482984 167.254389 
L 227.851939 178.268859 
L 220.423728 186.434251 
L 213.10485 194.141223 
L 207.62708 199.622589 
L 187.085162 219.799147 
L 169.265628 237.371333 
L 151.897924 254.165414 
L 131.08067 274.293661 
L 124.889277 280.478564 
L 118.650746 286.979503 
L 114.326328 291.780204 
L 112.666166 293.760102 
L 112.666166 293.760102 
" style="fill:none;stroke:#0000ff;stroke-dasharray:12,12;stroke-dashoffset:0;stroke-width:2;"/>
   </g>
   <g id="line2d_80">
    <path clip-path="url(#p580dc80996)" d="M 112.666166 293.760102 
L 112.633226 293.839562 
L 112.605023 293.954333 
L 112.597209 293.962866 
L 112.592466 293.968093 
L 112.58536 293.976249 
L 112.574716 293.988261 
L 112.558798 294.006686 
L 112.535063 294.035239 
L 112.509284 294.069124 
L 112.481797 294.110897 
L 112.455554 294.170737 
L 112.452165 294.196363 
" style="fill:none;stroke:#0000ff;stroke-linecap:square;stroke-width:2;"/>
   </g>
   <g id="line2d_81">
    <path clip-path="url(#p580dc80996)" d="M 296.448803 92.576912 
L 296.448976 92.524963 
L 296.448525 92.447821 
L 296.447103 92.333837 
L 296.444532 92.210458 
L 296.440892 92.090182 
L 296.436183 91.97283 
L 296.430415 91.858909 
L 296.423588 91.748204 
L 296.415709 91.640701 
L 296.406783 91.536514 
L 296.396817 91.435611 
L 296.385819 91.338007 
L 296.373796 91.243708 
L 296.360758 91.152719 
L 296.346714 91.06504 
L 296.331674 90.980668 
L 296.31565 90.899591 
L 296.298652 90.821824 
L 296.280693 90.747298 
L 296.261784 90.676013 
L 296.241939 90.607963 
L 296.221172 90.543088 
L 296.199495 90.481373 
L 296.176923 90.422856 
L 296.15347 90.367366 
L 296.12915 90.314929 
L 296.103978 90.265456 
L 296.07797 90.219003 
L 296.051139 90.175482 
L 296.023501 90.13508 
L 295.995072 90.097302 
L 295.965866 90.06232 
L 295.935898 90.030172 
L 295.905183 89.999653 
L 295.873737 89.971685 
L 295.841573 89.946339 
L 295.808708 89.923544 
L 295.775154 89.903264 
L 295.740927 89.885304 
L 295.70604 89.869927 
L 295.670508 89.856926 
L 295.634344 89.846299 
" style="fill:none;stroke:#0000ff;stroke-linecap:square;stroke-width:2;"/>
   </g>
   <g id="line2d_82">
    <path clip-path="url(#p580dc80996)" d="M 295.634344 89.846299 
L 295.24077 89.857974 
L 294.703189 90.116302 
L 293.900471 90.775749 
L 292.735451 92.040438 
L 290.914219 94.389517 
L 288.08573 98.427206 
L 280.067571 110.454737 
L 271.949912 122.42565 
L 265.026499 132.221146 
L 258.337824 141.300962 
L 251.696246 149.94551 
L 244.979306 158.323692 
L 238.284824 166.32087 
L 229.415143 176.507315 
L 221.881516 184.859293 
L 214.798397 192.387079 
L 208.819294 198.453366 
L 203.108542 203.921565 
L 199.058192 207.857301 
L 164.671287 241.84069 
L 144.478121 261.289623 
L 130.078124 275.279761 
L 122.376592 283.056821 
L 116.931571 288.844169 
L 112.886718 293.455213 
L 112.666166 293.762243 
L 112.666166 293.762243 
" style="fill:none;stroke:#0000ff;stroke-dasharray:12,12;stroke-dashoffset:0;stroke-width:2;"/>
   </g>
   <g id="line2d_83">
    <path clip-path="url(#p580dc80996)" d="M 112.666166 293.762243 
L 112.633226 293.841676 
L 112.605023 293.954392 
L 112.597209 293.962925 
L 112.592467 293.968151 
L 112.58536 293.977863 
L 112.574716 293.989892 
L 112.558798 294.008343 
L 112.535063 294.035499 
L 112.509284 294.069402 
L 112.481797 294.111203 
L 112.455554 294.170826 
L 112.452165 294.196419 
" style="fill:none;stroke:#0000ff;stroke-linecap:square;stroke-width:2;"/>
   </g>
   <g id="line2d_84">
    <path clip-path="url(#p580dc80996)" d="M 347.047682 261.508883 
L 347.047042 261.489305 
L 347.044692 261.460689 
L 347.037357 261.419771 
L 347.024225 261.377402 
L 347.005968 261.338471 
L 346.982892 261.303048 
L 346.955572 261.270834 
L 346.924344 261.24189 
L 346.889593 261.21609 
L 346.851764 261.193191 
L 346.81117 261.173028 
L 346.76811 261.155502 
L 346.722888 261.140259 
L 346.675738 261.127199 
L 346.626889 261.116095 
" style="fill:none;stroke:#0000ff;stroke-linecap:square;stroke-width:2;"/>
   </g>
   <g id="line2d_85">
    <path clip-path="url(#p580dc80996)" d="M 346.626889 261.116095 
L 345.955395 261.098022 
L 344.750233 261.314721 
L 342.939448 261.880857 
L 340.459894 262.902842 
L 336.899664 264.629319 
L 331.437429 267.534999 
L 324.761548 271.338729 
L 317.220463 275.911924 
L 293.786689 290.504846 
L 269.806441 305.70112 
L 239.390332 325.7685 
L 229.342729 332.789958 
L 221.295091 338.663392 
L 214.059849 344.209467 
L 207.748274 349.310719 
L 203.551344 352.946718 
L 201.494494 354.988632 
L 201.042311 355.537098 
L 201.042311 355.537098 
" style="fill:none;stroke:#0000ff;stroke-dasharray:12,12;stroke-dashoffset:0;stroke-width:2;"/>
   </g>
   <g id="line2d_86">
    <path clip-path="url(#p580dc80996)" d="M 201.042311 355.537098 
L 201.004663 355.60094 
L 200.997617 355.620214 
L 200.997365 355.624261 
" style="fill:none;stroke:#0000ff;stroke-linecap:square;stroke-width:2;"/>
   </g>
   <g id="line2d_87">
    <path clip-path="url(#p580dc80996)" d="M 347.047525 261.509495 
L 347.047027 261.489915 
L 347.044677 261.461391 
L 347.037416 261.419771 
L 347.02423 261.377488 
L 347.005945 261.338633 
L 346.982925 261.30299 
L 346.955592 261.270799 
L 346.924358 261.241876 
L 346.889599 261.220671 
L 346.851766 261.198164 
L 346.811169 261.178372 
L 346.768165 261.157844 
L 346.722936 261.142276 
L 346.675779 261.128907 
L 346.626903 261.115704 
" style="fill:none;stroke:#0000ff;stroke-linecap:square;stroke-width:2;"/>
   </g>
   <g id="line2d_88">
    <path clip-path="url(#p580dc80996)" d="M 346.626903 261.115704 
L 345.955411 261.099755 
L 344.750237 261.315889 
L 342.871305 261.901259 
L 337.879646 264.130432 
L 334.797636 265.71744 
L 328.577367 269.129573 
L 322.003591 272.984727 
L 320.083149 274.152361 
L 304.436178 283.844565 
L 281.507081 298.243823 
L 278.802963 299.960146 
L 275.593016 302.00056 
L 243.501567 322.966596 
L 237.463962 327.091518 
L 227.697736 333.969173 
L 219.622217 339.921581 
L 212.583473 345.376625 
L 206.495474 350.365181 
L 202.918313 353.540496 
L 201.204747 355.324242 
L 201.042316 355.537291 
L 201.042316 355.537291 
" style="fill:none;stroke:#0000ff;stroke-dasharray:12,12;stroke-dashoffset:0;stroke-width:2;"/>
   </g>
   <g id="line2d_89">
    <path clip-path="url(#p580dc80996)" d="M 201.042316 355.537291 
L 201.004667 355.601128 
L 200.99762 355.620398 
L 200.997348 355.620208 
" style="fill:none;stroke:#0000ff;stroke-linecap:square;stroke-width:2;"/>
   </g>
   <g id="patch_3">
    <path d="M 81.577674 374.4 
L 81.577674 57.6 
" style="fill:none;stroke:#000000;stroke-linecap:square;stroke-linejoin:miter;stroke-width:0.8;"/>
   </g>
   <g id="patch_4">
    <path d="M 397.691163 374.4 
L 397.691163 57.6 
" style="fill:none;stroke:#000000;stroke-linecap:square;stroke-linejoin:miter;stroke-width:0.8;"/>
   </g>
   <g id="patch_5">
    <path d="M 81.577674 374.4 
L 397.691163 374.4 
" style="fill:none;stroke:#000000;stroke-linecap:square;stroke-linejoin:miter;stroke-width:0.8;"/>
   </g>
   <g id="patch_6">
    <path d="M 81.577674 57.6 
L 397.691163 57.6 
" style="fill:none;stroke:#000000;stroke-linecap:square;stroke-linejoin:miter;stroke-width:0.8;"/>
   </g>
   <g id="text_16">
    <!-- is_nk = 1 -->
    <defs>
     <path d="M 44.28125 53.078125 
L 44.28125 44.578125 
Q 40.484375 46.53125 36.375 47.5 
Q 32.28125 48.484375 27.875 48.484375 
Q 21.1875 48.484375 17.84375 46.4375 
Q 14.5 44.390625 14.5 40.28125 
Q 14.5 37.15625 16.890625 35.375 
Q 19.28125 33.59375 26.515625 31.984375 
L 29.59375 31.296875 
Q 39.15625 29.25 43.1875 25.515625 
Q 47.21875 21.78125 47.21875 15.09375 
Q 47.21875 7.46875 41.1875 3.015625 
Q 35.15625 -1.421875 24.609375 -1.421875 
Q 20.21875 -1.421875 15.453125 -0.5625 
Q 10.6875 0.296875 5.421875 2 
L 5.421875 11.28125 
Q 10.40625 8.6875 15.234375 7.390625 
Q 20.0625 6.109375 24.8125 6.109375 
Q 31.15625 6.109375 34.5625 8.28125 
Q 37.984375 10.453125 37.984375 14.40625 
Q 37.984375 18.0625 35.515625 20.015625 
Q 33.0625 21.96875 24.703125 23.78125 
L 21.578125 24.515625 
Q 13.234375 26.265625 9.515625 29.90625 
Q 5.8125 33.546875 5.8125 39.890625 
Q 5.8125 47.609375 11.28125 51.796875 
Q 16.75 56 26.8125 56 
Q 31.78125 56 36.171875 55.265625 
Q 40.578125 54.546875 44.28125 53.078125 
z
" id="DejaVuSans-115"/>
     <path d="M 50.984375 -16.609375 
L 50.984375 -23.578125 
L -0.984375 -23.578125 
L -0.984375 -16.609375 
z
" id="DejaVuSans-95"/>
     <path d="M 54.890625 33.015625 
L 54.890625 0 
L 45.90625 0 
L 45.90625 32.71875 
Q 45.90625 40.484375 42.875 44.328125 
Q 39.84375 48.1875 33.796875 48.1875 
Q 26.515625 48.1875 22.3125 43.546875 
Q 18.109375 38.921875 18.109375 30.90625 
L 18.109375 0 
L 9.078125 0 
L 9.078125 54.6875 
L 18.109375 54.6875 
L 18.109375 46.1875 
Q 21.34375 51.125 25.703125 53.5625 
Q 30.078125 56 35.796875 56 
Q 45.21875 56 50.046875 50.171875 
Q 54.890625 44.34375 54.890625 33.015625 
z
" id="DejaVuSans-110"/>
     <path d="M 9.078125 75.984375 
L 18.109375 75.984375 
L 18.109375 31.109375 
L 44.921875 54.6875 
L 56.390625 54.6875 
L 27.390625 29.109375 
L 57.625 0 
L 45.90625 0 
L 18.109375 26.703125 
L 18.109375 0 
L 9.078125 0 
z
" id="DejaVuSans-107"/>
     <path id="DejaVuSans-32"/>
     <path d="M 10.59375 45.40625 
L 73.1875 45.40625 
L 73.1875 37.203125 
L 10.59375 37.203125 
z
M 10.59375 25.484375 
L 73.1875 25.484375 
L 73.1875 17.1875 
L 10.59375 17.1875 
z
" id="DejaVuSans-61"/>
    </defs>
    <g transform="translate(211.905981 51.6)scale(0.12 -0.12)">
     <use xlink:href="#DejaVuSans-105"/>
     <use x="27.783203" xlink:href="#DejaVuSans-115"/>
     <use x="79.882812" xlink:href="#DejaVuSans-95"/>
     <use x="129.882812" xlink:href="#DejaVuSans-110"/>
     <use x="193.261719" xlink:href="#DejaVuSans-107"/>
     <use x="251.171875" xlink:href="#DejaVuSans-32"/>
     <use x="282.958984" xlink:href="#DejaVuSans-61"/>
     <use x="366.748047" xlink:href="#DejaVuSans-32"/>
     <use x="398.535156" xlink:href="#DejaVuSans-49"/>
    </g>
   </g>
  </g>
 </g>
 <defs>
  <clipPath id="p580dc80996">
   <rect height="316.8" width="316.113488" x="81.577674" y="57.6"/>
  </clipPath>
 </defs>
</svg>
