<?xml version="1.0" encoding="utf-8" standalone="no"?>
<!DOCTYPE svg PUBLIC "-//W3C//DTD SVG 1.1//EN"
  "http://www.w3.org/Graphics/SVG/1.1/DTD/svg11.dtd">
<!-- Created with matplotlib (https://matplotlib.org/) -->
<svg height="432pt" version="1.1" viewBox="0 0 438.48 432" width="438.48pt" xmlns="http://www.w3.org/2000/svg" xmlns:xlink="http://www.w3.org/1999/xlink">
 <defs>
  <style type="text/css">
*{stroke-linecap:butt;stroke-linejoin:round;}
  </style>
 </defs>
 <g id="figure_1">
  <g id="patch_1">
   <path d="M 0 432 
L 438.48 432 
L 438.48 0 
L 0 0 
z
" style="fill:#ffffff;"/>
  </g>
  <g id="axes_1">
   <g id="patch_2">
    <path d="M 81.577674 374.4 
L 397.691163 374.4 
L 397.691163 57.6 
L 81.577674 57.6 
z
" style="fill:#ffffff;"/>
   </g>
   <g id="matplotlib.axis_1">
    <g id="xtick_1">
     <g id="line2d_1">
      <path clip-path="url(#p87c6ca8e69)" d="M 81.577674 374.4 
L 81.577674 57.6 
" style="fill:none;stroke:#000000;stroke-linecap:square;stroke-width:0.8;"/>
     </g>
     <g id="line2d_2">
      <defs>
       <path d="M 0 0 
L 0 3.5 
" id="m1106064a2d" style="stroke:#000000;stroke-width:0.8;"/>
      </defs>
      <g>
       <use style="stroke:#000000;stroke-width:0.8;" x="81.577674" xlink:href="#m1106064a2d" y="374.4"/>
      </g>
     </g>
     <g id="text_1">
      <!-- 4.50 -->
      <defs>
       <path d="M 37.796875 64.3125 
L 12.890625 25.390625 
L 37.796875 25.390625 
z
M 35.203125 72.90625 
L 47.609375 72.90625 
L 47.609375 25.390625 
L 58.015625 25.390625 
L 58.015625 17.1875 
L 47.609375 17.1875 
L 47.609375 0 
L 37.796875 0 
L 37.796875 17.1875 
L 4.890625 17.1875 
L 4.890625 26.703125 
z
" id="DejaVuSans-52"/>
       <path d="M 10.6875 12.40625 
L 21 12.40625 
L 21 0 
L 10.6875 0 
z
" id="DejaVuSans-46"/>
       <path d="M 10.796875 72.90625 
L 49.515625 72.90625 
L 49.515625 64.59375 
L 19.828125 64.59375 
L 19.828125 46.734375 
Q 21.96875 47.46875 24.109375 47.828125 
Q 26.265625 48.1875 28.421875 48.1875 
Q 40.625 48.1875 47.75 41.5 
Q 54.890625 34.8125 54.890625 23.390625 
Q 54.890625 11.625 47.5625 5.09375 
Q 40.234375 -1.421875 26.90625 -1.421875 
Q 22.3125 -1.421875 17.546875 -0.640625 
Q 12.796875 0.140625 7.71875 1.703125 
L 7.71875 11.625 
Q 12.109375 9.234375 16.796875 8.0625 
Q 21.484375 6.890625 26.703125 6.890625 
Q 35.15625 6.890625 40.078125 11.328125 
Q 45.015625 15.765625 45.015625 23.390625 
Q 45.015625 31 40.078125 35.4375 
Q 35.15625 39.890625 26.703125 39.890625 
Q 22.75 39.890625 18.8125 39.015625 
Q 14.890625 38.140625 10.796875 36.28125 
z
" id="DejaVuSans-53"/>
       <path d="M 31.78125 66.40625 
Q 24.171875 66.40625 20.328125 58.90625 
Q 16.5 51.421875 16.5 36.375 
Q 16.5 21.390625 20.328125 13.890625 
Q 24.171875 6.390625 31.78125 6.390625 
Q 39.453125 6.390625 43.28125 13.890625 
Q 47.125 21.390625 47.125 36.375 
Q 47.125 51.421875 43.28125 58.90625 
Q 39.453125 66.40625 31.78125 66.40625 
z
M 31.78125 74.21875 
Q 44.046875 74.21875 50.515625 64.515625 
Q 56.984375 54.828125 56.984375 36.375 
Q 56.984375 17.96875 50.515625 8.265625 
Q 44.046875 -1.421875 31.78125 -1.421875 
Q 19.53125 -1.421875 13.0625 8.265625 
Q 6.59375 17.96875 6.59375 36.375 
Q 6.59375 54.828125 13.0625 64.515625 
Q 19.53125 74.21875 31.78125 74.21875 
z
" id="DejaVuSans-48"/>
      </defs>
      <g transform="translate(70.444862 388.998438)scale(0.1 -0.1)">
       <use xlink:href="#DejaVuSans-52"/>
       <use x="63.623047" xlink:href="#DejaVuSans-46"/>
       <use x="95.410156" xlink:href="#DejaVuSans-53"/>
       <use x="159.033203" xlink:href="#DejaVuSans-48"/>
      </g>
     </g>
    </g>
    <g id="xtick_2">
     <g id="line2d_3">
      <path clip-path="url(#p87c6ca8e69)" d="M 124.295713 374.4 
L 124.295713 57.6 
" style="fill:none;stroke:#000000;stroke-linecap:square;stroke-width:0.8;"/>
     </g>
     <g id="line2d_4">
      <g>
       <use style="stroke:#000000;stroke-width:0.8;" x="124.295713" xlink:href="#m1106064a2d" y="374.4"/>
      </g>
     </g>
     <g id="text_2">
      <!-- 4.55 -->
      <g transform="translate(113.162901 388.998438)scale(0.1 -0.1)">
       <use xlink:href="#DejaVuSans-52"/>
       <use x="63.623047" xlink:href="#DejaVuSans-46"/>
       <use x="95.410156" xlink:href="#DejaVuSans-53"/>
       <use x="159.033203" xlink:href="#DejaVuSans-53"/>
      </g>
     </g>
    </g>
    <g id="xtick_3">
     <g id="line2d_5">
      <path clip-path="url(#p87c6ca8e69)" d="M 167.013752 374.4 
L 167.013752 57.6 
" style="fill:none;stroke:#000000;stroke-linecap:square;stroke-width:0.8;"/>
     </g>
     <g id="line2d_6">
      <g>
       <use style="stroke:#000000;stroke-width:0.8;" x="167.013752" xlink:href="#m1106064a2d" y="374.4"/>
      </g>
     </g>
     <g id="text_3">
      <!-- 4.60 -->
      <defs>
       <path d="M 33.015625 40.375 
Q 26.375 40.375 22.484375 35.828125 
Q 18.609375 31.296875 18.609375 23.390625 
Q 18.609375 15.53125 22.484375 10.953125 
Q 26.375 6.390625 33.015625 6.390625 
Q 39.65625 6.390625 43.53125 10.953125 
Q 47.40625 15.53125 47.40625 23.390625 
Q 47.40625 31.296875 43.53125 35.828125 
Q 39.65625 40.375 33.015625 40.375 
z
M 52.59375 71.296875 
L 52.59375 62.3125 
Q 48.875 64.0625 45.09375 64.984375 
Q 41.3125 65.921875 37.59375 65.921875 
Q 27.828125 65.921875 22.671875 59.328125 
Q 17.53125 52.734375 16.796875 39.40625 
Q 19.671875 43.65625 24.015625 45.921875 
Q 28.375 48.1875 33.59375 48.1875 
Q 44.578125 48.1875 50.953125 41.515625 
Q 57.328125 34.859375 57.328125 23.390625 
Q 57.328125 12.15625 50.6875 5.359375 
Q 44.046875 -1.421875 33.015625 -1.421875 
Q 20.359375 -1.421875 13.671875 8.265625 
Q 6.984375 17.96875 6.984375 36.375 
Q 6.984375 53.65625 15.1875 63.9375 
Q 23.390625 74.21875 37.203125 74.21875 
Q 40.921875 74.21875 44.703125 73.484375 
Q 48.484375 72.75 52.59375 71.296875 
z
" id="DejaVuSans-54"/>
      </defs>
      <g transform="translate(155.88094 388.998438)scale(0.1 -0.1)">
       <use xlink:href="#DejaVuSans-52"/>
       <use x="63.623047" xlink:href="#DejaVuSans-46"/>
       <use x="95.410156" xlink:href="#DejaVuSans-54"/>
       <use x="159.033203" xlink:href="#DejaVuSans-48"/>
      </g>
     </g>
    </g>
    <g id="xtick_4">
     <g id="line2d_7">
      <path clip-path="url(#p87c6ca8e69)" d="M 209.731791 374.4 
L 209.731791 57.6 
" style="fill:none;stroke:#000000;stroke-linecap:square;stroke-width:0.8;"/>
     </g>
     <g id="line2d_8">
      <g>
       <use style="stroke:#000000;stroke-width:0.8;" x="209.731791" xlink:href="#m1106064a2d" y="374.4"/>
      </g>
     </g>
     <g id="text_4">
      <!-- 4.65 -->
      <g transform="translate(198.598979 388.998438)scale(0.1 -0.1)">
       <use xlink:href="#DejaVuSans-52"/>
       <use x="63.623047" xlink:href="#DejaVuSans-46"/>
       <use x="95.410156" xlink:href="#DejaVuSans-54"/>
       <use x="159.033203" xlink:href="#DejaVuSans-53"/>
      </g>
     </g>
    </g>
    <g id="xtick_5">
     <g id="line2d_9">
      <path clip-path="url(#p87c6ca8e69)" d="M 252.44983 374.4 
L 252.44983 57.6 
" style="fill:none;stroke:#000000;stroke-linecap:square;stroke-width:0.8;"/>
     </g>
     <g id="line2d_10">
      <g>
       <use style="stroke:#000000;stroke-width:0.8;" x="252.44983" xlink:href="#m1106064a2d" y="374.4"/>
      </g>
     </g>
     <g id="text_5">
      <!-- 4.70 -->
      <defs>
       <path d="M 8.203125 72.90625 
L 55.078125 72.90625 
L 55.078125 68.703125 
L 28.609375 0 
L 18.3125 0 
L 43.21875 64.59375 
L 8.203125 64.59375 
z
" id="DejaVuSans-55"/>
      </defs>
      <g transform="translate(241.317018 388.998438)scale(0.1 -0.1)">
       <use xlink:href="#DejaVuSans-52"/>
       <use x="63.623047" xlink:href="#DejaVuSans-46"/>
       <use x="95.410156" xlink:href="#DejaVuSans-55"/>
       <use x="159.033203" xlink:href="#DejaVuSans-48"/>
      </g>
     </g>
    </g>
    <g id="xtick_6">
     <g id="line2d_11">
      <path clip-path="url(#p87c6ca8e69)" d="M 295.167869 374.4 
L 295.167869 57.6 
" style="fill:none;stroke:#000000;stroke-linecap:square;stroke-width:0.8;"/>
     </g>
     <g id="line2d_12">
      <g>
       <use style="stroke:#000000;stroke-width:0.8;" x="295.167869" xlink:href="#m1106064a2d" y="374.4"/>
      </g>
     </g>
     <g id="text_6">
      <!-- 4.75 -->
      <g transform="translate(284.035057 388.998438)scale(0.1 -0.1)">
       <use xlink:href="#DejaVuSans-52"/>
       <use x="63.623047" xlink:href="#DejaVuSans-46"/>
       <use x="95.410156" xlink:href="#DejaVuSans-55"/>
       <use x="159.033203" xlink:href="#DejaVuSans-53"/>
      </g>
     </g>
    </g>
    <g id="xtick_7">
     <g id="line2d_13">
      <path clip-path="url(#p87c6ca8e69)" d="M 337.885908 374.4 
L 337.885908 57.6 
" style="fill:none;stroke:#000000;stroke-linecap:square;stroke-width:0.8;"/>
     </g>
     <g id="line2d_14">
      <g>
       <use style="stroke:#000000;stroke-width:0.8;" x="337.885908" xlink:href="#m1106064a2d" y="374.4"/>
      </g>
     </g>
     <g id="text_7">
      <!-- 4.80 -->
      <defs>
       <path d="M 31.78125 34.625 
Q 24.75 34.625 20.71875 30.859375 
Q 16.703125 27.09375 16.703125 20.515625 
Q 16.703125 13.921875 20.71875 10.15625 
Q 24.75 6.390625 31.78125 6.390625 
Q 38.8125 6.390625 42.859375 10.171875 
Q 46.921875 13.96875 46.921875 20.515625 
Q 46.921875 27.09375 42.890625 30.859375 
Q 38.875 34.625 31.78125 34.625 
z
M 21.921875 38.8125 
Q 15.578125 40.375 12.03125 44.71875 
Q 8.5 49.078125 8.5 55.328125 
Q 8.5 64.0625 14.71875 69.140625 
Q 20.953125 74.21875 31.78125 74.21875 
Q 42.671875 74.21875 48.875 69.140625 
Q 55.078125 64.0625 55.078125 55.328125 
Q 55.078125 49.078125 51.53125 44.71875 
Q 48 40.375 41.703125 38.8125 
Q 48.828125 37.15625 52.796875 32.3125 
Q 56.78125 27.484375 56.78125 20.515625 
Q 56.78125 9.90625 50.3125 4.234375 
Q 43.84375 -1.421875 31.78125 -1.421875 
Q 19.734375 -1.421875 13.25 4.234375 
Q 6.78125 9.90625 6.78125 20.515625 
Q 6.78125 27.484375 10.78125 32.3125 
Q 14.796875 37.15625 21.921875 38.8125 
z
M 18.3125 54.390625 
Q 18.3125 48.734375 21.84375 45.5625 
Q 25.390625 42.390625 31.78125 42.390625 
Q 38.140625 42.390625 41.71875 45.5625 
Q 45.3125 48.734375 45.3125 54.390625 
Q 45.3125 60.0625 41.71875 63.234375 
Q 38.140625 66.40625 31.78125 66.40625 
Q 25.390625 66.40625 21.84375 63.234375 
Q 18.3125 60.0625 18.3125 54.390625 
z
" id="DejaVuSans-56"/>
      </defs>
      <g transform="translate(326.753096 388.998438)scale(0.1 -0.1)">
       <use xlink:href="#DejaVuSans-52"/>
       <use x="63.623047" xlink:href="#DejaVuSans-46"/>
       <use x="95.410156" xlink:href="#DejaVuSans-56"/>
       <use x="159.033203" xlink:href="#DejaVuSans-48"/>
      </g>
     </g>
    </g>
    <g id="xtick_8">
     <g id="line2d_15">
      <path clip-path="url(#p87c6ca8e69)" d="M 380.603947 374.4 
L 380.603947 57.6 
" style="fill:none;stroke:#000000;stroke-linecap:square;stroke-width:0.8;"/>
     </g>
     <g id="line2d_16">
      <g>
       <use style="stroke:#000000;stroke-width:0.8;" x="380.603947" xlink:href="#m1106064a2d" y="374.4"/>
      </g>
     </g>
     <g id="text_8">
      <!-- 4.85 -->
      <g transform="translate(369.471135 388.998438)scale(0.1 -0.1)">
       <use xlink:href="#DejaVuSans-52"/>
       <use x="63.623047" xlink:href="#DejaVuSans-46"/>
       <use x="95.410156" xlink:href="#DejaVuSans-56"/>
       <use x="159.033203" xlink:href="#DejaVuSans-53"/>
      </g>
     </g>
    </g>
    <g id="text_9">
     <!-- Omeg -->
     <defs>
      <path d="M 39.40625 66.21875 
Q 28.65625 66.21875 22.328125 58.203125 
Q 16.015625 50.203125 16.015625 36.375 
Q 16.015625 22.609375 22.328125 14.59375 
Q 28.65625 6.59375 39.40625 6.59375 
Q 50.140625 6.59375 56.421875 14.59375 
Q 62.703125 22.609375 62.703125 36.375 
Q 62.703125 50.203125 56.421875 58.203125 
Q 50.140625 66.21875 39.40625 66.21875 
z
M 39.40625 74.21875 
Q 54.734375 74.21875 63.90625 63.9375 
Q 73.09375 53.65625 73.09375 36.375 
Q 73.09375 19.140625 63.90625 8.859375 
Q 54.734375 -1.421875 39.40625 -1.421875 
Q 24.03125 -1.421875 14.8125 8.828125 
Q 5.609375 19.09375 5.609375 36.375 
Q 5.609375 53.65625 14.8125 63.9375 
Q 24.03125 74.21875 39.40625 74.21875 
z
" id="DejaVuSans-79"/>
      <path d="M 52 44.1875 
Q 55.375 50.25 60.0625 53.125 
Q 64.75 56 71.09375 56 
Q 79.640625 56 84.28125 50.015625 
Q 88.921875 44.046875 88.921875 33.015625 
L 88.921875 0 
L 79.890625 0 
L 79.890625 32.71875 
Q 79.890625 40.578125 77.09375 44.375 
Q 74.3125 48.1875 68.609375 48.1875 
Q 61.625 48.1875 57.5625 43.546875 
Q 53.515625 38.921875 53.515625 30.90625 
L 53.515625 0 
L 44.484375 0 
L 44.484375 32.71875 
Q 44.484375 40.625 41.703125 44.40625 
Q 38.921875 48.1875 33.109375 48.1875 
Q 26.21875 48.1875 22.15625 43.53125 
Q 18.109375 38.875 18.109375 30.90625 
L 18.109375 0 
L 9.078125 0 
L 9.078125 54.6875 
L 18.109375 54.6875 
L 18.109375 46.1875 
Q 21.1875 51.21875 25.484375 53.609375 
Q 29.78125 56 35.6875 56 
Q 41.65625 56 45.828125 52.96875 
Q 50 49.953125 52 44.1875 
z
" id="DejaVuSans-109"/>
      <path d="M 56.203125 29.59375 
L 56.203125 25.203125 
L 14.890625 25.203125 
Q 15.484375 15.921875 20.484375 11.0625 
Q 25.484375 6.203125 34.421875 6.203125 
Q 39.59375 6.203125 44.453125 7.46875 
Q 49.3125 8.734375 54.109375 11.28125 
L 54.109375 2.78125 
Q 49.265625 0.734375 44.1875 -0.34375 
Q 39.109375 -1.421875 33.890625 -1.421875 
Q 20.796875 -1.421875 13.15625 6.1875 
Q 5.515625 13.8125 5.515625 26.8125 
Q 5.515625 40.234375 12.765625 48.109375 
Q 20.015625 56 32.328125 56 
Q 43.359375 56 49.78125 48.890625 
Q 56.203125 41.796875 56.203125 29.59375 
z
M 47.21875 32.234375 
Q 47.125 39.59375 43.09375 43.984375 
Q 39.0625 48.390625 32.421875 48.390625 
Q 24.90625 48.390625 20.390625 44.140625 
Q 15.875 39.890625 15.1875 32.171875 
z
" id="DejaVuSans-101"/>
      <path d="M 45.40625 27.984375 
Q 45.40625 37.75 41.375 43.109375 
Q 37.359375 48.484375 30.078125 48.484375 
Q 22.859375 48.484375 18.828125 43.109375 
Q 14.796875 37.75 14.796875 27.984375 
Q 14.796875 18.265625 18.828125 12.890625 
Q 22.859375 7.515625 30.078125 7.515625 
Q 37.359375 7.515625 41.375 12.890625 
Q 45.40625 18.265625 45.40625 27.984375 
z
M 54.390625 6.78125 
Q 54.390625 -7.171875 48.1875 -13.984375 
Q 42 -20.796875 29.203125 -20.796875 
Q 24.46875 -20.796875 20.265625 -20.09375 
Q 16.0625 -19.390625 12.109375 -17.921875 
L 12.109375 -9.1875 
Q 16.0625 -11.328125 19.921875 -12.34375 
Q 23.78125 -13.375 27.78125 -13.375 
Q 36.625 -13.375 41.015625 -8.765625 
Q 45.40625 -4.15625 45.40625 5.171875 
L 45.40625 9.625 
Q 42.625 4.78125 38.28125 2.390625 
Q 33.9375 0 27.875 0 
Q 17.828125 0 11.671875 7.65625 
Q 5.515625 15.328125 5.515625 27.984375 
Q 5.515625 40.671875 11.671875 48.328125 
Q 17.828125 56 27.875 56 
Q 33.9375 56 38.28125 53.609375 
Q 42.625 51.21875 45.40625 46.390625 
L 45.40625 54.6875 
L 54.390625 54.6875 
z
" id="DejaVuSans-103"/>
     </defs>
     <g transform="translate(224.577387 402.676563)scale(0.1 -0.1)">
      <use xlink:href="#DejaVuSans-79"/>
      <use x="78.710938" xlink:href="#DejaVuSans-109"/>
      <use x="176.123047" xlink:href="#DejaVuSans-101"/>
      <use x="237.646484" xlink:href="#DejaVuSans-103"/>
     </g>
    </g>
   </g>
   <g id="matplotlib.axis_2">
    <g id="ytick_1">
     <g id="line2d_17">
      <path clip-path="url(#p87c6ca8e69)" d="M 81.577674 374.4 
L 397.691163 374.4 
" style="fill:none;stroke:#000000;stroke-linecap:square;stroke-width:0.8;"/>
     </g>
     <g id="line2d_18">
      <defs>
       <path d="M 0 0 
L -3.5 0 
" id="m678d67e1c9" style="stroke:#000000;stroke-width:0.8;"/>
      </defs>
      <g>
       <use style="stroke:#000000;stroke-width:0.8;" x="81.577674" xlink:href="#m678d67e1c9" y="374.4"/>
      </g>
     </g>
     <g id="text_10">
      <!-- 1.28 -->
      <defs>
       <path d="M 12.40625 8.296875 
L 28.515625 8.296875 
L 28.515625 63.921875 
L 10.984375 60.40625 
L 10.984375 69.390625 
L 28.421875 72.90625 
L 38.28125 72.90625 
L 38.28125 8.296875 
L 54.390625 8.296875 
L 54.390625 0 
L 12.40625 0 
z
" id="DejaVuSans-49"/>
       <path d="M 19.1875 8.296875 
L 53.609375 8.296875 
L 53.609375 0 
L 7.328125 0 
L 7.328125 8.296875 
Q 12.9375 14.109375 22.625 23.890625 
Q 32.328125 33.6875 34.8125 36.53125 
Q 39.546875 41.84375 41.421875 45.53125 
Q 43.3125 49.21875 43.3125 52.78125 
Q 43.3125 58.59375 39.234375 62.25 
Q 35.15625 65.921875 28.609375 65.921875 
Q 23.96875 65.921875 18.8125 64.3125 
Q 13.671875 62.703125 7.8125 59.421875 
L 7.8125 69.390625 
Q 13.765625 71.78125 18.9375 73 
Q 24.125 74.21875 28.421875 74.21875 
Q 39.75 74.21875 46.484375 68.546875 
Q 53.21875 62.890625 53.21875 53.421875 
Q 53.21875 48.921875 51.53125 44.890625 
Q 49.859375 40.875 45.40625 35.40625 
Q 44.1875 33.984375 37.640625 27.21875 
Q 31.109375 20.453125 19.1875 8.296875 
z
" id="DejaVuSans-50"/>
      </defs>
      <g transform="translate(52.312049 378.199219)scale(0.1 -0.1)">
       <use xlink:href="#DejaVuSans-49"/>
       <use x="63.623047" xlink:href="#DejaVuSans-46"/>
       <use x="95.410156" xlink:href="#DejaVuSans-50"/>
       <use x="159.033203" xlink:href="#DejaVuSans-56"/>
      </g>
     </g>
    </g>
    <g id="ytick_2">
     <g id="line2d_19">
      <path clip-path="url(#p87c6ca8e69)" d="M 81.577674 339.2 
L 397.691163 339.2 
" style="fill:none;stroke:#000000;stroke-linecap:square;stroke-width:0.8;"/>
     </g>
     <g id="line2d_20">
      <g>
       <use style="stroke:#000000;stroke-width:0.8;" x="81.577674" xlink:href="#m678d67e1c9" y="339.2"/>
      </g>
     </g>
     <g id="text_11">
      <!-- 1.30 -->
      <defs>
       <path d="M 40.578125 39.3125 
Q 47.65625 37.796875 51.625 33 
Q 55.609375 28.21875 55.609375 21.1875 
Q 55.609375 10.40625 48.1875 4.484375 
Q 40.765625 -1.421875 27.09375 -1.421875 
Q 22.515625 -1.421875 17.65625 -0.515625 
Q 12.796875 0.390625 7.625 2.203125 
L 7.625 11.71875 
Q 11.71875 9.328125 16.59375 8.109375 
Q 21.484375 6.890625 26.8125 6.890625 
Q 36.078125 6.890625 40.9375 10.546875 
Q 45.796875 14.203125 45.796875 21.1875 
Q 45.796875 27.640625 41.28125 31.265625 
Q 36.765625 34.90625 28.71875 34.90625 
L 20.21875 34.90625 
L 20.21875 43.015625 
L 29.109375 43.015625 
Q 36.375 43.015625 40.234375 45.921875 
Q 44.09375 48.828125 44.09375 54.296875 
Q 44.09375 59.90625 40.109375 62.90625 
Q 36.140625 65.921875 28.71875 65.921875 
Q 24.65625 65.921875 20.015625 65.03125 
Q 15.375 64.15625 9.8125 62.3125 
L 9.8125 71.09375 
Q 15.4375 72.65625 20.34375 73.4375 
Q 25.25 74.21875 29.59375 74.21875 
Q 40.828125 74.21875 47.359375 69.109375 
Q 53.90625 64.015625 53.90625 55.328125 
Q 53.90625 49.265625 50.4375 45.09375 
Q 46.96875 40.921875 40.578125 39.3125 
z
" id="DejaVuSans-51"/>
      </defs>
      <g transform="translate(52.312049 342.999219)scale(0.1 -0.1)">
       <use xlink:href="#DejaVuSans-49"/>
       <use x="63.623047" xlink:href="#DejaVuSans-46"/>
       <use x="95.410156" xlink:href="#DejaVuSans-51"/>
       <use x="159.033203" xlink:href="#DejaVuSans-48"/>
      </g>
     </g>
    </g>
    <g id="ytick_3">
     <g id="line2d_21">
      <path clip-path="url(#p87c6ca8e69)" d="M 81.577674 304 
L 397.691163 304 
" style="fill:none;stroke:#000000;stroke-linecap:square;stroke-width:0.8;"/>
     </g>
     <g id="line2d_22">
      <g>
       <use style="stroke:#000000;stroke-width:0.8;" x="81.577674" xlink:href="#m678d67e1c9" y="304"/>
      </g>
     </g>
     <g id="text_12">
      <!-- 1.32 -->
      <g transform="translate(52.312049 307.799219)scale(0.1 -0.1)">
       <use xlink:href="#DejaVuSans-49"/>
       <use x="63.623047" xlink:href="#DejaVuSans-46"/>
       <use x="95.410156" xlink:href="#DejaVuSans-51"/>
       <use x="159.033203" xlink:href="#DejaVuSans-50"/>
      </g>
     </g>
    </g>
    <g id="ytick_4">
     <g id="line2d_23">
      <path clip-path="url(#p87c6ca8e69)" d="M 81.577674 268.8 
L 397.691163 268.8 
" style="fill:none;stroke:#000000;stroke-linecap:square;stroke-width:0.8;"/>
     </g>
     <g id="line2d_24">
      <g>
       <use style="stroke:#000000;stroke-width:0.8;" x="81.577674" xlink:href="#m678d67e1c9" y="268.8"/>
      </g>
     </g>
     <g id="text_13">
      <!-- 1.34 -->
      <g transform="translate(52.312049 272.599219)scale(0.1 -0.1)">
       <use xlink:href="#DejaVuSans-49"/>
       <use x="63.623047" xlink:href="#DejaVuSans-46"/>
       <use x="95.410156" xlink:href="#DejaVuSans-51"/>
       <use x="159.033203" xlink:href="#DejaVuSans-52"/>
      </g>
     </g>
    </g>
    <g id="ytick_5">
     <g id="line2d_25">
      <path clip-path="url(#p87c6ca8e69)" d="M 81.577674 233.6 
L 397.691163 233.6 
" style="fill:none;stroke:#000000;stroke-linecap:square;stroke-width:0.8;"/>
     </g>
     <g id="line2d_26">
      <g>
       <use style="stroke:#000000;stroke-width:0.8;" x="81.577674" xlink:href="#m678d67e1c9" y="233.6"/>
      </g>
     </g>
     <g id="text_14">
      <!-- 1.36 -->
      <g transform="translate(52.312049 237.399219)scale(0.1 -0.1)">
       <use xlink:href="#DejaVuSans-49"/>
       <use x="63.623047" xlink:href="#DejaVuSans-46"/>
       <use x="95.410156" xlink:href="#DejaVuSans-51"/>
       <use x="159.033203" xlink:href="#DejaVuSans-54"/>
      </g>
     </g>
    </g>
    <g id="ytick_6">
     <g id="line2d_27">
      <path clip-path="url(#p87c6ca8e69)" d="M 81.577674 198.4 
L 397.691163 198.4 
" style="fill:none;stroke:#000000;stroke-linecap:square;stroke-width:0.8;"/>
     </g>
     <g id="line2d_28">
      <g>
       <use style="stroke:#000000;stroke-width:0.8;" x="81.577674" xlink:href="#m678d67e1c9" y="198.4"/>
      </g>
     </g>
     <g id="text_15">
      <!-- 1.38 -->
      <g transform="translate(52.312049 202.199219)scale(0.1 -0.1)">
       <use xlink:href="#DejaVuSans-49"/>
       <use x="63.623047" xlink:href="#DejaVuSans-46"/>
       <use x="95.410156" xlink:href="#DejaVuSans-51"/>
       <use x="159.033203" xlink:href="#DejaVuSans-56"/>
      </g>
     </g>
    </g>
    <g id="ytick_7">
     <g id="line2d_29">
      <path clip-path="url(#p87c6ca8e69)" d="M 81.577674 163.2 
L 397.691163 163.2 
" style="fill:none;stroke:#000000;stroke-linecap:square;stroke-width:0.8;"/>
     </g>
     <g id="line2d_30">
      <g>
       <use style="stroke:#000000;stroke-width:0.8;" x="81.577674" xlink:href="#m678d67e1c9" y="163.2"/>
      </g>
     </g>
     <g id="text_16">
      <!-- 1.40 -->
      <g transform="translate(52.312049 166.999219)scale(0.1 -0.1)">
       <use xlink:href="#DejaVuSans-49"/>
       <use x="63.623047" xlink:href="#DejaVuSans-46"/>
       <use x="95.410156" xlink:href="#DejaVuSans-52"/>
       <use x="159.033203" xlink:href="#DejaVuSans-48"/>
      </g>
     </g>
    </g>
    <g id="ytick_8">
     <g id="line2d_31">
      <path clip-path="url(#p87c6ca8e69)" d="M 81.577674 128 
L 397.691163 128 
" style="fill:none;stroke:#000000;stroke-linecap:square;stroke-width:0.8;"/>
     </g>
     <g id="line2d_32">
      <g>
       <use style="stroke:#000000;stroke-width:0.8;" x="81.577674" xlink:href="#m678d67e1c9" y="128"/>
      </g>
     </g>
     <g id="text_17">
      <!-- 1.42 -->
      <g transform="translate(52.312049 131.799219)scale(0.1 -0.1)">
       <use xlink:href="#DejaVuSans-49"/>
       <use x="63.623047" xlink:href="#DejaVuSans-46"/>
       <use x="95.410156" xlink:href="#DejaVuSans-52"/>
       <use x="159.033203" xlink:href="#DejaVuSans-50"/>
      </g>
     </g>
    </g>
    <g id="ytick_9">
     <g id="line2d_33">
      <path clip-path="url(#p87c6ca8e69)" d="M 81.577674 92.8 
L 397.691163 92.8 
" style="fill:none;stroke:#000000;stroke-linecap:square;stroke-width:0.8;"/>
     </g>
     <g id="line2d_34">
      <g>
       <use style="stroke:#000000;stroke-width:0.8;" x="81.577674" xlink:href="#m678d67e1c9" y="92.8"/>
      </g>
     </g>
     <g id="text_18">
      <!-- 1.44 -->
      <g transform="translate(52.312049 96.599219)scale(0.1 -0.1)">
       <use xlink:href="#DejaVuSans-49"/>
       <use x="63.623047" xlink:href="#DejaVuSans-46"/>
       <use x="95.410156" xlink:href="#DejaVuSans-52"/>
       <use x="159.033203" xlink:href="#DejaVuSans-52"/>
      </g>
     </g>
    </g>
    <g id="ytick_10">
     <g id="line2d_35">
      <path clip-path="url(#p87c6ca8e69)" d="M 81.577674 57.6 
L 397.691163 57.6 
" style="fill:none;stroke:#000000;stroke-linecap:square;stroke-width:0.8;"/>
     </g>
     <g id="line2d_36">
      <g>
       <use style="stroke:#000000;stroke-width:0.8;" x="81.577674" xlink:href="#m678d67e1c9" y="57.6"/>
      </g>
     </g>
     <g id="text_19">
      <!-- 1.46 -->
      <g transform="translate(52.312049 61.399219)scale(0.1 -0.1)">
       <use xlink:href="#DejaVuSans-49"/>
       <use x="63.623047" xlink:href="#DejaVuSans-46"/>
       <use x="95.410156" xlink:href="#DejaVuSans-52"/>
       <use x="159.033203" xlink:href="#DejaVuSans-54"/>
      </g>
     </g>
    </g>
    <g id="text_20">
     <!-- Amplitude -->
     <defs>
      <path d="M 34.1875 63.1875 
L 20.796875 26.90625 
L 47.609375 26.90625 
z
M 28.609375 72.90625 
L 39.796875 72.90625 
L 67.578125 0 
L 57.328125 0 
L 50.6875 18.703125 
L 17.828125 18.703125 
L 11.1875 0 
L 0.78125 0 
z
" id="DejaVuSans-65"/>
      <path d="M 18.109375 8.203125 
L 18.109375 -20.796875 
L 9.078125 -20.796875 
L 9.078125 54.6875 
L 18.109375 54.6875 
L 18.109375 46.390625 
Q 20.953125 51.265625 25.265625 53.625 
Q 29.59375 56 35.59375 56 
Q 45.5625 56 51.78125 48.09375 
Q 58.015625 40.1875 58.015625 27.296875 
Q 58.015625 14.40625 51.78125 6.484375 
Q 45.5625 -1.421875 35.59375 -1.421875 
Q 29.59375 -1.421875 25.265625 0.953125 
Q 20.953125 3.328125 18.109375 8.203125 
z
M 48.6875 27.296875 
Q 48.6875 37.203125 44.609375 42.84375 
Q 40.53125 48.484375 33.40625 48.484375 
Q 26.265625 48.484375 22.1875 42.84375 
Q 18.109375 37.203125 18.109375 27.296875 
Q 18.109375 17.390625 22.1875 11.75 
Q 26.265625 6.109375 33.40625 6.109375 
Q 40.53125 6.109375 44.609375 11.75 
Q 48.6875 17.390625 48.6875 27.296875 
z
" id="DejaVuSans-112"/>
      <path d="M 9.421875 75.984375 
L 18.40625 75.984375 
L 18.40625 0 
L 9.421875 0 
z
" id="DejaVuSans-108"/>
      <path d="M 9.421875 54.6875 
L 18.40625 54.6875 
L 18.40625 0 
L 9.421875 0 
z
M 9.421875 75.984375 
L 18.40625 75.984375 
L 18.40625 64.59375 
L 9.421875 64.59375 
z
" id="DejaVuSans-105"/>
      <path d="M 18.3125 70.21875 
L 18.3125 54.6875 
L 36.8125 54.6875 
L 36.8125 47.703125 
L 18.3125 47.703125 
L 18.3125 18.015625 
Q 18.3125 11.328125 20.140625 9.421875 
Q 21.96875 7.515625 27.59375 7.515625 
L 36.8125 7.515625 
L 36.8125 0 
L 27.59375 0 
Q 17.1875 0 13.234375 3.875 
Q 9.28125 7.765625 9.28125 18.015625 
L 9.28125 47.703125 
L 2.6875 47.703125 
L 2.6875 54.6875 
L 9.28125 54.6875 
L 9.28125 70.21875 
z
" id="DejaVuSans-116"/>
      <path d="M 8.5 21.578125 
L 8.5 54.6875 
L 17.484375 54.6875 
L 17.484375 21.921875 
Q 17.484375 14.15625 20.5 10.265625 
Q 23.53125 6.390625 29.59375 6.390625 
Q 36.859375 6.390625 41.078125 11.03125 
Q 45.3125 15.671875 45.3125 23.6875 
L 45.3125 54.6875 
L 54.296875 54.6875 
L 54.296875 0 
L 45.3125 0 
L 45.3125 8.40625 
Q 42.046875 3.421875 37.71875 1 
Q 33.40625 -1.421875 27.6875 -1.421875 
Q 18.265625 -1.421875 13.375 4.4375 
Q 8.5 10.296875 8.5 21.578125 
z
M 31.109375 56 
z
" id="DejaVuSans-117"/>
      <path d="M 45.40625 46.390625 
L 45.40625 75.984375 
L 54.390625 75.984375 
L 54.390625 0 
L 45.40625 0 
L 45.40625 8.203125 
Q 42.578125 3.328125 38.25 0.953125 
Q 33.9375 -1.421875 27.875 -1.421875 
Q 17.96875 -1.421875 11.734375 6.484375 
Q 5.515625 14.40625 5.515625 27.296875 
Q 5.515625 40.1875 11.734375 48.09375 
Q 17.96875 56 27.875 56 
Q 33.9375 56 38.25 53.625 
Q 42.578125 51.265625 45.40625 46.390625 
z
M 14.796875 27.296875 
Q 14.796875 17.390625 18.875 11.75 
Q 22.953125 6.109375 30.078125 6.109375 
Q 37.203125 6.109375 41.296875 11.75 
Q 45.40625 17.390625 45.40625 27.296875 
Q 45.40625 37.203125 41.296875 42.84375 
Q 37.203125 48.484375 30.078125 48.484375 
Q 22.953125 48.484375 18.875 42.84375 
Q 14.796875 37.203125 14.796875 27.296875 
z
" id="DejaVuSans-100"/>
     </defs>
     <g transform="translate(46.232362 241.622656)rotate(-90)scale(0.1 -0.1)">
      <use xlink:href="#DejaVuSans-65"/>
      <use x="68.408203" xlink:href="#DejaVuSans-109"/>
      <use x="165.820312" xlink:href="#DejaVuSans-112"/>
      <use x="229.296875" xlink:href="#DejaVuSans-108"/>
      <use x="257.080078" xlink:href="#DejaVuSans-105"/>
      <use x="284.863281" xlink:href="#DejaVuSans-116"/>
      <use x="324.072266" xlink:href="#DejaVuSans-117"/>
      <use x="387.451172" xlink:href="#DejaVuSans-100"/>
      <use x="450.927734" xlink:href="#DejaVuSans-101"/>
     </g>
    </g>
   </g>
   <g id="line2d_37">
    <path clip-path="url(#p87c6ca8e69)" style="fill:none;stroke:#0000ff;stroke-linecap:square;stroke-width:2;"/>
   </g>
   <g id="line2d_38">
    <path clip-path="url(#p87c6ca8e69)" d="M 0 0 
" style="fill:none;stroke:#0000ff;stroke-dasharray:12,12;stroke-dashoffset:0;stroke-width:2;"/>
   </g>
   <g id="line2d_39">
    <path clip-path="url(#p87c6ca8e69)" d="M 0 0 
" style="fill:none;stroke:#0000ff;stroke-linecap:square;stroke-width:2;"/>
   </g>
   <g id="line2d_40">
    <path clip-path="url(#p87c6ca8e69)" style="fill:none;stroke:#0000ff;stroke-linecap:square;stroke-width:2;"/>
   </g>
   <g id="line2d_41">
    <path clip-path="url(#p87c6ca8e69)" d="M 0 0 
" style="fill:none;stroke:#0000ff;stroke-dasharray:12,12;stroke-dashoffset:0;stroke-width:2;"/>
   </g>
   <g id="line2d_42">
    <path clip-path="url(#p87c6ca8e69)" style="fill:none;stroke:#0000ff;stroke-linecap:square;stroke-width:2;"/>
   </g>
   <g id="line2d_43">
    <path clip-path="url(#p87c6ca8e69)" style="fill:none;stroke:#0000ff;stroke-linecap:square;stroke-width:2;"/>
   </g>
   <g id="line2d_44">
    <path clip-path="url(#p87c6ca8e69)" d="M 439.48 289.424521 
L 393.890475 305.35014 
L 391.197239 306.298457 
L 391.197239 306.298457 
" style="fill:none;stroke:#0000ff;stroke-linecap:square;stroke-width:2;"/>
   </g>
   <g id="line2d_45">
    <path clip-path="url(#p87c6ca8e69)" d="M 391.197239 306.298457 
L 337.792263 325.22372 
L 284.090974 344.482952 
L 221.88638 367.031006 
L 163.986014 388.202341 
L 85.109459 417.279591 
L 42.722754 433 
L 42.722754 433 
" style="fill:none;stroke:#0000ff;stroke-dasharray:12,12;stroke-dashoffset:0;stroke-width:2;"/>
   </g>
   <g id="line2d_46">
    <path clip-path="url(#p87c6ca8e69)" d="M 0 0 
" style="fill:none;stroke:#0000ff;stroke-linecap:square;stroke-width:2;"/>
   </g>
   <g id="line2d_47">
    <path clip-path="url(#p87c6ca8e69)" d="M 165.966355 433 
L 209.838688 415.22853 
L 252.636392 397.648931 
L 294.550244 380.192303 
L 335.581613 362.864553 
L 376.259667 345.446613 
L 397.772011 336.13407 
L 397.772011 336.13407 
" style="fill:none;stroke:#0000ff;stroke-dasharray:12,12;stroke-dashoffset:0;stroke-width:2;"/>
   </g>
   <g id="line2d_48">
    <path clip-path="url(#p87c6ca8e69)" d="M 0 0 
" style="fill:none;stroke:#0000ff;stroke-dasharray:12,12;stroke-dashoffset:0;stroke-width:2;"/>
   </g>
   <g id="line2d_49">
    <path clip-path="url(#p87c6ca8e69)" d="M 0 0 
" style="fill:none;stroke:#0000ff;stroke-linecap:square;stroke-width:2;"/>
   </g>
   <g id="line2d_50">
    <path clip-path="url(#p87c6ca8e69)" d="M 0 0 
" style="fill:none;stroke:#0000ff;stroke-dasharray:12,12;stroke-dashoffset:0;stroke-width:2;"/>
   </g>
   <g id="line2d_51">
    <path clip-path="url(#p87c6ca8e69)" style="fill:none;stroke:#0000ff;stroke-linecap:square;stroke-width:2;"/>
   </g>
   <g id="line2d_52">
    <path clip-path="url(#p87c6ca8e69)" style="fill:none;stroke:#0000ff;stroke-dasharray:12,12;stroke-dashoffset:0;stroke-width:2;"/>
   </g>
   <g id="line2d_53">
    <path clip-path="url(#p87c6ca8e69)" d="M 0 0 
" style="fill:none;stroke:#0000ff;stroke-linecap:square;stroke-width:2;"/>
   </g>
   <g id="line2d_54">
    <path clip-path="url(#p87c6ca8e69)" d="M 0 0 
" style="fill:none;stroke:#0000ff;stroke-dasharray:12,12;stroke-dashoffset:0;stroke-width:2;"/>
   </g>
   <g id="line2d_55">
    <path clip-path="url(#p87c6ca8e69)" d="M 0 0 
" style="fill:none;stroke:#0000ff;stroke-dasharray:12,12;stroke-dashoffset:0;stroke-width:2;"/>
   </g>
   <g id="line2d_56">
    <path clip-path="url(#p87c6ca8e69)" style="fill:none;stroke:#0000ff;stroke-linecap:square;stroke-width:2;"/>
   </g>
   <g id="line2d_57">
    <path clip-path="url(#p87c6ca8e69)" d="M 0 0 
" style="fill:none;stroke:#0000ff;stroke-dasharray:12,12;stroke-dashoffset:0;stroke-width:2;"/>
   </g>
   <g id="line2d_58">
    <path clip-path="url(#p87c6ca8e69)" d="M 0 0 
" style="fill:none;stroke:#0000ff;stroke-linecap:square;stroke-width:2;"/>
   </g>
   <g id="line2d_59">
    <path clip-path="url(#p87c6ca8e69)" d="M 0 0 
" style="fill:none;stroke:#0000ff;stroke-dasharray:12,12;stroke-dashoffset:0;stroke-width:2;"/>
   </g>
   <g id="line2d_60">
    <path clip-path="url(#p87c6ca8e69)" style="fill:none;stroke:#0000ff;stroke-linecap:square;stroke-width:2;"/>
   </g>
   <g id="line2d_61">
    <path clip-path="url(#p87c6ca8e69)" d="M 0 0 
" style="fill:none;stroke:#0000ff;stroke-dasharray:12,12;stroke-dashoffset:0;stroke-width:2;"/>
   </g>
   <g id="line2d_62">
    <path clip-path="url(#p87c6ca8e69)" d="M 0 0 
" style="fill:none;stroke:#0000ff;stroke-linecap:square;stroke-width:2;"/>
   </g>
   <g id="line2d_63">
    <path clip-path="url(#p87c6ca8e69)" d="M 391.197239 306.297629 
L 391.159581 299.779586 
L 390.899377 288.86153 
L 390.399313 278.109168 
L 389.744077 268.575405 
L 388.893057 259.20756 
L 387.845112 250.012268 
L 386.598631 241.00188 
L 385.151946 232.184917 
L 383.503337 223.567775 
L 381.65075 215.139519 
L 379.831159 207.839489 
L 377.847495 200.729348 
L 375.698459 193.816857 
L 373.382712 187.106423 
L 370.89914 180.604028 
L 368.246855 174.297306 
L 365.425135 168.225598 
L 362.816793 163.100001 
L 360.078117 158.161393 
L 357.209336 153.413737 
L 354.210603 148.862683 
L 351.082479 144.496225 
L 347.825575 140.326676 
L 344.932232 136.904964 
L 341.439022 133.11427 
L 337.820464 129.534836 
L 334.078216 126.169763 
L 330.214135 123.01877 
L 326.230424 120.073163 
L 322.129156 117.329995 
L 317.913126 114.806057 
L 313.584903 112.500159 
L 309.147402 110.410352 
L 305.259081 108.784507 
L 299.956526 106.872838 
L 294.523365 105.201423 
L 289.66605 103.957929 
L 284.71575 102.923387 
L 279.675883 102.088706 
L 274.54977 101.453738 
L 269.340686 101.005378 
L 261.761876 100.689506 
L 255.588102 100.682767 
L 249.320992 100.906324 
L 242.96518 101.354366 
L 236.525066 102.020594 
L 228.362768 103.149413 
L 220.916322 104.432812 
L 213.380268 105.93514 
L 205.759958 107.664181 
L 197.199998 109.850019 
L 191.647713 111.396212 
L 191.647713 111.396212 
" style="fill:none;stroke:#0000ff;stroke-linecap:square;stroke-width:2;"/>
   </g>
   <g id="line2d_64">
    <path clip-path="url(#p87c6ca8e69)" d="M 191.647713 111.396212 
L 182.064695 114.285632 
L 172.382662 117.462841 
L 162.608459 120.892102 
L 154.547241 123.888332 
L 145.526827 127.40664 
L 134.61966 131.890726 
L 122.708937 137.043888 
L 110.707165 142.477779 
L 94.886161 149.952924 
L 81.757005 156.439673 
L 68.541253 163.221139 
L 57.144579 169.27401 
L 42.809445 177.149246 
L 27.420983 185.982136 
L 11.956986 195.154384 
L -1 202.970335 
L -1 202.970335 
" style="fill:none;stroke:#0000ff;stroke-dasharray:12,12;stroke-dashoffset:0;stroke-width:2;"/>
   </g>
   <g id="line2d_65">
    <path clip-path="url(#p87c6ca8e69)" style="fill:none;stroke:#0000ff;stroke-linecap:square;stroke-width:2;"/>
   </g>
   <g id="line2d_66">
    <path clip-path="url(#p87c6ca8e69)" d="M 80.847027 156.922196 
L 81.788139 156.447777 
L 82.728809 155.956034 
L 83.66904 155.484241 
L 84.608831 155.013906 
L 85.548178 154.544101 
L 86.487082 154.07674 
L 87.425542 153.610839 
L 88.363559 153.147235 
L 89.301128 152.684925 
L 90.238249 152.22408 
L 91.174917 151.778404 
L 92.111137 151.321019 
L 93.046904 150.865108 
L 93.982215 150.407143 
L 94.917072 149.952161 
L 95.851471 149.49866 
L 96.78541 149.035934 
L 97.718886 148.586746 
L 98.651899 148.139058 
L 99.58439 147.687983 
L 100.516464 147.242805 
L 101.448068 146.799141 
L 102.379276 146.356989 
L 103.309937 145.916132 
L 104.240121 145.476808 
L 105.169827 145.045985 
L 106.099047 144.609149 
L 107.027782 144.173866 
L 107.95608 143.736777 
L 108.883839 143.305509 
L 109.811105 142.875818 
L 110.737829 142.445083 
L 111.6641 142.018286 
L 112.589869 141.593089 
L 113.515132 141.182035 
L 114.439889 140.760731 
L 115.364135 140.341052 
L 116.287869 139.929459 
L 117.211085 139.510854 
L 118.133781 139.093894 
L 119.056009 138.663713 
L 119.97766 138.250635 
L 120.898783 137.83923 
L 121.819322 137.451177 
L 122.739376 137.04233 
L 123.658891 136.635179 
L 124.577872 136.209363 
L 125.4963 135.806594 
L 126.41418 135.405552 
L 127.331505 135.025553 
L 128.248278 134.626967 
L 129.164494 134.230133 
L 130.080148 133.828129 
L 130.995235 133.435081 
L 131.909754 133.043813 
L 132.823698 132.669109 
L 133.737067 132.283343 
L 134.649857 131.899391 
L 135.562064 131.509149 
L 136.473684 131.126424 
L 137.384713 130.745538 
L 138.295148 130.353124 
L 139.204985 129.977212 
L 140.11422 129.603172 
L 141.022853 129.249259 
L 141.930874 128.877417 
L 142.838281 128.507472 
L 143.745067 128.135205 
L 144.651236 127.769234 
L 145.556781 127.40519 
L 146.461701 127.05439 
L 147.365984 126.693839 
L 148.26963 126.335246 
L 149.172635 125.961085 
L 150.074996 125.607516 
L 150.976708 125.255939 
L 151.877769 124.906376 
L 152.778171 124.558827 
L 153.677911 124.213302 
L 154.576973 123.884132 
L 155.475379 123.54146 
L 156.373111 123.200843 
L 157.270174 122.862639 
L 158.166543 122.526149 
L 159.062226 122.191746 
L 159.957214 121.864905 
L 160.85151 121.534488 
L 161.745105 121.206191 
L 162.637987 120.868325 
L 163.530167 120.545231 
L 164.421633 120.224292 
L 165.312404 119.909573 
L 166.202429 119.592318 
L 167.091726 119.277252 
L 167.980279 118.97737 
L 168.868106 118.668298 
L 169.75519 118.361453 
L 170.641529 118.045438 
L 171.527115 117.741033 
L 172.411944 117.438886 
L 173.296 117.146089 
L 174.1793 116.848148 
L 175.061829 116.5525 
L 175.943598 116.253497 
L 176.82457 115.962789 
L 177.704754 115.674411 
L 178.584142 115.390819 
L 179.462737 115.108244 
L 180.34053 114.828038 
L 181.217516 114.543243 
L 182.093689 114.267123 
L 182.969043 113.993407 
L 183.843565 113.723056 
L 184.717267 113.453597 
L 185.590135 113.186578 
L 186.462169 112.921907 
L 187.333351 112.659824 
L 188.203683 112.400219 
L 189.073132 112.143125 
L 189.941744 111.888521 
L 190.809487 111.636432 
" style="fill:none;stroke:#0000ff;stroke-dasharray:12,12;stroke-dashoffset:0;stroke-width:2;"/>
   </g>
   <g id="line2d_67">
    <path clip-path="url(#p87c6ca8e69)" d="M 190.809487 111.636432 
L 198.579177 109.505749 
L 202.00854 108.606848 
L 210.514356 106.550294 
L 217.246045 105.140878 
L 225.563651 103.614184 
L 232.951701 102.490402 
L 241.044871 101.534342 
L 249.008334 100.92513 
L 255.279847 100.693132 
L 263.750339 100.731751 
L 269.793181 101.038834 
L 275.731655 101.57584 
L 282.281533 102.513821 
L 285.857964 103.163156 
L 290.787239 104.228646 
L 294.250966 105.139912 
L 299.017581 106.543958 
L 303.024277 107.930279 
L 308.893027 110.296482 
L 313.962619 112.690416 
L 318.281299 115.023558 
L 323.079046 117.934263 
L 327.153538 120.71639 
L 331.110083 123.712022 
L 334.946453 126.916664 
L 338.660558 130.346889 
L 341.237586 132.909001 
L 344.737876 136.696068 
L 347.160655 139.527193 
L 350.443069 143.636113 
L 354.474352 149.246373 
L 357.461873 153.813339 
L 360.319451 158.580147 
L 363.046862 163.556074 
L 365.644063 168.672306 
L 368.111099 173.98766 
L 370.771781 180.274154 
L 373.263632 186.768922 
L 375.866468 194.333631 
L 378.002993 201.260519 
L 379.974235 208.397781 
L 381.99586 216.615845 
L 383.812055 225.067334 
L 385.424507 233.729334 
L 386.835357 242.592113 
L 388.04636 251.638616 
L 389.059161 260.877537 
L 389.874971 270.255023 
L 390.495763 279.810811 
L 390.921783 289.510504 
L 391.167709 300.442949 
L 391.201096 305.846969 
L 391.201096 305.846969 
" style="fill:none;stroke:#0000ff;stroke-linecap:square;stroke-width:2;"/>
   </g>
   <g id="line2d_68">
    <path clip-path="url(#p87c6ca8e69)" d="M 0 0 
" style="fill:none;stroke:#0000ff;stroke-linecap:square;stroke-width:2;"/>
   </g>
   <g id="line2d_69">
    <path clip-path="url(#p87c6ca8e69)" d="M 0 0 
" style="fill:none;stroke:#0000ff;stroke-dasharray:12,12;stroke-dashoffset:0;stroke-width:2;"/>
   </g>
   <g id="line2d_70">
    <path clip-path="url(#p87c6ca8e69)" style="fill:none;stroke:#0000ff;stroke-linecap:square;stroke-width:2;"/>
   </g>
   <g id="line2d_71">
    <path clip-path="url(#p87c6ca8e69)" d="M 0 0 
" style="fill:none;stroke:#0000ff;stroke-linecap:square;stroke-width:2;"/>
   </g>
   <g id="line2d_72">
    <path clip-path="url(#p87c6ca8e69)" d="M 0 0 
" style="fill:none;stroke:#0000ff;stroke-dasharray:12,12;stroke-dashoffset:0;stroke-width:2;"/>
   </g>
   <g id="line2d_73">
    <path clip-path="url(#p87c6ca8e69)" style="fill:none;stroke:#0000ff;stroke-linecap:square;stroke-width:2;"/>
   </g>
   <g id="line2d_74">
    <path clip-path="url(#p87c6ca8e69)" d="M 0 0 
" style="fill:none;stroke:#0000ff;stroke-linecap:square;stroke-width:2;"/>
   </g>
   <g id="line2d_75">
    <path clip-path="url(#p87c6ca8e69)" d="M 0 0 
" style="fill:none;stroke:#0000ff;stroke-dasharray:12,12;stroke-dashoffset:0;stroke-width:2;"/>
   </g>
   <g id="line2d_76">
    <path clip-path="url(#p87c6ca8e69)" style="fill:none;stroke:#0000ff;stroke-linecap:square;stroke-width:2;"/>
   </g>
   <g id="line2d_77">
    <path clip-path="url(#p87c6ca8e69)" d="M 191.647713 111.400059 
L 191.647078 111.279489 
L 191.641084 111.102569 
L 191.622465 110.849036 
L 191.588242 110.57456 
L 191.539809 110.312676 
L 191.477218 110.063906 
L 191.400538 109.827122 
L 191.309848 109.603019 
L 191.205247 109.391567 
L 191.086842 109.192498 
L 190.954757 109.006068 
L 190.809126 108.833304 
L 190.650096 108.672354 
L 190.477822 108.523878 
L 190.292473 108.386244 
L 190.094225 108.26069 
L 189.883262 108.143377 
L 189.659777 108.03838 
L 189.423968 107.945116 
L 189.176042 107.863711 
L 188.916208 107.794078 
L 188.644681 107.735942 
L 188.36168 107.689233 
L 188.067425 107.653716 
L 187.76214 107.629319 
L 187.44605 107.615863 
L 187.119382 107.613817 
L 186.782361 107.621871 
L 186.435215 107.640341 
L 186.078168 107.666768 
L 185.711445 107.70035 
L 185.335268 107.743834 
L 184.94986 107.796494 
L 184.555438 107.859381 
L 184.152218 107.931618 
L 183.740415 108.012982 
L 183.320238 108.103512 
L 182.891893 108.202845 
L 182.455585 108.311023 
L 182.011512 108.427493 
L 181.559872 108.552227 
L 181.100855 108.684901 
L 180.634651 108.825618 
L 180.161443 108.972287 
L 179.681412 109.124766 
L 179.194734 109.283399 
L 178.701582 109.449317 
L 178.202122 109.621783 
L 177.69652 109.801939 
L 177.184935 109.988908 
L 176.667525 110.182504 
L 176.14444 110.382699 
L 175.61583 110.589262 
L 175.08184 110.802694 
L 174.542611 111.021802 
L 173.998281 111.246862 
L 173.448983 111.477647 
L 172.894848 111.714204 
L 172.336004 111.956328 
L 171.772575 112.199081 
L 171.204681 112.448183 
L 170.632442 112.702527 
L 170.055971 112.962785 
L 169.475382 113.227107 
L 168.890783 113.496347 
L 168.302281 113.770826 
L 167.70998 114.049429 
L 167.113982 114.332659 
L 166.572385 114.592581 
" style="fill:none;stroke:#0000ff;stroke-linecap:square;stroke-width:2;"/>
   </g>
   <g id="line2d_78">
    <path clip-path="url(#p87c6ca8e69)" d="M 166.572385 114.592581 
L 160.401764 117.695368 
L 153.964185 121.158191 
L 147.325208 124.980478 
L 139.835778 129.553014 
L 127.195766 137.612951 
L 106.073788 151.023555 
L 80.73577 166.756578 
L 48.364247 186.564308 
L 7.599613 211.27424 
L -1 216.465791 
L -1 216.465791 
" style="fill:none;stroke:#0000ff;stroke-dasharray:12,12;stroke-dashoffset:0;stroke-width:2;"/>
   </g>
   <g id="line2d_79">
    <path clip-path="url(#p87c6ca8e69)" style="fill:none;stroke:#0000ff;stroke-linecap:square;stroke-width:2;"/>
   </g>
   <g id="line2d_80">
    <path clip-path="url(#p87c6ca8e69)" d="M 81.13401 166.503422 
L 81.883754 166.04156 
L 82.633294 165.586529 
L 83.382623 165.125174 
L 84.131735 164.663808 
L 84.880624 164.201492 
L 85.629283 163.7398 
L 86.377707 163.276811 
L 87.125888 162.807236 
L 87.873819 162.345175 
L 88.621494 161.883106 
L 89.368905 161.425159 
L 90.116045 160.962078 
L 90.862907 160.498986 
L 91.609481 160.031796 
L 92.355761 159.56928 
L 93.101737 159.106758 
L 93.847401 158.645074 
L 94.592744 158.182678 
L 95.337757 157.720278 
L 96.08243 157.255615 
L 96.826753 156.792825 
L 97.570717 156.330031 
L 98.314311 155.871525 
L 99.057523 155.409183 
L 99.800344 154.946844 
L 100.54276 154.478104 
L 101.284761 154.015156 
L 102.026333 153.552213 
L 102.767464 153.095549 
L 103.508141 152.631618 
L 104.24835 152.167692 
L 104.988077 151.701817 
L 105.727306 151.238058 
L 106.466023 150.774315 
L 107.204212 150.313631 
L 107.941856 149.850948 
L 108.678939 149.388299 
L 109.415443 148.920006 
L 110.151349 148.456331 
L 110.88664 147.992702 
L 111.621294 147.528896 
L 112.355293 147.06566 
L 113.088615 146.602496 
L 113.821239 146.140433 
L 114.553143 145.676794 
L 115.284303 145.213258 
L 116.014697 144.74945 
L 116.744299 144.286591 
L 117.473085 143.823888 
L 118.201028 143.362243 
L 118.928104 142.899143 
L 119.654284 142.43626 
L 120.379541 141.976778 
L 121.103847 141.514046 
L 121.827174 141.05162 
L 122.549492 140.591313 
L 123.270773 140.130792 
L 123.990986 139.670702 
L 124.710103 139.204859 
L 125.428094 138.744835 
L 126.144928 138.285386 
L 126.860578 137.833638 
L 127.575015 137.374441 
L 128.28821 136.915999 
L 129.000136 136.454349 
L 129.710766 135.998156 
L 130.420076 135.542953 
L 131.128042 135.096346 
L 131.834642 134.644492 
L 132.539853 134.192808 
L 133.243658 133.739408 
L 133.94604 133.289461 
L 134.646982 132.841078 
L 135.346473 132.397587 
L 136.0445 131.952371 
L 136.741056 131.509057 
L 137.436131 131.064698 
L 138.129721 130.626684 
L 138.821821 130.190939 
L 139.512428 129.761565 
L 140.20154 129.329036 
L 140.889155 128.899107 
L 141.575272 128.475572 
L 142.259888 128.050808 
L 142.942999 127.628959 
L 143.624603 127.211242 
L 144.304693 126.797432 
L 144.98326 126.386825 
L 145.660294 125.979212 
L 146.335782 125.574174 
L 147.009707 125.170668 
L 147.682049 124.772025 
L 148.352785 124.375274 
L 149.021888 123.982025 
L 149.689328 123.594697 
L 150.355072 123.208272 
L 151.019081 122.825421 
L 151.681316 122.45184 
L 152.341733 122.075559 
L 153.000285 121.702883 
L 153.656922 121.331766 
L 154.311592 120.966614 
L 154.96424 120.605097 
L 155.614809 120.24813 
L 156.263237 119.893679 
L 156.909464 119.542897 
L 157.553424 119.19573 
L 158.195051 118.852391 
L 158.834277 118.512784 
L 159.471031 118.185349 
L 160.105241 117.852385 
L 160.736832 117.522042 
L 161.365729 117.194852 
L 161.991853 116.874848 
L 162.615125 116.558815 
L 163.235464 116.240851 
L 163.852784 115.930046 
L 164.467002 115.623366 
L 165.07803 115.322386 
L 165.685777 115.023756 
L 166.290153 114.729464 
L 166.571322 114.593129 
" style="fill:none;stroke:#0000ff;stroke-dasharray:12,12;stroke-dashoffset:0;stroke-width:2;"/>
   </g>
   <g id="line2d_81">
    <path clip-path="url(#p87c6ca8e69)" d="M 166.571322 114.593129 
L 167.170566 114.305562 
L 167.766218 114.022532 
L 168.358162 113.744503 
L 168.946299 113.471005 
L 169.530522 113.202335 
L 170.110726 112.935332 
L 170.6868 112.675567 
L 171.258632 112.420936 
L 171.826107 112.173529 
L 172.389107 111.927374 
L 172.94751 111.686682 
L 173.501191 111.451208 
L 174.050024 111.222814 
L 174.593876 111.000268 
L 175.132615 110.781003 
L 175.666101 110.569434 
L 176.194193 110.364111 
L 176.716745 110.164104 
L 177.23361 109.971241 
L 177.744634 109.785056 
L 178.249661 109.607757 
L 178.74853 109.435788 
L 179.241076 109.270963 
L 179.727131 109.110166 
L 180.206523 108.955425 
L 180.679074 108.808283 
L 181.144605 108.668718 
L 181.602931 108.537327 
L 182.053862 108.414047 
L 182.497207 108.302535 
L 182.932769 108.194779 
L 183.360349 108.095658 
L 183.779742 108.005165 
L 184.190741 107.924863 
L 184.593136 107.853747 
L 184.986713 107.793363 
L 185.371256 107.737913 
L 185.746546 107.692179 
L 186.112362 107.656154 
L 186.468481 107.631774 
L 186.814679 107.617665 
L 187.150729 107.610615 
L 187.476405 107.615097 
L 187.791481 107.630368 
L 188.095731 107.656615 
L 188.38893 107.693987 
L 188.670855 107.742648 
L 188.941284 107.803471 
L 189.200001 107.875341 
L 189.446789 107.95895 
L 189.68144 108.044103 
L 189.903749 108.147834 
L 190.113517 108.263675 
L 190.310553 108.393508 
L 190.494672 108.534724 
L 190.6657 108.688351 
L 190.82347 108.846872 
L 190.967826 109.023387 
L 191.098623 109.212505 
L 191.215728 109.411467 
L 191.319019 109.623626 
L 191.408387 109.848467 
L 191.483739 110.093725 
L 191.544994 110.342502 
L 191.592086 110.601721 
L 191.624963 110.870869 
L 191.643591 111.157719 
L 191.648214 111.392412 
" style="fill:none;stroke:#0000ff;stroke-linecap:square;stroke-width:2;"/>
   </g>
   <g id="line2d_82">
    <path clip-path="url(#p87c6ca8e69)" style="fill:none;stroke:#0000ff;stroke-linecap:square;stroke-width:2;"/>
   </g>
   <g id="line2d_83">
    <path clip-path="url(#p87c6ca8e69)" d="M 81.057956 166.559138 
L 81.807722 166.096747 
L 82.557283 165.634024 
L 83.306633 165.165489 
L 84.055767 164.703706 
L 84.804679 164.241911 
L 85.553362 163.777797 
L 86.30181 163.315527 
L 87.050015 162.853244 
L 87.797973 162.391616 
L 88.545674 161.929053 
L 89.293112 161.466479 
L 90.04028 161.004187 
L 90.78717 160.541895 
L 91.533774 160.079596 
L 92.280084 159.617994 
L 93.026091 159.155016 
L 93.771787 158.692029 
L 94.517163 158.234295 
L 95.26221 157.772244 
L 96.006918 157.310193 
L 96.751277 156.848033 
L 97.495278 156.384372 
L 98.23891 155.920705 
L 98.982161 155.455944 
L 99.725022 154.992334 
L 100.46748 154.528721 
L 101.209523 154.064303 
L 101.95114 153.600759 
L 102.692316 153.137219 
L 103.43304 152.674123 
L 104.173297 152.211311 
L 104.913073 151.748513 
L 105.652354 151.287684 
L 106.391123 150.825068 
L 107.129367 150.362476 
L 107.867067 149.892677 
L 108.604208 149.429306 
L 109.340771 148.96597 
L 110.076739 148.503913 
L 110.812092 148.040197 
L 111.546812 147.576532 
L 112.280879 147.113576 
L 113.01427 146.649926 
L 113.746966 146.186356 
L 114.478944 145.723319 
L 115.210181 145.260419 
L 115.940653 144.79764 
L 116.670337 144.333134 
L 117.399206 143.870258 
L 118.127237 143.407556 
L 118.854401 142.948677 
L 119.580673 142.486839 
L 120.306025 142.02525 
L 121.030429 141.558552 
L 121.753857 141.097033 
L 122.476279 140.635859 
L 123.197666 140.17378 
L 123.917989 139.71323 
L 124.637218 139.253151 
L 125.355324 138.791489 
L 126.072278 138.331937 
L 126.788049 137.873014 
L 127.50261 137.415147 
L 128.215932 136.957792 
L 128.927988 136.501268 
L 129.638751 136.045564 
L 130.348196 135.590922 
L 131.0563 135.137353 
L 131.763038 134.683101 
L 132.468392 134.231718 
L 133.17234 133.781692 
L 133.874867 133.335807 
L 134.575956 132.887194 
L 135.275594 132.440244 
L 135.973771 131.992045 
L 136.670476 131.549665 
L 137.365701 131.109303 
L 138.059442 130.679174 
L 138.751693 130.241505 
L 139.442452 129.806193 
L 140.131716 129.372988 
L 140.819483 128.942772 
L 141.505752 128.515255 
L 142.19052 128.087911 
L 142.873784 127.666685 
L 143.555541 127.248471 
L 144.235785 126.835105 
L 144.914507 126.423666 
L 145.591697 126.015491 
L 146.267343 125.606584 
L 146.941427 125.203964 
L 147.61393 124.804775 
L 148.28483 124.409981 
L 148.954101 124.018119 
L 149.621711 123.629806 
L 150.287628 123.246642 
L 150.951815 122.863503 
L 151.614232 122.483952 
L 152.274835 122.110132 
L 152.933578 121.739576 
L 153.590412 121.372658 
L 154.245284 121.001676 
L 154.89814 120.64032 
L 155.548922 120.282612 
L 156.197571 119.928752 
L 156.844023 119.578485 
L 157.488216 119.231911 
L 158.130083 118.890561 
L 158.769556 118.549566 
L 159.406564 118.212318 
L 160.041035 117.880086 
L 160.672895 117.550152 
L 161.302069 117.224073 
L 161.928478 116.901867 
L 162.552043 116.584375 
L 163.172683 116.270894 
L 163.790313 115.959641 
L 164.40485 115.653843 
L 165.016205 115.35224 
L 165.624289 115.053722 
L 166.229011 114.75902 
" style="fill:none;stroke:#0000ff;stroke-dasharray:12,12;stroke-dashoffset:0;stroke-width:2;"/>
   </g>
   <g id="line2d_84">
    <path clip-path="url(#p87c6ca8e69)" d="M 166.229011 114.75902 
L 166.830277 114.468727 
L 167.427991 114.188839 
L 168.022056 113.906183 
L 168.61237 113.628188 
L 169.198831 113.352955 
L 169.781334 113.085279 
L 170.35977 112.822568 
L 170.934028 112.565121 
L 171.503994 112.31276 
L 172.069553 112.065694 
L 172.630585 111.822877 
L 173.186966 111.586502 
L 173.738572 111.355782 
L 174.285272 111.125038 
L 174.826935 110.904015 
L 175.363424 110.689022 
L 175.894601 110.480455 
L 176.420321 110.278058 
L 176.940439 110.082112 
L 177.454803 109.891771 
L 177.963259 109.706479 
L 178.465649 109.528066 
L 178.96181 109.356778 
L 179.451577 109.193496 
L 179.934779 109.037577 
L 180.411241 108.892247 
L 180.880786 108.748231 
L 181.343231 108.612053 
L 181.79839 108.485382 
L 182.246073 108.365019 
L 182.686084 108.253014 
L 183.118227 108.155646 
L 183.5423 108.059321 
L 183.958097 107.971882 
L 184.36541 107.899797 
L 184.764027 107.829428 
L 185.153734 107.768487 
L 185.534312 107.716903 
L 185.905542 107.67797 
L 186.267202 107.649031 
L 186.619069 107.625586 
L 186.960916 107.613315 
L 187.292518 107.611559 
L 187.613649 107.622834 
L 187.924082 107.644401 
L 188.223592 107.677008 
L 188.511954 107.712566 
L 188.788947 107.765559 
L 189.054349 107.830059 
L 189.307946 107.910467 
L 189.549523 107.994404 
L 189.778874 108.090256 
L 189.995797 108.197112 
L 190.200095 108.319224 
L 190.391581 108.453604 
L 190.570073 108.596469 
L 190.735401 108.754623 
L 190.887403 108.925293 
L 191.025926 109.102838 
L 191.150832 109.29571 
L 191.261991 109.501237 
L 191.359288 109.719546 
L 191.44262 109.950508 
L 191.511899 110.194146 
L 191.567051 110.45182 
L 191.608016 110.721016 
L 191.634749 110.999733 
L 191.647224 111.284506 
L 191.647215 111.284016 
" style="fill:none;stroke:#0000ff;stroke-linecap:square;stroke-width:2;"/>
   </g>
   <g id="line2d_85">
    <path clip-path="url(#p87c6ca8e69)" style="fill:none;stroke:#0000ff;stroke-linecap:square;stroke-width:2;"/>
   </g>
   <g id="line2d_86">
    <path clip-path="url(#p87c6ca8e69)" d="M 0 0 
" style="fill:none;stroke:#0000ff;stroke-dasharray:12,12;stroke-dashoffset:0;stroke-width:2;"/>
   </g>
   <g id="line2d_87">
    <path clip-path="url(#p87c6ca8e69)" style="fill:none;stroke:#0000ff;stroke-linecap:square;stroke-width:2;"/>
   </g>
   <g id="line2d_88">
    <path clip-path="url(#p87c6ca8e69)" style="fill:none;stroke:#0000ff;stroke-linecap:square;stroke-width:2;"/>
   </g>
   <g id="line2d_89">
    <path clip-path="url(#p87c6ca8e69)" d="M 0 0 
" style="fill:none;stroke:#0000ff;stroke-dasharray:12,12;stroke-dashoffset:0;stroke-width:2;"/>
   </g>
   <g id="line2d_90">
    <path clip-path="url(#p87c6ca8e69)" style="fill:none;stroke:#0000ff;stroke-linecap:square;stroke-width:2;"/>
   </g>
   <g id="line2d_91">
    <path clip-path="url(#p87c6ca8e69)" style="fill:none;stroke:#0000ff;stroke-linecap:square;stroke-width:2;"/>
   </g>
   <g id="line2d_92">
    <path clip-path="url(#p87c6ca8e69)" d="M 0 0 
" style="fill:none;stroke:#0000ff;stroke-dasharray:12,12;stroke-dashoffset:0;stroke-width:2;"/>
   </g>
   <g id="line2d_93">
    <path clip-path="url(#p87c6ca8e69)" style="fill:none;stroke:#0000ff;stroke-linecap:square;stroke-width:2;"/>
   </g>
   <g id="line2d_94">
    <path clip-path="url(#p87c6ca8e69)" d="M 166.572385 114.592552 
L 166.568057 114.462033 
L 166.552183 114.271259 
L 166.502619 113.998471 
L 166.413889 113.716015 
L 166.29053 113.456471 
L 166.134611 113.220319 
L 165.950017 113.005557 
L 165.739018 112.812597 
L 165.504215 112.640597 
L 165.248614 112.48794 
L 164.974326 112.353518 
L 164.683382 112.23668 
L 164.377831 112.135062 
L 164.059251 112.047994 
L 163.72919 111.973966 
" style="fill:none;stroke:#0000ff;stroke-linecap:square;stroke-width:2;"/>
   </g>
   <g id="line2d_95">
    <path clip-path="url(#p87c6ca8e69)" d="M 163.72919 111.973966 
L 162.315211 111.797076 
L 160.397553 111.781111 
L 157.956591 111.985205 
L 154.987281 112.449238 
L 151.049076 113.29814 
L 146.572352 114.517408 
L 140.652046 116.425279 
L 134.657146 118.61764 
L 128.144677 121.252672 
L 120.182638 124.724018 
L 109.349822 129.800532 
L 98.477889 135.157892 
L 85.222212 141.933946 
L 70.077327 149.925073 
L 53.075313 159.151336 
L 34.724285 169.373915 
L 17.859547 179.036613 
L 0.143783 189.439994 
L -1 190.119776 
L -1 190.119776 
" style="fill:none;stroke:#0000ff;stroke-dasharray:12,12;stroke-dashoffset:0;stroke-width:2;"/>
   </g>
   <g id="line2d_96">
    <path clip-path="url(#p87c6ca8e69)" style="fill:none;stroke:#0000ff;stroke-linecap:square;stroke-width:2;"/>
   </g>
   <g id="line2d_97">
    <path clip-path="url(#p87c6ca8e69)" d="M 166.571322 114.596635 
L 166.567956 114.466098 
L 166.55208 114.275938 
L 166.503021 113.998475 
L 166.413921 113.71659 
L 166.290374 113.457554 
L 166.134838 113.219934 
L 165.950155 113.005326 
L 165.73911 112.812507 
L 165.504258 112.671139 
L 165.248626 112.521093 
L 164.974319 112.389147 
L 164.683758 112.252294 
L 164.378151 112.148507 
L 164.059528 112.059378 
L 163.729284 111.971363 
" style="fill:none;stroke:#0000ff;stroke-linecap:square;stroke-width:2;"/>
   </g>
   <g id="line2d_98">
    <path clip-path="url(#p87c6ca8e69)" d="M 163.729284 111.971363 
L 162.315247 111.824306 
L 159.99966 111.789711 
L 157.956685 112.006037 
L 154.555393 112.517872 
L 149.268694 113.756308 
L 144.306354 115.209511 
L 138.353619 117.208391 
L 135.583244 118.256428 
L 129.54422 120.667799 
L 121.591164 124.068749 
L 117.362183 125.992416 
L 98.951108 134.90037 
L 93.271488 137.761307 
L 80.487682 144.385559 
L 76.700932 146.395599 
L 59.209022 155.762489 
L 52.603867 159.382209 
L 35.663439 168.842245 
L 18.327042 178.762427 
L 15.056241 180.663093 
L -1 190.148341 
L -1 190.148341 
" style="fill:none;stroke:#0000ff;stroke-dasharray:12,12;stroke-dashoffset:0;stroke-width:2;"/>
   </g>
   <g id="line2d_99">
    <path clip-path="url(#p87c6ca8e69)" style="fill:none;stroke:#0000ff;stroke-linecap:square;stroke-width:2;"/>
   </g>
   <g id="patch_3">
    <path d="M 81.577674 374.4 
L 81.577674 57.6 
" style="fill:none;stroke:#000000;stroke-linecap:square;stroke-linejoin:miter;stroke-width:0.8;"/>
   </g>
   <g id="patch_4">
    <path d="M 397.691163 374.4 
L 397.691163 57.6 
" style="fill:none;stroke:#000000;stroke-linecap:square;stroke-linejoin:miter;stroke-width:0.8;"/>
   </g>
   <g id="patch_5">
    <path d="M 81.577674 374.4 
L 397.691163 374.4 
" style="fill:none;stroke:#000000;stroke-linecap:square;stroke-linejoin:miter;stroke-width:0.8;"/>
   </g>
   <g id="patch_6">
    <path d="M 81.577674 57.6 
L 397.691163 57.6 
" style="fill:none;stroke:#000000;stroke-linecap:square;stroke-linejoin:miter;stroke-width:0.8;"/>
   </g>
   <g id="text_21">
    <!-- is_nk = 1 -->
    <defs>
     <path d="M 44.28125 53.078125 
L 44.28125 44.578125 
Q 40.484375 46.53125 36.375 47.5 
Q 32.28125 48.484375 27.875 48.484375 
Q 21.1875 48.484375 17.84375 46.4375 
Q 14.5 44.390625 14.5 40.28125 
Q 14.5 37.15625 16.890625 35.375 
Q 19.28125 33.59375 26.515625 31.984375 
L 29.59375 31.296875 
Q 39.15625 29.25 43.1875 25.515625 
Q 47.21875 21.78125 47.21875 15.09375 
Q 47.21875 7.46875 41.1875 3.015625 
Q 35.15625 -1.421875 24.609375 -1.421875 
Q 20.21875 -1.421875 15.453125 -0.5625 
Q 10.6875 0.296875 5.421875 2 
L 5.421875 11.28125 
Q 10.40625 8.6875 15.234375 7.390625 
Q 20.0625 6.109375 24.8125 6.109375 
Q 31.15625 6.109375 34.5625 8.28125 
Q 37.984375 10.453125 37.984375 14.40625 
Q 37.984375 18.0625 35.515625 20.015625 
Q 33.0625 21.96875 24.703125 23.78125 
L 21.578125 24.515625 
Q 13.234375 26.265625 9.515625 29.90625 
Q 5.8125 33.546875 5.8125 39.890625 
Q 5.8125 47.609375 11.28125 51.796875 
Q 16.75 56 26.8125 56 
Q 31.78125 56 36.171875 55.265625 
Q 40.578125 54.546875 44.28125 53.078125 
z
" id="DejaVuSans-115"/>
     <path d="M 50.984375 -16.609375 
L 50.984375 -23.578125 
L -0.984375 -23.578125 
L -0.984375 -16.609375 
z
" id="DejaVuSans-95"/>
     <path d="M 54.890625 33.015625 
L 54.890625 0 
L 45.90625 0 
L 45.90625 32.71875 
Q 45.90625 40.484375 42.875 44.328125 
Q 39.84375 48.1875 33.796875 48.1875 
Q 26.515625 48.1875 22.3125 43.546875 
Q 18.109375 38.921875 18.109375 30.90625 
L 18.109375 0 
L 9.078125 0 
L 9.078125 54.6875 
L 18.109375 54.6875 
L 18.109375 46.1875 
Q 21.34375 51.125 25.703125 53.5625 
Q 30.078125 56 35.796875 56 
Q 45.21875 56 50.046875 50.171875 
Q 54.890625 44.34375 54.890625 33.015625 
z
" id="DejaVuSans-110"/>
     <path d="M 9.078125 75.984375 
L 18.109375 75.984375 
L 18.109375 31.109375 
L 44.921875 54.6875 
L 56.390625 54.6875 
L 27.390625 29.109375 
L 57.625 0 
L 45.90625 0 
L 18.109375 26.703125 
L 18.109375 0 
L 9.078125 0 
z
" id="DejaVuSans-107"/>
     <path id="DejaVuSans-32"/>
     <path d="M 10.59375 45.40625 
L 73.1875 45.40625 
L 73.1875 37.203125 
L 10.59375 37.203125 
z
M 10.59375 25.484375 
L 73.1875 25.484375 
L 73.1875 17.1875 
L 10.59375 17.1875 
z
" id="DejaVuSans-61"/>
    </defs>
    <g transform="translate(211.905981 51.6)scale(0.12 -0.12)">
     <use xlink:href="#DejaVuSans-105"/>
     <use x="27.783203" xlink:href="#DejaVuSans-115"/>
     <use x="79.882812" xlink:href="#DejaVuSans-95"/>
     <use x="129.882812" xlink:href="#DejaVuSans-110"/>
     <use x="193.261719" xlink:href="#DejaVuSans-107"/>
     <use x="251.171875" xlink:href="#DejaVuSans-32"/>
     <use x="282.958984" xlink:href="#DejaVuSans-61"/>
     <use x="366.748047" xlink:href="#DejaVuSans-32"/>
     <use x="398.535156" xlink:href="#DejaVuSans-49"/>
    </g>
   </g>
  </g>
 </g>
 <defs>
  <clipPath id="p87c6ca8e69">
   <rect height="316.8" width="316.113488" x="81.577674" y="57.6"/>
  </clipPath>
 </defs>
</svg>
