<?xml version="1.0" encoding="UTF-8" standalone="no"?>
<!-- Created with matplotlib (https://matplotlib.org/) -->

<svg
   height="432pt"
   version="1.1"
   viewBox="0 0 438.48 432"
   width="438.48pt"
   id="svg421"
   sodipodi:docname="SL_bare_and_nk.svg"
   inkscape:version="1.1.1 (3bf5ae0d25, 2021-09-20)"
   xmlns:inkscape="http://www.inkscape.org/namespaces/inkscape"
   xmlns:sodipodi="http://sodipodi.sourceforge.net/DTD/sodipodi-0.dtd"
   xmlns:xlink="http://www.w3.org/1999/xlink"
   xmlns="http://www.w3.org/2000/svg"
   xmlns:svg="http://www.w3.org/2000/svg">
  <sodipodi:namedview
     id="namedview423"
     pagecolor="#ffffff"
     bordercolor="#666666"
     borderopacity="1.0"
     inkscape:pageshadow="2"
     inkscape:pageopacity="0.0"
     inkscape:pagecheckerboard="0"
     inkscape:document-units="pt"
     showgrid="false"
     inkscape:snap-global="false"
     inkscape:zoom="1.8905285"
     inkscape:cx="274.26193"
     inkscape:cy="328.47957"
     inkscape:window-width="1920"
     inkscape:window-height="974"
     inkscape:window-x="-11"
     inkscape:window-y="-11"
     inkscape:window-maximized="1"
     inkscape:current-layer="figure_1" />
  <defs
     id="defs4">
    <style
       type="text/css"
       id="style2">
*{stroke-linecap:butt;stroke-linejoin:round;}
  </style>
    <linearGradient
       inkscape:collect="always"
       xlink:href="#linearGradient26954"
       id="linearGradient29193"
       gradientUnits="userSpaceOnUse"
       gradientTransform="matrix(0,3.5519809,-3.1337076,0,391.74828,-189.46665)"
       x1="103.56874"
       y1="58.46521"
       x2="129.16956"
       y2="58.46521" />
    <linearGradient
       inkscape:collect="always"
       id="linearGradient26954">
      <stop
         style="stop-color:#ff0b0b;stop-opacity:1;"
         offset="0"
         id="stop26950" />
      <stop
         style="stop-color:#ff0b0b;stop-opacity:0;"
         offset="1"
         id="stop26952" />
    </linearGradient>
    <linearGradient
       inkscape:collect="always"
       xlink:href="#linearGradient27166"
       id="linearGradient29195"
       gradientUnits="userSpaceOnUse"
       gradientTransform="matrix(3.1337076,0,0,3.5519809,-47.184378,63.12314)"
       x1="81.241646"
       y1="44.721001"
       x2="81.950645"
       y2="44.721001" />
    <linearGradient
       inkscape:collect="always"
       id="linearGradient27166">
      <stop
         style="stop-color:#574dd2;stop-opacity:1;"
         offset="0"
         id="stop27162" />
      <stop
         style="stop-color:#574dd2;stop-opacity:0;"
         offset="1"
         id="stop27164" />
    </linearGradient>
    <linearGradient
       inkscape:collect="always"
       xlink:href="#linearGradient26884"
       id="linearGradient29197"
       gradientUnits="userSpaceOnUse"
       gradientTransform="matrix(0,-3.5519809,3.1337076,0,25.279834,633.40919)"
       x1="103.56874"
       y1="58.46521"
       x2="129.16956"
       y2="58.46521" />
    <linearGradient
       inkscape:collect="always"
       id="linearGradient26884">
      <stop
         style="stop-color:#1200fd;stop-opacity:1;"
         offset="0"
         id="stop26880" />
      <stop
         style="stop-color:#1200fd;stop-opacity:0;"
         offset="1"
         id="stop26882" />
    </linearGradient>
    <marker
       style="overflow:visible"
       id="Arrow2Lend-6"
       refX="0"
       refY="0"
       orient="auto"
       inkscape:stockid="Arrow2Lend"
       inkscape:isstock="true">
      <path
         transform="matrix(-1.1,0,0,-1.1,-1.1,0)"
         d="M 8.7185878,4.0337352 -2.2072895,0.01601326 8.7185884,-4.0017078 c -1.7454984,2.3720609 -1.7354408,5.6174519 -6e-7,8.035443 z"
         style="fill:context-stroke;fill-rule:evenodd;stroke:context-stroke;stroke-width:0.625;stroke-linejoin:round"
         id="path880-4" />
    </marker>
  </defs>
  <g
     id="figure_1">
    <g
       id="axes_1">
      <g
         id="matplotlib.axis_1">
        <g
           id="xtick_1">
          <g
             id="line2d_1">
            <path
               clip-path="url(#p9b4a97ba4d)"
               d="M 81.577674 374.4  L 81.577674 57.6  "
               style="fill:none;stroke:#000000;stroke-linecap:square;stroke-width:0.8;"
               id="path12" />
          </g>
          <g
             id="line2d_2">
            <defs
               id="defs16">
              <path
                 d="M 0 0  L 0 3.5  "
                 id="m25362e5108"
                 style="stroke:#000000;stroke-width:0.8;" />
            </defs>
            <g
               id="g20">
              <use
                 style="stroke:#000000;stroke-width:0.8;"
                 x="81.577674"
                 xlink:href="#m25362e5108"
                 y="374.4"
                 id="use18" />
            </g>
          </g>
          <g
             id="text_1">
            <!-- 3 -->
            <defs
               id="defs24">
              <path
                 d="M 40.578125 39.3125  Q 47.65625 37.796875 51.625 33  Q 55.609375 28.21875 55.609375 21.1875  Q 55.609375 10.40625 48.1875 4.484375  Q 40.765625 -1.421875 27.09375 -1.421875  Q 22.515625 -1.421875 17.65625 -0.515625  Q 12.796875 0.390625 7.625 2.203125  L 7.625 11.71875  Q 11.71875 9.328125 16.59375 8.109375  Q 21.484375 6.890625 26.8125 6.890625  Q 36.078125 6.890625 40.9375 10.546875  Q 45.796875 14.203125 45.796875 21.1875  Q 45.796875 27.640625 41.28125 31.265625  Q 36.765625 34.90625 28.71875 34.90625  L 20.21875 34.90625  L 20.21875 43.015625  L 29.109375 43.015625  Q 36.375 43.015625 40.234375 45.921875  Q 44.09375 48.828125 44.09375 54.296875  Q 44.09375 59.90625 40.109375 62.90625  Q 36.140625 65.921875 28.71875 65.921875  Q 24.65625 65.921875 20.015625 65.03125  Q 15.375 64.15625 9.8125 62.3125  L 9.8125 71.09375  Q 15.4375 72.65625 20.34375 73.4375  Q 25.25 74.21875 29.59375 74.21875  Q 40.828125 74.21875 47.359375 69.109375  Q 53.90625 64.015625 53.90625 55.328125  Q 53.90625 49.265625 50.4375 45.09375  Q 46.96875 40.921875 40.578125 39.3125  z "
                 id="DejaVuSans-51" />
            </defs>
            <g
               transform="translate(78.396424 388.998438)scale(0.1 -0.1)"
               id="g28">
              <use
                 xlink:href="#DejaVuSans-51"
                 id="use26" />
            </g>
          </g>
        </g>
        <g
           id="xtick_2">
          <g
             id="line2d_3">
            <path
               clip-path="url(#p9b4a97ba4d)"
               d="M 144.800372 374.4  L 144.800372 57.6  "
               style="fill:none;stroke:#000000;stroke-linecap:square;stroke-width:0.8;"
               id="path32" />
          </g>
          <g
             id="line2d_4">
            <g
               id="g37">
              <use
                 style="stroke:#000000;stroke-width:0.8;"
                 x="144.800372"
                 xlink:href="#m25362e5108"
                 y="374.4"
                 id="use35" />
            </g>
          </g>
          <g
             id="text_2">
            <!-- 4 -->
            <defs
               id="defs41">
              <path
                 d="M 37.796875 64.3125  L 12.890625 25.390625  L 37.796875 25.390625  z M 35.203125 72.90625  L 47.609375 72.90625  L 47.609375 25.390625  L 58.015625 25.390625  L 58.015625 17.1875  L 47.609375 17.1875  L 47.609375 0  L 37.796875 0  L 37.796875 17.1875  L 4.890625 17.1875  L 4.890625 26.703125  z "
                 id="DejaVuSans-52" />
            </defs>
            <g
               transform="translate(141.619122 388.998438)scale(0.1 -0.1)"
               id="g45">
              <use
                 xlink:href="#DejaVuSans-52"
                 id="use43" />
            </g>
          </g>
        </g>
        <g
           id="xtick_3">
          <g
             id="line2d_5">
            <path
               clip-path="url(#p9b4a97ba4d)"
               d="M 208.02307 374.4  L 208.02307 57.6  "
               style="fill:none;stroke:#000000;stroke-linecap:square;stroke-width:0.8;"
               id="path49" />
          </g>
          <g
             id="line2d_6">
            <g
               id="g54">
              <use
                 style="stroke:#000000;stroke-width:0.8;"
                 x="208.02307"
                 xlink:href="#m25362e5108"
                 y="374.4"
                 id="use52" />
            </g>
          </g>
          <g
             id="text_3">
            <!-- 5 -->
            <defs
               id="defs58">
              <path
                 d="M 10.796875 72.90625  L 49.515625 72.90625  L 49.515625 64.59375  L 19.828125 64.59375  L 19.828125 46.734375  Q 21.96875 47.46875 24.109375 47.828125  Q 26.265625 48.1875 28.421875 48.1875  Q 40.625 48.1875 47.75 41.5  Q 54.890625 34.8125 54.890625 23.390625  Q 54.890625 11.625 47.5625 5.09375  Q 40.234375 -1.421875 26.90625 -1.421875  Q 22.3125 -1.421875 17.546875 -0.640625  Q 12.796875 0.140625 7.71875 1.703125  L 7.71875 11.625  Q 12.109375 9.234375 16.796875 8.0625  Q 21.484375 6.890625 26.703125 6.890625  Q 35.15625 6.890625 40.078125 11.328125  Q 45.015625 15.765625 45.015625 23.390625  Q 45.015625 31 40.078125 35.4375  Q 35.15625 39.890625 26.703125 39.890625  Q 22.75 39.890625 18.8125 39.015625  Q 14.890625 38.140625 10.796875 36.28125  z "
                 id="DejaVuSans-53" />
            </defs>
            <g
               transform="translate(204.84182 388.998438)scale(0.1 -0.1)"
               id="g62">
              <use
                 xlink:href="#DejaVuSans-53"
                 id="use60" />
            </g>
          </g>
        </g>
        <g
           id="xtick_4">
          <g
             id="line2d_7">
            <path
               clip-path="url(#p9b4a97ba4d)"
               d="M 271.245767 374.4  L 271.245767 57.6  "
               style="fill:none;stroke:#000000;stroke-linecap:square;stroke-width:0.8;"
               id="path66" />
          </g>
          <g
             id="line2d_8">
            <g
               id="g71">
              <use
                 style="stroke:#000000;stroke-width:0.8;"
                 x="271.245767"
                 xlink:href="#m25362e5108"
                 y="374.4"
                 id="use69" />
            </g>
          </g>
          <g
             id="text_4">
            <!-- 6 -->
            <defs
               id="defs75">
              <path
                 d="M 33.015625 40.375  Q 26.375 40.375 22.484375 35.828125  Q 18.609375 31.296875 18.609375 23.390625  Q 18.609375 15.53125 22.484375 10.953125  Q 26.375 6.390625 33.015625 6.390625  Q 39.65625 6.390625 43.53125 10.953125  Q 47.40625 15.53125 47.40625 23.390625  Q 47.40625 31.296875 43.53125 35.828125  Q 39.65625 40.375 33.015625 40.375  z M 52.59375 71.296875  L 52.59375 62.3125  Q 48.875 64.0625 45.09375 64.984375  Q 41.3125 65.921875 37.59375 65.921875  Q 27.828125 65.921875 22.671875 59.328125  Q 17.53125 52.734375 16.796875 39.40625  Q 19.671875 43.65625 24.015625 45.921875  Q 28.375 48.1875 33.59375 48.1875  Q 44.578125 48.1875 50.953125 41.515625  Q 57.328125 34.859375 57.328125 23.390625  Q 57.328125 12.15625 50.6875 5.359375  Q 44.046875 -1.421875 33.015625 -1.421875  Q 20.359375 -1.421875 13.671875 8.265625  Q 6.984375 17.96875 6.984375 36.375  Q 6.984375 53.65625 15.1875 63.9375  Q 23.390625 74.21875 37.203125 74.21875  Q 40.921875 74.21875 44.703125 73.484375  Q 48.484375 72.75 52.59375 71.296875  z "
                 id="DejaVuSans-54" />
            </defs>
            <g
               transform="translate(268.064517 388.998438)scale(0.1 -0.1)"
               id="g79">
              <use
                 xlink:href="#DejaVuSans-54"
                 id="use77" />
            </g>
          </g>
        </g>
        <g
           id="xtick_5">
          <g
             id="line2d_9">
            <path
               clip-path="url(#p9b4a97ba4d)"
               d="M 334.468465 374.4  L 334.468465 57.6  "
               style="fill:none;stroke:#000000;stroke-linecap:square;stroke-width:0.8;"
               id="path83" />
          </g>
          <g
             id="line2d_10">
            <g
               id="g88">
              <use
                 style="stroke:#000000;stroke-width:0.8;"
                 x="334.468465"
                 xlink:href="#m25362e5108"
                 y="374.4"
                 id="use86" />
            </g>
          </g>
          <g
             id="text_5">
            <!-- 7 -->
            <defs
               id="defs92">
              <path
                 d="M 8.203125 72.90625  L 55.078125 72.90625  L 55.078125 68.703125  L 28.609375 0  L 18.3125 0  L 43.21875 64.59375  L 8.203125 64.59375  z "
                 id="DejaVuSans-55" />
            </defs>
            <g
               transform="translate(331.287215 388.998438)scale(0.1 -0.1)"
               id="g96">
              <use
                 xlink:href="#DejaVuSans-55"
                 id="use94" />
            </g>
          </g>
        </g>
        <g
           id="xtick_6">
          <g
             id="line2d_11">
            <path
               clip-path="url(#p9b4a97ba4d)"
               d="M 397.691163 374.4  L 397.691163 57.6  "
               style="fill:none;stroke:#000000;stroke-linecap:square;stroke-width:0.8;"
               id="path100" />
          </g>
          <g
             id="line2d_12">
            <g
               id="g105">
              <use
                 style="stroke:#000000;stroke-width:0.8;"
                 x="397.691163"
                 xlink:href="#m25362e5108"
                 y="374.4"
                 id="use103" />
            </g>
          </g>
          <g
             id="text_6">
            <!-- 8 -->
            <defs
               id="defs109">
              <path
                 d="M 31.78125 34.625  Q 24.75 34.625 20.71875 30.859375  Q 16.703125 27.09375 16.703125 20.515625  Q 16.703125 13.921875 20.71875 10.15625  Q 24.75 6.390625 31.78125 6.390625  Q 38.8125 6.390625 42.859375 10.171875  Q 46.921875 13.96875 46.921875 20.515625  Q 46.921875 27.09375 42.890625 30.859375  Q 38.875 34.625 31.78125 34.625  z M 21.921875 38.8125  Q 15.578125 40.375 12.03125 44.71875  Q 8.5 49.078125 8.5 55.328125  Q 8.5 64.0625 14.71875 69.140625  Q 20.953125 74.21875 31.78125 74.21875  Q 42.671875 74.21875 48.875 69.140625  Q 55.078125 64.0625 55.078125 55.328125  Q 55.078125 49.078125 51.53125 44.71875  Q 48 40.375 41.703125 38.8125  Q 48.828125 37.15625 52.796875 32.3125  Q 56.78125 27.484375 56.78125 20.515625  Q 56.78125 9.90625 50.3125 4.234375  Q 43.84375 -1.421875 31.78125 -1.421875  Q 19.734375 -1.421875 13.25 4.234375  Q 6.78125 9.90625 6.78125 20.515625  Q 6.78125 27.484375 10.78125 32.3125  Q 14.796875 37.15625 21.921875 38.8125  z M 18.3125 54.390625  Q 18.3125 48.734375 21.84375 45.5625  Q 25.390625 42.390625 31.78125 42.390625  Q 38.140625 42.390625 41.71875 45.5625  Q 45.3125 48.734375 45.3125 54.390625  Q 45.3125 60.0625 41.71875 63.234375  Q 38.140625 66.40625 31.78125 66.40625  Q 25.390625 66.40625 21.84375 63.234375  Q 18.3125 60.0625 18.3125 54.390625  z "
                 id="DejaVuSans-56" />
            </defs>
            <g
               transform="translate(394.509913 388.998438)scale(0.1 -0.1)"
               id="g113">
              <use
                 xlink:href="#DejaVuSans-56"
                 id="use111" />
            </g>
          </g>
        </g>
        <g
           id="text_7">
          <!-- Omeg -->
          <defs
             id="defs121">
            <path
               d="M 39.40625 66.21875  Q 28.65625 66.21875 22.328125 58.203125  Q 16.015625 50.203125 16.015625 36.375  Q 16.015625 22.609375 22.328125 14.59375  Q 28.65625 6.59375 39.40625 6.59375  Q 50.140625 6.59375 56.421875 14.59375  Q 62.703125 22.609375 62.703125 36.375  Q 62.703125 50.203125 56.421875 58.203125  Q 50.140625 66.21875 39.40625 66.21875  z M 39.40625 74.21875  Q 54.734375 74.21875 63.90625 63.9375  Q 73.09375 53.65625 73.09375 36.375  Q 73.09375 19.140625 63.90625 8.859375  Q 54.734375 -1.421875 39.40625 -1.421875  Q 24.03125 -1.421875 14.8125 8.828125  Q 5.609375 19.09375 5.609375 36.375  Q 5.609375 53.65625 14.8125 63.9375  Q 24.03125 74.21875 39.40625 74.21875  z "
               id="DejaVuSans-79" />
            <path
               d="M 52 44.1875  Q 55.375 50.25 60.0625 53.125  Q 64.75 56 71.09375 56  Q 79.640625 56 84.28125 50.015625  Q 88.921875 44.046875 88.921875 33.015625  L 88.921875 0  L 79.890625 0  L 79.890625 32.71875  Q 79.890625 40.578125 77.09375 44.375  Q 74.3125 48.1875 68.609375 48.1875  Q 61.625 48.1875 57.5625 43.546875  Q 53.515625 38.921875 53.515625 30.90625  L 53.515625 0  L 44.484375 0  L 44.484375 32.71875  Q 44.484375 40.625 41.703125 44.40625  Q 38.921875 48.1875 33.109375 48.1875  Q 26.21875 48.1875 22.15625 43.53125  Q 18.109375 38.875 18.109375 30.90625  L 18.109375 0  L 9.078125 0  L 9.078125 54.6875  L 18.109375 54.6875  L 18.109375 46.1875  Q 21.1875 51.21875 25.484375 53.609375  Q 29.78125 56 35.6875 56  Q 41.65625 56 45.828125 52.96875  Q 50 49.953125 52 44.1875  z "
               id="DejaVuSans-109" />
            <path
               d="M 56.203125 29.59375  L 56.203125 25.203125  L 14.890625 25.203125  Q 15.484375 15.921875 20.484375 11.0625  Q 25.484375 6.203125 34.421875 6.203125  Q 39.59375 6.203125 44.453125 7.46875  Q 49.3125 8.734375 54.109375 11.28125  L 54.109375 2.78125  Q 49.265625 0.734375 44.1875 -0.34375  Q 39.109375 -1.421875 33.890625 -1.421875  Q 20.796875 -1.421875 13.15625 6.1875  Q 5.515625 13.8125 5.515625 26.8125  Q 5.515625 40.234375 12.765625 48.109375  Q 20.015625 56 32.328125 56  Q 43.359375 56 49.78125 48.890625  Q 56.203125 41.796875 56.203125 29.59375  z M 47.21875 32.234375  Q 47.125 39.59375 43.09375 43.984375  Q 39.0625 48.390625 32.421875 48.390625  Q 24.90625 48.390625 20.390625 44.140625  Q 15.875 39.890625 15.1875 32.171875  z "
               id="DejaVuSans-101" />
            <path
               d="M 45.40625 27.984375  Q 45.40625 37.75 41.375 43.109375  Q 37.359375 48.484375 30.078125 48.484375  Q 22.859375 48.484375 18.828125 43.109375  Q 14.796875 37.75 14.796875 27.984375  Q 14.796875 18.265625 18.828125 12.890625  Q 22.859375 7.515625 30.078125 7.515625  Q 37.359375 7.515625 41.375 12.890625  Q 45.40625 18.265625 45.40625 27.984375  z M 54.390625 6.78125  Q 54.390625 -7.171875 48.1875 -13.984375  Q 42 -20.796875 29.203125 -20.796875  Q 24.46875 -20.796875 20.265625 -20.09375  Q 16.0625 -19.390625 12.109375 -17.921875  L 12.109375 -9.1875  Q 16.0625 -11.328125 19.921875 -12.34375  Q 23.78125 -13.375 27.78125 -13.375  Q 36.625 -13.375 41.015625 -8.765625  Q 45.40625 -4.15625 45.40625 5.171875  L 45.40625 9.625  Q 42.625 4.78125 38.28125 2.390625  Q 33.9375 0 27.875 0  Q 17.828125 0 11.671875 7.65625  Q 5.515625 15.328125 5.515625 27.984375  Q 5.515625 40.671875 11.671875 48.328125  Q 17.828125 56 27.875 56  Q 33.9375 56 38.28125 53.609375  Q 42.625 51.21875 45.40625 46.390625  L 45.40625 54.6875  L 54.390625 54.6875  z "
               id="DejaVuSans-103" />
          </defs>
          <g
             transform="translate(224.577387 402.676563)scale(0.1 -0.1)"
             id="g131">
            <use
               xlink:href="#DejaVuSans-79"
               id="use123" />
            <use
               x="78.710938"
               xlink:href="#DejaVuSans-109"
               id="use125" />
            <use
               x="176.123047"
               xlink:href="#DejaVuSans-101"
               id="use127" />
            <use
               x="237.646484"
               xlink:href="#DejaVuSans-103"
               id="use129" />
          </g>
        </g>
      </g>
      <g
         id="matplotlib.axis_2">
        <g
           id="ytick_1">
          <g
             id="line2d_13">
            <path
               clip-path="url(#p9b4a97ba4d)"
               d="M 81.577674 374.4  L 397.691163 374.4  "
               style="fill:none;stroke:#000000;stroke-linecap:square;stroke-width:0.8;"
               id="path135" />
          </g>
          <g
             id="line2d_14">
            <defs
               id="defs139">
              <path
                 d="M 0 0  L -3.5 0  "
                 id="mef4f67b81b"
                 style="stroke:#000000;stroke-width:0.8;" />
            </defs>
            <g
               id="g143">
              <use
                 style="stroke:#000000;stroke-width:0.8;"
                 x="81.577674"
                 xlink:href="#mef4f67b81b"
                 y="374.4"
                 id="use141" />
            </g>
          </g>
          <g
             id="text_8">
            <!-- 0.0 -->
            <defs
               id="defs148">
              <path
                 d="M 31.78125 66.40625  Q 24.171875 66.40625 20.328125 58.90625  Q 16.5 51.421875 16.5 36.375  Q 16.5 21.390625 20.328125 13.890625  Q 24.171875 6.390625 31.78125 6.390625  Q 39.453125 6.390625 43.28125 13.890625  Q 47.125 21.390625 47.125 36.375  Q 47.125 51.421875 43.28125 58.90625  Q 39.453125 66.40625 31.78125 66.40625  z M 31.78125 74.21875  Q 44.046875 74.21875 50.515625 64.515625  Q 56.984375 54.828125 56.984375 36.375  Q 56.984375 17.96875 50.515625 8.265625  Q 44.046875 -1.421875 31.78125 -1.421875  Q 19.53125 -1.421875 13.0625 8.265625  Q 6.59375 17.96875 6.59375 36.375  Q 6.59375 54.828125 13.0625 64.515625  Q 19.53125 74.21875 31.78125 74.21875  z "
                 id="DejaVuSans-48" />
              <path
                 d="M 10.6875 12.40625  L 21 12.40625  L 21 0  L 10.6875 0  z "
                 id="DejaVuSans-46" />
            </defs>
            <g
               transform="translate(58.674549 378.199219)scale(0.1 -0.1)"
               id="g156">
              <use
                 xlink:href="#DejaVuSans-48"
                 id="use150" />
              <use
                 x="63.623047"
                 xlink:href="#DejaVuSans-46"
                 id="use152" />
              <use
                 x="95.410156"
                 xlink:href="#DejaVuSans-48"
                 id="use154" />
            </g>
          </g>
        </g>
        <g
           id="ytick_2">
          <g
             id="line2d_15">
            <path
               clip-path="url(#p9b4a97ba4d)"
               d="M 81.577674 334.8  L 397.691163 334.8  "
               style="fill:none;stroke:#000000;stroke-linecap:square;stroke-width:0.8;"
               id="path160" />
          </g>
          <g
             id="line2d_16">
            <g
               id="g165">
              <use
                 style="stroke:#000000;stroke-width:0.8;"
                 x="81.577674"
                 xlink:href="#mef4f67b81b"
                 y="334.8"
                 id="use163" />
            </g>
          </g>
          <g
             id="text_9">
            <!-- 0.5 -->
            <g
               transform="translate(58.674549 338.599219)scale(0.1 -0.1)"
               id="g174">
              <use
                 xlink:href="#DejaVuSans-48"
                 id="use168" />
              <use
                 x="63.623047"
                 xlink:href="#DejaVuSans-46"
                 id="use170" />
              <use
                 x="95.410156"
                 xlink:href="#DejaVuSans-53"
                 id="use172" />
            </g>
          </g>
        </g>
        <g
           id="ytick_3">
          <g
             id="line2d_17">
            <path
               clip-path="url(#p9b4a97ba4d)"
               d="M 81.577674 295.2  L 397.691163 295.2  "
               style="fill:none;stroke:#000000;stroke-linecap:square;stroke-width:0.8;"
               id="path178" />
          </g>
          <g
             id="line2d_18">
            <g
               id="g183">
              <use
                 style="stroke:#000000;stroke-width:0.8;"
                 x="81.577674"
                 xlink:href="#mef4f67b81b"
                 y="295.2"
                 id="use181" />
            </g>
          </g>
          <g
             id="text_10">
            <!-- 1.0 -->
            <defs
               id="defs187">
              <path
                 d="M 12.40625 8.296875  L 28.515625 8.296875  L 28.515625 63.921875  L 10.984375 60.40625  L 10.984375 69.390625  L 28.421875 72.90625  L 38.28125 72.90625  L 38.28125 8.296875  L 54.390625 8.296875  L 54.390625 0  L 12.40625 0  z "
                 id="DejaVuSans-49" />
            </defs>
            <g
               transform="translate(58.674549 298.999219)scale(0.1 -0.1)"
               id="g195">
              <use
                 xlink:href="#DejaVuSans-49"
                 id="use189" />
              <use
                 x="63.623047"
                 xlink:href="#DejaVuSans-46"
                 id="use191" />
              <use
                 x="95.410156"
                 xlink:href="#DejaVuSans-48"
                 id="use193" />
            </g>
          </g>
        </g>
        <g
           id="ytick_4">
          <g
             id="line2d_19">
            <path
               clip-path="url(#p9b4a97ba4d)"
               d="M 81.577674 255.6  L 397.691163 255.6  "
               style="fill:none;stroke:#000000;stroke-linecap:square;stroke-width:0.8;"
               id="path199" />
          </g>
          <g
             id="line2d_20">
            <g
               id="g204">
              <use
                 style="stroke:#000000;stroke-width:0.8;"
                 x="81.577674"
                 xlink:href="#mef4f67b81b"
                 y="255.6"
                 id="use202" />
            </g>
          </g>
          <g
             id="text_11">
            <!-- 1.5 -->
            <g
               transform="translate(58.674549 259.399219)scale(0.1 -0.1)"
               id="g213">
              <use
                 xlink:href="#DejaVuSans-49"
                 id="use207" />
              <use
                 x="63.623047"
                 xlink:href="#DejaVuSans-46"
                 id="use209" />
              <use
                 x="95.410156"
                 xlink:href="#DejaVuSans-53"
                 id="use211" />
            </g>
          </g>
        </g>
        <g
           id="ytick_5">
          <g
             id="line2d_21">
            <path
               clip-path="url(#p9b4a97ba4d)"
               d="M 81.577674 216  L 397.691163 216  "
               style="fill:none;stroke:#000000;stroke-linecap:square;stroke-width:0.8;"
               id="path217" />
          </g>
          <g
             id="line2d_22">
            <g
               id="g222">
              <use
                 style="stroke:#000000;stroke-width:0.8;"
                 x="81.577674"
                 xlink:href="#mef4f67b81b"
                 y="216"
                 id="use220" />
            </g>
          </g>
          <g
             id="text_12">
            <!-- 2.0 -->
            <defs
               id="defs226">
              <path
                 d="M 19.1875 8.296875  L 53.609375 8.296875  L 53.609375 0  L 7.328125 0  L 7.328125 8.296875  Q 12.9375 14.109375 22.625 23.890625  Q 32.328125 33.6875 34.8125 36.53125  Q 39.546875 41.84375 41.421875 45.53125  Q 43.3125 49.21875 43.3125 52.78125  Q 43.3125 58.59375 39.234375 62.25  Q 35.15625 65.921875 28.609375 65.921875  Q 23.96875 65.921875 18.8125 64.3125  Q 13.671875 62.703125 7.8125 59.421875  L 7.8125 69.390625  Q 13.765625 71.78125 18.9375 73  Q 24.125 74.21875 28.421875 74.21875  Q 39.75 74.21875 46.484375 68.546875  Q 53.21875 62.890625 53.21875 53.421875  Q 53.21875 48.921875 51.53125 44.890625  Q 49.859375 40.875 45.40625 35.40625  Q 44.1875 33.984375 37.640625 27.21875  Q 31.109375 20.453125 19.1875 8.296875  z "
                 id="DejaVuSans-50" />
            </defs>
            <g
               transform="translate(58.674549 219.799219)scale(0.1 -0.1)"
               id="g234">
              <use
                 xlink:href="#DejaVuSans-50"
                 id="use228" />
              <use
                 x="63.623047"
                 xlink:href="#DejaVuSans-46"
                 id="use230" />
              <use
                 x="95.410156"
                 xlink:href="#DejaVuSans-48"
                 id="use232" />
            </g>
          </g>
        </g>
        <g
           id="ytick_6">
          <g
             id="line2d_23">
            <path
               clip-path="url(#p9b4a97ba4d)"
               d="M 81.577674 176.4  L 397.691163 176.4  "
               style="fill:none;stroke:#000000;stroke-linecap:square;stroke-width:0.8;"
               id="path238" />
          </g>
          <g
             id="line2d_24">
            <g
               id="g243">
              <use
                 style="stroke:#000000;stroke-width:0.8;"
                 x="81.577674"
                 xlink:href="#mef4f67b81b"
                 y="176.4"
                 id="use241" />
            </g>
          </g>
          <g
             id="text_13">
            <!-- 2.5 -->
            <g
               transform="translate(58.674549 180.199219)scale(0.1 -0.1)"
               id="g252">
              <use
                 xlink:href="#DejaVuSans-50"
                 id="use246" />
              <use
                 x="63.623047"
                 xlink:href="#DejaVuSans-46"
                 id="use248" />
              <use
                 x="95.410156"
                 xlink:href="#DejaVuSans-53"
                 id="use250" />
            </g>
          </g>
        </g>
        <g
           id="ytick_7">
          <g
             id="line2d_25">
            <path
               clip-path="url(#p9b4a97ba4d)"
               d="M 81.577674 136.8  L 397.691163 136.8  "
               style="fill:none;stroke:#000000;stroke-linecap:square;stroke-width:0.8;"
               id="path256" />
          </g>
          <g
             id="line2d_26">
            <g
               id="g261">
              <use
                 style="stroke:#000000;stroke-width:0.8;"
                 x="81.577674"
                 xlink:href="#mef4f67b81b"
                 y="136.8"
                 id="use259" />
            </g>
          </g>
          <g
             id="text_14">
            <!-- 3.0 -->
            <g
               transform="translate(58.674549 140.599219)scale(0.1 -0.1)"
               id="g270">
              <use
                 xlink:href="#DejaVuSans-51"
                 id="use264" />
              <use
                 x="63.623047"
                 xlink:href="#DejaVuSans-46"
                 id="use266" />
              <use
                 x="95.410156"
                 xlink:href="#DejaVuSans-48"
                 id="use268" />
            </g>
          </g>
        </g>
        <g
           id="ytick_8">
          <g
             id="line2d_27">
            <path
               clip-path="url(#p9b4a97ba4d)"
               d="M 81.577674 97.2  L 397.691163 97.2  "
               style="fill:none;stroke:#000000;stroke-linecap:square;stroke-width:0.8;"
               id="path274" />
          </g>
          <g
             id="line2d_28">
            <g
               id="g279">
              <use
                 style="stroke:#000000;stroke-width:0.8;"
                 x="81.577674"
                 xlink:href="#mef4f67b81b"
                 y="97.2"
                 id="use277" />
            </g>
          </g>
          <g
             id="text_15">
            <!-- 3.5 -->
            <g
               transform="translate(58.674549 100.999219)scale(0.1 -0.1)"
               id="g288">
              <use
                 xlink:href="#DejaVuSans-51"
                 id="use282" />
              <use
                 x="63.623047"
                 xlink:href="#DejaVuSans-46"
                 id="use284" />
              <use
                 x="95.410156"
                 xlink:href="#DejaVuSans-53"
                 id="use286" />
            </g>
          </g>
        </g>
        <g
           id="ytick_9">
          <g
             id="line2d_29">
            <path
               clip-path="url(#p9b4a97ba4d)"
               d="M 81.577674 57.6  L 397.691163 57.6  "
               style="fill:none;stroke:#000000;stroke-linecap:square;stroke-width:0.8;"
               id="path292" />
          </g>
          <g
             id="line2d_30">
            <g
               id="g297">
              <use
                 style="stroke:#000000;stroke-width:0.8;"
                 x="81.577674"
                 xlink:href="#mef4f67b81b"
                 y="57.6"
                 id="use295" />
            </g>
          </g>
          <g
             id="text_16">
            <!-- 4.0 -->
            <g
               transform="translate(58.674549 61.399219)scale(0.1 -0.1)"
               id="g306">
              <use
                 xlink:href="#DejaVuSans-52"
                 id="use300" />
              <use
                 x="63.623047"
                 xlink:href="#DejaVuSans-46"
                 id="use302" />
              <use
                 x="95.410156"
                 xlink:href="#DejaVuSans-48"
                 id="use304" />
            </g>
          </g>
        </g>
        <g
           id="text_17">
          <!-- Amplitude -->
          <defs
             id="defs317">
            <path
               d="M 34.1875 63.1875  L 20.796875 26.90625  L 47.609375 26.90625  z M 28.609375 72.90625  L 39.796875 72.90625  L 67.578125 0  L 57.328125 0  L 50.6875 18.703125  L 17.828125 18.703125  L 11.1875 0  L 0.78125 0  z "
               id="DejaVuSans-65" />
            <path
               d="M 18.109375 8.203125  L 18.109375 -20.796875  L 9.078125 -20.796875  L 9.078125 54.6875  L 18.109375 54.6875  L 18.109375 46.390625  Q 20.953125 51.265625 25.265625 53.625  Q 29.59375 56 35.59375 56  Q 45.5625 56 51.78125 48.09375  Q 58.015625 40.1875 58.015625 27.296875  Q 58.015625 14.40625 51.78125 6.484375  Q 45.5625 -1.421875 35.59375 -1.421875  Q 29.59375 -1.421875 25.265625 0.953125  Q 20.953125 3.328125 18.109375 8.203125  z M 48.6875 27.296875  Q 48.6875 37.203125 44.609375 42.84375  Q 40.53125 48.484375 33.40625 48.484375  Q 26.265625 48.484375 22.1875 42.84375  Q 18.109375 37.203125 18.109375 27.296875  Q 18.109375 17.390625 22.1875 11.75  Q 26.265625 6.109375 33.40625 6.109375  Q 40.53125 6.109375 44.609375 11.75  Q 48.6875 17.390625 48.6875 27.296875  z "
               id="DejaVuSans-112" />
            <path
               d="M 9.421875 75.984375  L 18.40625 75.984375  L 18.40625 0  L 9.421875 0  z "
               id="DejaVuSans-108" />
            <path
               d="M 9.421875 54.6875  L 18.40625 54.6875  L 18.40625 0  L 9.421875 0  z M 9.421875 75.984375  L 18.40625 75.984375  L 18.40625 64.59375  L 9.421875 64.59375  z "
               id="DejaVuSans-105" />
            <path
               d="M 18.3125 70.21875  L 18.3125 54.6875  L 36.8125 54.6875  L 36.8125 47.703125  L 18.3125 47.703125  L 18.3125 18.015625  Q 18.3125 11.328125 20.140625 9.421875  Q 21.96875 7.515625 27.59375 7.515625  L 36.8125 7.515625  L 36.8125 0  L 27.59375 0  Q 17.1875 0 13.234375 3.875  Q 9.28125 7.765625 9.28125 18.015625  L 9.28125 47.703125  L 2.6875 47.703125  L 2.6875 54.6875  L 9.28125 54.6875  L 9.28125 70.21875  z "
               id="DejaVuSans-116" />
            <path
               d="M 8.5 21.578125  L 8.5 54.6875  L 17.484375 54.6875  L 17.484375 21.921875  Q 17.484375 14.15625 20.5 10.265625  Q 23.53125 6.390625 29.59375 6.390625  Q 36.859375 6.390625 41.078125 11.03125  Q 45.3125 15.671875 45.3125 23.6875  L 45.3125 54.6875  L 54.296875 54.6875  L 54.296875 0  L 45.3125 0  L 45.3125 8.40625  Q 42.046875 3.421875 37.71875 1  Q 33.40625 -1.421875 27.6875 -1.421875  Q 18.265625 -1.421875 13.375 4.4375  Q 8.5 10.296875 8.5 21.578125  z M 31.109375 56  z "
               id="DejaVuSans-117" />
            <path
               d="M 45.40625 46.390625  L 45.40625 75.984375  L 54.390625 75.984375  L 54.390625 0  L 45.40625 0  L 45.40625 8.203125  Q 42.578125 3.328125 38.25 0.953125  Q 33.9375 -1.421875 27.875 -1.421875  Q 17.96875 -1.421875 11.734375 6.484375  Q 5.515625 14.40625 5.515625 27.296875  Q 5.515625 40.1875 11.734375 48.09375  Q 17.96875 56 27.875 56  Q 33.9375 56 38.25 53.625  Q 42.578125 51.265625 45.40625 46.390625  z M 14.796875 27.296875  Q 14.796875 17.390625 18.875 11.75  Q 22.953125 6.109375 30.078125 6.109375  Q 37.203125 6.109375 41.296875 11.75  Q 45.40625 17.390625 45.40625 27.296875  Q 45.40625 37.203125 41.296875 42.84375  Q 37.203125 48.484375 30.078125 48.484375  Q 22.953125 48.484375 18.875 42.84375  Q 14.796875 37.203125 14.796875 27.296875  z "
               id="DejaVuSans-100" />
          </defs>
          <g
             transform="translate(52.594862 241.622656)rotate(-90)scale(0.1 -0.1)"
             id="g337">
            <use
               xlink:href="#DejaVuSans-65"
               id="use319" />
            <use
               x="68.408203"
               xlink:href="#DejaVuSans-109"
               id="use321" />
            <use
               x="165.820312"
               xlink:href="#DejaVuSans-112"
               id="use323" />
            <use
               x="229.296875"
               xlink:href="#DejaVuSans-108"
               id="use325" />
            <use
               x="257.080078"
               xlink:href="#DejaVuSans-105"
               id="use327" />
            <use
               x="284.863281"
               xlink:href="#DejaVuSans-116"
               id="use329" />
            <use
               x="324.072266"
               xlink:href="#DejaVuSans-117"
               id="use331" />
            <use
               x="387.451172"
               xlink:href="#DejaVuSans-100"
               id="use333" />
            <use
               x="450.927734"
               xlink:href="#DejaVuSans-101"
               id="use335" />
          </g>
        </g>
      </g>
      <g
         id="line2d_31"
         style="stroke:#f50000;stroke-opacity:1">
        <path
           clip-path="url(#p9b4a97ba4d)"
           d="M 147.961507 246.295161  L 153.889535 238.836719  L 161.066131 230.142688  L 169.668397 220.08212  L 179.378793 209.065531  L 191.37005 195.807061  L 206.691456 179.226781  L 226.177286 158.474878  L 256.717122 126.290693  L 294.210842 87.064842  L 322.081844 58.216284  L 347.456428 32.282728  L 372.392663 7.115476  L 380.496904 -1  L 380.496904 -1  "
           style="fill:none;stroke:#f50000;stroke-linecap:square;stroke-width:2;stroke-opacity:1"
           id="path341" />
      </g>
      <g
         id="line2d_32"
         style="stroke:#f50000;stroke-opacity:1">
        <path
           clip-path="url(#p9b4a97ba4d)"
           d="M 147.961507 246.295161  L 142.058414 254.056262  L 136.91679 261.178758  L 132.408346 267.800025  L 128.532848 273.872907  L 125.06421 279.718718  L 122.110069 285.123265  L 119.558711 290.242226  L 117.401827 295.048113  L 115.550426 299.710951  L 114.072204 304.013427  L 112.885403 308.127775  L 111.987961 312.030501  L 111.379369 315.690015  L 111.090485 318.684611  L 111.044371 320.197699  L 111.044371 320.197699  "
           style="fill:none;stroke:#f50000;stroke-linecap:square;stroke-width:2;stroke-opacity:1"
           id="path344" />
      </g>
      <g
         id="line2d_33"
         style="stroke:#f50000;stroke-opacity:1">
        <path
           clip-path="url(#p9b4a97ba4d)"
           d="M 111.044371 320.197699  L 111.151684 321.994752  L 111.355974 322.756411  L 111.542765 322.967092  L 111.727058 322.95587  L 111.97619 322.723036  L 112.396953 321.971164  L 113.120807 320.102965  L 114.637636 315.354922  L 118.064795 304.608079  L 120.678519 297.187049  L 123.454281 289.969821  L 126.497671 282.676102  L 129.803169 275.325899  L 133.489188 267.677554  L 137.552671 259.772166  L 141.984523 251.648078  L 146.861016 243.187862  L 152.124624 234.50914  L 157.84668 225.50697  L 164.144829 216.023304  L 170.852473 206.32468  L 178.217321 196.068952  L 186.200839 185.336572  L 194.895149 174.026851  L 204.38076 162.062005  L 214.546469 149.600254  L 225.680998 136.309517  L 237.651816 122.370854  L 250.735788 107.482575  L 264.936968 91.66813  L 280.253178 74.948558  L 296.978657 57.025009  L 315.160681 37.872465  L 334.863412 17.444446  L 352.895171 -1  L 352.895171 -1  "
           style="fill:none;stroke:#f50000;stroke-dasharray:12, 12;stroke-dashoffset:0;stroke-width:2;stroke-opacity:1"
           id="path347" />
      </g>
      <g
         id="line2d_34">
        <path
           clip-path="url(#p9b4a97ba4d)"
           d="M 208.023071 177.799091  L 208.023071 268.808996  L 208.023071 268.808996  "
           style="fill:none;stroke:#000000;stroke-linecap:square;stroke-width:2;"
           id="path350" />
      </g>
      <g
         id="line2d_35">
        <path
           clip-path="url(#p9b4a97ba4d)"
           d="M 208.023071 268.808996  L 208.023071 268.903689  L 208.023071 268.997823  L 208.023071 269.09108  L 208.023071 269.18385  L 208.023071 269.276109  L 208.023071 269.367901  L 208.023071 269.459192  L 208.023071 269.549982  L 208.023071 269.640264  L 208.023071 269.730036  L 208.023071 269.819217  L 208.023071 269.907942  L 208.023071 269.995962  L 208.023071 270.083135  L 208.023071 270.169868  L 208.023071 270.25608  L 208.023071 270.34176  L 208.023071 270.426944  L 208.023071 270.511604  L 208.023071 270.595749  L 208.023071 270.679362  L 208.023071 270.76245  L 208.023071 270.844974  L 208.023071 270.926693  L 208.023071 271.007771  L 208.023071 271.088357  L 208.023071 271.168378  L 208.023071 271.247876  L 208.023071 271.326851  L 208.023071 271.405343  L 208.023071 271.483314  L 208.023071 271.560781  L 208.023071 271.637716  L 208.023071 271.714133  L 208.023071 271.7898  L 208.023071 271.864795  L 208.023071 271.939278  L 208.023071 272.013184  L 208.023071 272.086677  L 208.023071 272.159663  L 208.023071 272.232211  L 208.023071 272.304224  L 208.023071 272.375736  L 208.023071 272.446701  L 208.023071 272.517207  L 208.023071 272.587029  L 208.023071 272.65616  L 208.023071 272.724829  L 208.023071 272.793012  L 208.023071 272.860717  L 208.023071 272.927932  L 208.023071 272.99467  L 208.023071 273.060943  L 208.023071 273.126744  L 208.023071 273.192074  L 208.023071 273.256977  L 208.023071 273.321383  L 208.023071 273.385327  L 208.023071 273.448632  L 208.023071 273.511332  L 208.023071 273.573581  L 208.023071 273.635342  L 208.023071 273.696706  L 208.023071 273.757626  L 208.023071 273.818105  L 208.023071 273.878155  L 208.023071 273.937771  L 208.023071 273.996988  L 208.023071 274.055755  L 208.023071 274.114096  L 208.023071 274.172033  L 208.023071 274.229536  L 208.023071 274.286389  L 208.023071 274.342604  L 208.023071 274.398586  L 208.023071 274.454163  L 208.023071 274.509337  L 208.023071 274.564113  L 208.023071 274.618494  L 208.023071 274.6725  L 208.023071 274.726113  L 208.023071 274.779339  L 208.023071 274.832216  L 208.023071 274.884685  L 208.023071 274.936776  L 208.023071 274.988478  L 208.023071 275.0397  L 208.023071 275.090393  L 208.023071 275.140651  L 208.023071 275.19063  L 208.023071 275.240251  L 208.023071 275.289477  L 208.023071 275.33841  L 208.023071 275.386993  L 208.023071 275.435234  L 208.023071 275.48313  L 208.023071 275.530686  L 208.023071 275.57789  L 208.023071 275.624771  L 208.023071 275.67132  L 208.023071 275.71763  L 208.023071 275.763537  L 208.023071 275.808951  L 208.023071 275.853826  L 208.023071 275.898534  L 208.023071 275.942928  L 208.023071 275.986978  L 208.023071 276.030763  "
           style="fill:none;stroke:#000000;stroke-dasharray:12,12;stroke-dashoffset:0;stroke-width:2;"
           id="path353" />
      </g>
      <g
         id="line2d_36"
         style="stroke:#0a00f5;stroke-opacity:1">
        <path
           clip-path="url(#p9b4a97ba4d)"
           d="M 208.023071 268.132886  L 219.614405 265.866177  L 226.165095 264.781545  L 237.504284 263.114447  L 248.277123 261.291726  L 258.78775 259.292391  L 269.234243 257.080976  L 279.257645 254.736789  L 289.111367 252.205478  L 298.484022 249.572315  L 307.641941 246.768998  L 316.313331 243.885308  L 324.686565 240.869332  L 332.667783 237.762355  L 340.402684 234.5142  L 347.872912 231.13355  L 354.935229 227.695825  L 361.756211 224.130678  L 368.354859 220.430209  L 374.706309 216.611931  L 380.844921 212.659105  L 386.70023 208.62504  L 392.406648 204.421941  L 397.692904 200.266652  L 397.692904 200.266652  "
           style="fill:none;stroke:#0a00f5;stroke-linecap:square;stroke-width:2;stroke-opacity:1"
           id="path356" />
      </g>
      <g
         id="line2d_37">
        <path
           clip-path="url(#p9b4a97ba4d)"
           d="M 208.023071 268.132886  L 199.323569 269.959431  L 199.323569 269.959431  "
           style="fill:none;stroke:#000000;stroke-linecap:square;stroke-width:2;"
           id="path359" />
      </g>
      <g
         id="line2d_38"
         style="stroke:#0a00f5;stroke-opacity:1">
        <path
           clip-path="url(#p9b4a97ba4d)"
           d="M 199.323569 269.959431  L 179.485865 274.321657  L 148.630882 281.363404  L 127.962346 286.274864  L 116.153418 289.289726  L 108.78268 291.384093  L 107.990919 291.628586  L 107.990919 291.628586  "
           style="fill:none;stroke:#0a00f5;stroke-dasharray:12, 12;stroke-dashoffset:0;stroke-width:2;stroke-opacity:1"
           id="path362" />
      </g>
      <g
         id="line2d_39">
        <path
           clip-path="url(#p9b4a97ba4d)"
           d="M 107.990919 291.628586  L 103.870885 293.029935  L 103.870885 293.029935  "
           style="fill:none;stroke:#000000;stroke-linecap:square;stroke-width:2;"
           id="path365" />
      </g>
      <g
         id="line2d_40"
         style="stroke:#0a00f5;stroke-opacity:1">
        <path
           clip-path="url(#p9b4a97ba4d)"
           d="M 103.870885 293.029935  L 104.162213 293.01954  L 104.95916 293.032844  L 106.525163 292.799459  L 110.446555 291.925243  L 126.118786 288.39053  L 169.594776 278.775679  L 185.500356 274.961076  L 200.506562 271.117714  L 213.633115 267.523109  L 225.954586 263.921118  L 238.087877 260.129904  L 249.144554 256.439756  L 259.720301 252.677445  L 269.820866 248.849801  L 279.539287 244.930635  L 288.879009 240.925592  L 297.871767 236.828575  L 306.682857 232.564925  L 314.653414 228.477732  L 322.746947 224.084992  L 330.599481 219.571008  L 338.193867 214.949726  L 345.552715 210.212313  L 352.695791 205.350741  L 360.063086 200.042714  L 367.055946 194.705165  L 373.582045 189.43964  L 380.066725 183.913446  L 386.3681 178.239153  L 392.374572 172.528384  L 397.700679 167.198278  L 397.700679 167.198278  "
           style="fill:none;stroke:#0a00f5;stroke-dasharray:12, 12;stroke-dashoffset:0;stroke-width:2;stroke-opacity:1"
           id="path368" />
      </g>
      <g
         id="patch_3">
        <path
           d="M 81.577674 374.4  L 81.577674 57.6  "
           style="fill:none;stroke:#000000;stroke-linecap:square;stroke-linejoin:miter;stroke-width:0.8;"
           id="path371" />
      </g>
      <g
         id="patch_4">
        <path
           d="M 397.691163 374.4  L 397.691163 57.6  "
           style="fill:none;stroke:#000000;stroke-linecap:square;stroke-linejoin:miter;stroke-width:0.8;"
           id="path374" />
      </g>
      <g
         id="patch_5">
        <path
           d="M 81.577674 374.4  L 397.691163 374.4  "
           style="fill:none;stroke:#000000;stroke-linecap:square;stroke-linejoin:miter;stroke-width:0.8;"
           id="path377" />
      </g>
      <g
         id="patch_6">
        <path
           d="M 81.577674 57.6  L 397.691163 57.6  "
           style="fill:none;stroke:#000000;stroke-linecap:square;stroke-linejoin:miter;stroke-width:0.8;"
           id="path380" />
      </g>
      <g
         id="text_18">
        <!-- isBare = 1 -->
        <defs
           id="defs389">
          <path
             d="M 44.28125 53.078125  L 44.28125 44.578125  Q 40.484375 46.53125 36.375 47.5  Q 32.28125 48.484375 27.875 48.484375  Q 21.1875 48.484375 17.84375 46.4375  Q 14.5 44.390625 14.5 40.28125  Q 14.5 37.15625 16.890625 35.375  Q 19.28125 33.59375 26.515625 31.984375  L 29.59375 31.296875  Q 39.15625 29.25 43.1875 25.515625  Q 47.21875 21.78125 47.21875 15.09375  Q 47.21875 7.46875 41.1875 3.015625  Q 35.15625 -1.421875 24.609375 -1.421875  Q 20.21875 -1.421875 15.453125 -0.5625  Q 10.6875 0.296875 5.421875 2  L 5.421875 11.28125  Q 10.40625 8.6875 15.234375 7.390625  Q 20.0625 6.109375 24.8125 6.109375  Q 31.15625 6.109375 34.5625 8.28125  Q 37.984375 10.453125 37.984375 14.40625  Q 37.984375 18.0625 35.515625 20.015625  Q 33.0625 21.96875 24.703125 23.78125  L 21.578125 24.515625  Q 13.234375 26.265625 9.515625 29.90625  Q 5.8125 33.546875 5.8125 39.890625  Q 5.8125 47.609375 11.28125 51.796875  Q 16.75 56 26.8125 56  Q 31.78125 56 36.171875 55.265625  Q 40.578125 54.546875 44.28125 53.078125  z "
             id="DejaVuSans-115" />
          <path
             d="M 19.671875 34.8125  L 19.671875 8.109375  L 35.5 8.109375  Q 43.453125 8.109375 47.28125 11.40625  Q 51.125 14.703125 51.125 21.484375  Q 51.125 28.328125 47.28125 31.5625  Q 43.453125 34.8125 35.5 34.8125  z M 19.671875 64.796875  L 19.671875 42.828125  L 34.28125 42.828125  Q 41.5 42.828125 45.03125 45.53125  Q 48.578125 48.25 48.578125 53.8125  Q 48.578125 59.328125 45.03125 62.0625  Q 41.5 64.796875 34.28125 64.796875  z M 9.8125 72.90625  L 35.015625 72.90625  Q 46.296875 72.90625 52.390625 68.21875  Q 58.5 63.53125 58.5 54.890625  Q 58.5 48.1875 55.375 44.234375  Q 52.25 40.28125 46.1875 39.3125  Q 53.46875 37.75 57.5 32.78125  Q 61.53125 27.828125 61.53125 20.40625  Q 61.53125 10.640625 54.890625 5.3125  Q 48.25 0 35.984375 0  L 9.8125 0  z "
             id="DejaVuSans-66" />
          <path
             d="M 34.28125 27.484375  Q 23.390625 27.484375 19.1875 25  Q 14.984375 22.515625 14.984375 16.5  Q 14.984375 11.71875 18.140625 8.90625  Q 21.296875 6.109375 26.703125 6.109375  Q 34.1875 6.109375 38.703125 11.40625  Q 43.21875 16.703125 43.21875 25.484375  L 43.21875 27.484375  z M 52.203125 31.203125  L 52.203125 0  L 43.21875 0  L 43.21875 8.296875  Q 40.140625 3.328125 35.546875 0.953125  Q 30.953125 -1.421875 24.3125 -1.421875  Q 15.921875 -1.421875 10.953125 3.296875  Q 6 8.015625 6 15.921875  Q 6 25.140625 12.171875 29.828125  Q 18.359375 34.515625 30.609375 34.515625  L 43.21875 34.515625  L 43.21875 35.40625  Q 43.21875 41.609375 39.140625 45  Q 35.0625 48.390625 27.6875 48.390625  Q 23 48.390625 18.546875 47.265625  Q 14.109375 46.140625 10.015625 43.890625  L 10.015625 52.203125  Q 14.9375 54.109375 19.578125 55.046875  Q 24.21875 56 28.609375 56  Q 40.484375 56 46.34375 49.84375  Q 52.203125 43.703125 52.203125 31.203125  z "
             id="DejaVuSans-97" />
          <path
             d="M 41.109375 46.296875  Q 39.59375 47.171875 37.8125 47.578125  Q 36.03125 48 33.890625 48  Q 26.265625 48 22.1875 43.046875  Q 18.109375 38.09375 18.109375 28.8125  L 18.109375 0  L 9.078125 0  L 9.078125 54.6875  L 18.109375 54.6875  L 18.109375 46.1875  Q 20.953125 51.171875 25.484375 53.578125  Q 30.03125 56 36.53125 56  Q 37.453125 56 38.578125 55.875  Q 39.703125 55.765625 41.0625 55.515625  z "
             id="DejaVuSans-114" />
          <path
             id="DejaVuSans-32" />
          <path
             d="M 10.59375 45.40625  L 73.1875 45.40625  L 73.1875 37.203125  L 10.59375 37.203125  z M 10.59375 25.484375  L 73.1875 25.484375  L 73.1875 17.1875  L 10.59375 17.1875  z "
             id="DejaVuSans-61" />
        </defs>
        <g
           transform="translate(208.365981 51.6)scale(0.12 -0.12)"
           id="g411">
          <use
             xlink:href="#DejaVuSans-105"
             id="use391" />
          <use
             x="27.783203"
             xlink:href="#DejaVuSans-115"
             id="use393" />
          <use
             x="79.882812"
             xlink:href="#DejaVuSans-66"
             id="use395" />
          <use
             x="148.486328"
             xlink:href="#DejaVuSans-97"
             id="use397" />
          <use
             x="209.765625"
             xlink:href="#DejaVuSans-114"
             id="use399" />
          <use
             x="248.628906"
             xlink:href="#DejaVuSans-101"
             id="use401" />
          <use
             x="310.152344"
             xlink:href="#DejaVuSans-32"
             id="use403" />
          <use
             x="341.939453"
             xlink:href="#DejaVuSans-61"
             id="use405" />
          <use
             x="425.728516"
             xlink:href="#DejaVuSans-32"
             id="use407" />
          <use
             x="457.515625"
             xlink:href="#DejaVuSans-49"
             id="use409" />
        </g>
      </g>
    </g>
    <ellipse
       style="fill:#ffffff;fill-opacity:1;stroke:#ffffff;stroke-width:2.48898;stroke-miterlimit:4;stroke-dasharray:none;stroke-opacity:1"
       id="path6972-9-177-921-38"
       cx="210.82516"
       cy="175.42375"
       rx="2.2508273"
       ry="2.1471865" />
    <circle
       style="fill:#fd0300;fill-opacity:1;stroke:#fd0300;stroke-width:3.65077;stroke-miterlimit:4;stroke-dasharray:none;stroke-opacity:1"
       id="path6972-5"
       cx="208.4191"
       cy="178.23984"
       r="3.2245464" />
    <circle
       style="fill:#2321ff;fill-opacity:1;stroke:#2321ff;stroke-width:3.65077;stroke-miterlimit:4;stroke-dasharray:none;stroke-opacity:1"
       id="path6972-3-2"
       cx="208.67668"
       cy="266.74908"
       r="3.2245464" />
    <path
       style="mix-blend-mode:screen;fill:#1200fd;fill-opacity:1;stroke:url(#linearGradient29193);stroke-width:2.36469;stroke-linecap:butt;stroke-linejoin:miter;stroke-miterlimit:4;stroke-dasharray:none;stroke-opacity:1"
       d="m 208.51407,178.40752 v 87.12746"
       id="path7329-6-1" />
    <path
       style="mix-blend-mode:screen;fill:url(#linearGradient29195);fill-opacity:1;stroke:url(#linearGradient29197);stroke-width:2.36543;stroke-linecap:butt;stroke-linejoin:miter;stroke-miterlimit:4;stroke-dasharray:none;stroke-opacity:1"
       d="M 208.51407,265.53498 V 178.40752"
       id="path7329-6-5-8" />
    <path
       style="fill:none;stroke:#000000;stroke-width:0.829126px;stroke-linecap:butt;stroke-linejoin:miter;stroke-opacity:1;marker-end:url(#Arrow2Lend-6)"
       d="m 208.51405,221.27076 0.293,6.15591"
       id="path27203-9"
       sodipodi:nodetypes="cc" />
    <g
       transform="matrix(0.86784281,0,0,0.86784281,218.81714,217.49213)"
       id="g33390">
      <svg
         version="1.1"
         id="svg33388"
         width="100%"
         height="100%">
        <path
           d="m 3.8199999,-0.22890002 c 0.3466661,6e-8 0.5399998,0.18000037 0.5800002,0.54 -5e-7,3e-8 -0.1200004,0.52000048 -0.3600001,1.56000042 l -0.4000001,1.56 c 0.5599999,-0.186667 1.2266664,-0.5999999 2,-1.2400003 C 5.813333,2.0577669 6,1.9044342 6.1999998,1.7311006 7.2533326,0.85110092 8.0866661,0.31110096 8.6999998,0.11110016 8.9666662,0.03110027 9.2266655,-0.00889969 9.4799995,-0.00889976 9.9733324,-0.00889969 10.24,0.2244339 10.28,0.6911006 10.279999,1.0911007 10.099999,1.3977671 9.7399998,1.6111002 9.5666656,1.7177672 9.3866653,1.771101 9.1999998,1.7711005 8.746666,1.7044334 8.4933329,1.4711003 8.4399996,1.0711002 8.4399996,0.95110083 8.4733334,0.80443382 8.54,0.63110012 7.9933329,0.85776711 7.2666659,1.3577671 6.3599997,2.1311002 c -0.040001,0.026667 -0.08,0.06 -0.1199999,0.1000004 C 5.4666662,2.8977671 4.853333,3.3511 4.4000001,3.5911002 c 2.5866661,0.093333 3.8799996,0.7800002 3.8799996,2.06 0,0.1333332 -0.033334,0.3533334 -0.1000003,0.6599998 -0.1066676,0.4533339 -0.1600008,0.8266668 -0.1599999,1.1200004 -9e-7,0.6399998 0.2133331,0.9599995 0.6400003,0.9599995 C 9.2866659,8.3910999 9.7999992,7.7911 10.2,6.5911002 10.266666,6.3911004 10.333333,6.1644335 10.4,5.9111004 10.506666,5.6844339 10.599998,5.5644341 10.679999,5.5511003 10.84,5.5511007 10.92,5.6177673 10.92,5.7511005 10.92,5.9644337 10.793333,6.3911004 10.54,7.0311003 10.433332,7.3244333 10.313333,7.5777669 10.179999,7.7911 9.7666655,8.4844332 9.246666,8.8311005 8.6199999,8.8311005 7.8866663,8.8311005 7.353333,8.5110998 7.02,7.8711004 6.8599997,7.5644336 6.7799997,7.2244339 6.7799997,6.8511 c 0,-0.1999998 0.033333,-0.433333 0.1,-0.6999998 0.026667,-0.1333332 0.04,-0.2799998 0.04,-0.4399996 4e-7,-1.0533333 -1.14,-1.6199999 -3.4199997,-1.7000003 L 2.5599999,7.7111001 c -0.1466667,0.5733333 -0.3133335,0.9133334 -0.5,1.02 v 0.02 c -0.093333,0.053333 -0.22,0.08 -0.3800001,0.08 C 1.3466666,8.7644339 1.1533332,8.5844336 1.1,8.2911005 c -1e-7,-0.1199999 0.026666,-0.2733335 0.08,-0.46 L 3.02,0.49110034 c 0.1199996,-0.47999957 0.3866663,-0.7200003 0.7999999,-0.72000036 z"
           fill="#000000"
           id="path33386" />
      </svg>
    </g>
  </g>
  <defs
     id="defs419">
    <clipPath
       id="p9b4a97ba4d">
      <rect
         height="316.8"
         width="316.113488"
         x="81.577674"
         y="57.6"
         id="rect416" />
    </clipPath>
  </defs>
</svg>
